*
*
G04 PADS9.0 Build Number: 341147 generated Gerber (RS-274-X) file*
G04 PC Version=2.1*
*
%IN "ADXL340(final)05-16V2.p"*%
*
%MOIN*%
*
%FSLAX35Y35*%
*
*
*
*
G04 PC Standard Apertures*
*
*
G04 Thermal Relief Aperture macro.*
%AMTER*
1,1,$1,0,0*
1,0,$1-$2,0,0*
21,0,$3,$4,0,0,45*
21,0,$3,$4,0,0,135*
%
*
*
G04 Annular Aperture macro.*
%AMANN*
1,1,$1,0,0*
1,0,$2,0,0*
%
*
*
G04 Odd Aperture macro.*
%AMODD*
1,1,$1,0,0*
1,0,$1-0.005,0,0*
%
*
*
G04 PC Custom Aperture Macros*
*
*
*
*
*
*
G04 PC Aperture Table*
*
%ADD015R,0.088X0.088*%
%ADD016R,0.045X0.045*%
%ADD021R,0.06X0.06*%
%ADD022C,0.06*%
%ADD023C,0.07874*%
%ADD024C,0.01063*%
%ADD025R,0.05X0.05*%
%ADD028C,0.07*%
%ADD029R,0.15748X0.15748*%
%ADD030C,0.01*%
%ADD031C,0.02*%
%ADD032C,0.012*%
%ADD033C,0.03*%
%ADD036C,0.015*%
%ADD038C,0.001*%
*
*
*
*
G04 PC Circuitry*
G04 Layer Name ADXL340(final)05-16V2.p - circuitry*
%LPD*%
*
*
G04 PC Custom Flashes*
G04 Layer Name ADXL340(final)05-16V2.p - flashes*
%LPD*%
*
*
G04 PC Circuitry*
G04 Layer Name ADXL340(final)05-16V2.p - circuitry*
%LPD*%
*
G54D15*
G01X2054063Y1738277D02*
Y1739477D01*
X2040563Y1738277D02*
Y1739477D01*
X2037448Y1702016D02*
Y1703216D01*
X2023948Y1702016D02*
Y1703216D01*
X1993004Y1698117D02*
X1994204D01*
X1993004Y1711617D02*
X1994204D01*
G54D16*
X2000697Y1630114D03*
X1992497D03*
X1982880Y1644134D03*
X1974680D03*
X1939464Y1621244D03*
X1931264D03*
X1888510Y1566566D03*
Y1558366D03*
X1887695Y1546521D03*
Y1538321D03*
X1888313Y1500561D03*
Y1508761D03*
X1889277Y1481964D03*
Y1473764D03*
X2135262Y1710830D03*
X2143462D03*
X2156619Y1676519D03*
X2148419D03*
X2111648Y1681304D03*
X2119848D03*
X2130487Y1681242D03*
X2138687D03*
X2188805Y1673356D03*
X2180605D03*
X2157111Y1713404D03*
X2165311D03*
X2117826Y1711693D03*
X2126026D03*
X1936106Y1514698D03*
X1944306D03*
X2015988Y1596507D03*
X2007788D03*
X2016227Y1584067D03*
X2008027D03*
X2016215Y1575515D03*
X2008015D03*
X2018117Y1560460D03*
X2009917D03*
X2019594Y1548728D03*
X2011394D03*
X2019149Y1535867D03*
X2010949D03*
X2016526Y1526932D03*
X2008326D03*
X2016479Y1514531D03*
X2008279D03*
X2016467Y1504474D03*
X2008267D03*
X1984315Y1515913D03*
X1992515D03*
X1809075Y1524202D03*
Y1516002D03*
X1809474Y1533618D03*
Y1541818D03*
X1984021Y1505054D03*
X1992221D03*
X1960401Y1515014D03*
X1952201D03*
X2019152Y1484287D03*
X2010952D03*
X2018504Y1474676D03*
X2010304D03*
G54D21*
X2052223Y1697322D03*
X2210762Y1631202D03*
X2078588Y1609994D03*
X2172712Y1597918D03*
X2150266Y1600193D03*
X2210523Y1724721D03*
X1835156Y1573476D02*
X1837756D01*
X1835769Y1591193D02*
X1838369D01*
X1871202Y1573476D02*
X1873802D01*
X1871005Y1591193D02*
X1873605D01*
X1872504Y1554398D02*
X1869904D01*
X1871892Y1536682D02*
X1869292D01*
X1836459Y1554398D02*
X1833859D01*
X1836656Y1536682D02*
X1834056D01*
X1833609Y1496573D02*
X1836209D01*
X1834221Y1514290D02*
X1836821D01*
X1869654Y1496573D02*
X1872254D01*
X1869457Y1514290D02*
X1872057D01*
X1872028Y1479833D02*
X1869428D01*
X1871416Y1462117D02*
X1868816D01*
X1835983Y1479833D02*
X1833383D01*
X1836179Y1462117D02*
X1833579D01*
X2209872Y1538459D03*
X2126909Y1724735D03*
X2030144Y1559972D03*
X2000038Y1608125D03*
X1806292Y1569189D03*
X2124376Y1597507D02*
X2121776D01*
X2123763Y1579791D02*
X2121163D01*
X2088330Y1597507D02*
X2085730D01*
X2088527Y1579791D02*
X2085927D01*
G54D22*
X2112776Y1555509D03*
Y1545509D03*
Y1535509D03*
X2062223Y1697322D03*
X2052223Y1687322D03*
X2062223D03*
X2052223Y1677322D03*
X2062223D03*
X2052223Y1667322D03*
X2062223D03*
X2208337Y1501117D03*
Y1521117D03*
X2059854Y1640287D03*
Y1630287D03*
Y1620287D03*
X2210762Y1641202D03*
Y1651202D03*
Y1661202D03*
Y1671202D03*
Y1681202D03*
Y1691202D03*
Y1701202D03*
X2078588Y1619994D03*
Y1629994D03*
X2172712Y1607918D03*
X2150266Y1610193D03*
X2200523Y1724721D03*
X2190523D03*
X2180523D03*
X2170523D03*
X2160523D03*
X2150523D03*
X2140523D03*
X2209872Y1548459D03*
Y1558459D03*
Y1568459D03*
Y1578459D03*
Y1588459D03*
Y1598459D03*
Y1608459D03*
X2116909Y1724735D03*
X2106909D03*
X2096909D03*
X2086909D03*
X2076909D03*
X2066909D03*
X2056909D03*
X2132885Y1586505D03*
Y1596505D03*
Y1606505D03*
X2040144Y1559972D03*
X2030144Y1569972D03*
X2040144D03*
X2030144Y1579972D03*
X2040144D03*
X2030144Y1589972D03*
X2040144D03*
X2030144Y1599972D03*
X2040144D03*
X2030144Y1609972D03*
X2040144D03*
X2030144Y1619972D03*
X2040144D03*
X2030144Y1629972D03*
X2040144D03*
X2000038Y1618125D03*
X1796292Y1569189D03*
X1806292Y1579189D03*
X1796292D03*
X1806292Y1589189D03*
X1796292D03*
X1806292Y1599189D03*
X1796292D03*
X1806292Y1609189D03*
X1796292D03*
X1806292Y1619189D03*
X1796292D03*
X1806292Y1629189D03*
X1796292D03*
X1806292Y1639189D03*
X1796292D03*
X1806292Y1649189D03*
X1796292D03*
X1806292Y1659189D03*
X1796292D03*
G54D23*
X2130058Y1639539D03*
X2110373D03*
G54D24*
X1993802Y1568426D02*
X1986991D01*
X1993802Y1566457D02*
X1986991D01*
X1993802Y1564489D02*
X1986991D01*
X1993802Y1562520D02*
X1986991D01*
X1993802Y1560552D02*
X1986991D01*
X1993802Y1558583D02*
X1986991D01*
X1993802Y1556615D02*
X1986991D01*
X1993802Y1554646D02*
X1986991D01*
X1993802Y1552678D02*
X1986991D01*
X1993802Y1550709D02*
X1986991D01*
X1993802Y1548741D02*
X1986991D01*
X1993802Y1546772D02*
X1986991D01*
X1993802Y1544804D02*
X1986991D01*
X1993802Y1542835D02*
X1986991D01*
X1993802Y1540867D02*
X1986991D01*
X1993802Y1538898D02*
X1986991D01*
X1993802Y1536930D02*
X1986991D01*
X1993802Y1534961D02*
X1986991D01*
X1993802Y1532993D02*
X1986991D01*
X1993802Y1531024D02*
X1986991D01*
X1993802Y1529056D02*
X1986991D01*
X1993802Y1527087D02*
X1986991D01*
X1993802Y1525119D02*
X1986991D01*
X1993802Y1523150D02*
X1986991D01*
X1961125D02*
X1954314D01*
X1961125Y1525119D02*
X1954314D01*
X1961125Y1527087D02*
X1954314D01*
X1961125Y1529056D02*
X1954314D01*
X1961125Y1531024D02*
X1954314D01*
X1961125Y1532993D02*
X1954314D01*
X1961125Y1534961D02*
X1954314D01*
X1961125Y1536930D02*
X1954314D01*
X1961125Y1538898D02*
X1954314D01*
X1961125Y1540867D02*
X1954314D01*
X1961125Y1542835D02*
X1954314D01*
X1961125Y1544804D02*
X1954314D01*
X1961125Y1546772D02*
X1954314D01*
X1961125Y1548741D02*
X1954314D01*
X1961125Y1550709D02*
X1954314D01*
X1961125Y1552678D02*
X1954314D01*
X1961125Y1554646D02*
X1954314D01*
X1961125Y1556615D02*
X1954314D01*
X1961125Y1558583D02*
X1954314D01*
X1961125Y1560552D02*
X1954314D01*
X1961125Y1562520D02*
X1954314D01*
X1961125Y1564489D02*
X1954314D01*
X1961125Y1566457D02*
X1954314D01*
X1961125Y1568426D02*
X1954314D01*
G54D25*
X2090866Y1554277D02*
Y1553777D01*
Y1542777D02*
Y1542277D01*
G54D28*
X1875513Y1700343D03*
X1864713D03*
X1853913D03*
X1843113D03*
X1832313D03*
X1870113Y1711743D03*
X1859313D03*
X1848513D03*
X1837713D03*
G54D29*
X1906866Y1706043D02*
X1900961D01*
X1806866D02*
X1800961D01*
G54D30*
X2189541Y1459801D02*
X2161607D01*
X2145459Y1475949*
X2145459D02*
Y1636820D01*
X2145532Y1637004*
X1834683Y1479833D02*
X1870728D01*
X1888182*
Y1479869*
X1889277Y1480964*
X1914983Y1506670*
X1970458*
X1975949Y1512162*
Y1572076*
X1972456Y1575569*
X1956010*
X1953303Y1578276*
Y1599845*
X1956622Y1603163*
Y1611022*
X1954439Y1613276*
X1948259*
X2003791Y1484048D02*
X1999763Y1488075D01*
Y1541235*
X1998163Y1542835*
X1990396*
X2003791Y1484048D02*
X2011712D01*
X2011952Y1484287*
X2014948Y1471032D02*
X2023820D01*
X2028743Y1475955*
Y1487818*
X2032441Y1491516*
X2065411*
X2076658Y1502763*
Y1595167*
X2051853Y1619972*
X2040144*
X2014948Y1471032D02*
X2011304Y1474676D01*
X2011880Y1484359D02*
Y1490703D01*
X2016354Y1495178*
X2058859*
X2072352Y1508671*
Y1592237*
X2049686Y1614903*
X2035212*
X2030144Y1619972*
X2011880Y1484359D02*
X2011875Y1484364D01*
X2011304Y1474676D02*
X2011217Y1474763D01*
X2003038*
X1998063Y1479737*
Y1537368*
X1996533Y1538898*
X1990396*
X2011952Y1484287D02*
X2011875Y1484364D01*
X2186395Y1465358D02*
X2166930D01*
X2154976Y1477312*
Y1636934*
X2152456Y1639454*
X1888313Y1501561D02*
X1905493D01*
X1912631Y1508698*
X1968133*
X1973996Y1514561*
Y1571164*
X1971596Y1573564*
X1953292*
X1951031Y1575825*
Y1585953*
X1948686Y1588298*
X1834909Y1496573D02*
X1870954D01*
X1883325*
X1888313Y1501561*
X2012074Y1499553D02*
X2056335D01*
X2069171Y1512389*
Y1587701*
X2046901Y1609972*
X2040144*
X2012074Y1499553D02*
X2009311Y1502316D01*
Y1504429*
X2009267Y1504474*
X2009104*
X2001622Y1511955*
Y1543911*
X2000729Y1544804*
X1990396*
X1809112Y1523165D02*
X1809075Y1523202D01*
X1872787Y1514189D02*
X1871167D01*
X1871065Y1514290*
X1870757*
X1898986Y1518663D02*
Y1572983D01*
X1921033Y1515988D02*
Y1527200D01*
X1925973Y1511049D02*
X1939656D01*
X1943306Y1514698*
X1921033Y1515988D02*
X1925973Y1511049D01*
X1939656*
X1943306Y1514698*
X1936850Y1520832D02*
X1939095Y1523077D01*
X1957645*
X1957719Y1523150*
X1937106Y1514698D02*
X1936857Y1516259D01*
Y1516855*
X1938939Y1518938*
X1968139Y1515016D02*
X1960043D01*
X1960218Y1515191*
X1962876*
X1968153Y1520468*
Y1555103*
X1966642Y1556615*
X1957719*
X1968139Y1515016D02*
X1960043D01*
X1959401Y1515014D02*
X1958969D01*
X1955045Y1518938*
X1963644*
X1965861Y1521155*
Y1533182*
X1964082Y1534961*
X1958659*
X1959401Y1515014D02*
X1958969D01*
X1955045Y1518938*
X1938939*
X1959401Y1515014D02*
X1959404Y1515016D01*
X1960043*
X1959401Y1515014D02*
X1960040D01*
X1960043Y1515016*
X1984925Y1504958D02*
X1981437D01*
X1978144Y1508252*
Y1554909*
X1979850Y1556615*
X1990396*
X1984925Y1504958D02*
X1985021Y1505054D01*
X1985315Y1515913D02*
Y1520841D01*
X1983672Y1522950*
Y1526044*
X1985315Y1515913D02*
Y1516343D01*
X1981977*
X1980188Y1518132*
Y1532733*
X1982416Y1534961*
X1990396*
X1985315Y1515913D02*
Y1520841D01*
X1983672Y1522950*
Y1524364*
X1990396Y1523150D02*
X1984885D01*
X1983672Y1524364*
X1991515Y1515396D02*
Y1515602D01*
X1996195Y1520282*
Y1528563*
X1995702Y1529056*
X1990396*
X2013213Y1522398D02*
X2026945D01*
X2028898Y1524351*
Y1530272*
X2031410Y1532784*
X2048151*
X2057410Y1542042*
Y1589236*
X2046674Y1599972*
X2040144*
X2013213Y1522398D02*
X2009386Y1526225D01*
Y1526872*
X2009326Y1526932*
X2009279Y1514531D02*
X2009244Y1514566D01*
X2006566*
X2003578Y1517553*
Y1545867*
X2002673Y1546772*
X1990396*
X2009279Y1514531D02*
Y1514553D01*
X2013624Y1518898*
X2030270Y1506139D02*
X2055997D01*
X2066776Y1516918*
Y1583997*
X2046101Y1604672*
X2035444*
X2030144Y1609972*
X2030270Y1506139D02*
X2028429Y1507980D01*
Y1515958*
X2025489Y1518898*
X2013624*
X1809474Y1534618D02*
X1809499Y1534643D01*
X1827907*
X1835356Y1536682D02*
X1832741Y1539296D01*
X1810995*
X1809474Y1540818*
X1870592Y1536682D02*
X1835356D01*
X1905892Y1530164D02*
X1912299D01*
X1919093Y1536958*
X1957577*
X1904268Y1539373D02*
X1909807Y1544912D01*
X1904099Y1544126D02*
X1906881Y1546908D01*
X1907320Y1536521D02*
X1911029D01*
X1915410Y1540901*
X1958534*
X1910933Y1533012D02*
X1916693Y1538772D01*
X1957593*
X1957719Y1538898*
X1910837Y1540770D02*
X1912902Y1542835D01*
X1957719*
X1921033Y1527200D02*
X1922889Y1529056D01*
X1957719*
X1958534Y1540901D02*
X1963369D01*
X1964810Y1542343*
Y1548908*
X1963009Y1550709*
X1957719*
Y1540867D02*
X1957754Y1540901D01*
X1958534*
X1957719Y1536930D02*
X1957577Y1536958D01*
X1985070Y1540918D02*
X1982893Y1543096D01*
Y1549440*
X1984162Y1550709*
X1990396*
X1982316Y1538163D02*
X1985070Y1540918D01*
X1982893Y1543096*
Y1549440*
X1984162Y1550709*
X1990396*
X1982058Y1538207D02*
X1982316Y1538163D01*
X1985070Y1540918*
X1990396Y1529056D02*
X1990263Y1529189D01*
X1984077*
X1983058Y1530207*
X1990396Y1540867D02*
Y1540918D01*
X1985070*
X1982893Y1543096*
Y1549440*
X1984162Y1550709*
X1990396*
Y1540867D02*
Y1540918D01*
X1985070*
X2009326Y1526932D02*
X2005560Y1530697D01*
Y1546726*
X2003546Y1548741*
X1990396*
X2011949Y1535867D02*
X2009950Y1535898D01*
Y1538267*
X2007315Y1540902*
Y1551634*
X2004166Y1554784*
X2011949Y1535867D02*
X2012141D01*
X2016999Y1540725*
X2044196*
X2050257Y1546786*
Y1587405*
X2043019Y1594643*
X2035473*
X2030144Y1599972*
X2040779Y1542775D02*
X2047639Y1549635D01*
Y1583497*
X2041233Y1589903*
X2040213*
X2040144Y1589972*
X2083423Y1542475D02*
X2081058Y1544839D01*
Y1549207*
X2083423Y1542475D02*
X2090814D01*
X1835159Y1554398D02*
X1871204D01*
X1887695Y1545521D02*
X1875232D01*
X1871169Y1549584*
Y1554398*
X1871204*
X1887695Y1545521D02*
X1887826Y1545652D01*
X1887678*
X1894992Y1552965*
Y1578240*
X1899110Y1582558*
X1941306*
X1908383Y1564252D02*
X1910483Y1566558D01*
X1904282Y1552754D02*
Y1555304D01*
X1903101Y1556484*
Y1562630*
X1903668Y1563197*
X1905371*
X1914774Y1561269D02*
X1907300D01*
X1905371Y1563197*
X1914774Y1561269D02*
X1917131Y1563626D01*
X1938948Y1554556D02*
X1957628D01*
X1957719Y1554646*
X1938948Y1554556D02*
X1936899Y1556605D01*
Y1562434*
X1932775Y1566558*
X1910483*
X1942254Y1558532D02*
X1957668D01*
X1957719Y1558583*
X1942254Y1558532D02*
X1940521Y1560264D01*
Y1568692*
X1938721Y1570491*
X1913139*
X1911229Y1572255*
X1948611Y1564486D02*
X1957717D01*
X1957719Y1564489*
X1948611Y1564486D02*
X1946712Y1566386D01*
Y1576781*
X1944375Y1579118*
X1918321*
X1957710Y1548731D02*
X1904426D01*
X1904278Y1548879*
X1957710Y1548731D02*
X1957719Y1548741D01*
X1957715Y1552674D02*
X1935112D01*
X1933581Y1554204*
X1908219*
X1906221Y1557385*
Y1558580*
X1957715Y1552674D02*
X1957719Y1552678D01*
Y1562520D02*
X1946459D01*
X1944942Y1564037*
Y1575151*
X1944118Y1575975*
X1927500*
X1957719Y1560552D02*
X1943986Y1560555D01*
X1942299Y1562241*
Y1571109*
X1940703Y1572706*
X1917294*
X1915061Y1574294*
X1957719Y1550709D02*
X1907058D01*
X1905014Y1552754*
X1904282*
X1957719Y1546772D02*
X1957583Y1546908D01*
X1906881*
X1957719Y1544804D02*
X1957611Y1544912D01*
X1909807*
X1970125Y1557958D02*
X1970161Y1563094D01*
X1964862Y1568392*
X1957719Y1568426*
X1990396Y1550709D02*
X2001145D01*
X2002206Y1551770*
X1990396Y1552678D02*
X1996432D01*
X1998539Y1554784*
X2004166*
X1990396Y1554646D02*
X1995706D01*
X1997723Y1556663*
X2006067*
X1990396Y1560552D02*
X2000915D01*
X2005033Y1564670*
Y1574946*
X2005646Y1575559*
X2008971*
X1990396Y1562520D02*
X1999828D01*
X2002166Y1564858*
Y1568852*
X1990396Y1564489D02*
X1997842D01*
X1998106Y1564754*
X1998106D02*
X1999155Y1566180D01*
Y1581314*
X2002048Y1584207*
X2012394Y1548728D02*
X2012290Y1548831D01*
Y1550439*
X2006067Y1556663*
X2010917Y1560460D02*
X2010961D01*
X2014927Y1564427*
X2041578*
X2044687Y1567536*
Y1582580*
X2042247Y1585020*
X2035096*
X2030144Y1589972*
Y1559897D02*
Y1559972D01*
X1888510Y1565566D02*
X1880599Y1573476D01*
X1872502*
X1888510Y1565566D02*
X1889066Y1565633D01*
X1892310Y1568877*
Y1583441*
X1897378Y1588462*
X1941560*
X1872502Y1573476D02*
X1836456D01*
X1927500Y1575975D02*
X1917414D01*
X1915182Y1578207*
X1902058*
X1937571Y1566353D02*
X1935874Y1568791D01*
X1903178*
X1898986Y1572983*
X1957719Y1566457D02*
X1950767Y1566515D01*
X1948483Y1568800*
Y1582626*
X1945554Y1585554*
X1921317Y1585616*
X1988665Y1580251D02*
X1964233D01*
X1961126Y1583591*
Y1622086*
X1985398Y1577378D02*
X1962134D01*
X1958272Y1581240*
Y1618103*
X1982220Y1583674D02*
X1964431Y1601464D01*
Y1614066*
X1979270Y1568426D02*
X1990396D01*
X1990399Y1568423D02*
X1994126D01*
X1994890Y1569187*
Y1587200*
X1984198Y1597892*
Y1619159*
X1990399Y1568423D02*
X1990396Y1568426D01*
X2009015Y1575515D02*
X2008971Y1575559D01*
X2009027Y1584067D02*
Y1584106D01*
X2012631Y1587710*
X2009027Y1584067D02*
X2008887Y1584207D01*
X2002048*
X1990396Y1566457D02*
X1995523D01*
X1997256Y1568190*
Y1593271*
X2000676Y1596691*
X2008604*
X2009015Y1575515D02*
X2012874Y1571655D01*
X2022436*
X2026178Y1575397*
X2035569*
X2040144Y1579972*
X2030144D02*
X2028655Y1579993D01*
X2020938Y1587710*
X2012631*
X2087227Y1579791D02*
X2122463D01*
X1842097Y1586024D02*
X1867136D01*
X1872305Y1591193*
X1842097Y1586024D02*
Y1586165D01*
X1837069Y1591193*
X1844717Y1594537D02*
Y1603042D01*
X1847552Y1605877*
X1953678*
X1837069Y1591193D02*
Y1591489D01*
X1833695*
X1867136Y1586024D02*
X1842097D01*
Y1586165*
X1837069Y1591193*
X1867136Y1586024D02*
X1872305Y1591193D01*
X1903391Y1598305D02*
X1914805D01*
X1937928Y1591306D02*
X1931602D01*
X1931359Y1591549*
X1931058Y1591629*
X1974890Y1585277D02*
X1969555D01*
X1966333Y1588553*
X1992072Y1584859D02*
X1985884Y1591047D01*
X1979814*
X1967589Y1603272*
Y1624644*
X2008788Y1596507D02*
Y1601961D01*
X2011770Y1604943*
X2023196*
X2008788Y1596507D02*
X2008604Y1596691D01*
X2087030Y1597507D02*
X2086334Y1598203D01*
Y1631409*
X2083112Y1634631*
X2034529*
X2123076Y1597507D02*
X2087030D01*
X1806292Y1609189D02*
X1806485Y1609340D01*
X1929787*
X1826152Y1605136D02*
X1810324D01*
X1807851Y1607630*
X1806292Y1609189*
X1932892Y1620616D02*
X1932264Y1621244D01*
X1945354Y1609123D02*
X1936810D01*
X1936734*
X1935583Y1610274*
Y1614969*
X1933849Y1616702*
X1927094*
X1932509Y1612895D02*
X1813832D01*
X1812005Y1615015*
Y1623476*
X1806292Y1629189*
X1945354Y1609123D02*
Y1616184D01*
X1947727Y1618557*
X1951558*
X1958556Y1625555*
X1963421*
X1950697Y1622119D02*
X1946800Y1624978D01*
X1904815*
X2005674Y1613523D02*
X1994112D01*
X1991417Y1616218*
Y1619706*
X2005674Y1613523D02*
X2007065Y1614914D01*
X2019252*
X2021858Y1620974D02*
X2004965D01*
X2002346Y1623594*
X1990902*
X2021858Y1620974D02*
X2026456Y1625572D01*
X2074166*
X2078588Y1629994*
X1955040Y1632463D02*
Y1674820D01*
X1948797Y1681064*
X1919862*
X1950481Y1632934D02*
Y1640902D01*
X1980817Y1630517D02*
X1986146D01*
X1991639Y1636010*
Y1644196*
X1993853Y1646409*
X2001981*
X1980817Y1630517D02*
X1978846Y1632488D01*
Y1636757*
X1981896Y1639807*
Y1644118*
X1981880Y1644134*
X1975397Y1643851D02*
X1975680Y1644134D01*
X1982484Y1633851D02*
X1986037D01*
X1987739Y1635553*
Y1645217*
X1991884Y1649362*
X2037398*
X1981880Y1644134D02*
X1981758Y1644256D01*
X1991639Y1636010D02*
Y1644196D01*
X1993853Y1646409*
X2001981*
X1997017Y1642461D02*
X2024873D01*
X2028586Y1646174*
X2044205*
X1999697Y1630114D02*
X1999790Y1630207D01*
Y1632489*
X1998381Y1633897*
X1993753*
X1991639Y1636010*
X2020113Y1629481D02*
X2027090Y1636457D01*
X2036224*
X2039328Y1639561*
Y1643060*
X2047565*
X2057202Y1652697*
Y1682343*
X2052223Y1687322*
X2030144Y1629972D02*
X2034529Y1634631D01*
X2059854Y1640287D02*
X2060188Y1640621D01*
X2113614Y1629207D02*
X2117235Y1632829D01*
Y1642969*
X2113614Y1646591*
Y1652334*
X2116322Y1655042*
X2126853*
X2129561Y1657749*
Y1671716*
X2210762Y1641202D02*
X2198262D01*
X2191028Y1648855*
X2124528*
X2210762Y1631202D02*
X2200817D01*
X2186338Y1645681*
X2119572*
X2007051Y1655473D02*
X2006987Y1655537D01*
X1998813*
X2007051Y1655473D02*
X2012243Y1659258D01*
X2035874*
X2008076Y1652726D02*
X1986557D01*
X2048112Y1648237D02*
Y1658916D01*
X2046236Y1660792*
Y1701198*
X2050132Y1705095*
X2040433Y1649110D02*
X2037398Y1649362D01*
X2152583Y1654552D02*
X2197682D01*
X2204332Y1661202*
X2210762*
Y1651202D02*
X2210248Y1651716D01*
X2128874*
X1903080Y1667207D02*
X1836060D01*
X1821060Y1682207*
Y1725431*
X1821093Y1746350*
X1903080Y1667207D02*
X1905373D01*
X1919229Y1681064*
X1919862*
X1986557Y1673945D02*
X1986721Y1674110D01*
X2210762Y1680694D02*
X2156133D01*
X2152365Y1684462*
Y1690170*
X2210762Y1680694D02*
Y1681202D01*
Y1671202D02*
X2216977Y1677418D01*
Y1695601*
X2215937Y1696641*
X1858569Y1688637D02*
X1829338D01*
X1825778Y1692197*
Y1714701*
X1831399Y1720322*
X1842240*
X1852856Y1730938*
X2008064*
X1858569Y1688637D02*
X1864713Y1694781D01*
Y1700343*
X1853913D02*
Y1716843D01*
X1863853Y1726783*
X2004916*
X2023905Y1702574D02*
X2023948Y1702616D01*
X2014916Y1702624D02*
X2004210D01*
X1995360Y1711474*
X1993748*
X1993604Y1711617*
X2062223Y1697322D02*
X2054450Y1705095D01*
X2050132*
X2082282Y1702682D02*
X2085810Y1706209D01*
X2121364*
X2156007Y1686693D02*
X2198142D01*
X2201031Y1689939*
Y1693405*
X2204266Y1696641*
X2215937*
X1988444Y1721902D02*
X2036740D01*
X2045458Y1711870D02*
Y1718408D01*
X2040564Y1723303*
X2040563Y1738877*
X2133911Y1710499D02*
X2135931D01*
X2136262Y1710830*
X2045175Y1726720D02*
X2049516D01*
X2054416Y1729345*
Y1738525*
X2054063Y1738877*
X2160523Y1724721D02*
Y1731252D01*
X2160523D02*
X2167440Y1738169D01*
X2196896*
X2205643Y1746916*
X2200523Y1724721D02*
X2200534D01*
X2207697Y1731884*
X2212107*
X2215673Y1735449*
Y1745407*
X2210832Y1750248*
X1938632*
X1821093Y1746350D02*
X1929853D01*
X1938632Y1750248*
X2134010Y1677719D02*
X2132078Y1679651D01*
X2134010Y1684765D02*
X2132078Y1682833D01*
X2126965Y1684765D02*
X2128896Y1682833D01*
X2126965Y1677719D02*
X2128896Y1679651D01*
X1876330Y1510017D02*
X1874179Y1512169D01*
X1876330Y1518563D02*
X1874179Y1516411D01*
X1865185Y1510017D02*
X1867336Y1512169D01*
X1934786Y1617722D02*
X1932855Y1619653D01*
X1812997Y1545341D02*
X1811065Y1543409D01*
X1805951Y1545341D02*
X1807883Y1543409D01*
X1805951Y1538295D02*
X1807883Y1540227D01*
X1812997Y1538295D02*
X1811065Y1540227D01*
X1805552Y1512479D02*
X1807484Y1514411D01*
X1812598Y1512479D02*
X1810666Y1514411D01*
X1812598Y1519525D02*
X1810666Y1517593D01*
X1805552Y1519525D02*
X1807484Y1517593D01*
X1877878Y1586920D02*
X1875726Y1589072D01*
X1877878Y1595466D02*
X1875726Y1593314D01*
X1866732Y1595466D02*
X1868884Y1593314D01*
X1866732Y1586920D02*
X1868884Y1589072D01*
X2121349Y1715216D02*
X2119417Y1713284D01*
X2114303Y1715216D02*
X2116235Y1713284D01*
X2114303Y1708170D02*
X2116235Y1710102D01*
X2160634Y1709882D02*
X2158702Y1711813D01*
X2160634Y1716927D02*
X2158702Y1714995D01*
X2153588Y1716927D02*
X2155520Y1714995D01*
X2153588Y1709882D02*
X2155520Y1711813D01*
X2185282Y1676879D02*
X2187214Y1674947D01*
X2185282Y1669833D02*
X2187214Y1671765D01*
X2192327Y1669833D02*
X2190396Y1671765D01*
X2192327Y1676879D02*
X2190396Y1674947D01*
X2115171Y1677781D02*
X2113239Y1679713D01*
X2108125Y1684827D02*
X2110057Y1682895D01*
X2108125Y1677781D02*
X2110057Y1679713D01*
X2115171Y1684827D02*
X2113239Y1682895D01*
X1864543Y1466389D02*
X1866694Y1464238D01*
X1864543Y1457844D02*
X1866694Y1459995D01*
X1875688Y1457844D02*
X1873537Y1459995D01*
X1875688Y1466389D02*
X1873537Y1464238D01*
X2153096Y1680042D02*
X2155028Y1678110D01*
X2153096Y1672996D02*
X2155028Y1674928D01*
X2160142Y1672996D02*
X2158210Y1674928D01*
X1754582Y1754830D02*
X2245418D01*
Y1445170*
X1754582*
Y1754830*
G54D31*
X1834879Y1462117D02*
X1870116D01*
X2007216Y1464629D02*
X1991221Y1480623D01*
Y1505054*
X2007216Y1464629D02*
X2085634D01*
X2103581Y1482576*
Y1505685*
X2103058Y1506207*
X1799987Y1477213D02*
Y1520449D01*
X1802740Y1523202*
X1809075*
X1898552Y1472549D02*
X1891492D01*
X1889277Y1474764*
X1993170Y1471780D02*
Y1472040D01*
X1985107Y1480103*
Y1504968*
X1985021Y1505054*
X2024378Y1478320D02*
X2024257Y1478442D01*
X2018152Y1484287*
X2017504Y1474676D02*
X2018152Y1475323D01*
Y1484287*
X2030942Y1472018D02*
X2070430D01*
X2085694Y1486552*
Y1524198*
X2091011Y1529515*
X2103359*
X2105589Y1531744*
Y1544412*
X2106685Y1545509*
X2112776*
X2015467Y1504474D02*
Y1514519D01*
X2015479Y1514531*
X1809112Y1523165D02*
X1819023D01*
X1826666Y1530808*
X1875683*
X1809075Y1523202D02*
X1809474Y1523601D01*
Y1534618*
X1835521Y1514290D02*
X1870757D01*
X1888313Y1507761D02*
X1888768Y1508216D01*
Y1508235*
X1890382Y1509849*
Y1536634*
X1887695Y1539321*
X1870757Y1514290D02*
X1835521D01*
X1921033Y1527200D02*
Y1515988D01*
X1925973Y1511049*
X1943306Y1514698D02*
X1943621Y1515014D01*
X1953201*
X1985021Y1505054D02*
X1985315Y1505348D01*
Y1515913*
X1991515Y1505981D02*
Y1515913D01*
X1991221Y1505054D02*
X1991515Y1505348D01*
Y1515396*
Y1515913*
X2025071Y1512358D02*
X2017651D01*
X2015479Y1514531*
X2103058Y1506207D02*
Y1519207D01*
X2158058Y1507207D02*
Y1522797D01*
X2162456Y1527195*
X2169123*
X1809474Y1540818D02*
X1809085Y1541207D01*
Y1542096*
X1817246Y1550258*
X1809474Y1534618D02*
X1804062D01*
X1801441Y1537239*
Y1557945*
X1806292Y1562795*
X1809474Y1534618D02*
X1804062D01*
X1801441Y1537239*
Y1557945*
X1806292Y1562795*
Y1569189*
X1845290Y1525921D02*
X1878936D01*
X1881306Y1528291*
Y1533927*
X1878567Y1536666*
X1870608*
X1870592Y1536682*
X1835356D02*
X1870592D01*
X1887695Y1539321D02*
X1880556D01*
X1877544Y1542333*
X1830191*
X1825848Y1546676*
Y1557806*
X1811281*
X1806292Y1562795*
X2018149Y1526423D02*
X2015866D01*
X2015526Y1526932*
X2018149Y1535867D02*
Y1526423D01*
X2023884*
X2051058Y1528207D02*
X2038058D01*
X1825848Y1557806D02*
X1811281D01*
X1806292Y1562795*
X1825848Y1557806D02*
X1830191Y1562149D01*
X1881869*
X1888510Y1559366D02*
X1888323Y1559553D01*
X1884465*
X1881869Y1562149*
X2024507Y1545710D02*
X2021490Y1548728D01*
X2018594*
Y1558982*
X2017117Y1560460*
X2042376Y1553178D02*
X2036863D01*
X2030144Y1559897*
X2053674Y1552605D02*
Y1577009D01*
X2090866Y1554027D02*
X2091053Y1554214D01*
Y1561203*
X2095058Y1565207*
X2112776Y1545509D02*
X2118550D01*
X2122463Y1549422*
Y1579791*
X1796292Y1579189D02*
Y1589189D01*
X2015231Y1575498D02*
X2020134D01*
X2022615Y1577979*
X2015231Y1575498D02*
X2015215Y1575515D01*
X2015215D02*
Y1584055D01*
X2015227Y1584067*
X2183582Y1577973D02*
X2161282D01*
X2159505Y1579750*
Y1610497*
X1796292Y1609189D02*
Y1599189D01*
Y1589189*
X2014988Y1590751D02*
Y1596507D01*
X2108614Y1604375D02*
Y1614103D01*
X2098976Y1623740*
Y1646575*
X2118848Y1666447*
Y1672121*
X2119561Y1673113*
X1796292Y1629189D02*
Y1619189D01*
Y1609189*
X1938499Y1612584D02*
Y1621209D01*
X1938464Y1621244*
X2159505Y1610497D02*
X2159839Y1610830D01*
X2161814*
X2165379Y1614395*
X2194057Y1610992D02*
X2184822D01*
X2181419Y1614395*
X2165379*
X1796292Y1649189D02*
Y1639189D01*
Y1629189*
X1900631Y1635605D02*
X1941867D01*
X1935841Y1642543D02*
X1863480D01*
X1860943Y1645080*
X1937586Y1638962D02*
X1867359D01*
X1900631Y1635605D02*
X1941867D01*
X1946608Y1631942*
X1963421Y1625555D02*
X1967556Y1629690D01*
X1976485*
X1963421Y1625555D02*
X1967556Y1629690D01*
X1976485*
X1975397Y1630778*
X1959790Y1628542D02*
X1897144D01*
X1976485Y1629690D02*
X1978193Y1627982D01*
X1991365*
X1978193D02*
X1975397Y1630778D01*
Y1643851*
X1976485Y1629690D02*
X1975397Y1630778D01*
X1981758Y1644256D02*
Y1647861D01*
X1986557Y1652726*
Y1673945*
X1972497Y1688006*
Y1715909*
X1966966Y1721440*
X1956267*
X1991365Y1627982D02*
X1978193D01*
X1976485Y1629690*
X1991365Y1627982D02*
X1993497Y1630114D01*
X2020961Y1624754D02*
X2015994D01*
X2014399Y1626349*
Y1631326*
X2011645Y1634080*
X2060188Y1640621D02*
Y1660022D01*
X1809273Y1673089D02*
X1796292Y1659189D01*
Y1649189*
X1986557Y1652726D02*
Y1673945D01*
X1972497Y1688006*
Y1715909*
X1967810Y1720596*
X1903844Y1671251D02*
Y1680684D01*
X1917470Y1694310*
X1956138*
X1986721Y1674110D02*
X2035786D01*
X2039916Y1678240*
Y1683033*
X1986557Y1673945D02*
X1972497Y1688006D01*
Y1715909*
X1967810Y1720596*
X1989381Y1679116D02*
X1993604Y1683339D01*
Y1698117*
X2016479Y1666035D02*
X2016874Y1666070D01*
X2025346*
X2034916Y1678560D02*
X2029302D01*
X2023905Y1683957*
Y1702574*
X2039916Y1683033D02*
Y1700148D01*
X2037448Y1702616*
X2119561Y1673113D02*
Y1680591D01*
X2118848Y1681304*
X2139561Y1673569D02*
Y1679369D01*
X2137687Y1681242*
X2164561Y1672961D02*
X2181209D01*
X2181605Y1673356*
X2149561Y1670679D02*
Y1676377D01*
X2149419Y1676519*
X1956138Y1694310D02*
Y1720863D01*
X1956267Y1721440*
X2124951Y1688479D02*
X2107718D01*
X2105575Y1690057*
X2124951Y1688479D02*
Y1711618D01*
X2125026Y1711693*
X2146630Y1700951D02*
X2160913D01*
X2164311Y1704348*
Y1713404*
X2146630Y1700951D02*
X2146526D01*
X2142462Y1705014*
X2145524Y1689311D02*
X2142462Y1692372D01*
Y1705014*
Y1710830*
X2133911Y1710499D02*
X2133912D01*
Y1714238*
X2131090Y1717060*
X2125956*
X2213137Y1501117D02*
G75*
G03X2213137I-4800J0D01*
G01Y1521117D02*
G03X2213137I-4800J0D01*
G01X2214672Y1548459D02*
G03X2214672I-4800J0D01*
G01Y1558459D02*
G03X2214672I-4800J0D01*
G01Y1568459D02*
G03X2214672I-4800J0D01*
G01Y1578459D02*
G03X2214672I-4800J0D01*
G01Y1588459D02*
G03X2214672I-4800J0D01*
G01Y1598459D02*
G03X2214672I-4800J0D01*
G01Y1608459D02*
G03X2214672I-4800J0D01*
G01X2195323Y1724721D02*
G03X2195323I-4800J0D01*
G01X2185323D02*
G03X2185323I-4800J0D01*
G01X2175323D02*
G03X2175323I-4800J0D01*
G01X2155323D02*
G03X2155323I-4800J0D01*
G01X2145323D02*
G03X2145323I-4800J0D01*
G01X2121709Y1724735D02*
G03X2121709I-4800J0D01*
G01X2111709D02*
G03X2111709I-4800J0D01*
G01X2101709D02*
G03X2101709I-4800J0D01*
G01X2091709D02*
G03X2091709I-4800J0D01*
G01X2081709D02*
G03X2081709I-4800J0D01*
G01X2071709D02*
G03X2071709I-4800J0D01*
G01X2101652Y1657931D02*
G03X2101652I-3300J0D01*
G01X2085366Y1691571D02*
G03X2085366I-3300J0D01*
G01X2202123Y1472086D02*
G03X2202123I-3918J0D01*
G01X2184800D02*
G03X2184800I-3918J0D01*
G01X2172423Y1527195D02*
G03X2172423I-3300J0D01*
G01X2106358Y1506207D02*
G03X2106358I-3300J0D01*
G01Y1519207D02*
G03X2106358I-3300J0D01*
G01X1949104Y1662981D02*
G03X1949104I-3300J0D01*
G01X1904247Y1656876D02*
G03X1904247I-3300J0D01*
G01X1811092Y1639189D02*
G03X1811092I-4800J0D01*
G01Y1649189D02*
G03X1811092I-4800J0D01*
G01Y1659189D02*
G03X1811092I-4800J0D01*
G01X1812573Y1673089D02*
G03X1812573I-3300J0D01*
G01X1801092Y1569189D02*
G03X1801092I-4800J0D01*
G01Y1579189D02*
G03X1801092I-4800J0D01*
G01Y1589189D02*
G03X1801092I-4800J0D01*
G01Y1599189D02*
G03X1801092I-4800J0D01*
G01Y1609189D02*
G03X1801092I-4800J0D01*
G01Y1619189D02*
G03X1801092I-4800J0D01*
G01Y1629189D02*
G03X1801092I-4800J0D01*
G01Y1639189D02*
G03X1801092I-4800J0D01*
G01Y1649189D02*
G03X1801092I-4800J0D01*
G01Y1659189D02*
G03X1801092I-4800J0D01*
G01X1828793Y1583287D02*
G03X1828793I-3300J0D01*
G01X1811092Y1579189D02*
G03X1811092I-4800J0D01*
G01Y1589189D02*
G03X1811092I-4800J0D01*
G01X1846907Y1621167D02*
G03X1846907I-3300J0D01*
G01X1879418Y1627583D02*
G03X1879418I-3300J0D01*
G01X2137685Y1586505D02*
G03X2137685I-4800J0D01*
G01X2117576Y1555509D02*
G03X2117576I-4800J0D01*
G01X2098358Y1565207D02*
G03X2098358I-3300J0D01*
G01X2137685Y1606505D02*
G03X2137685I-4800J0D01*
G01X1924333Y1527200D02*
G03X1924333I-3300J0D01*
G01X1820546Y1550258D02*
G03X1820546I-3300J0D01*
G01X1942520Y1710020D02*
G03X1942520I-3300J0D01*
G01X1947358Y1718207D02*
G03X1947358I-3300J0D01*
G01X1880814Y1700343D02*
G03X1880814I-5301J0D01*
G01X1875414Y1711743D02*
G03X1875414I-5301J0D01*
G01X1843014D02*
G03X1843014I-5301J0D01*
G01X1848414Y1700343D02*
G03X1848414I-5301J0D01*
G01X2028646Y1666070D02*
G03X2028646I-3300J0D01*
G01X2019779Y1666035D02*
G03X2019779I-3300J0D01*
G01X2243218Y1451582D02*
Y1748659D01*
X2240577Y1751300*
X2213599*
X2217582Y1747316*
X2218373Y1745407D02*
G03X2217582Y1747316I-2700J0D01*
G01X2218373Y1745407D02*
Y1735449D01*
X2217582Y1733540D02*
G03X2218373Y1735449I-1909J1909D01*
G01X2217582Y1733540D02*
X2214017Y1729975D01*
X2213413Y1729521D02*
G03X2214017Y1729975I-1306J2363D01*
G01X2213413Y1729521D02*
X2213523D01*
X2215323Y1727721D02*
G03X2213523Y1729521I-1800J-0D01*
G01X2215323Y1727721D02*
Y1721721D01*
X2213523Y1719921D02*
G03X2215323Y1721721I0J1800D01*
G01X2213523Y1719921D02*
X2207523D01*
X2205723Y1721721D02*
G03X2207523Y1719921I1800J-0D01*
G01X2205723Y1721721D02*
Y1726092D01*
X2205240Y1725609*
X2201429Y1729434D02*
G03X2205240Y1725609I-906J-4713D01*
G01X2201429Y1729434D02*
X2205788Y1733793D01*
X2207697Y1734584D02*
G03X2205788Y1733793I0J-2700D01*
G01X2207697Y1734584D02*
X2210989D01*
X2212973Y1736568*
Y1744289*
X2209713Y1747548*
X2208882*
X2206211Y1743665D02*
G03X2208882Y1747548I-568J3251D01*
G01X2206211Y1743665D02*
X2198805Y1736260D01*
X2196896Y1735469D02*
G03X2198805Y1736260I-0J2700D01*
G01X2196896Y1735469D02*
X2168558D01*
X2163223Y1730134*
Y1728689*
X2157823D02*
G03X2163223I2700J-3968D01*
G01X2157823D02*
Y1731252D01*
X2158614Y1733162D02*
G03X2157823Y1731252I1909J-1910D01*
G01X2158614Y1733162D02*
X2165530Y1740078D01*
X2167440Y1740869D02*
G03X2165530Y1740078I-0J-2700D01*
G01X2167440Y1740869D02*
X2195777D01*
X2202392Y1747484*
X2202404Y1747548D02*
G03X2202392Y1747484I3239J-632D01*
G01X2202404Y1747548D02*
X1939205D01*
X1930949Y1743883*
X1929853Y1743650D02*
G03X1930949Y1743883I0J2700D01*
G01X1929853Y1743650D02*
X1823789D01*
X1823760Y1725429*
Y1716495*
X1823869Y1716610D02*
G03X1823760Y1716495I1909J-1909D01*
G01X1823869Y1716610D02*
X1829490Y1722231D01*
X1831399Y1723022D02*
G03X1829490Y1722231I0J-2700D01*
G01X1831399Y1723022D02*
X1841121D01*
X1850947Y1732848*
X1852856Y1733638D02*
G03X1850947Y1732848I-0J-2700D01*
G01X1852856Y1733638D02*
X2006167D01*
X2008103Y1727639D02*
G03X2006167Y1733638I-39J3299D01*
G01X2007393Y1724602D02*
G03X2008103Y1727639I-2477J2181D01*
G01X2007393Y1724602D02*
X2034842D01*
X2037863Y1725004D02*
G03X2034842Y1724602I-1123J-3102D01*
G01X2037863Y1725004D02*
Y1732077D01*
X2036163*
X2034363Y1733877D02*
G03X2036163Y1732077I1800J0D01*
G01X2034363Y1733877D02*
Y1743877D01*
X2036163Y1745677D02*
G03X2034363Y1743877I0J-1800D01*
G01X2036163Y1745677D02*
X2044963D01*
X2046763Y1743877D02*
G03X2044963Y1745677I-1800J0D01*
G01X2046763Y1743877D02*
Y1733877D01*
X2044963Y1732077D02*
G03X2046763Y1733877I0J1800D01*
G01X2044963Y1732077D02*
X2043263D01*
Y1729410*
X2047072Y1729420D02*
G03X2043263Y1729410I-1897J-2700D01*
G01X2047072Y1729420D02*
X2048838D01*
X2051716Y1730962*
Y1732077*
X2049663*
X2047863Y1733877D02*
G03X2049663Y1732077I1800J0D01*
G01X2047863Y1733877D02*
Y1743877D01*
X2049663Y1745677D02*
G03X2047863Y1743877I0J-1800D01*
G01X2049663Y1745677D02*
X2058463D01*
X2060263Y1743877D02*
G03X2058463Y1745677I-1800J0D01*
G01X2060263Y1743877D02*
Y1733877D01*
X2058463Y1732077D02*
G03X2060263Y1733877I0J1800D01*
G01X2058463Y1732077D02*
X2057116D01*
Y1729530*
X2052120Y1725052D02*
G03X2057116Y1729530I4789J-317D01*
G01X2052120Y1725052D02*
X2050791Y1724340D01*
X2049516Y1724020D02*
G03X2050791Y1724340I-0J2700D01*
G01X2049516Y1724020D02*
X2047072D01*
X2044076Y1723609D02*
G03X2047072Y1724020I1099J3111D01*
G01X2044076Y1723609D02*
X2047368Y1720317D01*
X2048158Y1718408D02*
G03X2047368Y1720317I-2700J0D01*
G01X2048159Y1718408D02*
Y1713767D01*
X2042758D02*
G03X2048158I2700J-1897D01*
G01X2042758D02*
Y1717290D01*
X2039668Y1720380*
X2034842Y1719202D02*
G03X2039668Y1720380I1898J2700D01*
G01X2034842Y1719202D02*
X1990341D01*
X1985967Y1724082D02*
G03X1990341Y1719202I2477J-2180D01*
G01X1985967Y1724082D02*
X1968771D01*
X1969229Y1723703D02*
G03X1968771Y1724082I-2263J-2263D01*
G01X1969229Y1723703D02*
X1974760Y1718172D01*
X1975697Y1715909D02*
G03X1974760Y1718172I-3200J0D01*
G01X1975697Y1715909D02*
Y1689331D01*
X1986085Y1678943*
X1992143Y1677310D02*
G03X1986085Y1678943I-2762J1806D01*
G01X1992143Y1677310D02*
X2031862D01*
X2036716Y1681326D02*
G03X2031862Y1677310I-1800J-2766D01*
G01X2036716Y1681326D02*
Y1682227D01*
Y1683839D02*
G03Y1682227I3200J-806D01*
G01Y1683839D02*
Y1695816D01*
X2033048*
X2031248Y1697616D02*
G03X2033048Y1695816I1800J0D01*
G01X2031248Y1697616D02*
Y1707616D01*
X2033048Y1709416D02*
G03X2031248Y1707616I0J-1800D01*
G01X2033048Y1709416D02*
X2041848D01*
X2043648Y1707616D02*
G03X2041848Y1709416I-1800J0D01*
G01X2043648Y1707616D02*
Y1701968D01*
X2044327Y1703107D02*
G03X2043648Y1701968I1909J-1909D01*
G01X2044327Y1703107D02*
X2048223Y1707004D01*
X2050132Y1707795D02*
G03X2048223Y1707004I0J-2700D01*
G01X2050132Y1707795D02*
X2054450D01*
X2056359Y1707004D02*
G03X2054450Y1707795I-1909J-1909D01*
G01X2056359Y1707004D02*
X2061326Y1702038D01*
X2057507Y1698219D02*
G03X2061326Y1702038I4716J-897D01*
G01X2057507Y1698219D02*
X2057023Y1698704D01*
Y1694322*
X2055223Y1692522D02*
G03X2057023Y1694322I-0J1800D01*
G01X2055223Y1692522D02*
X2049223D01*
X2048936Y1692545D02*
G03X2049223Y1692522I287J1777D01*
G01X2048936Y1692545D02*
Y1690820D01*
X2056938Y1686425D02*
G03X2048936Y1690820I-4715J897D01*
G01X2056938Y1686425D02*
X2057729Y1685634D01*
X2059762Y1683201D02*
G03X2057729Y1685634I2461J4121D01*
G01X2059902Y1682343D02*
G03X2059762Y1683201I-2700J-0D01*
G01X2059902Y1682343D02*
Y1681524D01*
Y1673120D02*
G03Y1681524I2321J4202D01*
G01Y1673120D02*
Y1671524D01*
X2062340Y1662524D02*
G03X2059902Y1671524I-117J4798D01*
G01Y1656734D02*
G03X2062340Y1662524I286J3288D01*
G01X2059902Y1656734D02*
Y1652697D01*
X2059111Y1650788D02*
G03X2059902Y1652697I-1909J1909D01*
G01X2059111Y1650788D02*
X2049474Y1641151D01*
X2047565Y1640360D02*
G03X2049474Y1641151I-0J2700D01*
G01X2047565Y1640360D02*
X2042028D01*
Y1639561*
X2041237Y1637652D02*
G03X2042028Y1639561I-1909J1909D01*
G01X2041237Y1637652D02*
X2040917Y1637331D01*
X2056072*
X2063636D02*
G03X2056072I-3782J2956D01*
G01X2063636D02*
X2082665D01*
X2086244Y1635317D02*
G03X2082665Y1637331I-522J3258D01*
G01X2086244Y1635317D02*
X2088243Y1633318D01*
X2089034Y1631409D02*
G03X2088243Y1633318I-2700J0D01*
G01X2089034Y1631409D02*
Y1602307D01*
X2091330*
X2093130Y1600507D02*
G03X2091330Y1602307I-1800J0D01*
G01X2093130Y1600507D02*
Y1600207D01*
X2116976*
Y1600507*
X2118776Y1602307D02*
G03X2116976Y1600507I-0J-1800D01*
G01X2118776Y1602307D02*
X2127376D01*
X2129176Y1600507D02*
G03X2127376Y1602307I-1800J0D01*
G01X2129176Y1600507D02*
Y1599552D01*
X2128987Y1593705D02*
G03X2129176Y1599552I3898J2800D01*
G01X2127376Y1592707D02*
G03X2128987Y1593705I-0J1800D01*
G01X2127376Y1592707D02*
X2118776D01*
X2116976Y1594507D02*
G03X2118776Y1592707I1800J0D01*
G01X2116976Y1594507D02*
Y1594807D01*
X2093130*
Y1594507*
X2091330Y1592707D02*
G03X2093130Y1594507I-0J1800D01*
G01X2091330Y1592707D02*
X2082730D01*
X2080930Y1594507D02*
G03X2082730Y1592707I1800J0D01*
G01X2080930Y1594507D02*
Y1600507D01*
X2082730Y1602307D02*
G03X2080930Y1600507I-0J-1800D01*
G01X2082730Y1602307D02*
X2083634D01*
Y1630291*
X2083354Y1630571*
X2077691Y1625279D02*
G03X2083354Y1630571I897J4715D01*
G01X2077691Y1625279D02*
X2076900Y1624488D01*
X2074805Y1622949D02*
G03X2076900Y1624488I3783J-2955D01*
G01X2074166Y1622872D02*
G03X2074805Y1622949I-0J2700D01*
G01X2074166Y1622872D02*
X2063898D01*
X2060147Y1615496D02*
G03X2063898Y1622872I-293J4791D01*
G01X2060147Y1615496D02*
X2078567Y1597076D01*
X2079358Y1595167D02*
G03X2078567Y1597076I-2700J-0D01*
G01X2079358Y1595167D02*
Y1552036D01*
X2083758Y1547310D02*
G03X2079358Y1552036I-2700J1897D01*
G01X2083758Y1547310D02*
Y1545958D01*
X2084541Y1545175*
X2086566*
Y1545277*
X2088366Y1547077D02*
G03X2086566Y1545277I0J-1800D01*
G01X2088366Y1547077D02*
X2093366D01*
X2095167Y1545277D02*
G03X2093366Y1547077I-1801J0D01*
G01X2095167Y1545277D02*
Y1539777D01*
X2093366Y1537977D02*
G03X2095167Y1539777I0J1800D01*
G01X2093366Y1537977D02*
X2088366D01*
X2086566Y1539775D02*
G03X2088366Y1537977I1800J2D01*
G01X2086566Y1539775D02*
X2083423D01*
X2081514Y1540566D02*
G03X2083423Y1539775I1909J1909D01*
G01X2081514Y1540566D02*
X2079358Y1542721D01*
Y1502763*
X2078567Y1500854D02*
G03X2079358Y1502763I-1909J1909D01*
G01X2078567Y1500854D02*
X2067320Y1489607D01*
X2065411Y1488816D02*
G03X2067320Y1489607I0J2700D01*
G01X2065411Y1488816D02*
X2033559D01*
X2031443Y1486700*
Y1475955*
X2031360Y1475291D02*
G03X2031443Y1475955I-2617J664D01*
G01X2031749Y1475218D02*
G03X2031360Y1475291I-807J-3200D01*
G01X2031749Y1475218D02*
X2069150D01*
X2082494Y1487924*
Y1524198*
X2083431Y1526461D02*
G03X2082494Y1524198I2263J-2263D01*
G01X2083431Y1526461D02*
X2088748Y1531778D01*
X2091011Y1532715D02*
G03X2088748Y1531778I-0J-3200D01*
G01X2091011Y1532715D02*
X2102034D01*
X2102389Y1533070*
Y1544412*
X2103326Y1546675D02*
G03X2102389Y1544412I2263J-2263D01*
G01X2103326Y1546675D02*
X2104422Y1547771D01*
X2106685Y1548709D02*
G03X2104422Y1547771I0J-3200D01*
G01X2106685Y1548709D02*
X2109198D01*
X2116353D02*
G03X2109198I-3577J-3200D01*
G01X2116353D02*
X2117224D01*
X2119263Y1550747*
Y1574991*
X2118163*
X2116363Y1576791D02*
G03X2118163Y1574991I1800J-0D01*
G01X2116363Y1576791D02*
Y1577091D01*
X2093327*
Y1576791*
X2091527Y1574991D02*
G03X2093327Y1576791I-0J1800D01*
G01X2091527Y1574991D02*
X2082927D01*
X2081127Y1576791D02*
G03X2082927Y1574991I1800J-0D01*
G01X2081127Y1576791D02*
Y1582791D01*
X2082927Y1584591D02*
G03X2081127Y1582791I-0J-1800D01*
G01X2082927Y1584591D02*
X2091527D01*
X2093327Y1582791D02*
G03X2091527Y1584591I-1800J-0D01*
G01X2093327Y1582791D02*
Y1582491D01*
X2116363*
Y1582791*
X2118163Y1584591D02*
G03X2116363Y1582791I0J-1800D01*
G01X2118163Y1584591D02*
X2126763D01*
X2128563Y1582791D02*
G03X2126763Y1584591I-1800J-0D01*
G01X2128563Y1582791D02*
Y1576791D01*
X2126763Y1574991D02*
G03X2128563Y1576791I0J1800D01*
G01X2126763Y1574991D02*
X2125663D01*
Y1549422*
X2124726Y1547159D02*
G03X2125663Y1549422I-2263J2263D01*
G01X2124726Y1547159D02*
X2120812Y1543246D01*
X2118550Y1542308D02*
G03X2120812Y1543246I-0J3201D01*
G01X2118550Y1542308D02*
X2116353D01*
X2109198D02*
G03X2116353I3578J3201D01*
G01X2109198D02*
X2108789D01*
Y1538181*
Y1532836D02*
G03Y1538181I3987J2673D01*
G01Y1532836D02*
Y1531744D01*
X2107852Y1529482D02*
G03X2108789Y1531744I-2263J2262D01*
G01X2107852Y1529482D02*
X2105622Y1527252D01*
X2103359Y1526315D02*
G03X2105622Y1527252I0J3200D01*
G01X2103359Y1526315D02*
X2092336D01*
X2088894Y1522873*
Y1486552*
X2087901Y1484235D02*
G03X2088894Y1486552I-2207J2317D01*
G01X2087901Y1484235D02*
X2072637Y1469700D01*
X2070430Y1468818D02*
G03X2072637Y1469700I0J3200D01*
G01X2070430Y1468818D02*
X2031749D01*
X2027758Y1471152D02*
G03X2031749Y1468818I3184J866D01*
G01X2027758Y1471152D02*
X2025729Y1469123D01*
X2023820Y1468332D02*
G03X2025729Y1469123I-0J2700D01*
G01X2023820Y1468332D02*
X2014948D01*
X2013039Y1469123D02*
G03X2014948Y1468332I1909J1909D01*
G01X2013039Y1469123D02*
X2011536Y1470626D01*
X2008054*
X2006291Y1472063D02*
G03X2008054Y1470626I1763J363D01*
G01X2006291Y1472063D02*
X2003038D01*
X2001129Y1472853D02*
G03X2003038Y1472063I1909J1910D01*
G01X2001129Y1472853D02*
X1996154Y1477828D01*
X1995363Y1479737D02*
G03X1996154Y1477828I2700J0D01*
G01X1995363Y1479737D02*
Y1501241D01*
X1994471Y1501004D02*
G03X1995363Y1501241I0J1800D01*
G01X1994471Y1501004D02*
X1989971D01*
X1988308Y1502117D02*
G03X1989971Y1501004I1663J687D01*
G01X1988308Y1502117D02*
Y1481429D01*
X1988308D02*
X1995433Y1474303D01*
X1996168Y1473160D02*
G03X1995433Y1474303I-2998J-1120D01*
G01X1990091Y1470594D02*
G03X1996168Y1473160I3079J1186D01*
G01X1990091Y1470594D02*
X1982845Y1477840D01*
X1981907Y1480103D02*
G03X1982845Y1477840I3200J0D01*
G01X1981907Y1480103D02*
Y1501004D01*
X1981771*
X1979975Y1502688D02*
G03X1981771Y1501004I1796J116D01*
G01X1979528Y1503049D02*
G03X1979975Y1502688I1909J1909D01*
G01X1979528Y1503049D02*
X1976234Y1506342D01*
X1975471Y1507865D02*
G03X1976234Y1506342I2673J387D01*
G01X1975471Y1507865D02*
X1972367Y1504761D01*
X1970458Y1503970D02*
G03X1972367Y1504761I-0J2700D01*
G01X1970458Y1503970D02*
X1916102D01*
X1893327Y1481195*
Y1479714*
X1891527Y1477914D02*
G03X1893327Y1479714I-0J1800D01*
G01X1891527Y1477914D02*
X1890081D01*
X1890037Y1477872D02*
G03X1890081Y1477914I-1855J1961D01*
G01X1890245Y1477814D02*
G03X1890037Y1477872I-968J-3050D01*
G01X1890245Y1477814D02*
X1891527D01*
X1893327Y1476014D02*
G03X1891527Y1477814I-1800J-0D01*
G01X1893327Y1476014D02*
Y1475749D01*
X1897746*
Y1469349D02*
G03Y1475749I806J3200D01*
G01Y1469349D02*
X1891492D01*
X1890007Y1469714D02*
G03X1891492Y1469349I1485J2835D01*
G01X1890007Y1469714D02*
X1887027D01*
X1885227Y1471514D02*
G03X1887027Y1469714I1800J-0D01*
G01X1885227Y1471514D02*
Y1476014D01*
X1885617Y1477133D02*
G03X1885227Y1476014I1410J-1119D01*
G01X1885617Y1477133D02*
X1876828D01*
Y1476833*
X1875028Y1475033D02*
G03X1876828Y1476833I0J1800D01*
G01X1875028Y1475033D02*
X1866428D01*
X1864628Y1476833D02*
G03X1866428Y1475033I1800J0D01*
G01X1864628Y1476833D02*
Y1477133D01*
X1840783*
Y1476833*
X1838983Y1475033D02*
G03X1840783Y1476833I-0J1800D01*
G01X1838983Y1475033D02*
X1830383D01*
X1828583Y1476833D02*
G03X1830383Y1475033I1800J0D01*
G01X1828583Y1476833D02*
Y1482833D01*
X1830383Y1484633D02*
G03X1828583Y1482833I-0J-1800D01*
G01X1830383Y1484633D02*
X1838983D01*
X1840783Y1482833D02*
G03X1838983Y1484633I-1800J0D01*
G01X1840783Y1482833D02*
Y1482533D01*
X1864628*
Y1482833*
X1866428Y1484633D02*
G03X1864628Y1482833I0J-1800D01*
G01X1866428Y1484633D02*
X1875028D01*
X1876828Y1482833D02*
G03X1875028Y1484633I-1800J0D01*
G01X1876828Y1482833D02*
Y1482533D01*
X1885227*
Y1484214*
X1887027Y1486014D02*
G03X1885227Y1484214I-0J-1800D01*
G01X1887027Y1486014D02*
X1890508D01*
X1903355Y1498861*
X1892363*
Y1498311*
X1890563Y1496511D02*
G03X1892363Y1498311I-0J1800D01*
G01X1890563Y1496511D02*
X1887081D01*
X1885234Y1494664*
X1883325Y1493873D02*
G03X1885234Y1494664I0J2700D01*
G01X1883325Y1493873D02*
X1877054D01*
Y1493573*
X1875254Y1491773D02*
G03X1877054Y1493573I0J1800D01*
G01X1875254Y1491773D02*
X1866654D01*
X1864854Y1493573D02*
G03X1866654Y1491773I1800J0D01*
G01X1864854Y1493573D02*
Y1493873D01*
X1841009*
Y1493573*
X1839209Y1491773D02*
G03X1841009Y1493573I-0J1800D01*
G01X1839209Y1491773D02*
X1830609D01*
X1828809Y1493573D02*
G03X1830609Y1491773I1800J0D01*
G01X1828809Y1493573D02*
Y1499573D01*
X1830609Y1501373D02*
G03X1828809Y1499573I-0J-1800D01*
G01X1830609Y1501373D02*
X1839209D01*
X1841009Y1499573D02*
G03X1839209Y1501373I-1800J0D01*
G01X1841009Y1499573D02*
Y1499273D01*
X1864854*
Y1499573*
X1866654Y1501373D02*
G03X1864854Y1499573I0J-1800D01*
G01X1866654Y1501373D02*
X1875254D01*
X1877054Y1499573D02*
G03X1875254Y1501373I-1800J0D01*
G01X1877054Y1499573D02*
Y1499273D01*
X1882207*
X1884263Y1501329*
Y1502811*
X1886063Y1504611D02*
G03X1884263Y1502811I-0J-1800D01*
G01X1886063Y1504611D02*
X1887749D01*
X1887344Y1504711D02*
G03X1887749Y1504611I969J3050D01*
G01X1887344Y1504711D02*
X1886063D01*
X1884263Y1506511D02*
G03X1886063Y1504711I1800J-0D01*
G01X1884263Y1506511D02*
Y1511011D01*
X1886063Y1512811D02*
G03X1884263Y1511011I-0J-1800D01*
G01X1886063Y1512811D02*
X1887182D01*
Y1523940*
Y1529055D02*
G03Y1523940I-2086J-2558D01*
G01Y1529055D02*
Y1534271D01*
X1885445*
X1883645Y1536071D02*
G03X1885445Y1534271I1800J0D01*
G01X1883645Y1536071D02*
Y1536121D01*
X1880556*
X1878293Y1537058D02*
G03X1880556Y1536121I2263J2263D01*
G01X1878293Y1537058D02*
X1876692Y1538660D01*
Y1533950*
X1874877Y1527608D02*
G03X1876692Y1533950I806J3200D01*
G01X1874877Y1527608D02*
X1848126D01*
X1842454D02*
G03X1848126I2836J-1687D01*
G01X1842454D02*
X1827992D01*
X1821286Y1520902*
X1819023Y1519965D02*
G03X1821286Y1520902I-0J3200D01*
G01X1819023Y1519965D02*
X1811878D01*
X1813125Y1518252D02*
G03X1811878Y1519965I-1800J0D01*
G01X1813125Y1518252D02*
Y1513752D01*
X1811325Y1511952D02*
G03X1813125Y1513752I0J1800D01*
G01X1811325Y1511952D02*
X1806825D01*
X1805025Y1513752D02*
G03X1806825Y1511952I1800J0D01*
G01X1805025Y1513752D02*
Y1518252D01*
X1806404Y1520002D02*
G03X1805025Y1518252I421J-1750D01*
G01X1806404Y1520002D02*
X1804066D01*
X1803187Y1519123*
Y1478019*
X1796787D02*
G03X1803187I3200J-806D01*
G01X1796787D02*
Y1520449D01*
X1797724Y1522712D02*
G03X1796787Y1520449I2263J-2263D01*
G01X1797724Y1522712D02*
X1800477Y1525465D01*
X1802740Y1526402D02*
G03X1800477Y1525465I0J-3200D01*
G01X1802740Y1526402D02*
X1805025D01*
Y1526452*
X1806274Y1528166D02*
G03X1805025Y1526452I551J-1714D01*
G01X1806274Y1528166D02*
Y1529839D01*
X1805424Y1531368D02*
G03X1806274Y1529839I1800J-0D01*
G01X1805424Y1531368D02*
Y1531418D01*
X1804062*
X1801799Y1532355D02*
G03X1804062Y1531418I2263J2263D01*
G01X1801799Y1532355D02*
X1799178Y1534976D01*
X1798241Y1537239D02*
G03X1799178Y1534976I3200J-0D01*
G01X1798241Y1537239D02*
Y1557945D01*
X1799178Y1560207D02*
G03X1798241Y1557945I2263J-2262D01*
G01X1799178Y1560207D02*
X1803092Y1564121D01*
Y1564400*
X1801492Y1566189D02*
G03X1803092Y1564400I1800J0D01*
G01X1801492Y1566189D02*
Y1572189D01*
X1803292Y1573989D02*
G03X1801492Y1572189I-0J-1800D01*
G01X1803292Y1573989D02*
X1809292D01*
X1811092Y1572189D02*
G03X1809292Y1573989I-1800J0D01*
G01X1811092Y1572189D02*
Y1566189D01*
X1809492Y1564400D02*
G03X1811092Y1566189I-200J1789D01*
G01X1809492Y1564400D02*
Y1564121D01*
X1812607Y1561006*
X1824522*
X1827928Y1564412*
X1830191Y1565349D02*
G03X1827928Y1564412I-0J-3200D01*
G01X1830191Y1565349D02*
X1881869D01*
X1884131Y1564412D02*
G03X1881869Y1565349I-2262J-2263D01*
G01X1884131Y1564412D02*
X1884477Y1564066D01*
X1884460Y1564316D02*
G03X1884477Y1564066I1800J-0D01*
G01X1884460Y1564316D02*
Y1565798D01*
X1879481Y1570776*
X1878602*
Y1570476*
X1876802Y1568676D02*
G03X1878602Y1570476I-0J1800D01*
G01X1876802Y1568676D02*
X1868202D01*
X1866402Y1570476D02*
G03X1868202Y1568676I1800J0D01*
G01X1866402Y1570476D02*
Y1570776D01*
X1842556*
Y1570476*
X1840756Y1568676D02*
G03X1842556Y1570476I0J1800D01*
G01X1840756Y1568676D02*
X1832156D01*
X1830356Y1570476D02*
G03X1832156Y1568676I1800J0D01*
G01X1830356Y1570476D02*
Y1576476D01*
X1832156Y1578277D02*
G03X1830356Y1576476I0J-1801D01*
G01X1832156Y1578277D02*
X1840756D01*
X1842556Y1576476D02*
G03X1840756Y1578277I-1800J0D01*
G01X1842556Y1576476D02*
Y1576177D01*
X1866402*
Y1576476*
X1868202Y1578277D02*
G03X1866402Y1576476I-0J-1801D01*
G01X1868202Y1578277D02*
X1876802D01*
X1878602Y1576476D02*
G03X1876802Y1578277I-1800J0D01*
G01X1878602Y1576476D02*
Y1576177D01*
X1880599*
X1882508Y1575386D02*
G03X1880599Y1576177I-1909J-1910D01*
G01X1882508Y1575386D02*
X1887278Y1570616D01*
X1889610*
Y1583441*
X1890410Y1585360D02*
G03X1889610Y1583441I1900J-1919D01*
G01X1890410Y1585360D02*
X1895478Y1590380D01*
X1897378Y1591162D02*
G03X1895478Y1590380I0J-2700D01*
G01X1897378Y1591162D02*
X1927791D01*
X1933347Y1594006D02*
G03X1927791Y1591162I-2289J-2377D01*
G01X1933347Y1594006D02*
X1936031D01*
X1941199Y1591742D02*
G03X1936031Y1594006I-3271J-436D01*
G01X1944853Y1588256D02*
G03X1941199Y1591742I-3293J206D01*
G01X1944853Y1588256D02*
X1945386Y1588255D01*
X1950603Y1590984D02*
G03X1945386Y1588255I-1917J-2686D01*
G01X1950603Y1590984D02*
Y1599845D01*
X1951394Y1601754D02*
G03X1950603Y1599845I1909J-1909D01*
G01X1951394Y1601754D02*
X1952453Y1602813D01*
X1951781Y1603177D02*
G03X1952453Y1602813I1897J2700D01*
G01X1951781Y1603177D02*
X1867432D01*
X1862050D02*
G03X1867432I2691J-1910D01*
G01X1862050D02*
X1848671D01*
X1847417Y1601923*
Y1596435*
X1843169Y1591623D02*
G03X1847417Y1596435I1548J2914D01*
G01X1843169Y1591623D02*
Y1588193D01*
X1841369Y1586393D02*
G03X1843169Y1588193I-0J1800D01*
G01X1841369Y1586393D02*
X1832769D01*
X1830969Y1588193D02*
G03X1832769Y1586393I1800J0D01*
G01X1830969Y1588193D02*
Y1594193D01*
X1832769Y1595993D02*
G03X1830969Y1594193I-0J-1800D01*
G01X1832769Y1595993D02*
X1841369D01*
X1841737Y1595955D02*
G03X1841369Y1595993I-368J-1762D01*
G01X1842017Y1596435D02*
G03X1841737Y1595955I2700J-1898D01*
G01X1842017Y1596435D02*
Y1603042D01*
X1842808Y1604951D02*
G03X1842017Y1603042I1909J-1909D01*
G01X1842808Y1604951D02*
X1844497Y1606640D01*
X1829090*
X1824255Y1602436D02*
G03X1829090Y1606640I1897J2700D01*
G01X1824255Y1602436D02*
X1810324D01*
X1809774Y1602493D02*
G03X1810324Y1602436I550J2643D01*
G01X1807954Y1603692D02*
G03X1809774Y1602493I-1662J-4503D01*
G01X1807954Y1603692D02*
X1807180Y1604472D01*
X1810154Y1612040D02*
G03X1807180Y1604472I-3862J-2851D01*
G01X1810154Y1612040D02*
X1811005D01*
X1809960Y1613252*
X1809305Y1615015D02*
G03X1809960Y1613252I2700J0D01*
G01X1809305Y1615015D02*
Y1615453D01*
X1807980Y1623683D02*
G03X1809305Y1615453I-1688J-4494D01*
G01X1807980Y1623683D02*
X1807189Y1624474D01*
X1811007Y1628292D02*
G03X1807189Y1624474I-4715J897D01*
G01X1811007Y1628292D02*
X1813914Y1625385D01*
X1814705Y1623476D02*
G03X1813914Y1625385I-2700J0D01*
G01X1814705Y1623476D02*
Y1616018D01*
X1815070Y1615595*
X1923985*
X1927214Y1620000D02*
G03X1923985Y1615595I-120J-3298D01*
G01X1927214Y1620000D02*
Y1622278D01*
X1906712*
X1901535Y1625342D02*
G03X1906712Y1622278I3280J-364D01*
G01X1901535Y1625342D02*
X1897950D01*
Y1631742D02*
G03Y1625342I-806J-3200D01*
G01Y1631742D02*
X1941633D01*
X1940775Y1632405*
X1901437*
X1897335Y1635762D02*
G03X1901437Y1632405I3296J-157D01*
G01X1897335Y1635762D02*
X1868165D01*
X1864081Y1639343D02*
G03X1868165Y1635762I3278J-381D01*
G01X1864081Y1639343D02*
X1863480D01*
X1861217Y1640280D02*
G03X1863480Y1639343I2263J2263D01*
G01X1861217Y1640280D02*
X1859251Y1642247D01*
X1863776Y1646772D02*
G03X1859251Y1642247I-2833J-1692D01*
G01X1863776Y1646772D02*
X1864805Y1645743D01*
X1935035*
X1939079Y1641905D02*
G03X1935035Y1645743I-3238J638D01*
G01X1940882Y1638805D02*
G03X1939079Y1641905I-3296J157D01*
G01X1940882Y1638805D02*
X1941061D01*
X1944462Y1637644D02*
G03X1941061Y1638805I-2595J-2039D01*
G01X1944462Y1637644D02*
X1947781Y1635079D01*
Y1639005*
X1952340Y1643629D02*
G03X1947781Y1639005I-1859J-2727D01*
G01X1952340Y1643629D02*
Y1673702D01*
X1947678Y1678364*
X1920347*
X1907282Y1665298*
X1905373Y1664507D02*
G03X1907282Y1665298I-0J2700D01*
G01X1905373Y1664507D02*
X1903080D01*
X1861278*
X1859845D02*
G03X1861278I717J-3221D01*
G01X1859845D02*
X1836060D01*
X1834151Y1665298D02*
G03X1836060Y1664507I1909J1909D01*
G01X1834151Y1665298D02*
X1819151Y1680298D01*
X1818360Y1682207D02*
G03X1819151Y1680298I2700J0D01*
G01X1818360Y1682207D02*
Y1725431D01*
Y1725435*
X1818390Y1744457*
X1822991Y1749051D02*
G03X1818390Y1744457I-1898J-2701D01*
G01X1822991Y1749051D02*
X1929281D01*
X1934346Y1751300*
X1760690*
X1757775Y1748385*
Y1451855*
X1760690Y1448941*
X2240577*
X2243218Y1451582*
X2117084Y1685279D02*
G03X2115798Y1683554I514J-1725D01*
G01X2117084Y1685279D02*
X2114412D01*
X2115698Y1683554D02*
G03X2114412Y1685279I-1800J0D01*
G01X2115698Y1683554D02*
Y1681868D01*
X2115798Y1682272D02*
G03X2115698Y1681868I3050J-968D01*
G01X2115798Y1682272D02*
Y1683554D01*
X1935299Y1614659D02*
Y1618762D01*
X1933514Y1617194D02*
G03X1935299Y1618762I-0J1800D01*
G01X1933514Y1617194D02*
X1930357D01*
X1930203Y1615595D02*
G03X1930357Y1617194I-3109J1107D01*
G01X1930203Y1615595D02*
X1930612D01*
X1935299Y1614659D02*
G03X1930612Y1615595I-2790J-1764D01*
G01X1939818Y1511398D02*
X1940594D01*
X1940256Y1512448D02*
G03X1940594Y1511398I1800J0D01*
G01X1940256Y1512448D02*
Y1516238D01*
X1940156*
Y1512448*
X1939818Y1511398D02*
G03X1940156Y1512448I-1462J1050D01*
G01X1952200Y1533977D02*
G03Y1532008I2114J-984D01*
G01X1952091Y1534258D02*
G03X1952200Y1533977I2223J703D01*
G01X1952091Y1534258D02*
X1920212D01*
X1914209Y1528255*
X1912299Y1527464D02*
G03X1914209Y1528255I0J2700D01*
G01X1912299Y1527464D02*
X1907790D01*
X1906092Y1533458D02*
G03X1907790Y1527464I-200J-3294D01*
G01X1904050Y1536080D02*
G03X1906092Y1533458I3270J441D01*
G01X1901686Y1537317D02*
G03X1904050Y1536080I2582J2056D01*
G01X1901686Y1537317D02*
Y1520561D01*
X1896286D02*
G03X1901686I2700J-1898D01*
G01X1896286D02*
Y1550442D01*
X1891745Y1545900*
Y1544271*
X1889945Y1542471D02*
G03X1891745Y1544271I-0J1800D01*
G01X1889945Y1542471D02*
X1888259D01*
X1888663Y1542371D02*
G03X1888259Y1542471I-968J-3050D01*
G01X1888663Y1542371D02*
X1889945D01*
X1891745Y1540571D02*
G03X1889945Y1542371I-1800J0D01*
G01X1891745Y1540571D02*
Y1539797D01*
X1892644Y1538897*
X1893582Y1536634D02*
G03X1892644Y1538897I-3200J0D01*
G01X1893582Y1536634D02*
Y1509849D01*
X1892644Y1507586D02*
G03X1893582Y1509849I-2262J2263D01*
G01X1892644Y1507586D02*
X1892363Y1507304D01*
Y1506511*
X1890563Y1504711D02*
G03X1892363Y1506511I-0J1800D01*
G01X1890563Y1504711D02*
X1889281D01*
X1888876Y1504611D02*
G03X1889281Y1504711I-563J3150D01*
G01X1888876Y1504611D02*
X1890563D01*
X1891629Y1504261D02*
G03X1890563Y1504611I-1066J-1450D01*
G01X1891629Y1504261D02*
X1904375D01*
X1910721Y1510607*
X1912631Y1511398D02*
G03X1910721Y1510607I-0J-2700D01*
G01X1912631Y1511398D02*
X1932394D01*
X1932056Y1512448D02*
G03X1932394Y1511398I1800J0D01*
G01X1932056Y1512448D02*
Y1516948D01*
X1933856Y1518748D02*
G03X1932056Y1516948I-0J-1800D01*
G01X1933856Y1518748D02*
X1934291D01*
X1936283Y1524083D02*
G03X1934291Y1518748I567J-3251D01*
G01X1936283Y1524083D02*
X1937186Y1524986D01*
X1939095Y1525777D02*
G03X1937186Y1524986I-0J-2700D01*
G01X1939095Y1525777D02*
X1952077D01*
X1952200Y1526103D02*
G03X1952077Y1525777I2114J-984D01*
G01X1952200Y1528071D02*
G03Y1526103I2114J-984D01*
G01Y1530040D02*
G03Y1528071I2114J-984D01*
G01Y1532008D02*
G03Y1530040I2114J-984D01*
G01X1945104Y1563254D02*
X1946025D01*
X1944999Y1564280*
Y1563359*
X1945104Y1563254*
X1914027Y1539924D02*
X1914238Y1540135D01*
X1914076*
X1914027Y1539924D02*
G03X1914076Y1540135I-3190J846D01*
G01X1910620Y1536517D02*
X1911683Y1537581D01*
X1910474Y1537490D02*
G03X1911683Y1537581I363J3280D01*
G01X1910620Y1536521D02*
G03X1910474Y1537490I-3300J-0D01*
G01X1910620Y1536521D02*
Y1536517D01*
X1907641Y1533236D02*
G03X1907634Y1532967I3292J-224D01*
G01X1907120Y1533227D02*
G03X1907641Y1533236I200J3294D01*
G01X1907634Y1532967D02*
G03X1907120Y1533227I-1742J-2803D01*
G01X1907305Y1551431D02*
X1932536D01*
X1932463Y1551504*
X1908219*
X1907387Y1551636D02*
G03X1908219Y1551504I832J2568D01*
G01X1907305Y1551431D02*
G03X1907387Y1551636I-3023J1323D01*
G01X1934199Y1556833D02*
Y1561316D01*
X1931656Y1563858*
X1920422*
X1913839D02*
G03X1920422I3292J-232D01*
G01X1913839D02*
X1911676D01*
X1911656Y1563836*
X1908513Y1560955D02*
G03X1911656Y1563836I-130J3297D01*
G01X1909339Y1557498D02*
G03X1908513Y1560955I-3118J1082D01*
G01X1909339Y1557498D02*
X1909711Y1556904D01*
X1909711D02*
X1933581D01*
X1934199Y1556833D02*
G03X1933581Y1556904I-618J-2629D01*
G01X1944012Y1573215D02*
Y1575663D01*
X1943257Y1576418*
X1930770*
X1930750Y1575406D02*
G03X1930770Y1576418I-3250J569D01*
G01X1930750Y1575406D02*
X1940703D01*
X1942612Y1574615D02*
G03X1940703Y1575406I-1909J-1909D01*
G01X1942612Y1574615D02*
X1944012Y1573215D01*
X1918168Y1575406D02*
X1924249D01*
X1924230Y1576418D02*
G03X1924249Y1575406I3270J-443D01*
G01X1924230Y1576418D02*
X1920218D01*
X1917979Y1575835D02*
G03X1920218Y1576418I342J3283D01*
G01X1918168Y1575406D02*
G03X1917979Y1575835I-3107J-1112D01*
G01X1906091Y1561877D02*
G03X1903679Y1556476I130J-3297D01*
G01X1905643Y1566091D02*
G03X1906091Y1561877I2740J-1839D01*
G01X1905643Y1566091D02*
X1903178D01*
X1901686Y1566541D02*
G03X1903178Y1566091I1492J2250D01*
G01X1901686Y1566541D02*
Y1554792D01*
X1903886Y1556030D02*
G03X1901686Y1554792I396J-3276D01*
G01X1903679Y1556476D02*
G03X1903886Y1556030I2542J909D01*
G01X1915403Y1577576D02*
G03X1911977Y1575469I-342J-3282D01*
G01X1915105Y1579858D02*
G03X1915403Y1577576I3216J-740D01*
G01X1915105Y1579858D02*
X1904915D01*
X1901649Y1574933D02*
G03X1904915Y1579858I409J3274D01*
G01X1902237Y1573551D02*
G03X1901649Y1574933I-3251J-568D01*
G01X1902237Y1573551D02*
X1904297Y1571491D01*
X1908019*
X1911977Y1575469D02*
G03X1908019Y1571491I-748J-3214D01*
G01X1864492Y1534008D02*
Y1539133D01*
X1841456*
Y1534008*
X1864492*
X1829256Y1537655D02*
Y1539273D01*
X1827928Y1540070D02*
G03X1829256Y1539273I2263J2263D01*
G01X1827928Y1540070D02*
X1823585Y1544413D01*
X1822648Y1546676D02*
G03X1823585Y1544414I3200J0D01*
G01X1822648Y1546676D02*
Y1554606D01*
X1811281*
X1809019Y1555543D02*
G03X1811281Y1554606I2262J2263D01*
G01X1809019Y1555543D02*
X1806292Y1558270D01*
X1804641Y1556619*
Y1538564*
X1805387Y1537818*
X1806802*
X1805424Y1539568D02*
G03X1806802Y1537818I1800J-0D01*
G01X1805424Y1539568D02*
Y1544068D01*
X1807224Y1545868D02*
G03X1805424Y1544068I-0J-1800D01*
G01X1807224Y1545868D02*
X1811724D01*
X1813524Y1544068D02*
G03X1811724Y1545868I-1800J-0D01*
G01X1813524Y1544068D02*
Y1539568D01*
X1811724Y1537768D02*
G03X1813524Y1539568I-0J1800D01*
G01X1811724Y1537768D02*
X1810037D01*
X1810442Y1537668D02*
G03X1810037Y1537768I-968J-3050D01*
G01X1810442Y1537668D02*
X1811724D01*
X1812755Y1537343D02*
G03X1811724Y1537668I-1031J-1475D01*
G01X1812755Y1537343D02*
X1826010D01*
X1829256Y1537655D02*
G03X1826010Y1537343I-1349J-3012D01*
G01X1960137Y1625234D02*
G03X1957902Y1621382I989J-3148D01*
G01X1960135Y1625260D02*
G03X1960137Y1625234I3286J295D01*
G01X1958984Y1625342D02*
G03X1960135Y1625260I806J3200D01*
G01X1958984Y1625342D02*
X1951406D01*
X1947570Y1621064D02*
G03X1951406Y1625342I3127J1055D01*
G01X1947570Y1621064D02*
X1945916Y1622278D01*
X1943514*
Y1618994*
X1941714Y1617194D02*
G03X1943514Y1618994I-0J1800D01*
G01X1941714Y1617194D02*
X1941699D01*
Y1613390*
X1935432Y1611364D02*
G03X1941699Y1613390I3067J1220D01*
G01X1933073Y1609644D02*
G03X1935432Y1611364I-564J3251D01*
G01X1932998Y1608577D02*
G03X1933073Y1609644I-3211J763D01*
G01X1932998Y1608577D02*
X1942099D01*
X1945074Y1612411D02*
G03X1942099Y1608577I280J-3288D01*
G01X1950156Y1615976D02*
G03X1945074Y1612411I-1897J-2700D01*
G01X1950156Y1615976D02*
X1954439D01*
X1955572Y1615727D02*
G03X1954439Y1615976I-1133J-2451D01*
G01X1955572Y1615727D02*
Y1616205D01*
X1957902Y1621382D02*
G03X1955572Y1616205I370J-3279D01*
G01X1965453Y1537287D02*
Y1553915D01*
X1963338*
X1963238Y1553662D02*
G03X1963338Y1553915I-2113J984D01*
G01X1963238Y1551693D02*
G03Y1553662I-2113J985D01*
G01Y1549725D02*
G03Y1551693I-2113J984D01*
G01Y1547756D02*
G03Y1549725I-2113J985D01*
G01Y1545788D02*
G03Y1547756I-2113J984D01*
G01Y1543819D02*
G03Y1545788I-2113J985D01*
G01Y1541851D02*
G03Y1543819I-2113J984D01*
G01Y1539882D02*
G03Y1541851I-2113J985D01*
G01Y1537914D02*
G03Y1539882I-2113J984D01*
G01X1963338Y1537661D02*
G03X1963238Y1537914I-2213J-731D01*
G01X1963338Y1537661D02*
X1964082D01*
X1965453Y1537287D02*
G03X1964082Y1537661I-1371J-2326D01*
G01X2000792Y1586597D02*
G03X2000139Y1586116I1256J-2390D01*
G01X1999956Y1587320D02*
G03X2000792Y1586597I2546J2099D01*
G01X1999956Y1587320D02*
Y1585933D01*
X2000139Y1586116*
X1954290Y1724082D02*
G03X1952969Y1721314I1977J-2642D01*
G01X1954290Y1724082D02*
X1864971D01*
X1857671Y1716782*
X1856614Y1707182D02*
G03X1857671Y1716782I2699J4561D01*
G01X1856614Y1707182D02*
Y1704904D01*
X1851213D02*
G03X1856614I2700J-4561D01*
G01X1851213D02*
Y1707182D01*
Y1716304D02*
G03Y1707182I-2700J-4561D01*
G01Y1716304D02*
Y1716843D01*
X1852004Y1718753D02*
G03X1851213Y1716843I1909J-1910D01*
G01X1852004Y1718753D02*
X1861490Y1728238D01*
X1853974*
X1844149Y1718413*
X1842240Y1717622D02*
G03X1844149Y1718413I-0J2700D01*
G01X1842240Y1717622D02*
X1832518D01*
X1828478Y1713582*
Y1704001*
Y1696686D02*
G03Y1704001I3835J3657D01*
G01Y1696686D02*
Y1693316D01*
X1830456Y1691337*
X1857451*
X1861941Y1695826*
X1867414Y1695783D02*
G03X1861941Y1695826I-2701J4560D01*
G01X1867414Y1695782D02*
Y1694781D01*
X1866623Y1692872D02*
G03X1867414Y1694781I-1910J1909D01*
G01X1866623Y1692872D02*
X1860479Y1686728D01*
X1858569Y1685937D02*
G03X1860479Y1686728I0J2700D01*
G01X1858569Y1685937D02*
X1829338D01*
X1827429Y1686728D02*
G03X1829338Y1685937I1909J1909D01*
G01X1827429Y1686728D02*
X1823869Y1690288D01*
X1823760Y1690403D02*
G03X1823869Y1690288I2018J1794D01*
G01X1823760Y1690403D02*
Y1683326D01*
X1837178Y1669907*
X1900829*
X1900644Y1672057D02*
G03X1900829Y1669907I3200J-806D01*
G01X1900644Y1672057D02*
Y1680684D01*
X1901581Y1682946D02*
G03X1900644Y1680684I2263J-2262D01*
G01X1901581Y1682946D02*
X1915027Y1696392D01*
X1914740Y1696369D02*
G03X1915027Y1696392I0J1800D01*
G01X1914740Y1696369D02*
X1893087D01*
X1891287Y1698169D02*
G03X1893087Y1696369I1800J0D01*
G01X1891287Y1698169D02*
Y1713917D01*
X1893087Y1715717D02*
G03X1891287Y1713917I-0J-1800D01*
G01X1893087Y1715717D02*
X1914740D01*
X1916540Y1713917D02*
G03X1914740Y1715717I-1800J0D01*
G01X1916540Y1713917D02*
Y1698169D01*
X1916313Y1697294D02*
G03X1916540Y1698169I-1573J875D01*
G01X1917470Y1697510D02*
G03X1916313Y1697294I0J-3200D01*
G01X1917470Y1697510D02*
X1952938D01*
X1952938D02*
Y1720863D01*
X1952969Y1721314D02*
G03X1952938Y1720863I3169J-451D01*
G01X2011788Y1591558D02*
Y1593835D01*
X2010038Y1592457D02*
G03X2011788Y1593835I0J1800D01*
G01X2010038Y1592457D02*
X2005538D01*
X2003758Y1593991D02*
G03X2005538Y1592457I1780J266D01*
G01X2003758Y1593991D02*
X2001794D01*
X1999956Y1592153*
Y1591518*
X2005527Y1588100D02*
G03X1999956Y1591518I-3025J1319D01*
G01X2005777Y1588117D02*
G03X2005527Y1588100I-0J-1800D01*
G01X2005777Y1588117D02*
X2009219D01*
X2010721Y1589620*
X2011726Y1590254D02*
G03X2010721Y1589620I905J-2544D01*
G01X2011788Y1591558D02*
G03X2011726Y1590254I3200J-807D01*
G01X2001618Y1565073D02*
X2002098Y1565553D01*
X2001786Y1565574D02*
G03X2002098Y1565553I380J3278D01*
G01X2001618Y1565073D02*
G03X2001786Y1565574I-2463J1107D01*
G01X1995363Y1508868D02*
Y1511966D01*
X1994765Y1511863D02*
G03X1995363Y1511966I0J1800D01*
G01X1994765Y1511863D02*
X1990265D01*
X1988515Y1513242D02*
G03X1990265Y1511863I1750J421D01*
G01X1988515Y1513242D02*
Y1508362D01*
X1989971Y1509104D02*
G03X1988515Y1508362I0J-1800D01*
G01X1989971Y1509104D02*
X1994471D01*
X1995363Y1508868D02*
G03X1994471Y1509104I-892J-1564D01*
G01X1995363Y1519861D02*
Y1521419D01*
X1993802Y1520819D02*
G03X1995363Y1521419I-0J2331D01*
G01X1993802Y1520819D02*
X1991758D01*
X1990396Y1520450D02*
G03X1991758Y1520819I0J2700D01*
G01X1990396Y1520450D02*
X1988015D01*
Y1519230*
X1988365Y1518163D02*
G03X1988015Y1519230I-1800J0D01*
G01X1988365Y1518163D02*
Y1516881D01*
X1988465Y1516477D02*
G03X1988365Y1516881I-3150J-564D01*
G01X1988465Y1516477D02*
Y1518163D01*
X1990265Y1519963D02*
G03X1988465Y1518163I0J-1800D01*
G01X1990265Y1519963D02*
X1994765D01*
X1995363Y1519861D02*
G03X1994765Y1519963I-598J-1698D01*
G01X1984877Y1553662D02*
G03Y1551693I2114J-984D01*
G01X1984777Y1553915D02*
G03X1984877Y1553662I2214J731D01*
G01X1984777Y1553915D02*
X1980968D01*
X1980844Y1553790*
Y1541276*
X1984822Y1540009D02*
G03X1980844Y1541276I-2764J-1802D01*
G01X1984877Y1541851D02*
G03X1984822Y1540010I2114J-984D01*
G01X1984877Y1543819D02*
G03Y1541851I2114J-984D01*
G01Y1545788D02*
G03Y1543819I2114J-984D01*
G01Y1547756D02*
G03Y1545788I2114J-984D01*
G01Y1549725D02*
G03Y1547756I2114J-984D01*
G01Y1551693D02*
G03Y1549725I2114J-984D01*
G01X2011770Y1607643D02*
X2021227D01*
X2019379Y1611616D02*
G03X2021227Y1607643I3162J-946D01*
G01X2017355Y1612214D02*
G03X2019379Y1611616I1897J2700D01*
G01X2017355Y1612214D02*
X2008184D01*
X2007584Y1611613*
X2005674Y1610823D02*
G03X2007584Y1611613I0J2700D01*
G01X2005674Y1610823D02*
X2004838D01*
Y1605125*
X2003038Y1603325D02*
G03X2004838Y1605125I0J1800D01*
G01X2003038Y1603325D02*
X1997038D01*
X1995238Y1605125D02*
G03X1997038Y1603325I1800J-0D01*
G01X1995238Y1605125D02*
Y1610823D01*
X1994112*
X1992203Y1611613D02*
G03X1994112Y1610823I1909J1910D01*
G01X1992203Y1611613D02*
X1989508Y1614309D01*
X1988717Y1616218D02*
G03X1989508Y1614309I2700J-0D01*
G01X1988717Y1616218D02*
Y1617809D01*
X1988528Y1621301D02*
G03X1988717Y1617809I2889J-1595D01*
G01X1989184Y1626411D02*
G03X1988528Y1621301I1718J-2817D01*
G01X1988447Y1627864D02*
G03X1989184Y1626411I1800J-0D01*
G01X1988447Y1627864D02*
Y1628999D01*
X1988055Y1628608*
X1986146Y1627817D02*
G03X1988055Y1628608I0J2700D01*
G01X1986146Y1627817D02*
X1980817D01*
X1978908Y1628608D02*
G03X1980817Y1627817I1909J1909D01*
G01X1978908Y1628608D02*
X1976937Y1630578D01*
X1976146Y1632488D02*
G03X1976937Y1630578I2700J-0D01*
G01X1976146Y1632488D02*
Y1636757D01*
X1976937Y1638666D02*
G03X1976146Y1636757I1909J-1909D01*
G01X1976937Y1638666D02*
X1979142Y1640871D01*
X1978830Y1641884D02*
G03X1979142Y1640871I1800J-0D01*
G01X1978830Y1641884D02*
Y1642964D01*
X1978730Y1643220D02*
G03X1978830Y1642964I3028J1036D01*
G01X1978730Y1643220D02*
Y1641884D01*
X1976930Y1640084D02*
G03X1978730Y1641884I0J1800D01*
G01X1976930Y1640084D02*
X1972430D01*
X1970630Y1641884D02*
G03X1972430Y1640084I1800J-0D01*
G01X1970630Y1641884D02*
Y1646384D01*
X1972430Y1648184D02*
G03X1970630Y1646384I0J-1800D01*
G01X1972430Y1648184D02*
X1976930D01*
X1978558Y1647152D02*
G03X1976930Y1648184I-1628J-768D01*
G01X1978558Y1647152D02*
Y1647861D01*
X1979480Y1650109D02*
G03X1978558Y1647861I2278J-2248D01*
G01X1979480Y1650109D02*
X1983357Y1654039D01*
Y1672620*
X1970234Y1685743*
X1969297Y1688006D02*
G03X1970234Y1685743I3200J-0D01*
G01X1969297Y1688006D02*
Y1714584D01*
X1965640Y1718240*
X1959338*
Y1695116*
X1955331Y1691110D02*
G03X1959338Y1695116I807J3200D01*
G01X1955331Y1691110D02*
X1918796D01*
X1907044Y1679358*
Y1672697*
X1917320Y1682973*
X1919229Y1683764D02*
G03X1917320Y1682973I0J-2700D01*
G01X1919229Y1683764D02*
X1919862D01*
X1933418*
X1939292D02*
G03X1933418I-2937J1504D01*
G01X1939292D02*
X1948797D01*
X1950706Y1682973D02*
G03X1948797Y1683764I-1909J-1909D01*
G01X1950706Y1682973D02*
X1956949Y1676730D01*
X1957740Y1674820D02*
G03X1956949Y1676730I-2700J0D01*
G01X1957740Y1674820D02*
Y1634360D01*
X1958261Y1631742D02*
G03X1957740Y1634360I-3221J721D01*
G01X1958261Y1631742D02*
X1958984D01*
X1963077Y1628837D02*
G03X1958984Y1631742I-3287J-295D01*
G01X1966043Y1627559D02*
G03X1963077Y1628837I-2622J-2004D01*
G01X1970289Y1622746D02*
G03X1966043Y1627559I-2700J1898D01*
G01X1970289Y1622746D02*
Y1604390D01*
X1980933Y1593747*
X1984525*
X1982288Y1595983*
X1981498Y1597892D02*
G03X1982288Y1595983I2700J0D01*
G01X1981498Y1597892D02*
Y1617262D01*
X1986898D02*
G03X1981498I-2700J1897D01*
G01X1986898D02*
Y1599011D01*
X1994556Y1591353*
Y1593271*
X1995347Y1595180D02*
G03X1994556Y1593271I1909J-1909D01*
G01X1995347Y1595180D02*
X1998766Y1598600D01*
X2000676Y1599391D02*
G03X1998766Y1598600I-0J-2700D01*
G01X2000676Y1599391D02*
X2003853D01*
X2005538Y1600557D02*
G03X2003853Y1599391I0J-1800D01*
G01X2005538Y1600557D02*
X2006088D01*
Y1601961*
X2006879Y1603871D02*
G03X2006088Y1601961I1909J-1910D01*
G01X2006879Y1603871D02*
X2009861Y1606852D01*
X2011770Y1607643D02*
G03X2009861Y1606852I-0J-2700D01*
G01X2044939Y1550754D02*
Y1551099D01*
X2039758Y1555187D02*
G03X2044939Y1551099I2618J-2009D01*
G01X2035676Y1561727D02*
G03X2039758Y1555187I4468J-1755D01*
G01X2035676Y1561727D02*
X2034944D01*
Y1556972*
X2033144Y1555172D02*
G03X2034944Y1556972I-0J1800D01*
G01X2033144Y1555172D02*
X2027144D01*
X2025344Y1556972D02*
G03X2027144Y1555172I1800J-0D01*
G01X2025344Y1556972D02*
Y1561727D01*
X2022167*
Y1558210*
X2021794Y1557113D02*
G03X2022167Y1558210I-1427J1097D01*
G01X2021794Y1557113D02*
Y1552778D01*
X2021844*
X2023640Y1551097D02*
G03X2021844Y1552778I-1796J-119D01*
G01X2023752Y1550990D02*
G03X2023640Y1551097I-2262J-2262D01*
G01X2023752Y1550990D02*
X2026200Y1548543D01*
X2027805Y1545575D02*
G03X2026200Y1548543I-3298J135D01*
G01X2027805Y1545575D02*
X2039760D01*
X2044939Y1550754*
Y1555257D02*
Y1559749D01*
X2043292Y1556348D02*
G03X2044939Y1559749I-3148J3624D01*
G01Y1555257D02*
G03X2043292Y1556348I-2563J-2079D01*
G01X2044939Y1560194D02*
Y1563969D01*
X2043913Y1562944*
X2044939Y1560194D02*
G03X2043913Y1562944I-4795J-222D01*
G01X2031832Y1604465D02*
G03X2031041Y1595256I-1688J-4493D01*
G01X2031832Y1604465D02*
X2031041Y1605256D01*
X2025429Y1609074D02*
G03X2031041Y1605256I4715J898D01*
G01X2024465Y1607989D02*
G03X2025429Y1609074I-1924J2681D01*
G01X2021299Y1602243D02*
G03X2024465Y1607989I1897J2700D01*
G01X2021299Y1602243D02*
X2012888D01*
X2011488Y1600843*
Y1599823*
X2011838Y1598757D02*
G03X2011488Y1599823I-1800J-0D01*
G01X2011838Y1598757D02*
Y1597070D01*
X2011938Y1597475D02*
G03X2011838Y1597070I3050J-968D01*
G01X2011938Y1597475D02*
Y1598757D01*
X2013738Y1600557D02*
G03X2011938Y1598757I0J-1800D01*
G01X2013738Y1600557D02*
X2018238D01*
X2020038Y1598757D02*
G03X2018238Y1600557I-1800J-0D01*
G01X2020038Y1598757D02*
Y1594257D01*
X2018238Y1592457D02*
G03X2020038Y1594257I0J1800D01*
G01X2018238Y1592457D02*
X2018188D01*
Y1591558*
X2018270Y1590410D02*
G03X2018188Y1591558I-3282J341D01*
G01X2018270Y1590410D02*
X2020938D01*
X2022847Y1589620D02*
G03X2020938Y1590410I-1909J-1910D01*
G01X2022847Y1589620D02*
X2028135Y1584331D01*
X2031832Y1584465D02*
G03X2028135Y1584331I-1688J-4493D01*
G01X2031832Y1584465D02*
X2031041Y1585256D01*
X2031832Y1594465D02*
G03X2031041Y1585256I-1688J-4493D01*
G01X2031832Y1594465D02*
X2031041Y1595256D01*
X2031832Y1614465D02*
G03X2025671Y1611714I-1688J-4493D01*
G01X2031832Y1614465D02*
X2031041Y1615256D01*
X2025399Y1620697D02*
G03X2031041Y1615256I4745J-725D01*
G01X2025399Y1620697D02*
X2023767Y1619065D01*
X2021858Y1618274D02*
G03X2023767Y1619065I0J2700D01*
G01X2021858Y1618274D02*
X2004965D01*
X2004836Y1618277D02*
G03X2004965Y1618274I129J2697D01*
G01X2004445Y1616223D02*
G03X2004836Y1618277I-4407J1902D01*
G01X2004445Y1616223D02*
X2004556D01*
X2005156Y1616823*
X2007065Y1617614D02*
G03X2005156Y1616823I0J-2700D01*
G01X2007065Y1617614D02*
X2017355D01*
X2022414Y1613968D02*
G03X2017355Y1617614I-3162J946D01*
G01X2025671Y1611714D02*
G03X2022414Y1613968I-3130J-1044D01*
G01X2045412Y1650134D02*
Y1657797D01*
X2044327Y1658883*
X2043536Y1660792D02*
G03X2044327Y1658883I2700J-0D01*
G01X2043536Y1660792D02*
Y1696991D01*
X2043116Y1696339D02*
G03X2043536Y1696991I-1268J1277D01*
G01X2043116Y1696339D02*
Y1683839D01*
Y1682227D02*
G03Y1683839I-3200J806D01*
G01Y1682227D02*
Y1678240D01*
X2042179Y1675977D02*
G03X2043116Y1678240I-2263J2263D01*
G01X2042179Y1675977D02*
X2038048Y1671847D01*
X2035786Y1670910D02*
G03X2038048Y1671847I-0J3200D01*
G01X2035786Y1670910D02*
X1989757D01*
Y1655426*
X1995515*
X2000711Y1658237D02*
G03X1995515Y1655426I-1898J-2700D01*
G01X2000711Y1658237D02*
X2006258D01*
X2010652Y1661440*
X2012243Y1661958D02*
G03X2010652Y1661440I-0J-2700D01*
G01X2012243Y1661958D02*
X2033977D01*
Y1656558D02*
G03Y1661958I1897J2700D01*
G01Y1656558D02*
X2013122D01*
X2010668Y1654769*
X2011309Y1652062D02*
G03X2010668Y1654769I-3233J664D01*
G01X2011309Y1652062D02*
X2037398D01*
X2037622Y1652053D02*
G03X2037398Y1652062I-224J-2691D01*
G01X2037622Y1652053D02*
X2038766Y1651958D01*
X2043716Y1649438D02*
G03X2038766Y1651958I-3283J-328D01*
G01X2045014Y1649374D02*
G03X2043716Y1649438I-809J-3200D01*
G01X2045412Y1650134D02*
G03X2045014Y1649374I2700J-1897D01*
G01X2064076Y1518037D02*
Y1582878D01*
X2060110Y1586845*
Y1542042*
X2059319Y1540133D02*
G03X2060110Y1542042I-1909J1909D01*
G01X2059319Y1540133D02*
X2050670Y1531484D01*
X2048348Y1530091D02*
G03X2050670Y1531484I2710J-1884D01*
G01X2048151Y1530084D02*
G03X2048348Y1530091I0J2700D01*
G01X2048151Y1530084D02*
X2040773D01*
X2035343D02*
G03X2040773I2715J-1877D01*
G01X2035343D02*
X2032528D01*
X2031598Y1529154*
Y1524351*
X2030808Y1522442D02*
G03X2031598Y1524351I-1910J1909D01*
G01X2030808Y1522442D02*
X2028854Y1520488D01*
X2028199Y1520006D02*
G03X2028854Y1520488I-1254J2392D01*
G01X2028199Y1520006D02*
X2030338Y1517867D01*
X2031129Y1515958D02*
G03X2030338Y1517867I-2700J-0D01*
G01X2031129Y1515958D02*
Y1509098D01*
X2031388Y1508839*
X2054878*
X2064076Y1518037*
X2213137Y1501117D02*
G03X2213137I-4800J0D01*
G01Y1521117D02*
G03X2213137I-4800J0D01*
G01X2214672Y1541459D02*
Y1535459D01*
X2212872Y1533659D02*
G03X2214672Y1535459I0J1800D01*
G01X2212872Y1533659D02*
X2206872D01*
X2205072Y1535459D02*
G03X2206872Y1533659I1800J0D01*
G01X2205072Y1535459D02*
Y1541459D01*
X2206872Y1543259D02*
G03X2205072Y1541459I0J-1800D01*
G01X2206872Y1543259D02*
X2212872D01*
X2214672Y1541459D02*
G03X2212872Y1543259I-1800J0D01*
G01X2214672Y1548459D02*
G03X2214672I-4800J0D01*
G01Y1558459D02*
G03X2214672I-4800J0D01*
G01Y1568459D02*
G03X2214672I-4800J0D01*
G01Y1578459D02*
G03X2214672I-4800J0D01*
G01Y1588459D02*
G03X2214672I-4800J0D01*
G01Y1598459D02*
G03X2214672I-4800J0D01*
G01Y1608459D02*
G03X2214672I-4800J0D01*
G01X2206793Y1658502D02*
G03Y1663902I3969J2700D01*
G01Y1658502D02*
X2205450D01*
X2201365Y1654416*
X2207197*
X2206488Y1649016D02*
G03X2207197Y1654416I4274J2186D01*
G01X2206488Y1649016D02*
X2194591D01*
X2199425Y1643902*
X2206793*
Y1638502D02*
G03Y1643902I3969J2700D01*
G01Y1638502D02*
X2198262D01*
X2197046Y1638792D02*
G03X2198262Y1638502I1216J2410D01*
G01X2197046Y1638792D02*
X2201936Y1633902D01*
X2201936D02*
X2205962D01*
Y1634202*
X2207762Y1636002D02*
G03X2205962Y1634202I-0J-1800D01*
G01X2207762Y1636002D02*
X2213762D01*
X2215562Y1634202D02*
G03X2213762Y1636002I-1800J0D01*
G01X2215562Y1634202D02*
Y1628202D01*
X2213762Y1626402D02*
G03X2215562Y1628202I-0J1800D01*
G01X2213762Y1626402D02*
X2207762D01*
X2205962Y1628202D02*
G03X2207762Y1626402I1800J0D01*
G01X2205962Y1628202D02*
Y1628502D01*
X2200817*
X2198908Y1629293D02*
G03X2200817Y1628502I1909J1909D01*
G01X2198908Y1629293D02*
X2185220Y1642981D01*
X2134648*
X2125468D02*
G03X2134648I4590J-3442D01*
G01X2125468D02*
X2120313D01*
X2119935Y1642905D02*
G03X2120313Y1642981I-363J2776D01*
G01X2119935Y1642905D02*
Y1632829D01*
X2119145Y1630920D02*
G03X2119935Y1632829I-1910J1909D01*
G01X2119145Y1630920D02*
X2116865Y1628640D01*
X2113046Y1632458D02*
G03X2116865Y1628640I568J-3251D01*
G01X2113046Y1632458D02*
X2114535Y1633947D01*
Y1635591*
X2111299Y1645201D02*
G03X2114535Y1635591I-926J-5662D01*
G01X2110914Y1646591D02*
G03X2111299Y1645201I2700J0D01*
G01X2110914Y1646591D02*
Y1652334D01*
X2111705Y1654243D02*
G03X2110914Y1652334I1909J-1909D01*
G01X2111705Y1654243D02*
X2114412Y1656951D01*
X2116322Y1657742D02*
G03X2114412Y1656951I-0J-2700D01*
G01X2116322Y1657742D02*
X2125735D01*
X2126861Y1658868*
Y1669819*
X2132252Y1673626D02*
G03X2126861Y1669819I-2691J-1910D01*
G01X2136361Y1675236D02*
G03X2132252Y1673626I-1160J-3090D01*
G01X2136361Y1675236D02*
Y1677194D01*
X2134637Y1678992D02*
G03X2136361Y1677194I1800J0D01*
G01X2134637Y1678992D02*
Y1680274D01*
X2134537Y1680678D02*
G03X2134637Y1680274I3150J564D01*
G01X2134537Y1680678D02*
Y1678992D01*
X2132737Y1677192D02*
G03X2134537Y1678992I0J1800D01*
G01X2132737Y1677192D02*
X2128237D01*
X2126437Y1678992D02*
G03X2128237Y1677192I1800J0D01*
G01X2126437Y1678992D02*
Y1683492D01*
X2128237Y1685292D02*
G03X2126437Y1683492I0J-1800D01*
G01X2128237Y1685292D02*
X2132737D01*
X2134537Y1683492D02*
G03X2132737Y1685292I-1800J0D01*
G01X2134537Y1683492D02*
Y1681806D01*
X2134637Y1682210D02*
G03X2134537Y1681806I3050J-968D01*
G01X2134637Y1682210D02*
Y1683492D01*
X2136437Y1685292D02*
G03X2134637Y1683492I0J-1800D01*
G01X2136437Y1685292D02*
X2140937D01*
X2142737Y1683492D02*
G03X2140937Y1685292I-1800J0D01*
G01X2142737Y1683492D02*
Y1679754D01*
X2142761Y1679369D02*
G03X2142737Y1679754I-3200J-0D01*
G01X2142761Y1679369D02*
Y1674376D01*
X2138118Y1670602D02*
G03X2142761Y1674376I1443J2967D01*
G01X2132510Y1670236D02*
G03X2138118Y1670602I2691J1910D01*
G01X2132261Y1669819D02*
G03X2132510Y1670236I-2700J1897D01*
G01X2132261Y1669819D02*
Y1657749D01*
X2131470Y1655840D02*
G03X2132261Y1657749I-1909J1909D01*
G01X2131470Y1655840D02*
X2130315Y1654685D01*
X2130771Y1654416D02*
G03X2130315Y1654685I-1897J-2700D01*
G01X2130771Y1654416D02*
X2144210D01*
X2150062Y1656681D02*
G03X2144210Y1654416I-2557J-2086D01*
G01X2154480Y1657252D02*
G03X2150062Y1656681I-1897J-2700D01*
G01X2154480Y1657252D02*
X2196563D01*
X2202423Y1663111*
X2204332Y1663902D02*
G03X2202423Y1663111I0J-2700D01*
G01X2204332Y1663902D02*
X2206793D01*
X2219677Y1695601D02*
Y1677418D01*
X2218887Y1675509D02*
G03X2219677Y1677418I-1910J1909D01*
G01X2218887Y1675509D02*
X2215477Y1672099D01*
X2211659Y1675918D02*
G03X2215477Y1672099I-897J-4716D01*
G01X2211659Y1675918D02*
X2212450Y1676709D01*
X2207191Y1677994D02*
G03X2212450Y1676709I3571J3208D01*
G01X2207191Y1677994D02*
X2160669D01*
Y1674269*
X2158869Y1672469D02*
G03X2160669Y1674269I0J1800D01*
G01X2158869Y1672469D02*
X2154369D01*
X2152761Y1673461D02*
G03X2154369Y1672469I1608J808D01*
G01X2152761Y1673461D02*
Y1671485D01*
X2152826Y1671154D02*
G03X2152761Y1671485I-3265J-475D01*
G01X2149410Y1667382D02*
G03X2152826Y1671154I3265J475D01*
G01X2146361Y1671485D02*
G03X2149410Y1667382I3200J-806D01*
G01X2146361Y1671485D02*
Y1672469D01*
X2146169*
X2144369Y1674269D02*
G03X2146169Y1672469I1800J-0D01*
G01X2144369Y1674269D02*
Y1678769D01*
X2146169Y1680569D02*
G03X2144369Y1678769I0J-1800D01*
G01X2146169Y1680569D02*
X2150669D01*
X2152469Y1678769D02*
G03X2150669Y1680569I-1800J-0D01*
G01X2152469Y1678769D02*
Y1677712D01*
X2152569Y1677468D02*
G03X2152469Y1677712I-3008J-1091D01*
G01X2152569Y1677468D02*
Y1678769D01*
X2153033Y1679975D02*
G03X2152569Y1678769I1336J-1206D01*
G01X2153033Y1679975D02*
X2150456Y1682553D01*
X2149665Y1684462D02*
G03X2150456Y1682553I2700J-0D01*
G01X2149665Y1684462D02*
Y1688272D01*
X2155659Y1689975D02*
G03X2149665Y1688272I-3294J195D01*
G01X2156270Y1689983D02*
G03X2155659Y1689975I-263J-3290D01*
G01X2162605Y1691504D02*
G03X2156270Y1689983I-3044J-1274D01*
G01X2168623Y1689393D02*
G03X2162605Y1691504I-3290J254D01*
G01X2168623Y1689393D02*
X2196931D01*
X2198331Y1690966*
Y1693405*
X2199122Y1695314D02*
G03X2198331Y1693405I1909J-1909D01*
G01X2199122Y1695314D02*
X2202357Y1698550D01*
X2204266Y1699341D02*
G03X2202357Y1698550I0J-2700D01*
G01X2204266Y1699341D02*
X2206337D01*
X2215186D02*
G03X2206337I-4424J1861D01*
G01X2215186D02*
X2215937D01*
X2217847Y1698550D02*
G03X2215937Y1699341I-1910J-1909D01*
G01X2217847Y1698550D02*
X2218887Y1697510D01*
X2219677Y1695601D02*
G03X2218887Y1697510I-2700J-0D01*
G01X2195323Y1724721D02*
G03X2195323I-4800J0D01*
G01X2185323D02*
G03X2185323I-4800J0D01*
G01X2169361Y1715654D02*
Y1711154D01*
X2167561Y1709354D02*
G03X2169361Y1711154I-0J1800D01*
G01X2167561Y1709354D02*
X2167511D01*
Y1704348*
X2166574Y1702086D02*
G03X2167511Y1704348I-2263J2262D01*
G01X2166574Y1702086D02*
X2163176Y1698688D01*
X2160913Y1697751D02*
G03X2163176Y1698688I-0J3200D01*
G01X2160913Y1697751D02*
X2146630D01*
X2146526*
X2145662Y1697869D02*
G03X2146526Y1697751I864J3082D01*
G01X2145662Y1697869D02*
Y1693698D01*
X2147217Y1692144*
X2142691Y1687618D02*
G03X2147217Y1692144I2833J1693D01*
G01X2142691Y1687618D02*
X2140200Y1690109D01*
X2139262Y1692372D02*
G03X2140200Y1690109I3200J0D01*
G01X2139262Y1692372D02*
Y1705014D01*
Y1708158*
X2137512Y1706780D02*
G03X2139262Y1708158I0J1800D01*
G01X2137512Y1706780D02*
X2133012D01*
X2131212Y1708580D02*
G03X2133012Y1706780I1800J-0D01*
G01X2131212Y1708580D02*
Y1713080D01*
X2133012Y1714880D02*
G03X2131212Y1713080I0J-1800D01*
G01X2133012Y1714880D02*
X2137512D01*
X2139312Y1713080D02*
G03X2137512Y1714880I-1800J-0D01*
G01X2139312Y1713080D02*
Y1711393D01*
X2139412Y1711798D02*
G03X2139312Y1711393I3050J-968D01*
G01X2139412Y1711798D02*
Y1713080D01*
X2141212Y1714880D02*
G03X2139412Y1713080I0J-1800D01*
G01X2141212Y1714880D02*
X2145712D01*
X2147512Y1713080D02*
G03X2145712Y1714880I-1800J-0D01*
G01X2147512Y1713080D02*
Y1708580D01*
X2145712Y1706780D02*
G03X2147512Y1708580I0J1800D01*
G01X2145712Y1706780D02*
X2145662D01*
Y1706339*
X2147851Y1704151*
X2159587*
X2161111Y1705674*
Y1710733*
X2159361Y1709354D02*
G03X2161111Y1710733I-0J1800D01*
G01X2159361Y1709354D02*
X2154861D01*
X2153061Y1711154D02*
G03X2154861Y1709354I1800J0D01*
G01X2153061Y1711154D02*
Y1715654D01*
X2154861Y1717454D02*
G03X2153061Y1715654I-0J-1800D01*
G01X2154861Y1717454D02*
X2159361D01*
X2161161Y1715654D02*
G03X2159361Y1717454I-1800J0D01*
G01X2161161Y1715654D02*
Y1713968D01*
X2161261Y1714373D02*
G03X2161161Y1713968I3050J-969D01*
G01X2161261Y1714373D02*
Y1715654D01*
X2163061Y1717454D02*
G03X2161261Y1715654I-0J-1800D01*
G01X2163061Y1717454D02*
X2167561D01*
X2169361Y1715654D02*
G03X2167561Y1717454I-1800J0D01*
G01X2175323Y1724721D02*
G03X2175323I-4800J0D01*
G01X2155323D02*
G03X2155323I-4800J0D01*
G01X2145323D02*
G03X2145323I-4800J0D01*
G01X2131709Y1727735D02*
Y1721735D01*
X2129909Y1719935D02*
G03X2131709Y1721735I0J1800D01*
G01X2129909Y1719935D02*
X2127577D01*
X2128926Y1715622D02*
G03X2127577Y1719935I-2970J1438D01*
G01X2130076Y1713943D02*
G03X2128926Y1715622I-1800J0D01*
G01X2130076Y1713943D02*
Y1709443D01*
X2128276Y1707643D02*
G03X2130076Y1709443I0J1800D01*
G01X2128276Y1707643D02*
X2128151D01*
Y1689285*
X2124145Y1685279D02*
G03X2128151Y1689285I806J3200D01*
G01X2124145Y1685279D02*
X2122612D01*
X2123898Y1683554D02*
G03X2122612Y1685279I-1800J0D01*
G01X2123898Y1683554D02*
Y1679054D01*
X2122761Y1677381D02*
G03X2123898Y1679054I-663J1673D01*
G01X2122761Y1677381D02*
Y1673919D01*
X2122529Y1671671D02*
G03X2122761Y1673919I-2968J1442D01*
G01X2121905Y1665502D02*
G03X2122529Y1671671I1437J2971D01*
G01X2121111Y1664184D02*
G03X2121905Y1665502I-2263J2263D01*
G01X2121111Y1664184D02*
X2102176Y1645250D01*
Y1625065*
X2110876Y1616365*
X2111814Y1614103D02*
G03X2110876Y1616365I-3200J-0D01*
G01X2111814Y1614103D02*
Y1605182D01*
X2105414D02*
G03X2111814I3200J-807D01*
G01X2105414D02*
Y1612777D01*
X2096714Y1621477*
X2095776Y1623740D02*
G03X2096714Y1621477I3200J-0D01*
G01X2095776Y1623740D02*
Y1646575D01*
X2096714Y1648838D02*
G03X2095776Y1646575I2262J-2263D01*
G01X2096714Y1648838D02*
X2112817Y1664941D01*
X2115648Y1670859D02*
G03X2112817Y1664941I-1087J-3116D01*
G01X2115648Y1670859D02*
Y1672121D01*
X2116249Y1673988D02*
G03X2115648Y1672121I2599J-1867D01*
G01X2116249Y1673988D02*
X2116361Y1674144D01*
Y1677747*
X2115798Y1679054D02*
G03X2116361Y1677747I1800J0D01*
G01X2115798Y1679054D02*
Y1680336D01*
X2115698Y1680740D02*
G03X2115798Y1680336I3150J564D01*
G01X2115698Y1680740D02*
Y1679054D01*
X2113898Y1677254D02*
G03X2115698Y1679054I-0J1800D01*
G01X2113898Y1677254D02*
X2109398D01*
X2107598Y1679054D02*
G03X2109398Y1677254I1800J0D01*
G01X2107598Y1679054D02*
Y1683554D01*
X2108884Y1685279D02*
G03X2107598Y1683554I514J-1725D01*
G01X2108884Y1685279D02*
X2107718D01*
X2105820Y1685902D02*
G03X2107718Y1685279I1898J2577D01*
G01X2105820Y1685902D02*
X2104326Y1687003D01*
X2108121Y1692156D02*
G03X2104326Y1687003I-2546J-2099D01*
G01X2108121Y1692156D02*
X2108769Y1691679D01*
X2121751*
Y1702932*
X2119466Y1703509D02*
G03X2121751Y1702932I1898J2700D01*
G01X2119466Y1703509D02*
X2086928D01*
X2085533Y1702114*
X2081715Y1705932D02*
G03X2085533Y1702114I567J-3250D01*
G01X2081715Y1705932D02*
X2083900Y1708118D01*
X2085810Y1708909D02*
G03X2083900Y1708118I-0J-2700D01*
G01X2085810Y1708909D02*
X2113857D01*
X2113776Y1709443D02*
G03X2113857Y1708909I1800J0D01*
G01X2113776Y1709443D02*
Y1713943D01*
X2115576Y1715743D02*
G03X2113776Y1713943I0J-1800D01*
G01X2115576Y1715743D02*
X2120076D01*
X2121876Y1713943D02*
G03X2120076Y1715743I-1800J0D01*
G01X2121876Y1713943D02*
Y1712504D01*
X2121976Y1712797D02*
G03X2121876Y1712504I2975J-1179D01*
G01X2121976Y1712797D02*
Y1713943D01*
X2123010Y1715572D02*
G03X2121976Y1713943I766J-1629D01*
G01X2124334Y1719935D02*
G03X2123010Y1715572I1622J-2875D01*
G01X2124334Y1719935D02*
X2123909D01*
X2122109Y1721735D02*
G03X2123909Y1719935I1800J-0D01*
G01X2122109Y1721735D02*
Y1727735D01*
X2123909Y1729535D02*
G03X2122109Y1727735I0J-1800D01*
G01X2123909Y1729535D02*
X2129909D01*
X2131709Y1727735D02*
G03X2129909Y1729535I-1800J-0D01*
G01X2121709Y1724735D02*
G03X2121709I-4800J0D01*
G01X2111709D02*
G03X2111709I-4800J0D01*
G01X2101709D02*
G03X2101709I-4800J0D01*
G01X2091709D02*
G03X2091709I-4800J0D01*
G01X2081709D02*
G03X2081709I-4800J0D01*
G01X2071709D02*
G03X2071709I-4800J0D01*
G01X2030148Y1707616D02*
Y1697616D01*
X2028348Y1695816D02*
G03X2030148Y1697616I0J1800D01*
G01X2028348Y1695816D02*
X2019548D01*
X2017748Y1697616D02*
G03X2019548Y1695816I1800J0D01*
G01X2017748Y1697616D02*
Y1700930D01*
X2013019Y1699924D02*
G03X2017748Y1700930I1897J2700D01*
G01X2013019Y1699924D02*
X2004210D01*
X2002301Y1700715D02*
G03X2004210Y1699924I1909J1909D01*
G01X2002301Y1700715D02*
X2000401Y1702614D01*
X2000404Y1702517D02*
G03X2000401Y1702614I-1800J0D01*
G01X2000404Y1702517D02*
Y1693717D01*
X1998604Y1691917D02*
G03X2000404Y1693717I0J1800D01*
G01X1998604Y1691917D02*
X1988604D01*
X1986804Y1693717D02*
G03X1988604Y1691917I1800J0D01*
G01X1986804Y1693717D02*
Y1702517D01*
X1988604Y1704317D02*
G03X1986804Y1702517I0J-1800D01*
G01X1988604Y1704317D02*
X1998604D01*
X1998701Y1704315D02*
G03X1998604Y1704317I-97J-1798D01*
G01X1998701Y1704315D02*
X1997598Y1705417D01*
X1988604*
X1986804Y1707217D02*
G03X1988604Y1705417I1800J0D01*
G01X1986804Y1707217D02*
Y1716017D01*
X1988604Y1717817D02*
G03X1986804Y1716017I0J-1800D01*
G01X1988604Y1717817D02*
X1998604D01*
X2000404Y1716017D02*
G03X1998604Y1717817I-1800J0D01*
G01X2000404Y1716017D02*
Y1710248D01*
X2005328Y1705324*
X2013019*
X2017748Y1704318D02*
G03X2013019Y1705324I-2832J-1694D01*
G01X2017748Y1704318D02*
Y1707616D01*
X2019548Y1709416D02*
G03X2017748Y1707616I0J-1800D01*
G01X2019548Y1709416D02*
X2028348D01*
X2030148Y1707616D02*
G03X2028348Y1709416I-1800J0D01*
G01X2101652Y1657931D02*
G03X2101652I-3300J0D01*
G01X2085366Y1691571D02*
G03X2085366I-3300J0D01*
G01X2202123Y1472086D02*
G03X2202123I-3918J0D01*
G01X2184800D02*
G03X2184800I-3918J0D01*
G01X2172423Y1527195D02*
G03X2172423I-3300J0D01*
G01X2177512Y1600918D02*
Y1594918D01*
X2175712Y1593118D02*
G03X2177512Y1594918I0J1800D01*
G01X2175712Y1593118D02*
X2169712D01*
X2167912Y1594918D02*
G03X2169712Y1593118I1800J0D01*
G01X2167912Y1594918D02*
Y1600918D01*
X2169712Y1602718D02*
G03X2167912Y1600918I0J-1800D01*
G01X2169712Y1602718D02*
X2175712D01*
X2177512Y1600918D02*
G03X2175712Y1602718I-1800J0D01*
G01X2193251Y1607792D02*
G03Y1614193I806J3200D01*
G01Y1607792D02*
X2184822D01*
X2182559Y1608730D02*
G03X2184822Y1607792I2263J2262D01*
G01X2182559Y1608730D02*
X2180094Y1611195D01*
X2176220*
X2169205D02*
G03X2176220I3507J-3277D01*
G01X2169205D02*
X2166704D01*
X2164077Y1608568*
X2162705Y1607757D02*
G03X2164077Y1608568I-891J3073D01*
G01X2162705Y1607757D02*
Y1581173D01*
X2182776*
Y1574773D02*
G03Y1581173I806J3200D01*
G01Y1574773D02*
X2161282D01*
X2159019Y1575711D02*
G03X2161282Y1574773I2263J2262D01*
G01X2159019Y1575711D02*
X2157676Y1577054D01*
Y1510485*
Y1503929D02*
G03Y1510485I382J3278D01*
G01Y1503929D02*
Y1478430D01*
X2168048Y1468058*
X2184498*
X2188694Y1462990D02*
G03X2184498Y1468058I-2299J2368D01*
G01X2187644Y1457101D02*
G03X2188694Y1462990I1897J2700D01*
G01X2187644Y1457101D02*
X2161607D01*
X2159697Y1457891D02*
G03X2161607Y1457101I1910J1910D01*
G01X2159697Y1457891D02*
X2143550Y1474039D01*
X2142759Y1475949D02*
G03X2143550Y1474039I2700J-0D01*
G01X2142759Y1475949D02*
Y1635216D01*
X2148159Y1635007D02*
G03X2142759Y1635216I-2627J1997D01*
G01X2148159Y1635007D02*
Y1614505D01*
X2152276Y1614552D02*
G03X2148159Y1614505I-2010J-4359D01*
G01X2152276Y1614552D02*
Y1635816D01*
X2151888Y1636203*
X2155707Y1640022D02*
G03X2151888Y1636203I-3251J-568D01*
G01X2155707Y1640022D02*
X2156885Y1638843D01*
X2157676Y1636934D02*
G03X2156885Y1638843I-2700J-0D01*
G01X2157676Y1636934D02*
Y1613243D01*
X2157919Y1613390D02*
G03X2157676Y1613243I1586J-2893D01*
G01X2159839Y1614030D02*
G03X2157919Y1613390I0J-3200D01*
G01X2159839Y1614030D02*
X2160489D01*
X2163116Y1616658*
X2165379Y1617595D02*
G03X2163116Y1616658I-0J-3200D01*
G01X2165379Y1617595D02*
X2181419D01*
X2183682Y1616658D02*
G03X2181419Y1617595I-2263J-2263D01*
G01X2183682Y1616658D02*
X2186147Y1614193D01*
X2193251*
X2106358Y1506207D02*
G03X2106358I-3300J0D01*
G01Y1519207D02*
G03X2106358I-3300J0D01*
G01X1912907Y1595605D02*
G03Y1601005I1898J2700D01*
G01Y1595605D02*
X1905289D01*
Y1601005D02*
G03Y1595605I-1898J-2700D01*
G01Y1601005D02*
X1912907D01*
X1878405Y1594193D02*
Y1588193D01*
X1876605Y1586393D02*
G03X1878405Y1588193I0J1800D01*
G01X1876605Y1586393D02*
X1868005D01*
X1866205Y1588193D02*
G03X1868005Y1586393I1800J0D01*
G01X1866205Y1588193D02*
Y1594193D01*
X1868005Y1595993D02*
G03X1866205Y1594193I0J-1800D01*
G01X1868005Y1595993D02*
X1876605D01*
X1878405Y1594193D02*
G03X1876605Y1595993I-1800J0D01*
G01X1949104Y1662981D02*
G03X1949104I-3300J0D01*
G01X1904247Y1656876D02*
G03X1904247I-3300J0D01*
G01X1811092Y1639189D02*
G03X1811092I-4800J0D01*
G01Y1649189D02*
G03X1811092I-4800J0D01*
G01Y1659189D02*
G03X1811092I-4800J0D01*
G01X1812573Y1673089D02*
G03X1812573I-3300J0D01*
G01X1801092Y1569189D02*
G03X1801092I-4800J0D01*
G01Y1579189D02*
G03X1801092I-4800J0D01*
G01Y1589189D02*
G03X1801092I-4800J0D01*
G01Y1599189D02*
G03X1801092I-4800J0D01*
G01Y1609189D02*
G03X1801092I-4800J0D01*
G01Y1619189D02*
G03X1801092I-4800J0D01*
G01Y1629189D02*
G03X1801092I-4800J0D01*
G01Y1639189D02*
G03X1801092I-4800J0D01*
G01Y1649189D02*
G03X1801092I-4800J0D01*
G01Y1659189D02*
G03X1801092I-4800J0D01*
G01X1816540Y1713917D02*
Y1698169D01*
X1814740Y1696369D02*
G03X1816540Y1698169I0J1800D01*
G01X1814740Y1696369D02*
X1793087D01*
X1791287Y1698169D02*
G03X1793087Y1696369I1800J0D01*
G01X1791287Y1698169D02*
Y1713917D01*
X1793087Y1715717D02*
G03X1791287Y1713917I-0J-1800D01*
G01X1793087Y1715717D02*
X1814740D01*
X1816540Y1713917D02*
G03X1814740Y1715717I-1800J0D01*
G01X1841621Y1517290D02*
Y1511290D01*
X1839821Y1509490D02*
G03X1841621Y1511290I0J1800D01*
G01X1839821Y1509490D02*
X1831221D01*
X1829421Y1511290D02*
G03X1831221Y1509490I1800J-0D01*
G01X1829421Y1511290D02*
Y1517290D01*
X1831221Y1519090D02*
G03X1829421Y1517290I0J-1800D01*
G01X1831221Y1519090D02*
X1839821D01*
X1841621Y1517290D02*
G03X1839821Y1519090I-1800J-0D01*
G01X1828793Y1583287D02*
G03X1828793I-3300J0D01*
G01X1811092Y1579189D02*
G03X1811092I-4800J0D01*
G01Y1589189D02*
G03X1811092I-4800J0D01*
G01X1846907Y1621167D02*
G03X1846907I-3300J0D01*
G01X1840979Y1465117D02*
Y1459117D01*
X1839179Y1457317D02*
G03X1840979Y1459117I0J1800D01*
G01X1839179Y1457317D02*
X1830579D01*
X1828779Y1459117D02*
G03X1830579Y1457317I1800J-0D01*
G01X1828779Y1459117D02*
Y1465117D01*
X1830579Y1466917D02*
G03X1828779Y1465117I0J-1800D01*
G01X1830579Y1466917D02*
X1839179D01*
X1840979Y1465117D02*
G03X1839179Y1466917I-1800J-0D01*
G01X1876857Y1517290D02*
Y1511290D01*
X1875057Y1509490D02*
G03X1876857Y1511290I0J1800D01*
G01X1875057Y1509490D02*
X1866457D01*
X1864657Y1511290D02*
G03X1866457Y1509490I1800J-0D01*
G01X1864657Y1511290D02*
Y1517290D01*
X1864964Y1518294D02*
G03X1864657Y1517290I1493J-1004D01*
G01X1866972Y1519090D02*
G03X1864964Y1518294I-2152J2501D01*
G01X1866972Y1519090D02*
X1875057D01*
X1876857Y1517290D02*
G03X1875057Y1519090I-1800J-0D01*
G01X1876216Y1465117D02*
Y1459117D01*
X1874416Y1457317D02*
G03X1876216Y1459117I-0J1800D01*
G01X1874416Y1457317D02*
X1865816D01*
X1864016Y1459117D02*
G03X1865816Y1457317I1800J-0D01*
G01X1864016Y1459117D02*
Y1465117D01*
X1865816Y1466917D02*
G03X1864016Y1465117I-0J-1800D01*
G01X1865816Y1466917D02*
X1874416D01*
X1876216Y1465117D02*
G03X1874416Y1466917I-1800J-0D01*
G01X1879418Y1627583D02*
G03X1879418I-3300J0D01*
G01X2137685Y1586505D02*
G03X2137685I-4800J0D01*
G01X2117576Y1555509D02*
G03X2117576I-4800J0D01*
G01X2083388Y1612994D02*
Y1606994D01*
X2081588Y1605194D02*
G03X2083388Y1606994I0J1800D01*
G01X2081588Y1605194D02*
X2075588D01*
X2073788Y1606994D02*
G03X2075588Y1605194I1800J0D01*
G01X2073788Y1606994D02*
Y1612994D01*
X2075588Y1614794D02*
G03X2073788Y1612994I0J-1800D01*
G01X2075588Y1614794D02*
X2081588D01*
X2083388Y1612994D02*
G03X2081588Y1614794I-1800J0D01*
G01X2095167Y1556777D02*
Y1551277D01*
X2093366Y1549477D02*
G03X2095167Y1551277I0J1800D01*
G01X2093366Y1549477D02*
X2088366D01*
X2086566Y1551277D02*
G03X2088366Y1549477I1800J0D01*
G01X2086566Y1551277D02*
Y1556777D01*
X2088366Y1558577D02*
G03X2086566Y1556777I0J-1800D01*
G01X2088366Y1558577D02*
X2093366D01*
X2095167Y1556777D02*
G03X2093366Y1558577I-1801J0D01*
G01X2098358Y1565207D02*
G03X2098358I-3300J0D01*
G01X2137685Y1606505D02*
G03X2137685I-4800J0D01*
G01X2192855Y1675606D02*
Y1671106D01*
X2191055Y1669306D02*
G03X2192855Y1671106I-0J1800D01*
G01X2191055Y1669306D02*
X2186555D01*
X2184755Y1671106D02*
G03X2186555Y1669306I1800J-0D01*
G01X2184755Y1671106D02*
Y1672792D01*
X2184655Y1672388D02*
G03X2184755Y1672792I-3050J968D01*
G01X2184655Y1672388D02*
Y1671106D01*
X2182855Y1669306D02*
G03X2184655Y1671106I-0J1800D01*
G01X2182855Y1669306D02*
X2178355D01*
X2177158Y1669761D02*
G03X2178355Y1669306I1197J1345D01*
G01X2177158Y1669761D02*
X2165367D01*
Y1676161D02*
G03Y1669761I-806J-3200D01*
G01Y1676161D02*
X2176642D01*
X2178355Y1677406D02*
G03X2176642Y1676161I-0J-1800D01*
G01X2178355Y1677406D02*
X2182855D01*
X2184655Y1675606D02*
G03X2182855Y1677406I-1800J-0D01*
G01X2184655Y1675606D02*
Y1674324D01*
X2184755Y1673920D02*
G03X2184655Y1674324I-3150J-564D01*
G01X2184755Y1673920D02*
Y1675606D01*
X2186555Y1677406D02*
G03X2184755Y1675606I-0J-1800D01*
G01X2186555Y1677406D02*
X2191055D01*
X2192855Y1675606D02*
G03X2191055Y1677406I-1800J-0D01*
G01X1924333Y1527200D02*
G03X1924333I-3300J0D01*
G01X1820546Y1550258D02*
G03X1820546I-3300J0D01*
G01X1942520Y1710020D02*
G03X1942520I-3300J0D01*
G01X1947358Y1718207D02*
G03X1947358I-3300J0D01*
G01X1880814Y1700343D02*
G03X1880814I-5301J0D01*
G01X1875414Y1711743D02*
G03X1875414I-5301J0D01*
G01X1843014D02*
G03X1843014I-5301J0D01*
G01X1848414Y1700343D02*
G03X1848414I-5301J0D01*
G01X2028646Y1666070D02*
G03X2028646I-3300J0D01*
G01X2019779Y1666035D02*
G03X2019779I-3300J0D01*
G01X2060110Y1582140D02*
X2064076D01*
X2060110Y1580340D02*
X2064076D01*
X2060110Y1578540D02*
X2064076D01*
X2060110Y1576740D02*
X2064076D01*
X2060110Y1574940D02*
X2064076D01*
X2060110Y1573140D02*
X2064076D01*
X2060110Y1571340D02*
X2064076D01*
X2060110Y1569540D02*
X2064076D01*
X2060110Y1567740D02*
X2064076D01*
X2060110Y1565940D02*
X2064076D01*
X2060110Y1564140D02*
X2064076D01*
X2060110Y1562340D02*
X2064076D01*
X2060110Y1560540D02*
X2064076D01*
X2060110Y1558740D02*
X2064076D01*
X2060110Y1556940D02*
X2064076D01*
X2060110Y1555140D02*
X2064076D01*
X2060110Y1553340D02*
X2064076D01*
X2060110Y1551540D02*
X2064076D01*
X2060110Y1549740D02*
X2064076D01*
X2060110Y1547940D02*
X2064076D01*
X2060110Y1546140D02*
X2064076D01*
X2060110Y1544340D02*
X2064076D01*
X2060110Y1542540D02*
X2064076D01*
X2059775Y1540740D02*
X2064076D01*
X2058126Y1538940D02*
X2064076D01*
X2056326Y1537140D02*
X2064076D01*
X2054526Y1535340D02*
X2064076D01*
X2052726Y1533540D02*
X2064076D01*
X2050926Y1531740D02*
X2064076D01*
X2053867Y1529940D02*
X2064076D01*
X2054357Y1528140D02*
X2064076D01*
X2053779Y1526340D02*
X2064076D01*
X2031598Y1524540D02*
X2064076D01*
X2031065Y1522740D02*
X2064076D01*
X2029306Y1520940D02*
X2064076D01*
X2029065Y1519140D02*
X2064076D01*
X2030748Y1517340D02*
X2063380D01*
X2060110Y1583940D02*
X2063015D01*
X2031129Y1515540D02*
X2061580D01*
X2060110Y1585740D02*
X2061215D01*
X2031129Y1513740D02*
X2059780D01*
X2031129Y1511940D02*
X2057980D01*
X2031129Y1510140D02*
X2056180D01*
X2040779Y1526340D02*
X2048337D01*
X2040867Y1529940D02*
X2048249D01*
X2041357Y1528140D02*
X2047759D01*
X2031598Y1526340D02*
X2035337D01*
X2032384Y1529940D02*
X2035249D01*
X2031598Y1528140D02*
X2034759D01*
X2038804Y1657740D02*
X2045412D01*
X2012274Y1655940D02*
X2045412D01*
X2011058Y1654140D02*
X2045412D01*
X2041108Y1652340D02*
X2045412D01*
X2043407Y1650540D02*
X2045412D01*
X2039162Y1659540D02*
X2043844D01*
X2043116Y1695540D02*
X2043536D01*
X2043116Y1693740D02*
X2043536D01*
X2043116Y1691940D02*
X2043536D01*
X2043116Y1690140D02*
X2043536D01*
X2043116Y1688340D02*
X2043536D01*
X2043116Y1686540D02*
X2043536D01*
X2043116Y1684740D02*
X2043536D01*
X2043215Y1682940D02*
X2043536D01*
X2043116Y1681140D02*
X2043536D01*
X2043116Y1679340D02*
X2043536D01*
X2043039Y1677540D02*
X2043536D01*
X2041942Y1675740D02*
X2043536D01*
X2040142Y1673940D02*
X2043536D01*
X2038342Y1672140D02*
X2043536D01*
X1989757Y1670340D02*
X2043536D01*
X2027535Y1668540D02*
X2043536D01*
X2028577Y1666740D02*
X2043536D01*
X2028446Y1664940D02*
X2043536D01*
X2026863Y1663140D02*
X2043536D01*
X2038435Y1661340D02*
X2043536D01*
X2011353Y1652340D02*
X2039757D01*
X2018063Y1663140D02*
X2023829D01*
X2018628Y1668540D02*
X2023157D01*
X2019592Y1664940D02*
X2022245D01*
X2019703Y1666740D02*
X2022114D01*
X1989757Y1663140D02*
X2014895D01*
X1989757Y1668540D02*
X2014331D01*
X1989757Y1664940D02*
X2013366D01*
X1989757Y1666740D02*
X2013255D01*
X1989757Y1661340D02*
X2010514D01*
X1989757Y1659540D02*
X2008045D01*
X1989757Y1657740D02*
X1996357D01*
X1989757Y1655940D02*
X1995538D01*
X2031618Y1614540D02*
X2031757D01*
X2022531D02*
X2028670D01*
X2022228Y1616340D02*
X2027005D01*
X2025111Y1612740D02*
X2026223D01*
X2019946Y1618140D02*
X2025707D01*
X2024642Y1619940D02*
X2025344D01*
X2004838Y1618140D02*
X2018558D01*
X2004494Y1616340D02*
X2004673D01*
X2030695Y1594740D02*
X2031557D01*
X2020038D02*
X2029593D01*
X2026442Y1605540D02*
X2028300D01*
X2026727Y1585740D02*
X2027878D01*
X2026269Y1603740D02*
X2027171D01*
X2020038Y1596540D02*
X2026788D01*
X2019465Y1592940D02*
X2026372D01*
X2025464Y1607340D02*
X2026130D01*
X2024927Y1587540D02*
X2026006D01*
X2024564Y1601940D02*
X2025766D01*
X2020038Y1598340D02*
X2025630D01*
X2018265Y1591140D02*
X2025488D01*
X2023127Y1589340D02*
X2025386D01*
X2019390Y1600140D02*
X2025347D01*
X2012585Y1601940D02*
X2021828D01*
X2011488Y1600140D02*
X2012586D01*
X2011838Y1598340D02*
X2011938D01*
X2044319Y1562340D02*
X2044939D01*
X2044910Y1560540D02*
X2044939D01*
X2044783Y1558740D02*
X2044939D01*
X2043865Y1556940D02*
X2044939D01*
X2025003Y1549740D02*
X2043925D01*
X2026940Y1547940D02*
X2042125D01*
X2027779Y1546140D02*
X2040325D01*
X2021794Y1555140D02*
X2039723D01*
X2023554Y1551540D02*
X2039511D01*
X2021794Y1553340D02*
X2039080D01*
X2034944Y1556940D02*
X2036423D01*
X2034944Y1558740D02*
X2035505D01*
X2034944Y1560540D02*
X2035378D01*
X2021794Y1556940D02*
X2025344D01*
X2022167Y1560540D02*
X2025344D01*
X2022167Y1558740D02*
X2025344D01*
X2004838Y1609140D02*
X2019617D01*
X2006461Y1610940D02*
X2019252D01*
X2004838Y1607340D02*
X2010527D01*
X2004838Y1605540D02*
X2008548D01*
X2004188Y1603740D02*
X2006757D01*
X1986898Y1601940D02*
X2006088D01*
X1986898Y1600140D02*
X2004386D01*
X1987569Y1598340D02*
X1998507D01*
X1989369Y1596540D02*
X1996707D01*
X1986898Y1603740D02*
X1995888D01*
X1986898Y1609140D02*
X1995238D01*
X1986898Y1607340D02*
X1995238D01*
X1986898Y1605540D02*
X1995238D01*
X1991169Y1594740D02*
X1994991D01*
X1992969Y1592940D02*
X1994556D01*
X1986898Y1610940D02*
X1993325D01*
X1986898Y1612740D02*
X1991077D01*
X1986898Y1614540D02*
X1989302D01*
X1986898Y1616340D02*
X1988717D01*
X1969748Y1627140D02*
X1988599D01*
X1987336Y1618140D02*
X1988512D01*
X1988387Y1628940D02*
X1988447D01*
X1986254Y1621740D02*
X1988171D01*
X1987404Y1619940D02*
X1988125D01*
X1970815Y1625340D02*
X1988102D01*
X1970699Y1623540D02*
X1987602D01*
X1979940Y1594740D02*
X1983532D01*
X1957740Y1672140D02*
X1983357D01*
X1957740Y1670340D02*
X1983357D01*
X1957740Y1668540D02*
X1983357D01*
X1957740Y1666740D02*
X1983357D01*
X1957740Y1664940D02*
X1983357D01*
X1957740Y1663140D02*
X1983357D01*
X1957740Y1661340D02*
X1983357D01*
X1957740Y1659540D02*
X1983357D01*
X1957740Y1657740D02*
X1983357D01*
X1957740Y1655940D02*
X1983357D01*
X1957740Y1654140D02*
X1983357D01*
X1970289Y1621740D02*
X1982141D01*
X1957740Y1673940D02*
X1982037D01*
X1978140Y1596540D02*
X1981861D01*
X1957740Y1652340D02*
X1981681D01*
X1970289Y1616340D02*
X1981498D01*
X1970289Y1614540D02*
X1981498D01*
X1970289Y1612740D02*
X1981498D01*
X1970289Y1610940D02*
X1981498D01*
X1970289Y1609140D02*
X1981498D01*
X1970289Y1607340D02*
X1981498D01*
X1970289Y1605540D02*
X1981498D01*
X1970940Y1603740D02*
X1981498D01*
X1972740Y1601940D02*
X1981498D01*
X1974540Y1600140D02*
X1981498D01*
X1976340Y1598340D02*
X1981498D01*
X1970289Y1618140D02*
X1981059D01*
X1970289Y1619940D02*
X1980991D01*
X1957579Y1675740D02*
X1980237D01*
X1957740Y1650540D02*
X1979905D01*
X1978697Y1641540D02*
X1978863D01*
X1957740Y1648740D02*
X1978681D01*
X1963066Y1628940D02*
X1978576D01*
X1956139Y1677540D02*
X1978437D01*
X1957740Y1639740D02*
X1978011D01*
X1962252Y1630740D02*
X1976788D01*
X1954339Y1679340D02*
X1976637D01*
X1957740Y1637940D02*
X1976419D01*
X1957740Y1636140D02*
X1976146D01*
X1957754Y1634340D02*
X1976146D01*
X1958339Y1632540D02*
X1976146D01*
X1952539Y1681140D02*
X1974837D01*
X1950739Y1682940D02*
X1973037D01*
X1939612Y1684740D02*
X1971237D01*
X1957740Y1646940D02*
X1970718D01*
X1957740Y1641540D02*
X1970663D01*
X1957740Y1645140D02*
X1970630D01*
X1957740Y1643340D02*
X1970630D01*
X1939400Y1686540D02*
X1969652D01*
X1959338Y1713540D02*
X1969297D01*
X1959338Y1711740D02*
X1969297D01*
X1959338Y1709940D02*
X1969297D01*
X1959338Y1708140D02*
X1969297D01*
X1959338Y1706340D02*
X1969297D01*
X1959338Y1704540D02*
X1969297D01*
X1959338Y1702740D02*
X1969297D01*
X1959338Y1700940D02*
X1969297D01*
X1959338Y1699140D02*
X1969297D01*
X1959338Y1697340D02*
X1969297D01*
X1959338Y1695540D02*
X1969297D01*
X1959388Y1693740D02*
X1969297D01*
X1958433Y1691940D02*
X1969297D01*
X1917825Y1690140D02*
X1969297D01*
X1937561Y1688340D02*
X1969297D01*
X1959338Y1715340D02*
X1968541D01*
X1959338Y1717140D02*
X1966741D01*
X1916025Y1688340D02*
X1935148D01*
X1914225Y1686540D02*
X1933309D01*
X1912425Y1684740D02*
X1933097D01*
X1910625Y1682940D02*
X1917287D01*
X1908825Y1681140D02*
X1915487D01*
X1907044Y1679340D02*
X1913687D01*
X1907044Y1677540D02*
X1911887D01*
X1907044Y1675740D02*
X1910087D01*
X1907044Y1673940D02*
X1908287D01*
X1980844Y1549740D02*
X1984870D01*
X1980844Y1551540D02*
X1984812D01*
X1980844Y1547940D02*
X1984801D01*
X1980844Y1553340D02*
X1984755D01*
X1980844Y1546140D02*
X1984747D01*
X1980844Y1544340D02*
X1984706D01*
X1980844Y1542540D02*
X1984678D01*
X1984174Y1540740D02*
X1984663D01*
X1994544Y1520940D02*
X1995363D01*
X1988077Y1519140D02*
X1988753D01*
X1988365Y1517340D02*
X1988465D01*
X1995285Y1511940D02*
X1995363D01*
X1988515Y1510140D02*
X1995363D01*
X1988515Y1511940D02*
X1989745D01*
X2011265Y1592940D02*
X2011788D01*
X2005318Y1591140D02*
X2011711D01*
X2005801Y1589340D02*
X2010442D01*
X2000743Y1592940D02*
X2004311D01*
X1863428Y1722540D02*
X1953156D01*
X1946174Y1720740D02*
X1952938D01*
X1947276Y1718940D02*
X1952938D01*
X1947181Y1717140D02*
X1952938D01*
X1945691Y1715340D02*
X1952938D01*
X1916540Y1713540D02*
X1952938D01*
X1942037Y1711740D02*
X1952938D01*
X1942519Y1709940D02*
X1952938D01*
X1941932Y1708140D02*
X1952938D01*
X1916540Y1706340D02*
X1952938D01*
X1916540Y1704540D02*
X1952938D01*
X1916540Y1702740D02*
X1952938D01*
X1916540Y1700940D02*
X1952938D01*
X1916540Y1699140D02*
X1952938D01*
X1915843Y1715340D02*
X1942425D01*
X1861628Y1720740D02*
X1941942D01*
X1858028Y1717140D02*
X1940935D01*
X1859828Y1718940D02*
X1940840D01*
X1916540Y1708140D02*
X1936508D01*
X1916540Y1711740D02*
X1936404D01*
X1916540Y1709940D02*
X1935921D01*
X1916338Y1697340D02*
X1916440D01*
X1877754Y1695540D02*
X1914174D01*
X1867205Y1693740D02*
X1912374D01*
X1865691Y1691940D02*
X1910574D01*
X1863891Y1690140D02*
X1908774D01*
X1862091Y1688340D02*
X1906974D01*
X1860270Y1686540D02*
X1905174D01*
X1823760Y1684740D02*
X1903374D01*
X1824146Y1682940D02*
X1901574D01*
X1825946Y1681140D02*
X1900676D01*
X1836746Y1670340D02*
X1900672D01*
X1827746Y1679340D02*
X1900644D01*
X1829546Y1677540D02*
X1900644D01*
X1831346Y1675740D02*
X1900644D01*
X1833146Y1673940D02*
X1900644D01*
X1834946Y1672140D02*
X1900644D01*
X1874006Y1715340D02*
X1891984D01*
X1879880Y1697340D02*
X1891489D01*
X1875100Y1713540D02*
X1891287D01*
X1875414Y1711740D02*
X1891287D01*
X1875097Y1709940D02*
X1891287D01*
X1874000Y1708140D02*
X1891287D01*
X1856614Y1706340D02*
X1891287D01*
X1878751Y1704540D02*
X1891287D01*
X1880241Y1702740D02*
X1891287D01*
X1880780Y1700940D02*
X1891287D01*
X1880675Y1699140D02*
X1891287D01*
X1867414Y1695540D02*
X1873273D01*
X1867951Y1704540D02*
X1872276D01*
X1869080Y1697340D02*
X1871147D01*
X1869441Y1702740D02*
X1870786D01*
X1869875Y1699140D02*
X1870352D01*
X1869980Y1700940D02*
X1870247D01*
X1863200Y1708140D02*
X1866227D01*
X1863206Y1715340D02*
X1866221D01*
X1864297Y1709940D02*
X1865130D01*
X1864300Y1713540D02*
X1865127D01*
X1864614Y1711740D02*
X1864813D01*
X1856154Y1695540D02*
X1861654D01*
X1857151Y1704540D02*
X1861476D01*
X1853676Y1727940D02*
X1861191D01*
X1858280Y1697340D02*
X1860347D01*
X1858641Y1702740D02*
X1859986D01*
X1828478Y1693740D02*
X1859854D01*
X1859075Y1699140D02*
X1859552D01*
X1859180Y1700940D02*
X1859447D01*
X1851876Y1726140D02*
X1859391D01*
X1829854Y1691940D02*
X1858054D01*
X1850076Y1724340D02*
X1857591D01*
X1848276Y1722540D02*
X1855791D01*
X1846476Y1720740D02*
X1853991D01*
X1844676Y1718940D02*
X1852191D01*
X1845354Y1695540D02*
X1851673D01*
X1832035Y1717140D02*
X1851230D01*
X1828478Y1706340D02*
X1851213D01*
X1846351Y1704540D02*
X1850676D01*
X1847480Y1697340D02*
X1849547D01*
X1847841Y1702740D02*
X1849186D01*
X1848275Y1699140D02*
X1848752D01*
X1848380Y1700940D02*
X1848647D01*
X1841600Y1708140D02*
X1844627D01*
X1841606Y1715340D02*
X1844621D01*
X1842697Y1709940D02*
X1843530D01*
X1842700Y1713540D02*
X1843527D01*
X1843014Y1711740D02*
X1843213D01*
X1834554Y1695540D02*
X1840873D01*
X1835551Y1704540D02*
X1839876D01*
X1836680Y1697340D02*
X1838747D01*
X1837041Y1702740D02*
X1838386D01*
X1837475Y1699140D02*
X1837952D01*
X1837580Y1700940D02*
X1837847D01*
X1828478Y1708140D02*
X1833827D01*
X1830235Y1715340D02*
X1833821D01*
X1828478Y1709940D02*
X1832730D01*
X1828478Y1713540D02*
X1832727D01*
X1828478Y1711740D02*
X1832413D01*
X1828478Y1695540D02*
X1830073D01*
X1828478Y1704540D02*
X1829076D01*
X1823760Y1686540D02*
X1827637D01*
X1823760Y1688340D02*
X1825817D01*
X1823760Y1690140D02*
X1824017D01*
X1963360Y1553340D02*
X1965453D01*
X1963303Y1551540D02*
X1965453D01*
X1963245Y1549740D02*
X1965453D01*
X1963314Y1547940D02*
X1965453D01*
X1963369Y1546140D02*
X1965453D01*
X1963409Y1544340D02*
X1965453D01*
X1963437Y1542540D02*
X1965453D01*
X1963453Y1540740D02*
X1965453D01*
X1963456Y1538940D02*
X1965453D01*
X1951415Y1625340D02*
X1958992D01*
X1953675Y1623540D02*
X1958164D01*
X1953975Y1621740D02*
X1957844D01*
X1953175Y1619940D02*
X1955530D01*
X1949485Y1616340D02*
X1955482D01*
X1943298Y1618140D02*
X1954972D01*
X1943514Y1619940D02*
X1948218D01*
X1941699Y1616340D02*
X1947032D01*
X1943514Y1621740D02*
X1946649D01*
X1941699Y1614540D02*
X1945210D01*
X1941795Y1612740D02*
X1945003D01*
X1941360Y1610940D02*
X1942599D01*
X1933081Y1609140D02*
X1942054D01*
X1935168Y1610940D02*
X1935637D01*
X1813411Y1538940D02*
X1829256D01*
X1813524Y1540740D02*
X1827259D01*
X1813524Y1542540D02*
X1825459D01*
X1813503Y1544340D02*
X1823659D01*
X1804641Y1546140D02*
X1822693D01*
X1818425Y1553340D02*
X1822648D01*
X1820287Y1551540D02*
X1822648D01*
X1820505Y1549740D02*
X1822648D01*
X1819595Y1547940D02*
X1822648D01*
X1804641Y1553340D02*
X1816067D01*
X1804641Y1547940D02*
X1814897D01*
X1804641Y1551540D02*
X1814205D01*
X1804641Y1549740D02*
X1813987D01*
X1804641Y1555140D02*
X1809511D01*
X1804962Y1556940D02*
X1807622D01*
X1804641Y1538940D02*
X1805537D01*
X1804641Y1544340D02*
X1805444D01*
X1804641Y1542540D02*
X1805424D01*
X1804641Y1540740D02*
X1805424D01*
X1841456Y1538940D02*
X1864492D01*
X1841456Y1537140D02*
X1864492D01*
X1841456Y1535340D02*
X1864492D01*
X1905341Y1578540D02*
X1915071D01*
X1905014Y1576740D02*
X1912846D01*
X1902520Y1574940D02*
X1909311D01*
X1902648Y1573140D02*
X1908050D01*
X1901686Y1562340D02*
X1905693D01*
X1901686Y1565940D02*
X1905547D01*
X1901686Y1564140D02*
X1905085D01*
X1901686Y1560540D02*
X1903567D01*
X1901686Y1556940D02*
X1903358D01*
X1901686Y1558740D02*
X1902925D01*
X1901686Y1555140D02*
X1902002D01*
X1942219Y1574940D02*
X1944012D01*
X1918300Y1560540D02*
X1934199D01*
X1909518Y1558740D02*
X1934199D01*
X1909689Y1556940D02*
X1934199D01*
X1920170Y1562340D02*
X1933175D01*
X1908876Y1560540D02*
X1915961D01*
X1911072Y1562340D02*
X1914091D01*
X1907350Y1551540D02*
X1907783D01*
X1910561Y1537140D02*
X1911243D01*
X1944999Y1564140D02*
X1945139D01*
X1924196Y1528140D02*
X1952169D01*
X1922872Y1529940D02*
X1952156D01*
X1924219Y1526340D02*
X1952105D01*
X1917694Y1531740D02*
X1952095D01*
X1919494Y1533540D02*
X1952047D01*
X1922986Y1524540D02*
X1936740D01*
X1901686Y1522740D02*
X1934158D01*
X1902252Y1519140D02*
X1934017D01*
X1901686Y1520940D02*
X1933552D01*
X1893582Y1511940D02*
X1932129D01*
X1902009Y1517340D02*
X1932099D01*
X1900051Y1515540D02*
X1932056D01*
X1893582Y1513740D02*
X1932056D01*
X1915894Y1529940D02*
X1919193D01*
X1901686Y1524540D02*
X1919080D01*
X1914086Y1528140D02*
X1917870D01*
X1901686Y1526340D02*
X1917847D01*
X1893582Y1510140D02*
X1910254D01*
X1893204Y1508340D02*
X1908454D01*
X1892363Y1506540D02*
X1906654D01*
X1901686Y1533540D02*
X1905904D01*
X1890885Y1504740D02*
X1904854D01*
X1901686Y1535340D02*
X1904239D01*
X1901686Y1528140D02*
X1903286D01*
X1901686Y1531740D02*
X1902993D01*
X1901686Y1529940D02*
X1902600D01*
X1901686Y1537140D02*
X1901838D01*
X1893582Y1515540D02*
X1897922D01*
X1895585Y1549740D02*
X1896286D01*
X1893785Y1547940D02*
X1896286D01*
X1891985Y1546140D02*
X1896286D01*
X1891745Y1544340D02*
X1896286D01*
X1890438Y1542540D02*
X1896286D01*
X1891737Y1540740D02*
X1896286D01*
X1892602Y1538940D02*
X1896286D01*
X1893541Y1537140D02*
X1896286D01*
X1893582Y1535340D02*
X1896286D01*
X1893582Y1533540D02*
X1896286D01*
X1893582Y1531740D02*
X1896286D01*
X1893582Y1529940D02*
X1896286D01*
X1893582Y1528140D02*
X1896286D01*
X1893582Y1526340D02*
X1896286D01*
X1893582Y1524540D02*
X1896286D01*
X1893582Y1522740D02*
X1896286D01*
X1893582Y1520940D02*
X1896286D01*
X1893582Y1517340D02*
X1895963D01*
X1893582Y1519140D02*
X1895721D01*
X1940082Y1511940D02*
X1940329D01*
X1940156Y1515540D02*
X1940256D01*
X1940156Y1513740D02*
X1940256D01*
X1935098Y1618140D02*
X1935299D01*
X1930374Y1616340D02*
X1935299D01*
X2115252Y1684740D02*
X2116244D01*
X2115698Y1682940D02*
X2115798D01*
X2217159Y1747740D02*
X2243218D01*
X2218320Y1745940D02*
X2243218D01*
X2218373Y1744140D02*
X2243218D01*
X2218373Y1742340D02*
X2243218D01*
X2218373Y1740540D02*
X2243218D01*
X2218373Y1738740D02*
X2243218D01*
X2218373Y1736940D02*
X2243218D01*
X2218355Y1735140D02*
X2243218D01*
X2217382Y1733340D02*
X2243218D01*
X2215582Y1731540D02*
X2243218D01*
X2213748Y1729740D02*
X2243218D01*
X2215310Y1727940D02*
X2243218D01*
X2215323Y1726140D02*
X2243218D01*
X2215323Y1724340D02*
X2243218D01*
X2215323Y1722540D02*
X2243218D01*
X2215033Y1720740D02*
X2243218D01*
X2128668Y1718940D02*
X2243218D01*
X2168577Y1717140D02*
X2243218D01*
X2169361Y1715340D02*
X2243218D01*
X2169361Y1713540D02*
X2243218D01*
X2169361Y1711740D02*
X2243218D01*
X2168889Y1709940D02*
X2243218D01*
X2167511Y1708140D02*
X2243218D01*
X2167511Y1706340D02*
X2243218D01*
X2214211Y1704540D02*
X2243218D01*
X2215309Y1702740D02*
X2243218D01*
X2215554Y1700940D02*
X2243218D01*
X2216959Y1699140D02*
X2243218D01*
X2219043Y1697340D02*
X2243218D01*
X2219677Y1695540D02*
X2243218D01*
X2219677Y1693740D02*
X2243218D01*
X2219677Y1691940D02*
X2243218D01*
X2219677Y1690140D02*
X2243218D01*
X2219677Y1688340D02*
X2243218D01*
X2219677Y1686540D02*
X2243218D01*
X2219677Y1684740D02*
X2243218D01*
X2219677Y1682940D02*
X2243218D01*
X2219677Y1681140D02*
X2243218D01*
X2219677Y1679340D02*
X2243218D01*
X2219677Y1677540D02*
X2243218D01*
X2219093Y1675740D02*
X2243218D01*
X2217318Y1673940D02*
X2243218D01*
X2215518Y1672140D02*
X2243218D01*
X2215484Y1670340D02*
X2243218D01*
X2214756Y1668540D02*
X2243218D01*
X2212530Y1666740D02*
X2243218D01*
X2213773Y1664940D02*
X2243218D01*
X2215153Y1663140D02*
X2243218D01*
X2215560Y1661340D02*
X2243218D01*
X2215265Y1659540D02*
X2243218D01*
X2214086Y1657740D02*
X2243218D01*
X2211533Y1655940D02*
X2243218D01*
X2214558Y1654140D02*
X2243218D01*
X2215425Y1652340D02*
X2243218D01*
X2215516Y1650540D02*
X2243218D01*
X2214882Y1648740D02*
X2243218D01*
X2212969Y1646940D02*
X2243218D01*
X2213507Y1645140D02*
X2243218D01*
X2215059Y1643340D02*
X2243218D01*
X2215550Y1641540D02*
X2243218D01*
X2215333Y1639740D02*
X2243218D01*
X2214283Y1637940D02*
X2243218D01*
X2199698Y1636140D02*
X2243218D01*
X2215556Y1634340D02*
X2243218D01*
X2215562Y1632540D02*
X2243218D01*
X2215562Y1630740D02*
X2243218D01*
X2215562Y1628940D02*
X2243218D01*
X2215215Y1627140D02*
X2243218D01*
X2157676Y1625340D02*
X2243218D01*
X2157676Y1623540D02*
X2243218D01*
X2157676Y1621740D02*
X2243218D01*
X2157676Y1619940D02*
X2243218D01*
X2157676Y1618140D02*
X2243218D01*
X2184000Y1616340D02*
X2243218D01*
X2185800Y1614540D02*
X2243218D01*
X2212044Y1612740D02*
X2243218D01*
X2213982Y1610940D02*
X2243218D01*
X2214624Y1609140D02*
X2243218D01*
X2214540Y1607340D02*
X2243218D01*
X2213683Y1605540D02*
X2243218D01*
X2210749Y1603740D02*
X2243218D01*
X2213178Y1601940D02*
X2243218D01*
X2214369Y1600140D02*
X2243218D01*
X2214671Y1598340D02*
X2243218D01*
X2214272Y1596540D02*
X2243218D01*
X2212907Y1594740D02*
X2243218D01*
X2211594Y1592940D02*
X2243218D01*
X2213854Y1591140D02*
X2243218D01*
X2214591Y1589340D02*
X2243218D01*
X2214584Y1587540D02*
X2243218D01*
X2213828Y1585740D02*
X2243218D01*
X2211490Y1583940D02*
X2243218D01*
X2212953Y1582140D02*
X2243218D01*
X2214289Y1580340D02*
X2243218D01*
X2214672Y1578540D02*
X2243218D01*
X2214354Y1576740D02*
X2243218D01*
X2213137Y1574940D02*
X2243218D01*
X2210936Y1573140D02*
X2243218D01*
X2213712Y1571340D02*
X2243218D01*
X2214549Y1569540D02*
X2243218D01*
X2214618Y1567740D02*
X2243218D01*
X2213958Y1565940D02*
X2243218D01*
X2211966Y1564140D02*
X2243218D01*
X2212697Y1562340D02*
X2243218D01*
X2214198Y1560540D02*
X2243218D01*
X2214664Y1558740D02*
X2243218D01*
X2214426Y1556940D02*
X2243218D01*
X2213340Y1555140D02*
X2243218D01*
X2157676Y1553340D02*
X2243218D01*
X2213553Y1551540D02*
X2243218D01*
X2214498Y1549740D02*
X2243218D01*
X2214644Y1547940D02*
X2243218D01*
X2214075Y1546140D02*
X2243218D01*
X2212336Y1544340D02*
X2243218D01*
X2214312Y1542540D02*
X2243218D01*
X2214672Y1540740D02*
X2243218D01*
X2214672Y1538940D02*
X2243218D01*
X2214672Y1537140D02*
X2243218D01*
X2214668Y1535340D02*
X2243218D01*
X2157676Y1533540D02*
X2243218D01*
X2157676Y1531740D02*
X2243218D01*
X2170955Y1529940D02*
X2243218D01*
X2172285Y1528140D02*
X2243218D01*
X2172311Y1526340D02*
X2243218D01*
X2211702Y1524540D02*
X2243218D01*
X2212854Y1522740D02*
X2243218D01*
X2213133Y1520940D02*
X2243218D01*
X2212710Y1519140D02*
X2243218D01*
X2211298Y1517340D02*
X2243218D01*
X2157676Y1515540D02*
X2243218D01*
X2157676Y1513740D02*
X2243218D01*
X2157676Y1511940D02*
X2243218D01*
X2159571Y1510140D02*
X2243218D01*
X2161158Y1508340D02*
X2243218D01*
X2161290Y1506540D02*
X2243218D01*
X2211486Y1504740D02*
X2243218D01*
X2212777Y1502940D02*
X2243218D01*
X2213137Y1501140D02*
X2243218D01*
X2212795Y1499340D02*
X2243218D01*
X2211537Y1497540D02*
X2243218D01*
X2157676Y1495740D02*
X2243218D01*
X2157676Y1493940D02*
X2243218D01*
X2157676Y1492140D02*
X2243218D01*
X2157676Y1490340D02*
X2243218D01*
X2157676Y1488540D02*
X2243218D01*
X2157676Y1486740D02*
X2243218D01*
X2157676Y1484940D02*
X2243218D01*
X2157676Y1483140D02*
X2243218D01*
X2157676Y1481340D02*
X2243218D01*
X2157676Y1479540D02*
X2243218D01*
X2158366Y1477740D02*
X2243218D01*
X2198914Y1475940D02*
X2243218D01*
X2201542Y1474140D02*
X2243218D01*
X2202115Y1472340D02*
X2243218D01*
X2201805Y1470540D02*
X2243218D01*
X2200244Y1468740D02*
X2243218D01*
X2189292Y1466940D02*
X2243218D01*
X2189688Y1465140D02*
X2243218D01*
X2189006Y1463340D02*
X2243218D01*
X2192346Y1461540D02*
X2243218D01*
X2192840Y1459740D02*
X2243218D01*
X2192266Y1457940D02*
X2243218D01*
X1757775Y1456140D02*
X2243218D01*
X1757775Y1454340D02*
X2243218D01*
X1757775Y1452540D02*
X2243218D01*
X1758891Y1450740D02*
X2242376D01*
X2215359Y1749540D02*
X2242337D01*
X2207427Y1744140D02*
X2212973D01*
X2204885Y1742340D02*
X2212973D01*
X2203085Y1740540D02*
X2212973D01*
X2201285Y1738740D02*
X2212973D01*
X2199485Y1736940D02*
X2212973D01*
X2168229Y1735140D02*
X2211545D01*
X2208795Y1745940D02*
X2211322D01*
X2202888Y1655940D02*
X2209990D01*
X2192850Y1675740D02*
X2209196D01*
X2175075Y1603740D02*
X2208996D01*
X2155780Y1666740D02*
X2208993D01*
X2157676Y1573140D02*
X2208809D01*
X2196554Y1646940D02*
X2208554D01*
X2162705Y1583940D02*
X2208255D01*
X2162705Y1592940D02*
X2208151D01*
X2198255Y1645140D02*
X2208017D01*
X2157676Y1564140D02*
X2207779D01*
X2154218Y1664940D02*
X2207750D01*
X2196857Y1612740D02*
X2207701D01*
X2160669Y1677540D02*
X2207659D01*
X2204688Y1657740D02*
X2207437D01*
X2157676Y1544340D02*
X2207408D01*
X2167511Y1704540D02*
X2207312D01*
X2197898Y1637940D02*
X2207241D01*
X2157676Y1562340D02*
X2207047D01*
X2177504Y1594740D02*
X2206838D01*
X2192855Y1673940D02*
X2206819D01*
X2162705Y1582140D02*
X2206791D01*
X2155904Y1668540D02*
X2206768D01*
X2194852Y1648740D02*
X2206641D01*
X2184882Y1574940D02*
X2206608D01*
X2177195Y1601940D02*
X2206567D01*
X2157676Y1555140D02*
X2206405D01*
X2157676Y1627140D02*
X2206309D01*
X2167077Y1702740D02*
X2206215D01*
X2157676Y1551540D02*
X2206191D01*
X2176882Y1605540D02*
X2206062D01*
X2192855Y1672140D02*
X2206054D01*
X2192683Y1670340D02*
X2206040D01*
X2157676Y1571340D02*
X2206033D01*
X2203205Y1720740D02*
X2206014D01*
X2165428Y1700940D02*
X2205969D01*
X2201498Y1634340D02*
X2205967D01*
X2162705Y1585740D02*
X2205917D01*
X2162705Y1591140D02*
X2205891D01*
X2157676Y1565940D02*
X2205787D01*
X2197357Y1610940D02*
X2205763D01*
X2205308Y1724340D02*
X2205723D01*
X2204799Y1722540D02*
X2205723D01*
X2157676Y1546140D02*
X2205670D01*
X2157676Y1560540D02*
X2205547D01*
X2177512Y1596540D02*
X2205473D01*
X2185882Y1580340D02*
X2205456D01*
X2157676Y1542540D02*
X2205433D01*
X2186643Y1576740D02*
X2205391D01*
X2177512Y1600140D02*
X2205376D01*
X2157676Y1517340D02*
X2205375D01*
X2166429Y1733340D02*
X2205335D01*
X2157676Y1556940D02*
X2205319D01*
X2157676Y1549740D02*
X2205246D01*
X2177477Y1607340D02*
X2205205D01*
X2157676Y1569540D02*
X2205196D01*
X2160249Y1504740D02*
X2205187D01*
X2162705Y1587540D02*
X2205161D01*
X2162705Y1589340D02*
X2205154D01*
X2157676Y1497540D02*
X2205136D01*
X2157676Y1567740D02*
X2205127D01*
X2196788Y1609140D02*
X2205121D01*
X2157676Y1547940D02*
X2205101D01*
X2157676Y1558740D02*
X2205081D01*
X2157676Y1535340D02*
X2205076D01*
X2177512Y1598340D02*
X2205074D01*
X2186833Y1578540D02*
X2205073D01*
X2157676Y1540740D02*
X2205072D01*
X2157676Y1538940D02*
X2205072D01*
X2157676Y1537140D02*
X2205072D01*
X2171083Y1524540D02*
X2204971D01*
X2157676Y1519140D02*
X2203963D01*
X2157676Y1502940D02*
X2203896D01*
X2157676Y1499340D02*
X2203878D01*
X2157676Y1522740D02*
X2203819D01*
X2157676Y1520940D02*
X2203540D01*
X2157676Y1501140D02*
X2203537D01*
X2164629Y1731540D02*
X2203535D01*
X2163628Y1699140D02*
X2203244D01*
X2132261Y1663140D02*
X2202452D01*
X2163223Y1729740D02*
X2201735D01*
X2145662Y1697340D02*
X2201147D01*
X1935582Y1745940D02*
X2200848D01*
X2132261Y1661340D02*
X2200651D01*
X2145662Y1695540D02*
X2199347D01*
X2157676Y1628940D02*
X2199343D01*
X2060244Y1744140D02*
X2199048D01*
X2132261Y1659540D02*
X2198851D01*
X2145662Y1693740D02*
X2198352D01*
X2167707Y1691940D02*
X2198331D01*
X2193205Y1720740D02*
X2197841D01*
X2168596Y1690140D02*
X2197595D01*
X2181591Y1475940D02*
X2197495D01*
X2157676Y1630740D02*
X2197461D01*
X2060263Y1742340D02*
X2197248D01*
X2153436Y1657740D02*
X2197051D01*
X2194084Y1727940D02*
X2196963D01*
X2194799Y1722540D02*
X2196247D01*
X2182921Y1468740D02*
X2196166D01*
X2195109Y1726140D02*
X2195938D01*
X2195308Y1724340D02*
X2195738D01*
X2157676Y1632540D02*
X2195661D01*
X2184219Y1474140D02*
X2194868D01*
X2184482Y1470540D02*
X2194604D01*
X2184792Y1472340D02*
X2194294D01*
X2157676Y1634340D02*
X2193861D01*
X2157676Y1636140D02*
X2192061D01*
X2157482Y1637940D02*
X2190261D01*
X2155989Y1639740D02*
X2188461D01*
X2183205Y1720740D02*
X2187841D01*
X2184084Y1727940D02*
X2186963D01*
X2155013Y1641540D02*
X2186661D01*
X2184799Y1722540D02*
X2186247D01*
X2185109Y1726140D02*
X2185938D01*
X2185308Y1724340D02*
X2185738D01*
X2184483Y1670340D02*
X2184926D01*
X2184650Y1675740D02*
X2184760D01*
X2184751Y1673940D02*
X2184755D01*
X2184655Y1672140D02*
X2184755D01*
X2177354Y1609140D02*
X2182149D01*
X2176442Y1610940D02*
X2180349D01*
X2160166Y1475940D02*
X2180172D01*
X2167366Y1468740D02*
X2178843D01*
X2173205Y1720740D02*
X2177841D01*
X2161966Y1474140D02*
X2177545D01*
X2165566Y1470540D02*
X2177281D01*
X2163766Y1472340D02*
X2176972D01*
X2174084Y1727940D02*
X2176963D01*
X2174799Y1722540D02*
X2176247D01*
X2175109Y1726140D02*
X2175938D01*
X2175308Y1724340D02*
X2175738D01*
X2162705Y1603740D02*
X2170350D01*
X2166449Y1610940D02*
X2168983D01*
X2162705Y1605540D02*
X2168543D01*
X2162705Y1601940D02*
X2168230D01*
X2164649Y1609140D02*
X2168070D01*
X2162705Y1607340D02*
X2167947D01*
X2162705Y1594740D02*
X2167921D01*
X2162705Y1600140D02*
X2167912D01*
X2162705Y1598340D02*
X2167912D01*
X2162705Y1596540D02*
X2167912D01*
X2163205Y1720740D02*
X2167841D01*
X2157676Y1529940D02*
X2167292D01*
X2157676Y1524540D02*
X2167163D01*
X2164084Y1727940D02*
X2166963D01*
X2164799Y1722540D02*
X2166247D01*
X2060263Y1740540D02*
X2166148D01*
X2157676Y1528140D02*
X2165962D01*
X2165109Y1726140D02*
X2165938D01*
X2157676Y1526340D02*
X2165936D01*
X2165308Y1724340D02*
X2165738D01*
X2060263Y1738740D02*
X2164192D01*
X2162383Y1691940D02*
X2162959D01*
X2157676Y1616340D02*
X2162798D01*
X2160669Y1675740D02*
X2162781D01*
X2154850Y1670340D02*
X2162556D01*
X2060263Y1736940D02*
X2162392D01*
X2160377Y1717140D02*
X2162044D01*
X2160639Y1673940D02*
X2161409D01*
X2152761Y1672140D02*
X2161365D01*
X2161161Y1715340D02*
X2161261D01*
X2160689Y1709940D02*
X2161111D01*
X2147458Y1708140D02*
X2161111D01*
X2145662Y1706340D02*
X2161111D01*
X2157676Y1614540D02*
X2160998D01*
X2060263Y1735140D02*
X2160592D01*
X2157676Y1574940D02*
X2160263D01*
X2147462Y1704540D02*
X2159977D01*
X1875778Y1457940D02*
X2159649D01*
X2060181Y1733340D02*
X2158792D01*
X2157676Y1576740D02*
X2157990D01*
X1876216Y1459740D02*
X2157849D01*
X2153205Y1720740D02*
X2157841D01*
X2057116Y1731540D02*
X2157839D01*
X2057116Y1729740D02*
X2157823D01*
X2154084Y1727940D02*
X2156963D01*
X2155150Y1691940D02*
X2156738D01*
X2155665Y1690140D02*
X2156262D01*
X2154799Y1722540D02*
X2156247D01*
X1876216Y1461540D02*
X2156049D01*
X2155109Y1726140D02*
X2155938D01*
X2155308Y1724340D02*
X2155738D01*
X1876216Y1463340D02*
X2154249D01*
X2129255Y1717140D02*
X2153844D01*
X2147512Y1709940D02*
X2153532D01*
X2129412Y1715340D02*
X2153061D01*
X2147453Y1713540D02*
X2153061D01*
X2147512Y1711740D02*
X2153061D01*
X2152376Y1679340D02*
X2152662D01*
X2152542Y1677540D02*
X2152569D01*
X1876215Y1465140D02*
X2152449D01*
X2148159Y1634340D02*
X2152276D01*
X2148159Y1632540D02*
X2152276D01*
X2148159Y1630740D02*
X2152276D01*
X2148159Y1628940D02*
X2152276D01*
X2148159Y1627140D02*
X2152276D01*
X2148159Y1625340D02*
X2152276D01*
X2148159Y1623540D02*
X2152276D01*
X2148159Y1621740D02*
X2152276D01*
X2148159Y1619940D02*
X2152276D01*
X2148159Y1618140D02*
X2152276D01*
X2148159Y1616340D02*
X2152276D01*
X2148717Y1636140D02*
X2151952D01*
X2142737Y1681140D02*
X2151869D01*
X2148505Y1657740D02*
X2151730D01*
X2132261Y1664940D02*
X2151133D01*
X1757775Y1466940D02*
X2150649D01*
X2142737Y1682940D02*
X2150135D01*
X2135435Y1641540D02*
X2149898D01*
X2147316Y1686540D02*
X2149665D01*
X2142235Y1684740D02*
X2149665D01*
X2148678Y1688340D02*
X2149619D01*
X2147518Y1691940D02*
X2149580D01*
X2132261Y1666740D02*
X2149570D01*
X2148697Y1637940D02*
X2149524D01*
X2147378Y1639740D02*
X2149168D01*
X2148718Y1690140D02*
X2149065D01*
X2031323Y1468740D02*
X2148849D01*
X2148159Y1614540D02*
X2148231D01*
X2143205Y1720740D02*
X2147841D01*
X2073518Y1470540D02*
X2147049D01*
X2132261Y1668540D02*
X2147048D01*
X2144084Y1727940D02*
X2146963D01*
X2132261Y1657740D02*
X2146506D01*
X2142535Y1672140D02*
X2146361D01*
X2140239Y1670340D02*
X2146278D01*
X2144799Y1722540D02*
X2146247D01*
X2145109Y1726140D02*
X2145938D01*
X2145308Y1724340D02*
X2145738D01*
X2075409Y1472340D02*
X2145249D01*
X2131565Y1655940D02*
X2144492D01*
X2142761Y1679340D02*
X2144462D01*
X2142840Y1673940D02*
X2144399D01*
X2142761Y1677540D02*
X2144369D01*
X2142761Y1675740D02*
X2144369D01*
X2127621Y1686540D02*
X2143732D01*
X2135792Y1639740D02*
X2143686D01*
X2077299Y1474140D02*
X2143454D01*
X2079189Y1475940D02*
X2142759D01*
X2132484Y1634340D02*
X2142759D01*
X2119920Y1632540D02*
X2142759D01*
X2118965Y1630740D02*
X2142759D01*
X2117165Y1628940D02*
X2142759D01*
X2116186Y1627140D02*
X2142759D01*
X2102176Y1625340D02*
X2142759D01*
X2103702Y1623540D02*
X2142759D01*
X2105502Y1621740D02*
X2142759D01*
X2107302Y1619940D02*
X2142759D01*
X2109102Y1618140D02*
X2142759D01*
X2110902Y1616340D02*
X2142759D01*
X2111784Y1614540D02*
X2142759D01*
X2111814Y1612740D02*
X2142759D01*
X2134723Y1610940D02*
X2142759D01*
X2136898Y1609140D02*
X2142759D01*
X2137612Y1607340D02*
X2142759D01*
X2137587Y1605540D02*
X2142759D01*
X2136809Y1603740D02*
X2142759D01*
X2134367Y1601940D02*
X2142759D01*
X2136021Y1600140D02*
X2142759D01*
X2137321Y1598340D02*
X2142759D01*
X2137685Y1596540D02*
X2142759D01*
X2137349Y1594740D02*
X2142759D01*
X2136099Y1592940D02*
X2142759D01*
X2134135Y1591140D02*
X2142759D01*
X2136759Y1589340D02*
X2142759D01*
X2137572Y1587540D02*
X2142759D01*
X2137624Y1585740D02*
X2142759D01*
X2136942Y1583940D02*
X2142759D01*
X2134881Y1582140D02*
X2142759D01*
X2128563Y1580340D02*
X2142759D01*
X2128563Y1578540D02*
X2142759D01*
X2128562Y1576740D02*
X2142759D01*
X2125663Y1574940D02*
X2142759D01*
X2125663Y1573140D02*
X2142759D01*
X2125663Y1571340D02*
X2142759D01*
X2125663Y1569540D02*
X2142759D01*
X2125663Y1567740D02*
X2142759D01*
X2125663Y1565940D02*
X2142759D01*
X2125663Y1564140D02*
X2142759D01*
X2125663Y1562340D02*
X2142759D01*
X2125663Y1560540D02*
X2142759D01*
X2125663Y1558740D02*
X2142759D01*
X2125663Y1556940D02*
X2142759D01*
X2125663Y1555140D02*
X2142759D01*
X2125663Y1553340D02*
X2142759D01*
X2125663Y1551540D02*
X2142759D01*
X2125663Y1549740D02*
X2142759D01*
X2125299Y1547940D02*
X2142759D01*
X2123706Y1546140D02*
X2142759D01*
X2121906Y1544340D02*
X2142759D01*
X2119744Y1542540D02*
X2142759D01*
X2113323Y1540740D02*
X2142759D01*
X2116132Y1538940D02*
X2142759D01*
X2117290Y1537140D02*
X2142759D01*
X2117573Y1535340D02*
X2142759D01*
X2117153Y1533540D02*
X2142759D01*
X2115749Y1531740D02*
X2142759D01*
X2108232Y1529940D02*
X2142759D01*
X2106510Y1528140D02*
X2142759D01*
X2103759Y1526340D02*
X2142759D01*
X2090561Y1524540D02*
X2142759D01*
X2088894Y1522740D02*
X2142759D01*
X2105867Y1520940D02*
X2142759D01*
X2106357Y1519140D02*
X2142759D01*
X2105779Y1517340D02*
X2142759D01*
X2088894Y1515540D02*
X2142759D01*
X2088894Y1513740D02*
X2142759D01*
X2088894Y1511940D02*
X2142759D01*
X2088894Y1510140D02*
X2142759D01*
X2105576Y1508340D02*
X2142759D01*
X2106341Y1506540D02*
X2142759D01*
X2106014Y1504740D02*
X2142759D01*
X2103520Y1502940D02*
X2142759D01*
X2088894Y1501140D02*
X2142759D01*
X2088894Y1499340D02*
X2142759D01*
X2088894Y1497540D02*
X2142759D01*
X2088894Y1495740D02*
X2142759D01*
X2088894Y1493940D02*
X2142759D01*
X2088894Y1492140D02*
X2142759D01*
X2088894Y1490340D02*
X2142759D01*
X2088894Y1488540D02*
X2142759D01*
X2088894Y1486740D02*
X2142759D01*
X2088458Y1484940D02*
X2142759D01*
X2086751Y1483140D02*
X2142759D01*
X2084860Y1481340D02*
X2142759D01*
X2082970Y1479540D02*
X2142759D01*
X2081080Y1477740D02*
X2142759D01*
X2135568Y1637940D02*
X2142368D01*
X2134680Y1636140D02*
X2142347D01*
X2128249Y1688340D02*
X2141969D01*
X2128151Y1690140D02*
X2140170D01*
X2139253Y1713540D02*
X2139472D01*
X2139312Y1711740D02*
X2139395D01*
X2128151Y1691940D02*
X2139292D01*
X2139258Y1708140D02*
X2139262D01*
X2128151Y1706340D02*
X2139262D01*
X2128151Y1704540D02*
X2139262D01*
X2128151Y1702740D02*
X2139262D01*
X2128151Y1700940D02*
X2139262D01*
X2128151Y1699140D02*
X2139262D01*
X2128151Y1697340D02*
X2139262D01*
X2128151Y1695540D02*
X2139262D01*
X2128151Y1693740D02*
X2139262D01*
X2137963Y1670340D02*
X2138883D01*
X2131410Y1720740D02*
X2137841D01*
X2131698Y1727940D02*
X2136963D01*
X2122761Y1675740D02*
X2136361D01*
X2131709Y1722540D02*
X2136247D01*
X2131709Y1726140D02*
X2135938D01*
X2131709Y1724340D02*
X2135738D01*
X2133801Y1677540D02*
X2135374D01*
X2134035Y1684740D02*
X2135140D01*
X2134537Y1682940D02*
X2134637D01*
X2134537Y1679340D02*
X2134637D01*
X2131999Y1673940D02*
X2132431D01*
X2079358Y1591140D02*
X2131635D01*
X2128465Y1601940D02*
X2131403D01*
X2130076Y1713540D02*
X2131272D01*
X2129518Y1708140D02*
X2131267D01*
X2130076Y1711740D02*
X2131212D01*
X2130076Y1709940D02*
X2131212D01*
X2111814Y1610940D02*
X2131048D01*
X2128563Y1582140D02*
X2130890D01*
X2129176Y1600140D02*
X2129750D01*
X2128261Y1592940D02*
X2129672D01*
X2079358Y1589340D02*
X2129011D01*
X2111852Y1603740D02*
X2128962D01*
X2111814Y1609140D02*
X2128873D01*
X2128148Y1583940D02*
X2128828D01*
X2079358Y1587540D02*
X2128198D01*
X2111814Y1605540D02*
X2128183D01*
X2111814Y1607340D02*
X2128158D01*
X2079358Y1585740D02*
X2128147D01*
X2119935Y1634340D02*
X2127632D01*
X2123071Y1677540D02*
X2127174D01*
X2122761Y1673940D02*
X2127123D01*
X2123452Y1684740D02*
X2126940D01*
X2126642Y1668540D02*
X2126861D01*
X2126151Y1666740D02*
X2126861D01*
X2121671Y1664940D02*
X2126861D01*
X2120066Y1663140D02*
X2126861D01*
X2118266Y1661340D02*
X2126861D01*
X2116466Y1659540D02*
X2126861D01*
X2126063Y1670340D02*
X2126561D01*
X2123898Y1682940D02*
X2126437D01*
X2123898Y1681140D02*
X2126437D01*
X2123898Y1679340D02*
X2126437D01*
X2122714Y1672140D02*
X2126288D01*
X2119935Y1636140D02*
X2125436D01*
X2119935Y1641540D02*
X2124681D01*
X2119935Y1637940D02*
X2124548D01*
X2119935Y1639740D02*
X2124325D01*
X2048106Y1718940D02*
X2123243D01*
X2048159Y1717140D02*
X2122656D01*
X2121212Y1715340D02*
X2122641D01*
X2119571Y1720740D02*
X2122409D01*
X2120482Y1727940D02*
X2122121D01*
X2121499Y1726140D02*
X2122109D01*
X2121693Y1724340D02*
X2122109D01*
X2121178Y1722540D02*
X2122109D01*
X2121876Y1713540D02*
X2121976D01*
X2086159Y1702740D02*
X2121751D01*
X2085085Y1700940D02*
X2121751D01*
X2066665Y1699140D02*
X2121751D01*
X2067023Y1697340D02*
X2121751D01*
X2066680Y1695540D02*
X2121751D01*
X2084553Y1693740D02*
X2121751D01*
X2108415Y1691940D02*
X2121751D01*
X2079358Y1574940D02*
X2119263D01*
X2079358Y1573140D02*
X2119263D01*
X2079358Y1571340D02*
X2119263D01*
X2079358Y1569540D02*
X2119263D01*
X2097174Y1567740D02*
X2119263D01*
X2098276Y1565940D02*
X2119263D01*
X2098181Y1564140D02*
X2119263D01*
X2096691Y1562340D02*
X2119263D01*
X2079358Y1560540D02*
X2119263D01*
X2116325Y1558740D02*
X2119263D01*
X2117357Y1556940D02*
X2119263D01*
X2117562Y1555140D02*
X2119263D01*
X2117058Y1553340D02*
X2119263D01*
X2115476Y1551540D02*
X2119263D01*
X2115042Y1549740D02*
X2118255D01*
X2092215Y1592940D02*
X2117890D01*
X2110840Y1601940D02*
X2117686D01*
X2093130Y1594740D02*
X2116976D01*
X2092912Y1583940D02*
X2116778D01*
X2093326Y1576740D02*
X2116364D01*
X2114871Y1677540D02*
X2116361D01*
X2066754Y1675740D02*
X2116361D01*
X2114666Y1657740D02*
X2116219D01*
X2065629Y1673940D02*
X2116215D01*
X2115698Y1679340D02*
X2115798D01*
X2059902Y1672140D02*
X2115648D01*
X2112799Y1634340D02*
X2114535D01*
X2048159Y1715340D02*
X2114441D01*
X2109571Y1720740D02*
X2114248D01*
X2048305Y1713540D02*
X2113776D01*
X2048756Y1711740D02*
X2113776D01*
X2048135Y1709940D02*
X2113776D01*
X2112866Y1655940D02*
X2113401D01*
X2110482Y1727940D02*
X2113336D01*
X2102176Y1632540D02*
X2113128D01*
X2066390Y1664940D02*
X2112815D01*
X2111178Y1722540D02*
X2112640D01*
X2065955Y1670340D02*
X2112525D01*
X2111499Y1726140D02*
X2112320D01*
X2108789Y1540740D02*
X2112228D01*
X2111693Y1724340D02*
X2112126D01*
X2111066Y1654140D02*
X2111606D01*
X2066987Y1666740D02*
X2111417D01*
X2066866Y1668540D02*
X2111358D01*
X2102176Y1627140D02*
X2111042D01*
X2064578Y1663140D02*
X2111015D01*
X2109266Y1652340D02*
X2110914D01*
X2107466Y1650540D02*
X2110914D01*
X2105666Y1648740D02*
X2110914D01*
X2103866Y1646940D02*
X2110914D01*
X2102176Y1630740D02*
X2110691D01*
X2094302Y1549740D02*
X2110509D01*
X2102176Y1628940D02*
X2110325D01*
X2095167Y1551540D02*
X2110076D01*
X2108789Y1531740D02*
X2109803D01*
X2108789Y1538940D02*
X2109419D01*
X2079358Y1558740D02*
X2109226D01*
X2063214Y1661340D02*
X2109215D01*
X2102176Y1645140D02*
X2109131D01*
X2095167Y1553340D02*
X2108494D01*
X2067018Y1677540D02*
X2108425D01*
X2095159Y1556940D02*
X2108194D01*
X2066269Y1684740D02*
X2108044D01*
X2095167Y1555140D02*
X2107990D01*
X2102176Y1634340D02*
X2107947D01*
X2064181Y1682940D02*
X2107598D01*
X2065132Y1681140D02*
X2107598D01*
X2066578Y1679340D02*
X2107598D01*
X2101234Y1659540D02*
X2107415D01*
X2092420Y1601940D02*
X2106387D01*
X2102176Y1643340D02*
X2106076D01*
X2102176Y1636140D02*
X2105751D01*
X2101647Y1657740D02*
X2105615D01*
X2089034Y1612740D02*
X2105414D01*
X2089034Y1610940D02*
X2105414D01*
X2089034Y1609140D02*
X2105414D01*
X2089034Y1607340D02*
X2105414D01*
X2089034Y1605540D02*
X2105414D01*
X2089034Y1603740D02*
X2105375D01*
X2102176Y1641540D02*
X2104996D01*
X2066959Y1686540D02*
X2104955D01*
X2102176Y1637940D02*
X2104863D01*
X2102176Y1639740D02*
X2104640D01*
X2084105Y1547940D02*
X2104605D01*
X2099571Y1720740D02*
X2104248D01*
X2100983Y1655940D02*
X2103815D01*
X2089034Y1614540D02*
X2103651D01*
X2100482Y1727940D02*
X2103336D01*
X2094946Y1546140D02*
X2102895D01*
X2085345Y1691940D02*
X2102864D01*
X2082735Y1688340D02*
X2102757D01*
X2101178Y1722540D02*
X2102640D01*
X2088894Y1502940D02*
X2102596D01*
X2095167Y1544340D02*
X2102389D01*
X2095167Y1542540D02*
X2102389D01*
X2095167Y1540740D02*
X2102389D01*
X2094960Y1538940D02*
X2102389D01*
X2079358Y1537140D02*
X2102389D01*
X2079358Y1535340D02*
X2102389D01*
X2079358Y1533540D02*
X2102389D01*
X2101499Y1726140D02*
X2102320D01*
X2085039Y1690140D02*
X2102276D01*
X2101693Y1724340D02*
X2102126D01*
X2059902Y1654140D02*
X2102015D01*
X2089034Y1616340D02*
X2101851D01*
X2088894Y1508340D02*
X2100540D01*
X2088894Y1517340D02*
X2100337D01*
X2088894Y1520940D02*
X2100249D01*
X2059878Y1652340D02*
X2100215D01*
X2088894Y1504740D02*
X2100102D01*
X2089034Y1618140D02*
X2100051D01*
X2088894Y1506540D02*
X2099775D01*
X2088894Y1519140D02*
X2099759D01*
X2058863Y1650540D02*
X2098415D01*
X2089034Y1619940D02*
X2098251D01*
X2057063Y1648740D02*
X2096619D01*
X2089034Y1621740D02*
X2096478D01*
X2055263Y1646940D02*
X2095797D01*
X2089034Y1623540D02*
X2095783D01*
X2053463Y1645140D02*
X2095776D01*
X2063558Y1643340D02*
X2095776D01*
X2087172Y1641540D02*
X2095776D01*
X2088810Y1639740D02*
X2095776D01*
X2088960Y1637940D02*
X2095776D01*
X2087949Y1636140D02*
X2095776D01*
X2087222Y1634340D02*
X2095776D01*
X2088786Y1632540D02*
X2095776D01*
X2089034Y1630740D02*
X2095776D01*
X2089034Y1628940D02*
X2095776D01*
X2089034Y1627140D02*
X2095776D01*
X2089034Y1625340D02*
X2095776D01*
X2059902Y1655940D02*
X2095721D01*
X2063453Y1659540D02*
X2095471D01*
X2062572Y1657740D02*
X2095058D01*
X2089571Y1720740D02*
X2094248D01*
X2079358Y1562340D02*
X2093425D01*
X2090482Y1727940D02*
X2093336D01*
X2079358Y1567740D02*
X2092942D01*
X2091178Y1722540D02*
X2092640D01*
X2091499Y1726140D02*
X2092320D01*
X2091693Y1724340D02*
X2092126D01*
X2079358Y1564140D02*
X2091935D01*
X2079358Y1565940D02*
X2091840D01*
X2079358Y1531740D02*
X2088710D01*
X2084315Y1549740D02*
X2087431D01*
X2079358Y1529940D02*
X2086910D01*
X2083758Y1546140D02*
X2086787D01*
X2079358Y1538940D02*
X2086773D01*
X2079358Y1556940D02*
X2086574D01*
X2079358Y1555140D02*
X2086566D01*
X2079358Y1553340D02*
X2086566D01*
X2083392Y1551540D02*
X2086566D01*
X2079358Y1528140D02*
X2085110D01*
X2064488Y1641540D02*
X2084272D01*
X2079571Y1720740D02*
X2084248D01*
X2043570Y1708140D02*
X2083922D01*
X2083271Y1628940D02*
X2083634D01*
X2082447Y1627140D02*
X2083634D01*
X2079761Y1625340D02*
X2083634D01*
X2081824Y1623540D02*
X2083634D01*
X2083060Y1621740D02*
X2083634D01*
X2083388Y1619940D02*
X2083634D01*
X2083016Y1618140D02*
X2083634D01*
X2081700Y1616340D02*
X2083634D01*
X2082511Y1614540D02*
X2083634D01*
X2083388Y1612740D02*
X2083634D01*
X2083388Y1610940D02*
X2083634D01*
X2083388Y1609140D02*
X2083634D01*
X2083388Y1607340D02*
X2083634D01*
X2082649Y1605540D02*
X2083634D01*
X2071903Y1603740D02*
X2083634D01*
X2080482Y1727940D02*
X2083336D01*
X2079358Y1526340D02*
X2083317D01*
X2081178Y1722540D02*
X2082640D01*
X2064623Y1639740D02*
X2082634D01*
X2079358Y1524540D02*
X2082512D01*
X2079358Y1522740D02*
X2082494D01*
X2079358Y1520940D02*
X2082494D01*
X2079358Y1519140D02*
X2082494D01*
X2079358Y1517340D02*
X2082494D01*
X2079358Y1515540D02*
X2082494D01*
X2079358Y1513740D02*
X2082494D01*
X2079358Y1511940D02*
X2082494D01*
X2079358Y1510140D02*
X2082494D01*
X2079358Y1508340D02*
X2082494D01*
X2079358Y1506540D02*
X2082494D01*
X2079358Y1504740D02*
X2082494D01*
X2079358Y1502940D02*
X2082494D01*
X2078816Y1501140D02*
X2082494D01*
X2077053Y1499340D02*
X2082494D01*
X2075253Y1497540D02*
X2082494D01*
X2073453Y1495740D02*
X2082494D01*
X2071653Y1493940D02*
X2082494D01*
X2069853Y1492140D02*
X2082494D01*
X2068053Y1490340D02*
X2082494D01*
X2033283Y1488540D02*
X2082494D01*
X2064041Y1637940D02*
X2082484D01*
X2081499Y1726140D02*
X2082320D01*
X2081693Y1724340D02*
X2082126D01*
X2057023Y1706340D02*
X2082122D01*
X2079358Y1592940D02*
X2081845D01*
X2073703Y1601940D02*
X2081640D01*
X2079358Y1583940D02*
X2081541D01*
X2066914Y1688340D02*
X2081397D01*
X2079358Y1540740D02*
X2081339D01*
X2031483Y1486740D02*
X2081250D01*
X2079358Y1576740D02*
X2081127D01*
X2079358Y1582140D02*
X2081127D01*
X2079358Y1580340D02*
X2081127D01*
X2079358Y1578540D02*
X2081127D01*
X2075503Y1600140D02*
X2080930D01*
X2077303Y1598340D02*
X2080930D01*
X2078983Y1596540D02*
X2080930D01*
X2079358Y1594740D02*
X2080930D01*
X2065418Y1693740D02*
X2079578D01*
X2058823Y1704540D02*
X2079555D01*
X2079358Y1542540D02*
X2079539D01*
X2065377Y1700940D02*
X2079479D01*
X2031443Y1484940D02*
X2079360D01*
X2066109Y1690140D02*
X2079093D01*
X2060623Y1702740D02*
X2078983D01*
X2063533Y1691940D02*
X2078787D01*
X2031443Y1483140D02*
X2077470D01*
X2031443Y1481340D02*
X2075579D01*
X2062586Y1616340D02*
X2075476D01*
X2061103Y1614540D02*
X2074665D01*
X2070103Y1605540D02*
X2074528D01*
X2069571Y1720740D02*
X2074248D01*
X2064147Y1618140D02*
X2074161D01*
X2064429Y1621740D02*
X2074117D01*
X2064642Y1619940D02*
X2073789D01*
X2062903Y1612740D02*
X2073788D01*
X2064703Y1610940D02*
X2073788D01*
X2066503Y1609140D02*
X2073788D01*
X2068303Y1607340D02*
X2073788D01*
X2031443Y1479540D02*
X2073689D01*
X2070482Y1727940D02*
X2073336D01*
X2071178Y1722540D02*
X2072640D01*
X2071499Y1726140D02*
X2072320D01*
X2071693Y1724340D02*
X2072126D01*
X2031443Y1477740D02*
X2071799D01*
X2031443Y1475940D02*
X2069908D01*
X2059571Y1720740D02*
X2064248D01*
X2060482Y1727940D02*
X2063336D01*
X2061178Y1722540D02*
X2062640D01*
X2061499Y1726140D02*
X2062320D01*
X2061693Y1724340D02*
X2062126D01*
X2053533Y1691940D02*
X2060912D01*
X2059835Y1682940D02*
X2060264D01*
X2056926Y1693740D02*
X2059028D01*
X2056109Y1690140D02*
X2058337D01*
X2057023Y1695540D02*
X2057766D01*
X2056914Y1688340D02*
X2057532D01*
X2056959Y1686540D02*
X2057487D01*
X2057023Y1697340D02*
X2057423D01*
X2051663Y1643340D02*
X2056150D01*
X2041487Y1637940D02*
X2055667D01*
X2049863Y1641540D02*
X2055221D01*
X2042028Y1639740D02*
X2055085D01*
X2046945Y1720740D02*
X2054248D01*
X2045145Y1722540D02*
X2052640D01*
X2050789Y1724340D02*
X2052126D01*
X2043263Y1731540D02*
X2051716D01*
X2048936Y1691940D02*
X2050912D01*
X2046507Y1729740D02*
X2049434D01*
X2046681Y1733340D02*
X2047945D01*
X2046744Y1744140D02*
X2047882D01*
X2046763Y1742340D02*
X2047863D01*
X2046763Y1740540D02*
X2047863D01*
X2046763Y1738740D02*
X2047863D01*
X2046763Y1736940D02*
X2047863D01*
X2046763Y1735140D02*
X2047863D01*
X2043648Y1706340D02*
X2047559D01*
X2043648Y1704540D02*
X2045759D01*
X2043648Y1702740D02*
X2044019D01*
X2043263Y1729740D02*
X2043843D01*
X2000713Y1709940D02*
X2042782D01*
X2000011Y1717140D02*
X2042758D01*
X2000404Y1715340D02*
X2042758D01*
X2000404Y1713540D02*
X2042612D01*
X2000404Y1711740D02*
X2042161D01*
X2038195Y1718940D02*
X2041108D01*
X2008153Y1726140D02*
X2037863D01*
X2009442Y1727940D02*
X2037863D01*
X2011139Y1729740D02*
X2037863D01*
X2011309Y1731540D02*
X2037863D01*
X2000404Y1695540D02*
X2036716D01*
X2000404Y1693740D02*
X2036716D01*
X1998888Y1691940D02*
X2036716D01*
X1975697Y1690140D02*
X2036716D01*
X1976688Y1688340D02*
X2036716D01*
X1978488Y1686540D02*
X2036716D01*
X1980288Y1684740D02*
X2036716D01*
X1982088Y1682940D02*
X2036617D01*
X1989899Y1718940D02*
X2035284D01*
X2010328Y1733340D02*
X2034445D01*
X1931528Y1744140D02*
X2034382D01*
X1823787Y1742340D02*
X2034363D01*
X1823784Y1740540D02*
X2034363D01*
X1823781Y1738740D02*
X2034363D01*
X1823778Y1736940D02*
X2034363D01*
X1823775Y1735140D02*
X2034363D01*
X1991987Y1681140D02*
X2032859D01*
X1992280Y1677540D02*
X2031778D01*
X1992673Y1679340D02*
X2031710D01*
X2030070Y1708140D02*
X2031326D01*
X2030127Y1697340D02*
X2031269D01*
X2030148Y1706340D02*
X2031248D01*
X2030148Y1704540D02*
X2031248D01*
X2030148Y1702740D02*
X2031248D01*
X2030148Y1700940D02*
X2031248D01*
X2030148Y1699140D02*
X2031248D01*
X2025247Y1468740D02*
X2030562D01*
X2027146Y1470540D02*
X2027992D01*
X2002513Y1708140D02*
X2017826D01*
X2000404Y1697340D02*
X2017769D01*
X2004313Y1706340D02*
X2017748D01*
X2017603Y1704540D02*
X2017748D01*
X2000404Y1699140D02*
X2017748D01*
X1994454Y1468740D02*
X2013521D01*
X1996228Y1470540D02*
X2011622D01*
X2000404Y1700940D02*
X2002076D01*
X1996423Y1472340D02*
X2001846D01*
X1995585Y1474140D02*
X1999843D01*
X1975697Y1704540D02*
X1998476D01*
X1993796Y1475940D02*
X1998043D01*
X1991996Y1477740D02*
X1996243D01*
X1990196Y1479540D02*
X1995371D01*
X1995156Y1501140D02*
X1995363D01*
X1988308Y1499340D02*
X1995363D01*
X1988308Y1497540D02*
X1995363D01*
X1988308Y1495740D02*
X1995363D01*
X1988308Y1493940D02*
X1995363D01*
X1988308Y1492140D02*
X1995363D01*
X1988308Y1490340D02*
X1995363D01*
X1988308Y1488540D02*
X1995363D01*
X1988308Y1486740D02*
X1995363D01*
X1988308Y1484940D02*
X1995363D01*
X1988308Y1483140D02*
X1995363D01*
X1988396Y1481340D02*
X1995363D01*
X1757775Y1468740D02*
X1991887D01*
X1901170Y1470540D02*
X1990112D01*
X1988308Y1501140D02*
X1989286D01*
X1901845Y1472340D02*
X1988345D01*
X1975697Y1691940D02*
X1988320D01*
X1975451Y1717140D02*
X1987197D01*
X1975697Y1706340D02*
X1987032D01*
X1973992Y1718940D02*
X1986988D01*
X1975697Y1702740D02*
X1986818D01*
X1975697Y1715340D02*
X1986804D01*
X1975697Y1713540D02*
X1986804D01*
X1975697Y1711740D02*
X1986804D01*
X1975697Y1709940D02*
X1986804D01*
X1975697Y1708140D02*
X1986804D01*
X1975697Y1700940D02*
X1986804D01*
X1975697Y1699140D02*
X1986804D01*
X1975697Y1697340D02*
X1986804D01*
X1975697Y1695540D02*
X1986804D01*
X1975697Y1693740D02*
X1986804D01*
X1983888Y1681140D02*
X1986774D01*
X1901443Y1474140D02*
X1986545D01*
X1985688Y1679340D02*
X1986088D01*
X1972192Y1720740D02*
X1985355D01*
X1970392Y1722540D02*
X1985206D01*
X1893327Y1475940D02*
X1984745D01*
X1892037Y1477740D02*
X1982945D01*
X1893318Y1479540D02*
X1981957D01*
X1911471Y1499340D02*
X1981907D01*
X1909671Y1497540D02*
X1981907D01*
X1907871Y1495740D02*
X1981907D01*
X1906071Y1493940D02*
X1981907D01*
X1904271Y1492140D02*
X1981907D01*
X1902471Y1490340D02*
X1981907D01*
X1900671Y1488540D02*
X1981907D01*
X1898871Y1486740D02*
X1981907D01*
X1897071Y1484940D02*
X1981907D01*
X1895271Y1483140D02*
X1981907D01*
X1893471Y1481340D02*
X1981907D01*
X1913271Y1501140D02*
X1981086D01*
X1915071Y1502940D02*
X1979644D01*
X1972346Y1504740D02*
X1977837D01*
X1974146Y1506540D02*
X1976056D01*
X1914124Y1672140D02*
X1952340D01*
X1912324Y1670340D02*
X1952340D01*
X1910524Y1668540D02*
X1952340D01*
X1908724Y1666740D02*
X1952340D01*
X1948460Y1664940D02*
X1952340D01*
X1949100Y1663140D02*
X1952340D01*
X1948667Y1661340D02*
X1952340D01*
X1902895Y1659540D02*
X1952340D01*
X1904132Y1657740D02*
X1952340D01*
X1904112Y1655940D02*
X1952340D01*
X1902792Y1654140D02*
X1952340D01*
X1809913Y1652340D02*
X1952340D01*
X1810898Y1650540D02*
X1952340D01*
X1811071Y1648740D02*
X1952340D01*
X1863669Y1646940D02*
X1952340D01*
X1937878Y1645140D02*
X1952340D01*
X1915924Y1673940D02*
X1952102D01*
X1867971Y1601940D02*
X1951580D01*
X1917548Y1600140D02*
X1950620D01*
X1918105Y1598340D02*
X1950603D01*
X1917593Y1596540D02*
X1950603D01*
X1932159Y1594740D02*
X1950603D01*
X1940795Y1592940D02*
X1950603D01*
X1950363Y1591140D02*
X1950603D01*
X1917724Y1675740D02*
X1950302D01*
X1919524Y1677540D02*
X1948502D01*
X1939044Y1643340D02*
X1948257D01*
X1944200Y1637940D02*
X1947781D01*
X1946409Y1636140D02*
X1947781D01*
X1940793Y1639740D02*
X1947393D01*
X1939647Y1641540D02*
X1947243D01*
X1943488Y1591140D02*
X1947009D01*
X1944741Y1589340D02*
X1945555D01*
X1906838Y1664940D02*
X1943148D01*
X1863861Y1661340D02*
X1942941D01*
X1863292Y1663140D02*
X1942508D01*
X1821941Y1749540D02*
X1930383D01*
X1878320Y1594740D02*
X1929956D01*
X1878405Y1592940D02*
X1928029D01*
X1905451Y1621740D02*
X1927214D01*
X1846671Y1619940D02*
X1926455D01*
X1844921Y1618140D02*
X1924124D01*
X1814705Y1616340D02*
X1923814D01*
X1846857Y1621740D02*
X1904178D01*
X1892189Y1497540D02*
X1902035D01*
X1845901Y1623540D02*
X1901844D01*
X1897942Y1625340D02*
X1901535D01*
X1867842Y1600140D02*
X1900648D01*
X1847417Y1596540D02*
X1900603D01*
X1886310Y1495740D02*
X1900235D01*
X1866265Y1598340D02*
X1900092D01*
X1809729Y1632540D02*
X1899409D01*
X1757775Y1654140D02*
X1899102D01*
X1863362Y1659540D02*
X1899000D01*
X1883921Y1493940D02*
X1898435D01*
X1809825Y1655940D02*
X1897783D01*
X1810868Y1657740D02*
X1897762D01*
X1757775Y1634340D02*
X1897583D01*
X1878405Y1591140D02*
X1897033D01*
X1876343Y1492140D02*
X1896635D01*
X1878539Y1625340D02*
X1896346D01*
X1803187Y1490340D02*
X1894835D01*
X1877078Y1630740D02*
X1894682D01*
X1878405Y1589340D02*
X1894428D01*
X1879388Y1627140D02*
X1894156D01*
X1879126Y1628940D02*
X1893868D01*
X1803187Y1488540D02*
X1893035D01*
X1878282Y1587540D02*
X1892611D01*
X1803187Y1486740D02*
X1891235D01*
X1827700Y1585740D02*
X1890794D01*
X1828728Y1583940D02*
X1889657D01*
X1828587Y1582140D02*
X1889610D01*
X1826978Y1580340D02*
X1889610D01*
X1811048Y1578540D02*
X1889610D01*
X1878583Y1576740D02*
X1889610D01*
X1882954Y1574940D02*
X1889610D01*
X1884754Y1573140D02*
X1889610D01*
X1886554Y1571340D02*
X1889610D01*
X1877535Y1533540D02*
X1887182D01*
X1878849Y1531740D02*
X1887182D01*
X1878867Y1529940D02*
X1887182D01*
X1867914Y1522740D02*
X1887182D01*
X1868055Y1520940D02*
X1887182D01*
X1867029Y1519140D02*
X1887182D01*
X1876857Y1517340D02*
X1887182D01*
X1876857Y1515540D02*
X1887182D01*
X1876857Y1513740D02*
X1887182D01*
X1803187Y1504740D02*
X1885740D01*
X1757775Y1470540D02*
X1885513D01*
X1803187Y1484940D02*
X1885380D01*
X1876802Y1483140D02*
X1885227D01*
X1876591Y1475940D02*
X1885227D01*
X1801189Y1474140D02*
X1885227D01*
X1757775Y1472340D02*
X1885227D01*
X1876857Y1511940D02*
X1884521D01*
X1884403Y1564140D02*
X1884468D01*
X1811074Y1565940D02*
X1884317D01*
X1803187Y1502940D02*
X1884267D01*
X1876442Y1510140D02*
X1884263D01*
X1803187Y1508340D02*
X1884263D01*
X1803187Y1506540D02*
X1884263D01*
X1876141Y1501140D02*
X1884073D01*
X1876692Y1535340D02*
X1883800D01*
X1811092Y1567740D02*
X1882517D01*
X1866302Y1524540D02*
X1882439D01*
X1877054Y1499340D02*
X1882273D01*
X1877624Y1528140D02*
X1882234D01*
X1848563Y1526340D02*
X1881800D01*
X1878339Y1569540D02*
X1880717D01*
X1876692Y1537140D02*
X1878212D01*
X1810834Y1630740D02*
X1875158D01*
X1813958Y1625340D02*
X1873697D01*
X1811085Y1628940D02*
X1873110D01*
X1812160Y1627140D02*
X1872848D01*
X1842293Y1569540D02*
X1866665D01*
X1842537Y1576740D02*
X1866421D01*
X1843046Y1587540D02*
X1866328D01*
X1848011Y1594740D02*
X1866290D01*
X1847605Y1592940D02*
X1866205D01*
X1843169Y1591140D02*
X1866205D01*
X1843169Y1589340D02*
X1866205D01*
X1840095Y1501140D02*
X1865768D01*
X1809999Y1636140D02*
X1865649D01*
X1840297Y1492140D02*
X1865566D01*
X1841206Y1510140D02*
X1865073D01*
X1840545Y1475940D02*
X1864865D01*
X1841009Y1499340D02*
X1864854D01*
X1841621Y1517340D02*
X1864658D01*
X1841621Y1515540D02*
X1864657D01*
X1841621Y1513740D02*
X1864657D01*
X1841621Y1511940D02*
X1864657D01*
X1840756Y1483140D02*
X1864655D01*
X1840542Y1457940D02*
X1864453D01*
X1810926Y1637940D02*
X1864221D01*
X1840979Y1465140D02*
X1864016D01*
X1840979Y1463340D02*
X1864016D01*
X1840979Y1461540D02*
X1864016D01*
X1840979Y1459740D02*
X1864016D01*
X1848287Y1524540D02*
X1863338D01*
X1847417Y1598340D02*
X1863216D01*
X1812891Y1519140D02*
X1862611D01*
X1811060Y1639740D02*
X1861937D01*
X1846167Y1522740D02*
X1861726D01*
X1847417Y1600140D02*
X1861639D01*
X1821323Y1520940D02*
X1861585D01*
X1847434Y1601940D02*
X1861510D01*
X1810477Y1641540D02*
X1859958D01*
X1810532Y1646940D02*
X1858217D01*
X1808703Y1643340D02*
X1858139D01*
X1809018Y1663140D02*
X1857832D01*
X1811079Y1659540D02*
X1857762D01*
X1808869Y1645140D02*
X1857644D01*
X1810583Y1661340D02*
X1857262D01*
X1823773Y1733340D02*
X1851622D01*
X1823770Y1731540D02*
X1849639D01*
X1823767Y1729740D02*
X1847839D01*
X1823764Y1727940D02*
X1846039D01*
X1823123Y1522740D02*
X1844412D01*
X1823761Y1726140D02*
X1844239D01*
X1829427Y1605540D02*
X1843397D01*
X1823760Y1724340D02*
X1842439D01*
X1814705Y1618140D02*
X1842294D01*
X1824923Y1524540D02*
X1842293D01*
X1829142Y1603740D02*
X1842109D01*
X1826972Y1601940D02*
X1842017D01*
X1810997Y1600140D02*
X1842017D01*
X1811016Y1598340D02*
X1842017D01*
X1810294Y1596540D02*
X1842017D01*
X1826723Y1526340D02*
X1842016D01*
X1814704Y1623540D02*
X1841314D01*
X1814705Y1619940D02*
X1840544D01*
X1814705Y1621740D02*
X1840358D01*
X1757775Y1664940D02*
X1834594D01*
X1757775Y1666740D02*
X1832709D01*
X1810799Y1587540D02*
X1831091D01*
X1808093Y1594740D02*
X1831054D01*
X1809287Y1592940D02*
X1830969D01*
X1810678Y1591140D02*
X1830969D01*
X1811089Y1589340D02*
X1830969D01*
X1757775Y1668540D02*
X1830909D01*
X1811092Y1569540D02*
X1830619D01*
X1810420Y1576740D02*
X1830376D01*
X1808524Y1574940D02*
X1830356D01*
X1810820Y1573140D02*
X1830356D01*
X1811092Y1571340D02*
X1830356D01*
X1823760Y1722540D02*
X1829859D01*
X1803187Y1510140D02*
X1829836D01*
X1803187Y1501140D02*
X1829722D01*
X1803187Y1492140D02*
X1829520D01*
X1813125Y1517340D02*
X1829422D01*
X1813125Y1515540D02*
X1829421D01*
X1813125Y1513740D02*
X1829421D01*
X1803187Y1511940D02*
X1829421D01*
X1757775Y1457940D02*
X1829217D01*
X1811098Y1670340D02*
X1829109D01*
X1803031Y1475940D02*
X1828820D01*
X1803187Y1499340D02*
X1828809D01*
X1803187Y1497540D02*
X1828809D01*
X1803187Y1495740D02*
X1828809D01*
X1803187Y1493940D02*
X1828809D01*
X1757775Y1465140D02*
X1828780D01*
X1757775Y1463340D02*
X1828779D01*
X1757775Y1461540D02*
X1828779D01*
X1757775Y1459740D02*
X1828779D01*
X1803187Y1483140D02*
X1828609D01*
X1803187Y1481340D02*
X1828583D01*
X1803187Y1479540D02*
X1828583D01*
X1803244Y1477740D02*
X1828583D01*
X1823760Y1720740D02*
X1827998D01*
X1809492Y1564140D02*
X1827656D01*
X1812434Y1672140D02*
X1827309D01*
X1823760Y1718940D02*
X1826198D01*
X1811273Y1562340D02*
X1825856D01*
X1812462Y1673940D02*
X1825509D01*
X1810225Y1601940D02*
X1825332D01*
X1823760Y1717140D02*
X1824398D01*
X1810952Y1580340D02*
X1824008D01*
X1811239Y1675740D02*
X1823709D01*
X1809630Y1585740D02*
X1823285D01*
X1810078Y1582140D02*
X1822399D01*
X1806979Y1583940D02*
X1822258D01*
X1757775Y1677540D02*
X1821909D01*
X1758930Y1749540D02*
X1820246D01*
X1757775Y1679340D02*
X1820109D01*
X1757775Y1681140D02*
X1818580D01*
X1757775Y1744140D02*
X1818390D01*
X1757775Y1742340D02*
X1818387D01*
X1757775Y1740540D02*
X1818384D01*
X1757775Y1738740D02*
X1818381D01*
X1757775Y1736940D02*
X1818378D01*
X1757775Y1735140D02*
X1818375D01*
X1757775Y1733340D02*
X1818372D01*
X1757775Y1731540D02*
X1818370D01*
X1757775Y1729740D02*
X1818367D01*
X1757775Y1727940D02*
X1818364D01*
X1757775Y1726140D02*
X1818361D01*
X1757775Y1724340D02*
X1818360D01*
X1757775Y1722540D02*
X1818360D01*
X1757775Y1720740D02*
X1818360D01*
X1757775Y1718940D02*
X1818360D01*
X1757775Y1717140D02*
X1818360D01*
X1815843Y1715340D02*
X1818360D01*
X1816540Y1713540D02*
X1818360D01*
X1816540Y1711740D02*
X1818360D01*
X1816540Y1709940D02*
X1818360D01*
X1816540Y1708140D02*
X1818360D01*
X1816540Y1706340D02*
X1818360D01*
X1816540Y1704540D02*
X1818360D01*
X1816540Y1702740D02*
X1818360D01*
X1816540Y1700940D02*
X1818360D01*
X1816540Y1699140D02*
X1818360D01*
X1816338Y1697340D02*
X1818360D01*
X1757775Y1695540D02*
X1818360D01*
X1757775Y1693740D02*
X1818360D01*
X1757775Y1691940D02*
X1818360D01*
X1757775Y1690140D02*
X1818360D01*
X1757775Y1688340D02*
X1818360D01*
X1757775Y1686540D02*
X1818360D01*
X1757775Y1684740D02*
X1818360D01*
X1757775Y1682940D02*
X1818360D01*
X1757775Y1747740D02*
X1818100D01*
X1757775Y1745940D02*
X1817819D01*
X1809522Y1612740D02*
X1810401D01*
X1807485Y1614540D02*
X1809347D01*
X1807819Y1603740D02*
X1807907D01*
X1757775Y1670340D02*
X1807448D01*
X1757775Y1675740D02*
X1807307D01*
X1757775Y1528140D02*
X1806199D01*
X1757775Y1529940D02*
X1806128D01*
X1757775Y1672140D02*
X1806113D01*
X1757775Y1673940D02*
X1806085D01*
X1796979Y1583940D02*
X1805605D01*
X1803203Y1519140D02*
X1805259D01*
X1797485Y1614540D02*
X1805099D01*
X1803187Y1513740D02*
X1805025D01*
X1803187Y1517340D02*
X1805025D01*
X1803187Y1515540D02*
X1805025D01*
X1797819Y1603740D02*
X1804765D01*
X1798093Y1594740D02*
X1804491D01*
X1798320Y1623540D02*
X1804264D01*
X1798524Y1574940D02*
X1804059D01*
X1798703Y1643340D02*
X1803881D01*
X1798869Y1645140D02*
X1803714D01*
X1799018Y1663140D02*
X1803565D01*
X1799159Y1625340D02*
X1803424D01*
X1799287Y1592940D02*
X1803296D01*
X1799410Y1605540D02*
X1803174D01*
X1757775Y1564140D02*
X1803092D01*
X1799522Y1612740D02*
X1803062D01*
X1799630Y1585740D02*
X1802954D01*
X1799729Y1632540D02*
X1802855D01*
X1799825Y1655940D02*
X1802759D01*
X1799913Y1652340D02*
X1802670D01*
X1757775Y1531740D02*
X1802663D01*
X1799999Y1636140D02*
X1802585D01*
X1800078Y1582140D02*
X1802506D01*
X1800155Y1616340D02*
X1802429D01*
X1800225Y1601940D02*
X1802358D01*
X1800294Y1596540D02*
X1802289D01*
X1800358Y1621740D02*
X1802225D01*
X1800420Y1576740D02*
X1802164D01*
X1757775Y1526340D02*
X1802111D01*
X1800477Y1641540D02*
X1802107D01*
X1800532Y1646940D02*
X1802051D01*
X1800583Y1661340D02*
X1802000D01*
X1800632Y1627140D02*
X1801951D01*
X1800678Y1591140D02*
X1801906D01*
X1800721Y1607340D02*
X1801862D01*
X1800761Y1610940D02*
X1801822D01*
X1800799Y1587540D02*
X1801784D01*
X1799018Y1573140D02*
X1801763D01*
X1800834Y1630740D02*
X1801749D01*
X1800868Y1657740D02*
X1801716D01*
X1800898Y1650540D02*
X1801686D01*
X1800926Y1637940D02*
X1801657D01*
X1800952Y1580340D02*
X1801632D01*
X1800976Y1618140D02*
X1801608D01*
X1800997Y1600140D02*
X1801587D01*
X1801016Y1598340D02*
X1801567D01*
X1801033Y1619940D02*
X1801551D01*
X1801048Y1578540D02*
X1801536D01*
X1801060Y1639740D02*
X1801523D01*
X1801071Y1648740D02*
X1801513D01*
X1799825Y1565940D02*
X1801509D01*
X1801079Y1659540D02*
X1801505D01*
X1801085Y1628940D02*
X1801498D01*
X1801089Y1589340D02*
X1801494D01*
X1801092Y1609140D02*
X1801492D01*
X1800583Y1571340D02*
X1801492D01*
X1801079Y1569540D02*
X1801492D01*
X1800868Y1567740D02*
X1801492D01*
X1757775Y1562340D02*
X1801311D01*
X1757775Y1533540D02*
X1800614D01*
X1757775Y1524540D02*
X1799552D01*
X1757775Y1560540D02*
X1799511D01*
X1757775Y1535340D02*
X1798865D01*
X1757775Y1474140D02*
X1798784D01*
X1757775Y1558740D02*
X1798341D01*
X1757775Y1537140D02*
X1798243D01*
X1757775Y1556940D02*
X1798241D01*
X1757775Y1555140D02*
X1798241D01*
X1757775Y1553340D02*
X1798241D01*
X1757775Y1551540D02*
X1798241D01*
X1757775Y1549740D02*
X1798241D01*
X1757775Y1547940D02*
X1798241D01*
X1757775Y1546140D02*
X1798241D01*
X1757775Y1544340D02*
X1798241D01*
X1757775Y1542540D02*
X1798241D01*
X1757775Y1540740D02*
X1798241D01*
X1757775Y1538940D02*
X1798241D01*
X1757775Y1522740D02*
X1797752D01*
X1757775Y1475940D02*
X1796942D01*
X1757775Y1520940D02*
X1796825D01*
X1757775Y1519140D02*
X1796787D01*
X1757775Y1517340D02*
X1796787D01*
X1757775Y1515540D02*
X1796787D01*
X1757775Y1513740D02*
X1796787D01*
X1757775Y1511940D02*
X1796787D01*
X1757775Y1510140D02*
X1796787D01*
X1757775Y1508340D02*
X1796787D01*
X1757775Y1506540D02*
X1796787D01*
X1757775Y1504740D02*
X1796787D01*
X1757775Y1502940D02*
X1796787D01*
X1757775Y1501140D02*
X1796787D01*
X1757775Y1499340D02*
X1796787D01*
X1757775Y1497540D02*
X1796787D01*
X1757775Y1495740D02*
X1796787D01*
X1757775Y1493940D02*
X1796787D01*
X1757775Y1492140D02*
X1796787D01*
X1757775Y1490340D02*
X1796787D01*
X1757775Y1488540D02*
X1796787D01*
X1757775Y1486740D02*
X1796787D01*
X1757775Y1484940D02*
X1796787D01*
X1757775Y1483140D02*
X1796787D01*
X1757775Y1481340D02*
X1796787D01*
X1757775Y1479540D02*
X1796787D01*
X1757775Y1477740D02*
X1796729D01*
X1757775Y1583940D02*
X1795605D01*
X1757775Y1614540D02*
X1795099D01*
X1757775Y1603740D02*
X1794765D01*
X1757775Y1594740D02*
X1794491D01*
X1757775Y1623540D02*
X1794264D01*
X1757775Y1574940D02*
X1794059D01*
X1757775Y1643340D02*
X1793881D01*
X1757775Y1645140D02*
X1793714D01*
X1757775Y1663140D02*
X1793565D01*
X1757775Y1573140D02*
X1793565D01*
X1757775Y1625340D02*
X1793424D01*
X1757775Y1592940D02*
X1793296D01*
X1757775Y1605540D02*
X1793174D01*
X1757775Y1612740D02*
X1793062D01*
X1757775Y1585740D02*
X1792954D01*
X1757775Y1632540D02*
X1792855D01*
X1757775Y1655940D02*
X1792759D01*
X1757775Y1565940D02*
X1792759D01*
X1757775Y1652340D02*
X1792670D01*
X1757775Y1636140D02*
X1792585D01*
X1757775Y1582140D02*
X1792506D01*
X1757775Y1616340D02*
X1792429D01*
X1757775Y1601940D02*
X1792358D01*
X1757775Y1596540D02*
X1792289D01*
X1757775Y1621740D02*
X1792225D01*
X1757775Y1576740D02*
X1792164D01*
X1757775Y1641540D02*
X1792107D01*
X1757775Y1646940D02*
X1792051D01*
X1757775Y1661340D02*
X1792000D01*
X1757775Y1571340D02*
X1792000D01*
X1757775Y1715340D02*
X1791984D01*
X1757775Y1627140D02*
X1791951D01*
X1757775Y1591140D02*
X1791906D01*
X1757775Y1607340D02*
X1791862D01*
X1757775Y1610940D02*
X1791822D01*
X1757775Y1587540D02*
X1791784D01*
X1757775Y1630740D02*
X1791749D01*
X1757775Y1657740D02*
X1791716D01*
X1757775Y1567740D02*
X1791716D01*
X1757775Y1650540D02*
X1791686D01*
X1757775Y1637940D02*
X1791657D01*
X1757775Y1580340D02*
X1791632D01*
X1757775Y1618140D02*
X1791608D01*
X1757775Y1600140D02*
X1791587D01*
X1757775Y1598340D02*
X1791567D01*
X1757775Y1619940D02*
X1791551D01*
X1757775Y1578540D02*
X1791536D01*
X1757775Y1639740D02*
X1791523D01*
X1757775Y1648740D02*
X1791513D01*
X1757775Y1659540D02*
X1791505D01*
X1757775Y1569540D02*
X1791505D01*
X1757775Y1628940D02*
X1791498D01*
X1757775Y1589340D02*
X1791494D01*
X1757775Y1609140D02*
X1791492D01*
X1757775Y1697340D02*
X1791489D01*
X1757775Y1713540D02*
X1791287D01*
X1757775Y1711740D02*
X1791287D01*
X1757775Y1709940D02*
X1791287D01*
X1757775Y1708140D02*
X1791287D01*
X1757775Y1706340D02*
X1791287D01*
X1757775Y1704540D02*
X1791287D01*
X1757775Y1702740D02*
X1791287D01*
X1757775Y1700940D02*
X1791287D01*
X1757775Y1699140D02*
X1791287D01*
G54D32*
X1835521Y1514290D02*
X1835761Y1514530D01*
X1970988Y1520832D02*
X1970125Y1521695D01*
Y1557958*
X1992728Y1505981D02*
X1991515D01*
X1958659Y1534961D02*
X1957719D01*
X2040779Y1542775D02*
X2014397D01*
X2012394Y1544779*
Y1548728*
X2090814Y1542475D02*
X2090866Y1542527D01*
X1990396Y1558583D02*
X2009040D01*
X2010917Y1560460*
X1963421Y1625555D02*
X1963058Y1625919D01*
X2119572Y1645681D02*
X2117058Y1648195D01*
Y1651207*
G54D33*
X2189541Y1459801D03*
X1799987Y1477213D03*
X1898552Y1472549D03*
X1993170Y1471780D03*
X2024378Y1478320D03*
X2030942Y1472018D03*
X2186395Y1465358D03*
X1864820Y1521591D03*
X1898986Y1518663D03*
X1936850Y1520832D03*
X1968139Y1515016D03*
X1970988Y1520832D03*
X2025071Y1512358D03*
X2103058Y1506207D03*
Y1519207D03*
X2158058Y1507207D03*
X1827907Y1534643D03*
X1845290Y1525921D03*
X1885096Y1526497D03*
X1875683Y1530808D03*
X1905892Y1530164D03*
X1904268Y1539373D03*
X1904099Y1544126D03*
X1907320Y1536521D03*
X1910933Y1533012D03*
X1910837Y1540770D03*
X1921033Y1527200D03*
X1983058Y1530207D03*
X1982058Y1538207D03*
X1983672Y1526044D03*
X2023884Y1526423D03*
X2038058Y1528207D03*
X2051058D03*
X2169123Y1527195D03*
X1817246Y1550258D03*
X1904278Y1548879D03*
X1906221Y1558580D03*
X1908383Y1564252D03*
X1904282Y1552754D03*
X1917131Y1563626D03*
X1970125Y1557958D03*
X2002206Y1551770D03*
X2024507Y1545710D03*
X2042376Y1553178D03*
X2053674Y1552605D03*
X2081058Y1549207D03*
X1825493Y1583287D03*
X1898986Y1572983D03*
X1902058Y1578207D03*
X1911229Y1572255D03*
X1915061Y1574294D03*
X1918321Y1579118D03*
X1927500Y1575975D03*
X1937571Y1566353D03*
X1941306Y1582558D03*
X1988665Y1580251D03*
X1985398Y1577378D03*
X1982220Y1583674D03*
X1979270Y1568426D03*
X2002166Y1568852D03*
X2022615Y1577979D03*
X2053674Y1577009D03*
X2095058Y1565207D03*
X2183582Y1577973D03*
X1844717Y1594537D03*
X1864741Y1601267D03*
X1903391Y1598305D03*
X1921317Y1585616D03*
X1914805Y1598305D03*
X1941560Y1588462D03*
X1948686Y1588298D03*
X1931058Y1591629D03*
X1937928Y1591306D03*
X1966333Y1588553D03*
X1974890Y1585277D03*
X1992072Y1584859D03*
X2002502Y1589419D03*
X2014988Y1590751D03*
X2108614Y1604375D03*
X1826152Y1605136D03*
X1843607Y1621167D03*
X1927094Y1616702D03*
X1929787Y1609340D03*
X1932509Y1612895D03*
X1948259Y1613276D03*
X1945354Y1609123D03*
X1938499Y1612584D03*
X1967589Y1624644D03*
X1961126Y1622086D03*
X1958272Y1618103D03*
X1964431Y1614066D03*
X1953678Y1605877D03*
X1950697Y1622119D03*
X1984198Y1619159D03*
X1990902Y1623594D03*
X1991417Y1619706D03*
X2023196Y1604943D03*
X2019252Y1614914D03*
X2022541Y1610670D03*
X2159505Y1610497D03*
X2194057Y1610992D03*
X1867359Y1638962D03*
X1876118Y1627583D03*
X1897144Y1628542D03*
X1900631Y1635605D03*
X1904815Y1624978D03*
X1935841Y1642543D03*
X1937586Y1638962D03*
X1941867Y1635605D03*
X1946608Y1631942D03*
X1955040Y1632463D03*
X1950481Y1632934D03*
Y1640902D03*
X1963421Y1625555D03*
X1959790Y1628542D03*
X1982484Y1633851D03*
X1997017Y1642461D03*
X2020113Y1629481D03*
X2020961Y1624754D03*
X2011645Y1634080D03*
X2039328Y1643060D03*
X2085722Y1638575D03*
X2113614Y1629207D03*
X2145532Y1637004D03*
X2152456Y1639454D03*
X1860562Y1661286D03*
X1860943Y1645080D03*
X1900947Y1656876D03*
X1945804Y1662981D03*
X1998813Y1655537D03*
X2001981Y1646409D03*
X2008076Y1652726D03*
X2044205Y1646174D03*
X2048112Y1648237D03*
X2035874Y1659258D03*
X2040433Y1649110D03*
X2060188Y1660022D03*
X2098352Y1657931D03*
X2117058Y1651207D03*
X2124528Y1648855D03*
X2128874Y1651716D03*
X2147505Y1654595D03*
X2152583Y1654552D03*
X1809273Y1673089D03*
X1903844Y1671251D03*
X1989381Y1679116D03*
X2025346Y1666070D03*
X2016479Y1666035D03*
X2034916Y1678560D03*
X2039916Y1683033D03*
X2123342Y1668473D03*
X2114561Y1667743D03*
X2119561Y1673113D03*
X2129561Y1671716D03*
X2135201Y1672146D03*
X2139561Y1673569D03*
X2152675Y1667857D03*
X2162305Y1683661D03*
X2164561Y1672961D03*
X2149561Y1670679D03*
X1936355Y1685268D03*
X1956138Y1694310D03*
X2014916Y1702624D03*
X2082282Y1702682D03*
X2082066Y1691571D03*
X2105575Y1690057D03*
X2124951Y1688479D03*
X2145524Y1689311D03*
X2156007Y1686693D03*
X2152365Y1690170D03*
X2159561Y1690230D03*
X2165333Y1689647D03*
X1939220Y1710020D03*
X1944058Y1718207D03*
X1956267Y1721440D03*
X1988444Y1721902D03*
X2036740D03*
X2045458Y1711870D03*
X2121364Y1706209D03*
X2125956Y1717060D03*
X2004916Y1726783D03*
X2008064Y1730938D03*
X2045175Y1726720D03*
X1821093Y1746350D03*
X2205643Y1746916D03*
G54D36*
X2129491Y1609900D02*
X2130764Y1608627D01*
X2129491Y1603111D02*
X2130764Y1604384D01*
X2136279Y1603111D02*
X2135007Y1604384D01*
X2136279Y1609900D02*
X2135007Y1608627D01*
X2065617Y1663928D02*
X2064344Y1665201D01*
X2065617Y1670716D02*
X2064344Y1669443D01*
X2171457Y1529528D02*
X2170184Y1528255D01*
X2166790Y1529528D02*
X2168063Y1528255D01*
X2166790Y1524861D02*
X2168063Y1526134D01*
X2171457Y1524861D02*
X2170184Y1526134D01*
X2105391Y1508541D02*
X2104119Y1507268D01*
X2100725Y1508541D02*
X2101997Y1507268D01*
X2100725Y1503874D02*
X2101997Y1505147D01*
X2105391Y1503874D02*
X2104119Y1505147D01*
X2097391Y1567541D02*
X2096119Y1566268D01*
X2092725Y1567541D02*
X2093997Y1566268D01*
X2092725Y1562874D02*
X2093997Y1564147D01*
X2097391Y1562874D02*
X2096119Y1564147D01*
X2155009Y1670191D02*
X2153736Y1668918D01*
X2150342Y1665524D02*
X2151615Y1666797D01*
X2155009Y1665524D02*
X2153736Y1666797D01*
X2149839Y1656928D02*
X2148566Y1655656D01*
X2145172Y1656928D02*
X2146445Y1655656D01*
X2132868Y1674479D02*
X2134141Y1673207D01*
X2132868Y1669813D02*
X2134141Y1671085D01*
X2137535Y1669813D02*
X2136262Y1671085D01*
X2018812Y1668368D02*
X2017540Y1667096D01*
X2014146Y1668368D02*
X2015418Y1667096D01*
X2014146Y1663702D02*
X2015418Y1664974D01*
X2018812Y1663702D02*
X2017540Y1664974D01*
X2027679Y1668404D02*
X2026406Y1667131D01*
X2023012Y1668404D02*
X2024285Y1667131D01*
X2023012Y1663737D02*
X2024285Y1665010D01*
X2027679Y1663737D02*
X2026406Y1665010D01*
X1901948Y1555087D02*
X1903221Y1553814D01*
X2044710Y1555511D02*
X2043437Y1554239D01*
X2040043Y1550844D02*
X2041316Y1552117D01*
X2044710Y1550844D02*
X2043437Y1552117D01*
X2053391Y1530541D02*
X2052119Y1529268D01*
X2048725Y1530541D02*
X2049997Y1529268D01*
X2048725Y1525874D02*
X2049997Y1527147D01*
X2053391Y1525874D02*
X2052119Y1527147D01*
X2160391Y1509541D02*
X2159119Y1508268D01*
X2160391Y1504874D02*
X2159119Y1506147D01*
X1914797Y1561292D02*
X1916070Y1562565D01*
X1919464Y1561292D02*
X1918191Y1562565D01*
X1924761Y1619036D02*
X1926033Y1617763D01*
X1943020Y1611456D02*
X1944293Y1610184D01*
X2088055Y1640909D02*
X2086783Y1639636D01*
X2083388Y1640909D02*
X2084661Y1639636D01*
X2088055Y1636242D02*
X2086783Y1637515D01*
X2100686Y1660265D02*
X2099413Y1658992D01*
X2096019Y1660265D02*
X2097292Y1658992D01*
X2096019Y1655598D02*
X2097292Y1656871D01*
X2100686Y1655598D02*
X2099413Y1656871D01*
X2084399Y1693905D02*
X2083127Y1692632D01*
X2079732Y1693905D02*
X2081005Y1692632D01*
X2079732Y1689238D02*
X2081005Y1690511D01*
X2084399Y1689238D02*
X2083127Y1690511D01*
X1991714Y1681449D02*
X1990442Y1680177D01*
X1987047Y1681449D02*
X1988320Y1680177D01*
X1991714Y1676782D02*
X1990442Y1678055D01*
X1862895Y1663619D02*
X1861623Y1662347D01*
X1858228Y1663619D02*
X1859501Y1662347D01*
X1858228Y1658953D02*
X1859501Y1660225D01*
X1862895Y1658953D02*
X1861623Y1660225D01*
X1941554Y1712354D02*
X1940281Y1711081D01*
X1936887Y1712354D02*
X1938160Y1711081D01*
X1936887Y1707687D02*
X1938160Y1708959D01*
X1941554Y1707687D02*
X1940281Y1708959D01*
X1938688Y1687602D02*
X1937415Y1686329D01*
X1934021Y1687602D02*
X1935294Y1686329D01*
X1903281Y1659209D02*
X1902008Y1657937D01*
X1898614Y1659209D02*
X1899887Y1657937D01*
X1898614Y1654542D02*
X1899887Y1655815D01*
X1903281Y1654542D02*
X1902008Y1655815D01*
X1946391Y1720541D02*
X1945119Y1719268D01*
X1941725Y1720541D02*
X1942997Y1719268D01*
X1941725Y1715874D02*
X1942997Y1717147D01*
X1946391Y1715874D02*
X1945119Y1717147D01*
X1811607Y1675423D02*
X1810334Y1674150D01*
X1806940Y1675423D02*
X1808213Y1674150D01*
X1806940Y1670756D02*
X1808213Y1672029D01*
X1811607Y1670756D02*
X1810334Y1672029D01*
X1867074Y1603600D02*
X1865801Y1602327D01*
X1862407Y1603600D02*
X1863680Y1602327D01*
X1862407Y1598933D02*
X1863680Y1600206D01*
X1867074Y1598933D02*
X1865801Y1600206D01*
X1845941Y1623501D02*
X1844668Y1622228D01*
X1841274Y1623501D02*
X1842547Y1622228D01*
X1841274Y1618834D02*
X1842547Y1620107D01*
X1845941Y1618834D02*
X1844668Y1620107D01*
X1904987Y1534187D02*
X1906259Y1535460D01*
X1923366Y1529533D02*
X1922094Y1528261D01*
X1918699Y1529533D02*
X1919972Y1528261D01*
X1918699Y1524867D02*
X1919972Y1526139D01*
X1923366Y1524867D02*
X1922094Y1526139D01*
X2161894Y1692563D02*
X2160621Y1691290D01*
X2157227Y1692563D02*
X2158500Y1691290D01*
X1965755Y1627889D02*
X1964482Y1626616D01*
X1887429Y1528831D02*
X1886157Y1527558D01*
X1882762Y1528831D02*
X1884035Y1527558D01*
X1882762Y1524164D02*
X1884035Y1525437D01*
X1887429Y1524164D02*
X1886157Y1525437D01*
X1847623Y1528254D02*
X1846350Y1526982D01*
X1842956Y1528254D02*
X1844229Y1526982D01*
X1842956Y1523588D02*
X1844229Y1524860D01*
X1847623Y1523588D02*
X1846350Y1524860D01*
X2125676Y1670806D02*
X2124403Y1669533D01*
X2125676Y1666139D02*
X2124403Y1667412D01*
X2112227Y1670076D02*
X2113500Y1668804D01*
X2112227Y1665409D02*
X2113500Y1666682D01*
X1827826Y1585620D02*
X1826553Y1584347D01*
X1823159Y1585620D02*
X1824432Y1584347D01*
X1823159Y1580953D02*
X1824432Y1582226D01*
X1827826Y1580953D02*
X1826553Y1582226D01*
X2024874Y1613004D02*
X2023601Y1611731D01*
X2020207Y1608337D02*
X2021480Y1609610D01*
X2024874Y1608337D02*
X2023601Y1609610D01*
X2004836Y1591752D02*
X2003563Y1590480D01*
X2000169Y1591752D02*
X2001442Y1590480D01*
X2000169Y1587086D02*
X2001442Y1588358D01*
X1878451Y1629916D02*
X1877179Y1628643D01*
X1873785Y1629916D02*
X1875057Y1628643D01*
X1873785Y1625249D02*
X1875057Y1626522D01*
X1878451Y1625249D02*
X1877179Y1626522D01*
X2105391Y1521541D02*
X2104119Y1520268D01*
X2100725Y1521541D02*
X2101997Y1520268D01*
X2100725Y1516874D02*
X2101997Y1518147D01*
X2105391Y1516874D02*
X2104119Y1518147D01*
X2040391Y1530541D02*
X2039119Y1529268D01*
X2035725Y1530541D02*
X2036997Y1529268D01*
X2035725Y1525874D02*
X2036997Y1527147D01*
X2040391Y1525874D02*
X2039119Y1527147D01*
X2037249Y1680893D02*
X2035977Y1679620D01*
X2032583Y1680893D02*
X2033855Y1679620D01*
X1948138Y1665315D02*
X1946865Y1664042D01*
X1943471Y1665315D02*
X1944744Y1664042D01*
X1943471Y1660648D02*
X1944744Y1661921D01*
X1948138Y1660648D02*
X1946865Y1661921D01*
X2062522Y1662355D02*
X2061249Y1661082D01*
X2062522Y1657688D02*
X2061249Y1658961D01*
X1867153Y1523925D02*
X1865881Y1522652D01*
X1862486Y1523925D02*
X1863759Y1522652D01*
X1862486Y1519258D02*
X1863759Y1520531D01*
X1867153Y1519258D02*
X1865881Y1520531D01*
X1819579Y1552591D02*
X1818307Y1551318D01*
X1814913Y1552591D02*
X1816185Y1551318D01*
X1814913Y1547924D02*
X1816185Y1549197D01*
X1819579Y1547924D02*
X1818307Y1549197D01*
X2128289Y1719394D02*
X2127016Y1718121D01*
X2123622Y1719394D02*
X2124895Y1718121D01*
X2167666Y1691981D02*
X2166393Y1690708D01*
X2162999Y1691981D02*
X2164272Y1690708D01*
X1904391Y1580541D02*
X1903119Y1579268D01*
X1904391Y1575874D02*
X1903119Y1577147D01*
X1984391Y1540541D02*
X1983119Y1539268D01*
G54D38*
G74*
X0Y0D02*
M02*
