*
*
G04 PADS9.0 Build Number: 341147 generated Gerber (RS-274-X) file*
G04 PC Version=2.1*
*
%IN "ADXL340(final)05-16V2.p"*%
*
%MOIN*%
*
%FSLAX35Y35*%
*
*
*
*
G04 PC Standard Apertures*
*
*
G04 Thermal Relief Aperture macro.*
%AMTER*
1,1,$1,0,0*
1,0,$1-$2,0,0*
21,0,$3,$4,0,0,45*
21,0,$3,$4,0,0,135*
%
*
*
G04 Annular Aperture macro.*
%AMANN*
1,1,$1,0,0*
1,0,$2,0,0*
%
*
*
G04 Odd Aperture macro.*
%AMODD*
1,1,$1,0,0*
1,0,$1-0.005,0,0*
%
*
*
G04 PC Custom Aperture Macros*
*
*
*
*
*
*
G04 PC Aperture Table*
*
%ADD010R,0.0134X0.0134*%
%ADD011C,0.01575*%
%ADD012R,0.07087X0.07087*%
%ADD013R,0.01969X0.01969*%
%ADD014R,0.07874X0.07874*%
%ADD015R,0.088X0.088*%
%ADD016R,0.045X0.045*%
%ADD017C,0.023*%
%ADD018R,0.063X0.063*%
%ADD019C,0.063*%
%ADD020R,0.015X0.015*%
%ADD021R,0.06X0.06*%
%ADD022C,0.06*%
%ADD023C,0.07874*%
%ADD024C,0.01063*%
%ADD025R,0.05X0.05*%
%ADD026C,0.02008*%
%ADD027C,0.01969*%
%ADD028C,0.07*%
%ADD029R,0.15748X0.15748*%
%ADD030C,0.01*%
%ADD031C,0.02*%
%ADD032C,0.012*%
%ADD033C,0.03*%
%ADD038C,0.001*%
*
*
*
*
G04 PC Circuitry*
G04 Layer Name ADXL340(final)05-16V2.p - circuitry*
%LPD*%
*
*
G04 PC Custom Flashes*
G04 Layer Name ADXL340(final)05-16V2.p - flashes*
%LPD*%
*
*
G04 PC Circuitry*
G04 Layer Name ADXL340(final)05-16V2.p - circuitry*
%LPD*%
*
G54D10*
G01X2064451Y1559717D02*
Y1563067D01*
X2067051Y1559717D02*
Y1563067D01*
X2069571Y1559717D02*
Y1563067D01*
X2072171Y1559717D02*
Y1563067D01*
Y1577277D02*
Y1580627D01*
X2069571Y1577277D02*
Y1580627D01*
X2067051Y1577277D02*
Y1580627D01*
X2064451Y1577277D02*
Y1580627D01*
X2131106Y1518327D02*
X2134456D01*
X2131106Y1515727D02*
X2134456D01*
X2131106Y1513207D02*
X2134456D01*
X2131106Y1510607D02*
X2134456D01*
X2148666D02*
X2152016D01*
X2148666Y1513207D02*
X2152016D01*
X2148666Y1515727D02*
X2152016D01*
X2148666Y1518327D02*
X2152016D01*
G54D11*
X1984961Y1698339D02*
X1982598D01*
X1984961Y1700898D02*
X1982598D01*
X1984961Y1703457D02*
X1982598D01*
X1984961Y1706016D02*
X1982598D01*
X1979744Y1711233D02*
Y1708870D01*
X1977185Y1711233D02*
Y1708870D01*
X1974626Y1711233D02*
Y1708870D01*
X1972067Y1711233D02*
Y1708870D01*
X1969213Y1706016D02*
X1966850D01*
X1969213Y1703457D02*
X1966850D01*
X1969213Y1700898D02*
X1966850D01*
X1969213Y1698339D02*
X1966850D01*
X1972067Y1695485D02*
Y1693122D01*
X1974626Y1695485D02*
Y1693122D01*
X1977185Y1695485D02*
Y1693122D01*
X1979744Y1695485D02*
Y1693122D01*
G54D12*
X1975945Y1702237D03*
G54D13*
X2183244Y1479271D02*
Y1486161D01*
X2186394Y1479271D02*
Y1486161D01*
X2189543Y1479271D02*
Y1486161D01*
X2192693Y1479271D02*
Y1486161D01*
X2195843Y1479271D02*
Y1486161D01*
G54D14*
X2170055Y1481240D02*
Y1483208D01*
X2209032Y1481240D02*
Y1483208D01*
X2170055Y1459783D02*
Y1461751D01*
X2209032Y1459783D02*
Y1461751D01*
G54D15*
X2093845Y1625800D02*
X2095045D01*
X2093845Y1612300D02*
X2095045D01*
X2136134Y1540739D02*
Y1541939D01*
X2149634Y1540739D02*
Y1541939D01*
X2135818Y1558510D02*
Y1559710D01*
X2149318Y1558510D02*
Y1559710D01*
X2085324Y1678596D02*
X2086524D01*
X2085324Y1665096D02*
X2086524D01*
X2029892Y1727425D02*
Y1726225D01*
X2016392Y1727425D02*
Y1726225D01*
X1980347Y1738380D02*
Y1737180D01*
X1966847Y1738380D02*
Y1737180D01*
X1887180Y1669468D02*
Y1668268D01*
X1873680Y1669468D02*
Y1668268D01*
X2059866Y1519216D02*
Y1520416D01*
X2073366Y1519216D02*
Y1520416D01*
X2067504Y1590104D02*
Y1591304D01*
X2081004Y1590104D02*
Y1591304D01*
X2107375Y1582043D02*
Y1580843D01*
X2093875Y1582043D02*
Y1580843D01*
X2169975Y1503852D02*
X2168775D01*
X2169975Y1517352D02*
X2168775D01*
X2188597Y1504176D02*
X2187397D01*
X2188597Y1517676D02*
X2187397D01*
X2060251Y1534764D02*
Y1535964D01*
X2073751Y1534764D02*
Y1535964D01*
G54D16*
X1965254Y1685083D03*
X1957054D03*
X1976170Y1685127D03*
X1984370D03*
X2023154Y1679475D03*
X2014954D03*
X1850153Y1651351D03*
X1858353D03*
X2099156Y1688934D03*
X2090956D03*
X2106298Y1612227D03*
Y1620427D03*
X2092526Y1698655D03*
X2100726D03*
X2115833Y1620666D03*
Y1612466D03*
X2098927Y1678953D03*
Y1670753D03*
X2137428Y1629085D03*
Y1620885D03*
X1981684Y1653047D03*
X1989884D03*
X2128770Y1629170D03*
Y1620970D03*
X2147811Y1620530D03*
Y1628730D03*
X2169791Y1620010D03*
Y1628210D03*
X2159505Y1619994D03*
Y1628194D03*
X2183582Y1562603D03*
Y1570803D03*
X2074169Y1548903D03*
X2065969D03*
X1979522Y1725157D03*
X1971322D03*
X1948832Y1710020D03*
X1957032D03*
X1946748Y1684268D03*
Y1692468D03*
X2144043Y1526592D03*
X2135843D03*
X2084489Y1565450D03*
Y1573650D03*
X1859226Y1637108D03*
X1851026D03*
X1833751Y1604060D03*
Y1595860D03*
X2012847Y1625601D03*
Y1617401D03*
X2012772Y1600716D03*
Y1608916D03*
X1834476Y1650556D03*
X1826276D03*
X1844709Y1600782D03*
Y1608982D03*
X1822641Y1611671D03*
Y1619871D03*
X1834737Y1637950D03*
X1826537D03*
X1944441Y1675919D03*
X1952641D03*
X1836361Y1630379D03*
Y1622179D03*
X1836621Y1576087D03*
Y1584287D03*
X1987799Y1593206D03*
X1995999D03*
X1940662Y1575975D03*
X1932462D03*
X2031903Y1545968D03*
X2040103D03*
X2039345Y1535191D03*
X2031145D03*
X1882802Y1632979D03*
X1874602D03*
X1882807Y1654613D03*
X1874607D03*
X1794562Y1488940D03*
Y1497140D03*
X1803635Y1489107D03*
Y1497307D03*
X1813087Y1489190D03*
Y1497390D03*
X1822532Y1489050D03*
Y1497250D03*
X1841289Y1489349D03*
Y1497549D03*
X1831985Y1489323D03*
Y1497523D03*
X1850372Y1489824D03*
Y1498024D03*
X2147984Y1485453D03*
Y1477253D03*
X1859216Y1490055D03*
Y1498255D03*
X2125791Y1485152D03*
Y1476952D03*
X2101861Y1485594D03*
Y1477394D03*
X2078327Y1486071D03*
Y1477871D03*
X2053839Y1485594D03*
Y1477394D03*
X2030305Y1486309D03*
Y1478109D03*
X2006504Y1487158D03*
Y1478958D03*
X1867826Y1498019D03*
Y1489819D03*
G54D17*
X2011724Y1655860D02*
X2015624D01*
X2011724Y1652660D02*
X2015624D01*
X2011724Y1649460D02*
X2015624D01*
X2011724Y1646260D02*
X2015624D01*
X2011724Y1643060D02*
X2015624D01*
X2011724Y1639860D02*
X2015624D01*
X2019774Y1635710D02*
Y1639610D01*
X2023924Y1639860D02*
X2027824D01*
X2023924Y1643060D02*
X2027824D01*
X2023924Y1646260D02*
X2027824D01*
X2023924Y1649460D02*
X2027824D01*
X2023924Y1652660D02*
X2027824D01*
X2023924Y1655860D02*
X2027824D01*
X2019774Y1656110D02*
Y1660010D01*
G54D18*
X2112776Y1555509D03*
X2059854Y1640287D03*
X2132885Y1586505D03*
G54D19*
X2112776Y1545509D03*
Y1535509D03*
X2208337Y1501117D03*
Y1521117D03*
X2059854Y1630287D03*
Y1620287D03*
X2132885Y1596505D03*
Y1606505D03*
G54D20*
X2107061Y1658748D02*
Y1664248D01*
X2109561Y1658748D02*
Y1664248D01*
X2112061Y1658748D02*
Y1664248D01*
X2114561Y1658748D02*
Y1664248D01*
X2117061Y1658748D02*
Y1664248D01*
X2119561Y1658748D02*
Y1664248D01*
X2122061Y1658748D02*
Y1664248D01*
X2124561Y1658748D02*
Y1664248D01*
X2127061Y1658748D02*
Y1664248D01*
X2129561Y1658748D02*
Y1664248D01*
X2132061Y1658748D02*
Y1664248D01*
X2134561Y1658748D02*
Y1664248D01*
X2137061Y1658748D02*
Y1664248D01*
X2139561Y1658748D02*
Y1664248D01*
X2142061Y1658748D02*
Y1664248D01*
X2144561Y1658748D02*
Y1664248D01*
X2147061Y1658748D02*
Y1664248D01*
X2149561Y1658748D02*
Y1664248D01*
X2152061Y1658748D02*
Y1664248D01*
X2154561Y1658748D02*
Y1664248D01*
X2157061Y1658748D02*
Y1664248D01*
X2159561Y1658748D02*
Y1664248D01*
X2162061Y1658748D02*
Y1664248D01*
X2164561Y1658748D02*
Y1664248D01*
X2167061Y1658748D02*
Y1664248D01*
X2169561Y1658748D02*
Y1664248D01*
X2172061Y1658748D02*
Y1664248D01*
X2174561Y1658748D02*
Y1664248D01*
Y1696748D02*
Y1702248D01*
X2172061Y1696748D02*
Y1702248D01*
X2169561Y1696748D02*
Y1702248D01*
X2167061Y1696748D02*
Y1702248D01*
X2164561Y1696748D02*
Y1702248D01*
X2162061Y1696748D02*
Y1702248D01*
X2159561Y1696748D02*
Y1702248D01*
X2157061Y1696748D02*
Y1702248D01*
X2154561Y1696748D02*
Y1702248D01*
X2152061Y1696748D02*
Y1702248D01*
X2149561Y1696748D02*
Y1702248D01*
X2147061Y1696748D02*
Y1702248D01*
X2144561Y1696748D02*
Y1702248D01*
X2142061Y1696748D02*
Y1702248D01*
X2139561Y1696748D02*
Y1702248D01*
X2137061Y1696748D02*
Y1702248D01*
X2134561Y1696748D02*
Y1702248D01*
X2132061Y1696748D02*
Y1702248D01*
X2129561Y1696748D02*
Y1702248D01*
X2127061Y1696748D02*
Y1702248D01*
X2124561Y1696748D02*
Y1702248D01*
X2122061Y1696748D02*
Y1702248D01*
X2119561Y1696748D02*
Y1702248D01*
X2117061Y1696748D02*
Y1702248D01*
X2114561Y1696748D02*
Y1702248D01*
X2112061Y1696748D02*
Y1702248D01*
X2109561Y1696748D02*
Y1702248D01*
X2107061Y1696748D02*
Y1702248D01*
G54D21*
X2052223Y1697322D03*
X1854229Y1595696D02*
X1856829D01*
X1854841Y1577979D02*
X1857441D01*
X1890274Y1595696D02*
X1892874D01*
X1890077Y1577979D02*
X1892677D01*
X2210762Y1631202D03*
X2078588Y1609994D03*
X2172712Y1597918D03*
X2150266Y1600193D03*
X1852711Y1624479D02*
X1855311D01*
X1853323Y1606763D02*
X1855923D01*
X1888756Y1624479D02*
X1891356D01*
X1888560Y1606763D02*
X1891160D01*
X2210523Y1724721D03*
X2209872Y1538459D03*
X2126909Y1724735D03*
X2030144Y1559972D03*
X2000038Y1608125D03*
X1806292Y1569189D03*
G54D22*
X2062223Y1697322D03*
X2052223Y1687322D03*
X2062223D03*
X2052223Y1677322D03*
X2062223D03*
X2052223Y1667322D03*
X2062223D03*
X2210762Y1641202D03*
Y1651202D03*
Y1661202D03*
Y1671202D03*
Y1681202D03*
Y1691202D03*
Y1701202D03*
X2078588Y1619994D03*
Y1629994D03*
X2172712Y1607918D03*
X2150266Y1610193D03*
X2200523Y1724721D03*
X2190523D03*
X2180523D03*
X2170523D03*
X2160523D03*
X2150523D03*
X2140523D03*
X2209872Y1548459D03*
Y1558459D03*
Y1568459D03*
Y1578459D03*
Y1588459D03*
Y1598459D03*
Y1608459D03*
X2116909Y1724735D03*
X2106909D03*
X2096909D03*
X2086909D03*
X2076909D03*
X2066909D03*
X2056909D03*
X2040144Y1559972D03*
X2030144Y1569972D03*
X2040144D03*
X2030144Y1579972D03*
X2040144D03*
X2030144Y1589972D03*
X2040144D03*
X2030144Y1599972D03*
X2040144D03*
X2030144Y1609972D03*
X2040144D03*
X2030144Y1619972D03*
X2040144D03*
X2030144Y1629972D03*
X2040144D03*
X2000038Y1618125D03*
X1796292Y1569189D03*
X1806292Y1579189D03*
X1796292D03*
X1806292Y1589189D03*
X1796292D03*
X1806292Y1599189D03*
X1796292D03*
X1806292Y1609189D03*
X1796292D03*
X1806292Y1619189D03*
X1796292D03*
X1806292Y1629189D03*
X1796292D03*
X1806292Y1639189D03*
X1796292D03*
X1806292Y1649189D03*
X1796292D03*
X1806292Y1659189D03*
X1796292D03*
G54D23*
X2130058Y1639539D03*
X2110373D03*
G54D24*
X1894485Y1568331D02*
X1901296D01*
X1894485Y1566363D02*
X1901296D01*
X1894485Y1564394D02*
X1901296D01*
X1894485Y1562425D02*
X1901296D01*
X1894485Y1560457D02*
X1901296D01*
X1894485Y1558488D02*
X1901296D01*
X1894485Y1556520D02*
X1901296D01*
X1894485Y1554551D02*
X1901296D01*
X1894485Y1552583D02*
X1901296D01*
X1894485Y1550614D02*
X1901296D01*
X1894485Y1548646D02*
X1901296D01*
X1894485Y1546677D02*
X1901296D01*
X1894485Y1544709D02*
X1901296D01*
X1894485Y1542740D02*
X1901296D01*
X1894485Y1540772D02*
X1901296D01*
X1894485Y1538803D02*
X1901296D01*
X1894485Y1536835D02*
X1901296D01*
X1894485Y1534866D02*
X1901296D01*
X1894485Y1532898D02*
X1901296D01*
X1894485Y1530929D02*
X1901296D01*
X1894485Y1528961D02*
X1901296D01*
X1894485Y1526992D02*
X1901296D01*
X1894485Y1525024D02*
X1901296D01*
X1894485Y1523055D02*
X1901296D01*
X1927163D02*
X1933974D01*
X1927163Y1525024D02*
X1933974D01*
X1927163Y1526992D02*
X1933974D01*
X1927163Y1528961D02*
X1933974D01*
X1927163Y1530929D02*
X1933974D01*
X1927163Y1532898D02*
X1933974D01*
X1927163Y1534866D02*
X1933974D01*
X1927163Y1536835D02*
X1933974D01*
X1927163Y1538803D02*
X1933974D01*
X1927163Y1540772D02*
X1933974D01*
X1927163Y1542740D02*
X1933974D01*
X1927163Y1544709D02*
X1933974D01*
X1927163Y1546677D02*
X1933974D01*
X1927163Y1548646D02*
X1933974D01*
X1927163Y1550614D02*
X1933974D01*
X1927163Y1552583D02*
X1933974D01*
X1927163Y1554551D02*
X1933974D01*
X1927163Y1556520D02*
X1933974D01*
X1927163Y1558488D02*
X1933974D01*
X1927163Y1560457D02*
X1933974D01*
X1927163Y1562425D02*
X1933974D01*
X1927163Y1564394D02*
X1933974D01*
X1927163Y1566363D02*
X1933974D01*
X1927163Y1568331D02*
X1933974D01*
X1916139Y1643693D02*
X1922320D01*
X1916139Y1641725D02*
X1922320D01*
X1916139Y1639756D02*
X1922320D01*
X1916139Y1637788D02*
X1922320D01*
X1916139Y1635819D02*
X1922320D01*
X1916139Y1633851D02*
X1922320D01*
X1916139Y1631882D02*
X1922320D01*
X1916139Y1629914D02*
X1922320D01*
X1916139Y1627945D02*
X1922320D01*
X1916139Y1625977D02*
X1922320D01*
X1916139Y1624008D02*
X1922320D01*
X1916139Y1622040D02*
X1922320D01*
X1916139Y1620071D02*
X1922320D01*
X1916139Y1618103D02*
X1922320D01*
X1916139Y1616134D02*
X1922320D01*
X1916139Y1614166D02*
X1922320D01*
X1916139Y1612197D02*
X1922320D01*
X1916139Y1610229D02*
X1922320D01*
X1916139Y1608260D02*
X1922320D01*
X1916139Y1606292D02*
X1922320D01*
X1928088Y1594343D02*
Y1600524D01*
X1930056Y1594343D02*
Y1600524D01*
X1932025Y1594343D02*
Y1600524D01*
X1933993Y1594343D02*
Y1600524D01*
X1935962Y1594343D02*
Y1600524D01*
X1937930Y1594343D02*
Y1600524D01*
X1939899Y1594343D02*
Y1600524D01*
X1941867Y1594343D02*
Y1600524D01*
X1943836Y1594343D02*
Y1600524D01*
X1945804Y1594343D02*
Y1600524D01*
X1947773Y1594343D02*
Y1600524D01*
X1949741Y1594343D02*
Y1600524D01*
X1951710Y1594343D02*
Y1600524D01*
X1953678Y1594343D02*
Y1600524D01*
X1955647Y1594343D02*
Y1600524D01*
X1957615Y1594343D02*
Y1600524D01*
X1959584Y1594343D02*
Y1600524D01*
X1961552Y1594343D02*
Y1600524D01*
X1963521Y1594343D02*
Y1600524D01*
X1965489Y1594343D02*
Y1600524D01*
X1971257Y1606292D02*
X1977438D01*
X1971257Y1608260D02*
X1977438D01*
X1971257Y1610229D02*
X1977438D01*
X1971257Y1612197D02*
X1977438D01*
X1971257Y1614166D02*
X1977438D01*
X1971257Y1616134D02*
X1977438D01*
X1971257Y1618103D02*
X1977438D01*
X1971257Y1620071D02*
X1977438D01*
X1971257Y1622040D02*
X1977438D01*
X1971257Y1624008D02*
X1977438D01*
X1971257Y1625977D02*
X1977438D01*
X1971257Y1627945D02*
X1977438D01*
X1971257Y1629914D02*
X1977438D01*
X1971257Y1631882D02*
X1977438D01*
X1971257Y1633851D02*
X1977438D01*
X1971257Y1635819D02*
X1977438D01*
X1971257Y1637788D02*
X1977438D01*
X1971257Y1639756D02*
X1977438D01*
X1971257Y1641725D02*
X1977438D01*
X1971257Y1643693D02*
X1977438D01*
X1965489Y1649461D02*
Y1655642D01*
X1963521Y1649461D02*
Y1655642D01*
X1961552Y1649461D02*
Y1655642D01*
X1959584Y1649461D02*
Y1655642D01*
X1957615Y1649461D02*
Y1655642D01*
X1955647Y1649461D02*
Y1655642D01*
X1953678Y1649461D02*
Y1655642D01*
X1951710Y1649461D02*
Y1655642D01*
X1949741Y1649461D02*
Y1655642D01*
X1947773Y1649461D02*
Y1655642D01*
X1945804Y1649461D02*
Y1655642D01*
X1943836Y1649461D02*
Y1655642D01*
X1941867Y1649461D02*
Y1655642D01*
X1939899Y1649461D02*
Y1655642D01*
X1937930Y1649461D02*
Y1655642D01*
X1935962Y1649461D02*
Y1655642D01*
X1933993Y1649461D02*
Y1655642D01*
X1932025Y1649461D02*
Y1655642D01*
X1930056Y1649461D02*
Y1655642D01*
X1928088Y1649461D02*
Y1655642D01*
G54D25*
X1982584Y1463800D02*
X1983084D01*
X1994084D02*
X1994584D01*
X2006252D02*
X2006752D01*
X2017752D02*
X2018252D01*
X2029920D02*
X2030420D01*
X2041420D02*
X2041920D01*
X2053588D02*
X2054088D01*
X2065088D02*
X2065588D01*
X2077645D02*
X2078145D01*
X2089145D02*
X2089645D01*
X1862968D02*
X1863468D01*
X1874468D02*
X1874968D01*
X1886802D02*
X1887302D01*
X1898302D02*
X1898802D01*
X1910636D02*
X1911136D01*
X1922136D02*
X1922636D01*
X1934859D02*
X1935359D01*
X1946359D02*
X1946859D01*
X1958916D02*
X1959416D01*
X1970416D02*
X1970916D01*
X2125433D02*
X2125933D01*
X2136933D02*
X2137433D01*
X1791020D02*
X1791520D01*
X1802520D02*
X1803020D01*
X2101702D02*
X2102202D01*
X2113202D02*
X2113702D01*
X1814854D02*
X1815354D01*
X1826354D02*
X1826854D01*
X1838911D02*
X1839411D01*
X1850411D02*
X1850911D01*
G54D26*
X2158147Y1554466D02*
Y1560332D01*
X2163147Y1554466D02*
Y1560332D01*
X2168147Y1554466D02*
Y1560332D01*
X2173147Y1554466D02*
Y1560332D01*
Y1578876D02*
Y1584742D01*
X2168147Y1578876D02*
Y1584742D01*
X2163147Y1578876D02*
Y1584742D01*
X2158147Y1578876D02*
Y1584742D01*
G54D27*
X2039916Y1717754D02*
Y1711849D01*
X2034916Y1717754D02*
Y1711849D01*
X2029916Y1717754D02*
Y1711849D01*
X2024916Y1717754D02*
Y1711849D01*
X2019916Y1717754D02*
Y1711849D01*
X2014916Y1717754D02*
Y1711849D01*
X2009916Y1717754D02*
Y1711849D01*
X2004916Y1717754D02*
Y1711849D01*
Y1693345D02*
Y1687439D01*
X2009916Y1693345D02*
Y1687439D01*
X2014916Y1693345D02*
Y1687439D01*
X2019916Y1693345D02*
Y1687439D01*
X2024916Y1693345D02*
Y1687439D01*
X2029916Y1693345D02*
Y1687439D01*
X2034916Y1693345D02*
Y1687439D01*
X2039916Y1693345D02*
Y1687439D01*
G54D28*
X1875513Y1700343D03*
X1864713D03*
X1853913D03*
X1843113D03*
X1832313D03*
X1870113Y1711743D03*
X1859313D03*
X1848513D03*
X1837713D03*
G54D29*
X1906866Y1706043D02*
X1900961D01*
X1806866D02*
X1800961D01*
G54D30*
X2150110Y1465739D02*
X2145610Y1465660D01*
X2145680Y1461661*
X2150179Y1461740*
X2150110Y1465739*
X2145680Y1461661D02*
X2145680D01*
X2145663Y1462661D02*
X2150163D01*
X2145645Y1463661D02*
X2150146D01*
X2145628Y1464661D02*
X2150128D01*
X2145645Y1465661D02*
X2150111D01*
X2145610Y1465660D02*
X2145610D01*
X2146610Y1461677D02*
Y1465678D01*
X2147610Y1461695D02*
Y1465695D01*
X2148610Y1461712D02*
Y1465713D01*
X2149610Y1461730D02*
Y1465730D01*
X2161608Y1465940D02*
X2157109Y1465861D01*
X2157178Y1461862*
X2161678Y1461940*
X2161608Y1465940*
X2157178Y1461862D02*
X2157178D01*
X2157161Y1462862D02*
X2161662D01*
X2157143Y1463862D02*
X2161644D01*
X2157126Y1464862D02*
X2161627D01*
X2157144Y1465862D02*
X2161609D01*
X2157109Y1465861D02*
X2157109D01*
X2158109Y1461878D02*
Y1465879D01*
X2159109Y1461895D02*
Y1465896D01*
X2160109Y1461913D02*
Y1465913D01*
X2161109Y1461930D02*
Y1465931D01*
X1791160Y1463910D02*
Y1474054D01*
X1794562Y1477456*
Y1489940*
X1791160Y1463910D02*
X1791270Y1463800D01*
X1863218D02*
X1863245Y1463439D01*
X1887052Y1463800D02*
X1887232Y1463591D01*
X2006502Y1463800D02*
X2006504Y1463579D01*
Y1479958*
X2030170Y1463800D02*
X2035724Y1469354D01*
Y1473690*
X2053838Y1463800D02*
X2053839Y1463355D01*
Y1478394*
X2077895Y1463800D02*
X2078327Y1464175D01*
Y1478871*
X2125683Y1463800D02*
X2125791Y1463685D01*
Y1477952*
X2147895Y1463700D02*
X2147984Y1463604D01*
Y1478253*
X2189541Y1459801D02*
Y1482714D01*
X2189543Y1482716*
X1850185Y1484489D02*
Y1490636D01*
X1850372Y1490824*
X1850185Y1484489D02*
X1854580Y1480094D01*
X1881676*
X1882962Y1481379*
X1931688*
X1935109Y1477959*
Y1463800*
X2030305Y1479109D02*
X2035724Y1473690D01*
X2101861Y1478394D02*
Y1463834D01*
X2101952Y1463800*
X2186394Y1482716D02*
X2186395D01*
Y1465358*
X1803635Y1490107D02*
Y1480219D01*
X1815064Y1468791*
Y1463841*
X1815104Y1463800*
X1794562Y1496140D02*
X1794583Y1496160D01*
Y1540602*
X1820343Y1566363*
X1897891*
X1812998Y1496479D02*
Y1504957D01*
X1819122Y1511081*
Y1543669*
X1835910Y1560457*
X1897891*
X1812998Y1496479D02*
X1813087Y1496390D01*
X1822532Y1496250D02*
X1822594Y1496312D01*
Y1543272*
X1837811Y1558488*
X1897891*
X1822532Y1490050D02*
Y1480219D01*
X1829816Y1472935*
X1860859*
X1863245Y1470549*
Y1463439*
X1813087Y1490190D02*
Y1478461D01*
X1820999Y1470549*
X1837626*
X1839133Y1469042*
Y1463439*
X1839161Y1463800*
X1831985Y1496523D02*
X1832098Y1496636D01*
Y1539653*
X1846996Y1554551*
X1897891*
X1831985Y1490323D02*
Y1481852D01*
X1838515Y1475321*
X1880073*
X1887232Y1468163*
Y1463591*
X1841289Y1490349D02*
Y1482480D01*
X1845935Y1477833*
X1907325*
X1910841Y1474317*
Y1463622*
X1910886Y1463800*
X1867766Y1488131D02*
Y1490759D01*
X1867826Y1490819*
X1867766Y1488131D02*
X1870278Y1485619D01*
X1874799*
X1878064Y1488885*
X1979820*
X1982834Y1485871*
Y1463800*
X1859216Y1491055D02*
X1859478Y1490794D01*
Y1486373*
X1862366Y1483484*
X1879345*
X1880701Y1484841*
X1954544*
X1959166Y1480219*
Y1463800*
X1850372Y1497024D02*
X1850418Y1497070D01*
Y1543269*
X1855796Y1548646*
X1897891*
X1797696Y1506963D02*
Y1538322D01*
X1823768Y1564394*
X1897891*
X1797696Y1506963D02*
X1803586Y1501073D01*
Y1496356*
X1803635Y1496307*
X1835065Y1505960D02*
Y1537801D01*
X1849847Y1552583*
X1897891*
X1835065Y1505960D02*
X1841251Y1499775D01*
Y1496587*
X1841289Y1496549*
X1868782Y1516761D02*
Y1535419D01*
X1872188Y1538825*
X1897869*
X1897891Y1538803*
X1868782Y1516761D02*
Y1516737D01*
X1882390Y1503128*
X1897498*
X1905176Y1495450*
X2010823*
X2020965Y1485309*
X2030305*
X1860519Y1514951D02*
Y1537198D01*
X1866014Y1542693*
X1897844*
X1897891Y1542740*
X1860519Y1514951D02*
X1875959Y1499511D01*
X1896028*
X1902828Y1492711*
X1993702*
X2000254Y1486158*
X2006504*
X1857259Y1512643D02*
Y1540178D01*
X1861757Y1544676*
X1897858*
X1897891Y1544709*
X1857259Y1512643D02*
X1867826Y1502076D01*
Y1497019*
X1853560Y1508032D02*
Y1542125D01*
X1858031Y1546596*
X1897809*
X1897891Y1546677*
X1853560Y1508032D02*
X1859095Y1502497D01*
Y1497376*
X1859216Y1497255*
X1864820Y1521591D02*
Y1536581D01*
X1869011Y1540772*
X1897891*
X1886979Y1515386D02*
Y1524012D01*
X1889959Y1526992*
X1897891*
X1886979Y1515386D02*
X1889068Y1513297D01*
X1905235*
X1912866Y1505666*
X2047858*
X2056085Y1497438*
X2096385*
X2109754Y1484069*
X2125707*
X2125791Y1484152*
X1881820Y1517326D02*
Y1528564D01*
X1884162Y1530906*
X1897867*
X1897891Y1530929*
X1881820Y1517326D02*
X1888201Y1510945D01*
X1903309*
X1910905Y1503350*
X2043074*
X2053190Y1493235*
X2078461*
X2086851Y1484845*
X2101610*
X2101861Y1484594*
X1879501Y1514007D02*
Y1530705D01*
X1881702Y1532907*
X1897882*
X1897891Y1532898*
X1879501Y1514007D02*
X1885127Y1508380D01*
X1902349*
X1910238Y1500491*
X2039161*
X2048789Y1490863*
X2056555*
X2062354Y1485065*
X2078321*
X2078327Y1485071*
X1871594Y1518211D02*
Y1533685D01*
X1874849Y1536941*
X1897785*
X1897891Y1536835*
X1871594Y1518211D02*
X1883756Y1506048D01*
X1899722*
X1907773Y1497997*
X2033246*
X2046399Y1484845*
X2053588*
X2053839Y1484594*
X1889940Y1518144D02*
Y1523360D01*
X1891604Y1525024*
X1897891*
X1889940Y1518144D02*
X1892493Y1515591D01*
X1906561*
X1914010Y1508142*
X2049887*
X2056822Y1501207*
X2100622*
X2109320Y1492510*
X2126602*
X2134812Y1484300*
X2147831*
X2147984Y1484453*
X1898986Y1518663D02*
X1903106D01*
X1905616Y1521174*
Y1523304*
X1897891Y1523055D02*
X1898024Y1522923D01*
X1905234*
X1905616Y1523304*
X1906201Y1523890*
X1923719*
X1924553Y1523055*
X1930568*
X1936850Y1520832D02*
X1970988D01*
X1968139Y1515016D02*
X1972644D01*
X1983672Y1526044*
X2025071Y1512358D02*
X2028353D01*
X2030400Y1510311*
X2043268*
X2047733Y1514776*
X2073366Y1519816D02*
X2073975Y1519207D01*
X2102985Y1506281D02*
X2103058Y1506207D01*
X2132781Y1518327D02*
X2125302D01*
X2127948Y1515681*
X2132735*
X2132781Y1515727*
X2127948Y1515681D02*
X2130508Y1513121D01*
X2132695*
X2132781Y1513207*
Y1510607D02*
X2137228D01*
X2140628Y1507207*
X2187997Y1517676D02*
X2188069Y1517748D01*
X2169375Y1517352D02*
X2169698Y1517676D01*
X1827907Y1534643D02*
Y1540979D01*
X1843448Y1556520*
X1897891*
X1845290Y1525921D02*
Y1542534D01*
X1853370Y1550614*
X1897891*
X1885096Y1526497D02*
X1887560Y1528961D01*
X1897891*
X1875683Y1530808D02*
X1879741Y1534866D01*
X1897891*
X1905892Y1530164D02*
X1912281D01*
X1918952Y1536835*
X1930568*
X1904268Y1539373D02*
X1909604Y1544709D01*
X1930568*
X1904099Y1544126D02*
X1906650Y1546677D01*
X1930568*
X1907320Y1536521D02*
X1910864D01*
X1915115Y1540772*
X1930568*
X1910933Y1533012D02*
X1916725Y1538803D01*
X1930568*
X1910837Y1540770D02*
X1912807Y1542740D01*
X1930568*
X1921033Y1527200D02*
X1922794Y1528961D01*
X1930568*
Y1542740D02*
X1930615Y1542693D01*
X1949952*
X1957826Y1550568*
Y1566778*
X1963521Y1572473*
Y1597433*
X1930568Y1538803D02*
X1957739D01*
X1960658Y1541723*
Y1566015*
X1966693Y1572050*
X1969777Y1573615*
Y1589706*
X1981702Y1601631*
Y1606554*
X1930568Y1536835D02*
X1960182D01*
X1962971Y1539625*
Y1563134*
X1971863Y1572025*
Y1588542*
X1985056Y1601735*
Y1608408*
X1930568Y1534866D02*
X1961539D01*
X1964921Y1538248*
Y1558362*
X1977946Y1571387*
Y1586427*
X1980829Y1589310*
X1985009*
X1987578Y1591879*
Y1593541*
X1988799Y1593206*
X1930568Y1532898D02*
X1963730D01*
X1967318Y1536486*
Y1549895*
X1982220Y1564797*
Y1583674*
X1930568Y1530929D02*
X1930590Y1530952D01*
X1968324*
X1971010Y1533638*
Y1549952*
X1985398Y1564340*
Y1577378*
X1930568Y1526992D02*
X1930749Y1526961D01*
X1973084*
X1973891Y1527768*
Y1547037*
X1988665Y1561810*
Y1580251*
X1930568Y1525024D02*
X1930703Y1525159D01*
X1976131*
X1977107Y1526135*
Y1546210*
X1982007Y1551111*
X1992072Y1560862*
Y1584859*
X1982058Y1538207D02*
Y1531157D01*
X1982108*
X1983058Y1530207*
X2032145Y1535191D02*
Y1545210D01*
X2032796Y1545861*
X2135334Y1540539D02*
X2136134Y1541339D01*
X2143043Y1526592D02*
Y1513669D01*
X2146110Y1510602*
X2150336*
X2150341Y1510607*
X2169123Y1527195D02*
X2169675Y1527747D01*
X1817246Y1550258D02*
X1829414Y1562425D01*
X1897891*
X1904278Y1548879D02*
X1904511Y1548646D01*
X1930568*
X1906221Y1558580D02*
X1906991Y1557810D01*
Y1553834*
X1908242Y1552583*
X1930568*
X1904282Y1552754D02*
X1904567Y1552492D01*
X1905253*
X1907130Y1550614*
X1930568*
X1910659Y1554551D02*
X1930568D01*
X1917131Y1563626D02*
X1917443Y1563660D01*
X1920035*
X1921270Y1562425*
X1930568*
Y1558488D02*
X1930609Y1558529D01*
X1938262*
X1940694Y1560961*
X1930568Y1556520D02*
X1940657D01*
X1942807Y1558670*
Y1573133*
X1930568Y1554551D02*
X1930605Y1554588D01*
X1942090*
X1944690Y1557188*
X1930568Y1552583D02*
X1943190D01*
X1946724Y1556116*
Y1572221*
X1951761Y1577259*
X1930568Y1548646D02*
X1944231D01*
X1948908Y1553323*
Y1571948*
X1954447Y1577487*
Y1589247*
X1955628Y1590427*
Y1597414*
X1955647Y1597433*
X1930568Y1546677D02*
X1945503D01*
X1951450Y1552625*
Y1570994*
X1956399Y1575943*
Y1587158*
X1957625Y1588384*
Y1597423*
X1930568Y1544709D02*
X1947706D01*
X1954767Y1551770*
Y1568000*
X1961552Y1574785*
Y1597433*
X2025615Y1553028D02*
Y1564082D01*
X2030144Y1569972*
X2025615Y1553028D02*
X2032783Y1545861D01*
X2032796*
X2039740Y1545836D02*
X2043129D01*
X2047733Y1541232*
Y1514776*
X2032796Y1545861D02*
X2032903Y1545968D01*
X2039103D02*
X2039235Y1545836D01*
X2039740*
X2067051Y1548985D02*
X2069326Y1551260D01*
X2069571*
Y1561392*
X2067051Y1548985D02*
Y1550540D01*
Y1561392*
X2064451D02*
Y1553140D01*
X2067051Y1550540*
X2072171Y1561392D02*
Y1557194D01*
X2074855Y1554509*
X2069571Y1561392D02*
Y1566713D01*
X2072093Y1569235*
X2081703*
X2084489Y1566450*
X2184033Y1553011D02*
Y1563152D01*
X2183582Y1563603*
X2184033Y1563152*
Y1553011*
X1801111Y1581180D02*
Y1574370D01*
X1806292Y1569189*
X1801111Y1581180D02*
X1804058Y1584127D01*
X1813460*
X1818511Y1589179*
Y1598300*
X1820654Y1600442*
X1822343*
X1806292Y1579189D02*
X1813198D01*
X1821534Y1587525*
Y1594047*
X1824255Y1596769*
X1833660*
X1833751Y1596860*
X1836621Y1583287D02*
Y1584971D01*
Y1577087D02*
X1837514Y1577979D01*
X1856141*
X1891377*
X1889110Y1571517D02*
Y1570051D01*
X1890830Y1568331*
X1897891*
X1889110Y1571517D02*
X1890576Y1572983D01*
X1898986*
X1889110Y1570051D02*
Y1571517D01*
X1890576Y1572983*
X1898986*
X1889110Y1570051D02*
X1890830Y1568331D01*
X1897891*
X1897990Y1568232*
X1905430*
X1907015Y1569817*
Y1609687*
X1911493Y1614166*
X1919229*
X1924416Y1572438D02*
Y1584849D01*
X1928109Y1588542*
X1924416Y1572438D02*
X1926607Y1570248D01*
X1939145*
X1940694Y1568699*
Y1560961*
X1909785Y1578114D02*
Y1605966D01*
X1912079Y1608260*
X1919229*
X1909785Y1578114D02*
X1915061Y1574294D01*
X1913488Y1565392D02*
Y1563003D01*
X1916034Y1560457*
X1930568*
X1913488Y1565392D02*
X1915061Y1566964D01*
Y1574294*
X1911229Y1572255D02*
Y1561095D01*
X1913111Y1558488*
X1930568*
X1918321Y1579118D02*
X1918337Y1568846D01*
X1922789Y1564394*
X1930568*
X1918321Y1579118D02*
X1918337Y1601517D01*
X1919872Y1603051*
X1923766*
X1925157Y1604442*
Y1608901*
X1927500Y1575975D02*
X1933462D01*
X1941306Y1582558D02*
X1945804Y1587057D01*
Y1597433*
X1939662Y1575975D02*
X1942189Y1573448D01*
X1942807Y1573133*
X1930568Y1568331D02*
X1935593D01*
X1937571Y1566353*
X2040144Y1569972D02*
X2046779Y1576606D01*
Y1603046*
X2064451Y1578952D02*
Y1587651D01*
X2067504Y1590704*
X2067051Y1578952D02*
Y1590251D01*
X2067504Y1590704*
X2084489Y1572650D02*
X2084637Y1572798D01*
X2072171Y1578952D02*
Y1582597D01*
X2073468Y1583894*
X2081910*
X2084637Y1581167*
Y1572798*
X2209872Y1578459D02*
X2215275D01*
X2223679Y1586864*
X1806292Y1599189D02*
X1811706D01*
X1814365Y1601848*
Y1631689*
X1819587Y1636911*
X1827902*
X1828156Y1637164*
Y1621468*
X1831522Y1618103*
X1919229*
X1806292Y1589189D02*
X1811706D01*
X1816424Y1593907*
Y1616081*
X1819224Y1618881*
X1822631*
X1822641Y1618871*
X1836621Y1584971D02*
Y1583287D01*
X1833751Y1596860D02*
X1842395D01*
X1844717Y1594537*
X1855529Y1595696D02*
X1891574D01*
X1900706Y1595694*
X1903391Y1598305*
X1911843Y1601579D02*
Y1605019D01*
X1913116Y1606292*
X1919229*
X1911843Y1601579D02*
X1914805Y1598617D01*
Y1598305*
X1921317Y1585616D02*
X1921342Y1568928D01*
X1923908Y1566363*
X1930568*
X1921317Y1585616D02*
X1922017Y1586012D01*
Y1598550*
X1926902Y1603435*
X1928088Y1597433D02*
X1928109Y1597413D01*
Y1588542*
X1932009Y1597449D02*
Y1604509D01*
X1932509Y1605440*
X1933470Y1606401*
X1932009Y1597449D02*
X1932025Y1597433D01*
X1941560Y1588462D02*
X1943836Y1590738D01*
Y1597433*
X1931058Y1591629D02*
Y1584551D01*
X1931831Y1583806*
X1939662Y1575975*
X1937928Y1591306D02*
X1937930Y1591308D01*
Y1597433*
X1947773D02*
X1947814Y1597392D01*
Y1589170*
X1948686Y1588298*
X1941867Y1597433D02*
Y1603622D01*
X1945354Y1605967*
Y1609123*
X1939899Y1597433D02*
Y1607921D01*
X1943440Y1611462*
Y1621977*
X1950481Y1629017*
Y1632934*
X1937930Y1597433D02*
Y1612015D01*
X1938499Y1612584*
X1933993Y1597433D02*
Y1584089D01*
X1938349Y1579732*
X1943656*
X1944690Y1578699*
Y1557188*
X1965489Y1597433D02*
Y1589396D01*
X1966333Y1588553*
X1957615Y1597433D02*
X1957625Y1597423D01*
X1951710Y1597433D02*
X1951761Y1597382D01*
Y1577259*
X1974890Y1585277D02*
Y1588355D01*
X1987521Y1600985*
X1995098*
X2001008Y1595076*
X2032791*
X2035097Y1592769*
X2035097D02*
Y1567257D01*
X2035097D02*
X2037043Y1565312D01*
X2045979*
X2049798Y1569131*
Y1605165*
X2054628Y1609994*
X2078588*
X2067504Y1590704D02*
X2069571Y1588637D01*
Y1578952*
X2132885Y1596505D02*
X2136584Y1592807D01*
X2157848*
X2163147Y1587508*
Y1581809*
X2150266Y1600193D02*
X2162764D01*
X2168147Y1594810*
Y1581809*
X2172712Y1597918D02*
Y1582243D01*
X2173147Y1581809*
X2209872Y1598459D02*
X2215168D01*
X2218942Y1602233*
X2209872Y1588459D02*
X2215221D01*
X2220906Y1594144*
X1806292Y1619189D02*
Y1609189D01*
X1826152Y1605136D02*
X1826220Y1605204D01*
Y1606114*
X1828088Y1607982*
X1844709*
X1822641Y1618871D02*
X1825378Y1616222D01*
X1826211Y1615389*
X1891895*
X1892640Y1616134*
X1919229*
X1854623Y1606763D02*
X1854790Y1606596D01*
Y1605053*
X1854011Y1624479D02*
X1890056D01*
X1890555Y1624978*
X1904815*
X1927094Y1616702D02*
X1933836D01*
X1935664Y1614781*
Y1606551*
X1935962Y1606253*
Y1597433*
X1919229Y1610229D02*
X1919245Y1610244D01*
X1923814*
X1925157Y1608901*
X1919229Y1612197D02*
X1925032D01*
X1926902Y1610327*
Y1603435*
X1929787Y1609340D02*
X1930056Y1609071D01*
Y1597433*
X1932509Y1612895D02*
X1933470Y1611934D01*
Y1606401*
X1948259Y1613276D02*
Y1606810D01*
X1949741Y1605328*
Y1597433*
X1954026Y1617868D02*
Y1631449D01*
X1955040Y1632463*
X1954026Y1617868D02*
X1961678Y1610216D01*
Y1607496*
X1962883Y1606292*
X1974348*
X1967589Y1624644D02*
Y1623759D01*
X1969308Y1622040*
X1974348*
X1961126Y1622086D02*
X1963141Y1620071D01*
X1974348*
X1958272Y1618103D02*
X1974348D01*
X1964431Y1614066D02*
X1966499Y1616134D01*
X1974348*
X1953678Y1605877D02*
Y1597433D01*
X1950697Y1622119D02*
Y1616284D01*
X1952609Y1614372*
X1959578Y1609068*
X1959584Y1597433*
X1974348Y1624008D02*
X1979500D01*
X1984198Y1619310*
Y1619159*
X1974348Y1614166D02*
X1996079D01*
X2000038Y1618125*
X1974348Y1612197D02*
X1995966D01*
X2000038Y1608125*
X1974348Y1610229D02*
X1974386Y1610191D01*
X1983274*
X1985056Y1608408*
X1974348Y1608260D02*
X1979996D01*
X1981702Y1606554*
X2000038Y1618125D02*
X2006503Y1624589D01*
X2012835*
X2012847Y1624601*
X2000038Y1608125D02*
X2006498Y1601665D01*
X2012721*
X2012772Y1601716*
X2023196Y1604943D02*
X2044881D01*
X2046779Y1603046*
X2019252Y1614914D02*
X2073507D01*
X2078588Y1619994*
X2150266Y1610193D02*
X2153796Y1613722D01*
Y1621485*
X2159505Y1627194*
X2172712Y1607918D02*
X2175528Y1612355D01*
Y1625402*
X1827537Y1637950D02*
X1828156Y1637164D01*
Y1621468*
X1831522Y1618103*
X1919229*
X1836361Y1629379D02*
X1837529Y1628764D01*
X1841814Y1624479*
X1854011*
X1935841Y1642543D02*
X1937930Y1644632D01*
Y1652551*
X1937586Y1638962D02*
X1939899Y1641275D01*
Y1652551*
X1950481Y1640902D02*
Y1644887D01*
X1951699Y1646104*
Y1652540*
X1951710Y1652551*
X1963421Y1625555D02*
X1967780Y1629914D01*
X1974348*
X1959790Y1628542D02*
X1962968D01*
X1966253Y1631827*
X1974348Y1631882*
Y1641725D02*
X1981162D01*
X1982631Y1643194*
Y1652994*
X1982684Y1653047*
X1974348Y1639756D02*
X1994313D01*
X1997017Y1642461*
X1974348Y1637788D02*
X2003899D01*
X2012206Y1629481*
X2020113*
X1974348Y1633851D02*
X1982484D01*
X1974348Y1627945D02*
X1974397Y1627994D01*
X1986501*
X1990902Y1623594*
X1974348Y1625977D02*
X1981373D01*
X1987644Y1619706*
X1991417*
X2020961Y1624754D02*
X2055387D01*
X2059854Y1620287*
X2025874Y1643060D02*
X2038934D01*
X2025874Y1639860D02*
X2046433D01*
X2048112Y1641539*
Y1648237*
X2025874Y1639860D02*
X2045452D01*
X2019774Y1637660D02*
X2019880Y1637554D01*
Y1635869*
X2021369Y1634380*
X2055761*
X2059854Y1630287*
X2013674Y1643060D02*
X2018275D01*
X2019273Y1644057*
Y1647057*
X2013674Y1643060D02*
X2018275D01*
X2019273Y1644057*
Y1647057*
X2020070Y1646260*
X2025874*
X2053098Y1629972D02*
X2057332Y1625738D01*
X2063431*
X2110373Y1639539D02*
X2121695Y1628216D01*
X2128724*
X2128770Y1628170*
X2137487Y1628144D02*
Y1637358D01*
X2147811Y1627730D02*
X2157061Y1636980D01*
Y1661498*
X2130058Y1639539D02*
X2135306D01*
X2137487Y1637358*
X2159505Y1627194D02*
X2159561Y1627250D01*
Y1661498*
X2169791Y1627210D02*
X2173720D01*
X2175528Y1625402*
X1833476Y1650556D02*
X1843950Y1640082D01*
Y1627724*
X1843950D02*
X1847194Y1624479D01*
X1854011*
X1875602Y1654608D02*
X1875607Y1654613D01*
X1945804Y1662981D02*
Y1659820D01*
Y1652551*
Y1659820D02*
X1946962D01*
X1947719Y1659063*
Y1652551*
X1947773*
X1945804Y1662981D02*
Y1659820D01*
X1941867Y1652551D02*
Y1635605D01*
X1943836Y1652551D02*
Y1658621D01*
X1945034Y1659820*
X1945804*
Y1652551*
Y1659820D02*
Y1652551D01*
Y1659820*
X1946962*
X1947719Y1659063*
Y1652551*
X1947773*
X1967777Y1656970D02*
Y1645150D01*
X1969234Y1643693*
X1974348*
X1967777Y1656970D02*
X1969525Y1658719D01*
X2004641*
X2016673Y1670751*
X2019774*
Y1658060*
X1955647Y1652551D02*
Y1668292D01*
X1963170Y1675815*
X1990536*
X1993275Y1678554*
Y1734831*
X2001992Y1743548*
X2199532*
X2210523Y1732557*
Y1724721*
X1957615Y1652551D02*
Y1666527D01*
X1963574Y1672485*
X1993295*
X1995943Y1675134*
Y1732624*
X2003888Y1740569*
X2181656*
X2190523Y1731701*
Y1724721*
X1959584Y1652551D02*
Y1665165D01*
X1963921Y1669502*
X1994705*
X1998493Y1673291*
Y1730996*
X2005411Y1737914*
X2176914*
X2180523Y1734304*
Y1724721*
X1961552Y1652551D02*
Y1663183D01*
X1964848Y1666479*
X1996773*
X2001201Y1670907*
Y1729608*
X2006557Y1734963*
X2165483*
X2170523Y1729923*
Y1724721*
X1963521Y1652551D02*
Y1661301D01*
X1966116Y1663896*
X2000454*
X2005039Y1668481*
Y1690269*
X1965489Y1652551D02*
Y1658656D01*
X1967727Y1660894*
X2003500*
X2010010Y1667404*
Y1690298*
X1982684Y1653047D02*
X1986165Y1656854D01*
X1993479*
X1994796Y1655537*
X1998813*
X2004829Y1654543D02*
Y1646740D01*
X2008509Y1643060*
X2013674*
X2004829Y1654543D02*
X2016321Y1666035D01*
X2016479*
X2001981Y1646409D02*
X2008530Y1639860D01*
X2013674*
X2001981Y1646409D02*
X2008530Y1639860D01*
Y1637195*
X2011645Y1634080*
X2008076Y1652726D02*
X2011210Y1655860D01*
X2013674*
X2019273Y1647057D02*
X2020070Y1646260D01*
X2025874*
X2019273Y1647057D02*
X2020070Y1646260D01*
X2025874*
X2019774Y1658060D02*
Y1670751D01*
X2021915Y1672893*
Y1679237*
X2022154Y1679475*
X2019774Y1658060D02*
Y1670751D01*
X2021915Y1672893*
X2057793*
X2062223Y1677322*
X2025874Y1655860D02*
X2064344D01*
X2067206Y1658723*
X2025874Y1655860D02*
X2038925D01*
X2025874Y1652660D02*
X2066491D01*
X2069425Y1655594*
X2025874Y1652660D02*
X2043837D01*
X2013674Y1646260D02*
X2013748Y1646186D01*
X2018401*
X2019679Y1647463*
X2013674Y1646260D02*
X2013748Y1646186D01*
X2018401*
X2019273Y1647057*
X2013674Y1652660D02*
X2018128D01*
X2019679Y1651109*
Y1647463*
X2044205Y1646174D02*
Y1641107D01*
X2045452Y1639860*
X2035874Y1659258D02*
Y1658911D01*
X2038925Y1655860*
X2040433Y1649110D02*
Y1649256D01*
X2040433D02*
X2043837Y1652660D01*
X2107061Y1661498D02*
X2107072Y1661486D01*
Y1656496*
X2124528Y1648855D02*
Y1661498D01*
X2124561*
X2127061D02*
Y1653530D01*
X2128874Y1651716*
X2122061Y1661498D02*
Y1666110D01*
X2123342Y1667391*
Y1668473*
X2119561Y1661498D02*
Y1673113D01*
X2114561Y1661498D02*
Y1667743D01*
X2147061Y1661498D02*
Y1655039D01*
X2147505Y1654595*
X2144561Y1661498D02*
Y1647349D01*
X2152456Y1639454*
X2142061Y1661498D02*
Y1640476D01*
X2145532Y1637004*
X2139561Y1661498D02*
Y1673569D01*
X2129561Y1661498D02*
Y1671716D01*
X2152583Y1654552D02*
X2154561Y1656530D01*
Y1661498*
X2167061D02*
Y1647873D01*
X2171466Y1643468*
X2176987*
X2178952Y1641503*
Y1602892*
X2191028Y1590816*
Y1548637*
X2201205Y1538459*
X2201205D02*
X2209872D01*
X2164561Y1661498D02*
Y1672676D01*
X2162061Y1661498D02*
Y1637304D01*
X2169791Y1629574*
Y1627210*
X2152061Y1661498D02*
Y1667243D01*
X2152675Y1667857*
X2149561Y1661498D02*
Y1670679D01*
X2174561Y1661498D02*
Y1654365D01*
X2176311Y1652616*
X2182831*
X2186540Y1648906*
Y1613536*
X2201236Y1598841*
Y1574141*
X2206800Y1568577*
X2209755*
X2209872Y1568459*
X2172061Y1661498D02*
Y1652858D01*
X2175307Y1649612*
X2181462*
X2183780Y1647294*
Y1610891*
X2197990Y1596682*
Y1564635*
X2204165Y1558459*
X2209872*
X2169561Y1661498D02*
Y1650308D01*
X2173618Y1646250*
X2178679*
X2181462Y1643468*
Y1607761*
X2194744Y1594479*
Y1555361*
X2201645Y1548459*
X2209872*
X1927031Y1668111D02*
Y1710650D01*
X1931518Y1715137*
X1969118*
X1972215Y1713795*
X1927031Y1668111D02*
X1930056Y1665086D01*
Y1652551*
X1929582Y1670083D02*
Y1694791D01*
X1938366Y1703575*
X1962670*
X1929582Y1670083D02*
X1932025Y1667641D01*
Y1652551*
X1945388Y1671021D02*
Y1675866D01*
X1945441Y1675919*
X1945388Y1671021D02*
X1951710Y1664700D01*
Y1652551*
X1951641Y1675919D02*
X1953643Y1673917D01*
X1953678*
Y1652551*
X2034916Y1678560D02*
Y1690392D01*
X2052223Y1677322D02*
X2057280Y1682379D01*
X2064344*
X2067206Y1679517*
Y1658723*
X2085924Y1678596D02*
X2098284D01*
X2098927Y1677953*
X2110941Y1689967*
X2116853*
X2119532Y1692646*
Y1699469*
X2119561Y1699498*
X2135201Y1672146D02*
X2137061Y1670287D01*
Y1661498*
X2162031Y1683661D02*
X2162458Y1684314D01*
X2149561Y1670679D02*
X2162279D01*
X2164561Y1672961*
X1932058Y1694028D02*
Y1671514D01*
X1933993Y1669579*
Y1652551*
X1932058Y1694028D02*
X1936416Y1698386D01*
X1967985*
X1968032Y1698339*
X1946748Y1691468D02*
Y1696084D01*
X1949050Y1698386*
X1967985*
X1968032Y1698339*
X1962670Y1703575D02*
X1967914D01*
X1968032Y1703457*
X1964254Y1685083D02*
X1964297Y1685127D01*
X1974626*
Y1694303*
X1983370Y1685127D02*
X1983485Y1685242D01*
X1984869*
X1977170Y1685127D02*
X1977185Y1685142D01*
Y1694303*
X1974626D02*
Y1685127D01*
X1977170*
X1983780Y1703457D02*
X1988078D01*
X1989537Y1704916*
Y1705307*
X1983780Y1700898D02*
X1987345D01*
X1988608*
X1989243Y1701532*
X1989537Y1701827*
Y1705307*
X2004916Y1690392D02*
X2005039Y1690269D01*
X2014916Y1702624D02*
Y1714802D01*
X2009916Y1690392D02*
X2010010Y1690298D01*
X2062223Y1687322D02*
X2066773D01*
X2069425Y1684670*
Y1655594*
X2082282Y1702682D02*
X2086274Y1698690D01*
X2091956*
Y1698655*
X2082282Y1702682D02*
X2086274Y1698690D01*
X2093490*
X2093526Y1698655*
X2082066Y1691571D02*
Y1688296D01*
X2085676Y1684687*
X2093909*
X2098156Y1688934*
X2091956Y1698655D02*
Y1688934D01*
X2114561Y1699498D02*
Y1716450D01*
X2116909Y1718799*
Y1724735*
X2122061Y1699498D02*
Y1691370D01*
X2124951Y1688479*
X2145524Y1689311D02*
X2149561Y1693348D01*
Y1699498*
X2129561D02*
X2129715Y1699652D01*
Y1718263*
X2134226Y1722774*
X2138577*
X2140523Y1724721*
X2132061Y1699498D02*
Y1717043D01*
X2134890Y1719872*
X2145675*
X2150523Y1724721*
X2134561Y1699498D02*
Y1715592D01*
X2136118Y1717149*
X2152952*
X2160523Y1724721*
X2137061Y1699498D02*
Y1713359D01*
X2138735Y1715034*
X2160836*
X2170523Y1724721*
X2139561Y1699498D02*
Y1711016D01*
X2141699Y1713153*
X2173284*
X2180523Y1720393*
Y1724721*
X2142061Y1699498D02*
Y1708672D01*
X2144489Y1711100*
X2183217*
X2190523Y1718406*
Y1724721*
X2144561Y1699498D02*
Y1707444D01*
X2146324Y1709207*
X2194936*
X2200523Y1714795*
Y1724721*
X2147061Y1699498D02*
Y1706217D01*
X2148052Y1707207*
X2206766*
X2210523Y1710964*
Y1724721*
X2156007Y1686693D02*
Y1691206D01*
X2157061Y1692260*
Y1699498*
X2152365Y1690170D02*
X2154561Y1692365D01*
Y1699498*
X2159561Y1690230D02*
Y1699498D01*
X2152061D02*
Y1704213D01*
X2153055Y1705207*
X2201007*
X2204147Y1702067*
Y1697911*
X2210762Y1691296*
Y1691202*
X2159561Y1699498D02*
Y1690230D01*
X2162061Y1699498D02*
Y1693921D01*
X2162458Y1693524*
Y1684314*
X2164561Y1699498D02*
Y1692841D01*
X2165333Y1692395*
Y1689647*
X2167061Y1699498D02*
X2167111Y1699448D01*
Y1692280*
X2177656Y1681734*
X2192321*
X2194326Y1679729*
Y1619335*
X2205202Y1608459*
X2209872*
X2169561Y1699498D02*
Y1693035D01*
X2177279Y1685316*
X2194263*
X2197152Y1682428*
Y1622917*
X2201312Y1618757*
X2216053*
X2218942Y1615868*
Y1602233*
X2172061Y1699498D02*
Y1693707D01*
X2176985Y1688783*
X2197245*
X2199903Y1686125*
Y1625575*
X2204294Y1621184*
X2218017*
X2220906Y1618295*
Y1594144*
X2174561Y1699498D02*
Y1694214D01*
X2176418Y1692357*
X2200317*
X2202744Y1689931*
Y1626615*
X2204477Y1624881*
X2218017*
X2223679Y1619219*
Y1586864*
X1956032Y1710020D02*
X1956225D01*
X1962670Y1703575*
X1972215Y1713795D02*
Y1723052D01*
X1972322Y1725157*
X1977203Y1715169D02*
X1977188D01*
X1977203Y1713511*
X1977188Y1715169D02*
X1977203Y1713511D01*
Y1715169*
Y1718962D02*
Y1715169D01*
X1978586*
X1979744Y1714011*
Y1710051*
X1977203Y1715169D02*
X1978586D01*
X1979744Y1714011*
Y1710051*
X1977203Y1718962D02*
Y1715169D01*
Y1713511*
X1972067Y1710051D02*
X1972215Y1710200D01*
Y1713795*
X1974626Y1710051D02*
Y1713890D01*
X1976264Y1715528*
X1977185*
X1977188Y1715169*
X1974626Y1710051D02*
Y1713890D01*
X1976264Y1715528*
X1977185*
X1977188Y1715169*
X1977203*
X1977185Y1710051D02*
X1977203Y1713511D01*
Y1715169*
X1978586*
X1979744Y1714011*
Y1710051*
X1977185D02*
X1977203Y1713511D01*
X1979744Y1710051D02*
Y1714011D01*
X1980934Y1715201*
X1986100*
X1989537Y1711764*
Y1705307*
X2004916Y1714802D02*
Y1726783D01*
X2024916Y1714802D02*
Y1720269D01*
X2027941Y1723294*
Y1727028*
X2029689*
X2029892Y1726825*
X2029916Y1714802D02*
Y1709213D01*
X2031535Y1707593*
X2041182*
X2045458Y1711870*
X2034916Y1714802D02*
Y1720223D01*
X2036594Y1721902*
X2036740*
X2039916Y1714802D02*
Y1724657D01*
X2041607Y1726349*
X2045175*
Y1726720*
X2117058Y1715206D02*
Y1699500D01*
X2117061Y1699498*
X2117058Y1715206D02*
X2126587Y1724735D01*
X2126909*
X2121364Y1706209D02*
X2123963D01*
X2124520Y1705652*
Y1699538*
X2124561Y1699498*
X2125956Y1717060D02*
X2127061Y1715955D01*
Y1699498*
X1924655Y1732635D02*
Y1651408D01*
X1925901Y1650162*
Y1636233*
X1929828Y1632712*
X1943182*
X1946289Y1635819*
X1974348*
X1924655Y1732635D02*
X1938936Y1746916D01*
X2205643*
X1980347Y1737780D02*
X1980421Y1737854D01*
X1984719*
X1988444Y1734130*
Y1721902*
X2008064Y1730938D02*
X2009916Y1729087D01*
Y1714802*
X2016392Y1726825D02*
X2019916Y1723301D01*
Y1714802*
X2056909Y1724735D02*
Y1718952D01*
X2059134Y1716727*
X2070051*
X2071553Y1715225*
Y1653372*
X2075836Y1649089*
X2109432*
X2112047Y1651704*
Y1661483*
X2112061Y1661498*
X2066909Y1724735D02*
X2074416Y1717228D01*
Y1654763*
X2078143Y1651036*
X2107040*
X2109544Y1653539*
Y1661480*
X2109561Y1661498*
X2076909Y1724735D02*
Y1655615D01*
X2079250Y1653275*
X2103851*
X2107072Y1656496*
X2086909Y1724735D02*
Y1708449D01*
X2089476Y1705882*
X2105314*
X2106988Y1704208*
Y1699570*
X2107061Y1699498*
X2096909Y1724735D02*
Y1711909D01*
X2100034Y1708784*
X2108104*
X2109555Y1707333*
Y1699503*
X2109561Y1699498*
X2106909Y1724735D02*
Y1714029D01*
X2112011Y1708928*
Y1699548*
X2112061Y1699498*
X1754582Y1754830D02*
X2245418D01*
Y1445170*
X1754582*
Y1754830*
G54D31*
X1802770Y1463800D02*
Y1459948D01*
X1806252Y1456466*
X1821457*
X1826443Y1461452*
Y1463639*
X1826604Y1463800*
X1833965Y1456439*
X1847691*
X1851032Y1459781*
Y1463040*
X1857633Y1456439*
X1871083*
X1874592Y1459948*
Y1463286*
X1874718Y1463800*
X1850661D02*
X1857633Y1456439D01*
X1871083*
X1874592Y1459948*
Y1463286*
X1874718Y1463800D02*
X1882358Y1455771D01*
X1895311*
X1898653Y1459113*
Y1463310*
X1906359Y1455604*
X1918036*
X1922213Y1459781*
Y1463404*
X1922386Y1463800*
X1898552Y1472549D02*
Y1463800D01*
X1906359Y1455604*
X1918036*
X1922213Y1459781*
Y1463404*
X1922386Y1463800D02*
X1929899Y1456064D01*
X1943768*
X1946608Y1458905*
Y1463577*
X1946609Y1463800*
X1953626Y1456560*
X1967996*
X1970502Y1459066*
Y1463414*
X1970666Y1463800*
X1978138Y1456105*
X1990720*
X1994563Y1459948*
Y1463348*
X2002082Y1455829*
X2015617*
X2017956Y1458168*
Y1463531*
X2018002Y1463800*
X2002082Y1455829D02*
X1994334Y1463800D01*
X2002082Y1455829*
X2015617*
X2017956Y1458168*
Y1463531*
X2018002Y1463800D02*
X2025474Y1456105D01*
X2039678*
X2041683Y1458110*
Y1463565*
X2049369Y1455878*
X2062736*
X2065577Y1458719*
Y1463116*
X2072595Y1456098*
X2086129*
X2089471Y1459440*
Y1463668*
X2096866Y1456272*
X2110524*
X2113532Y1459280*
Y1463663*
X2120923Y1456272*
X2134418*
X2137259Y1459113*
Y1463502*
X2144321Y1456439*
X2156976*
X2159315Y1458779*
Y1463435*
X2159393Y1463901*
X2041670Y1463800D02*
X2049369Y1455878D01*
X2062736*
X2065577Y1458719*
Y1463116*
X2072595Y1456098*
X2086129*
X2089471Y1459440*
Y1463668*
X2096866Y1456272*
X2110524*
X2113532Y1459280*
Y1463663*
X2120923Y1456272*
X2134418*
X2137259Y1459113*
Y1463502*
X2144321Y1456439*
X2156976*
X2159315Y1458779*
Y1463435*
X2065338Y1463800D02*
X2072595Y1456098D01*
X2086129*
X2089471Y1459440*
Y1463668*
X2096866Y1456272*
X2110524*
X2113532Y1459280*
Y1463663*
X2120923Y1456272*
X2134418*
X2137259Y1459113*
Y1463502*
X2144321Y1456439*
X2156976*
X2159315Y1458779*
Y1463435*
X2089395Y1463800D02*
X2096866Y1456272D01*
X2110524*
X2113532Y1459280*
Y1463663*
X2120923Y1456272*
X2134418*
X2137259Y1459113*
Y1463502*
X2144321Y1456439*
X2156976*
X2159315Y1458779*
Y1463435*
X2113452Y1463800D02*
X2120923Y1456272D01*
X2134418*
X2137259Y1459113*
Y1463502*
X2144321Y1456439*
X2156976*
X2159315Y1458779*
Y1463435*
X2137183Y1463800D02*
X2144321Y1456439D01*
X2156976*
X2159315Y1458779*
Y1463435*
X2170055Y1460767D02*
X2177257Y1453565D01*
X2205424*
X2209032Y1457173*
Y1460767*
X2170055D02*
Y1482224D01*
X2209032Y1460767D02*
Y1462687D01*
Y1482224*
Y1462687D02*
Y1460767D01*
X1783955Y1470958D02*
Y1460330D01*
X1789517Y1454767*
X1799966*
X1802770Y1457571*
Y1459948*
X1806252Y1456466*
X1821457*
X1826443Y1461452*
Y1463639*
X1826604Y1463800*
X1783955Y1470958D02*
X1786939Y1473943D01*
Y1663456*
X1790015Y1666531*
X1851158*
X1860474Y1675847*
X1884805*
X1887180Y1673472*
Y1668868*
X1783955Y1470958D02*
X1786939Y1473943D01*
Y1663456*
X1790015Y1666531*
X1851158*
Y1651356*
X1799987Y1477213D02*
X1802770Y1474429D01*
Y1463800*
X1993170Y1471780D02*
Y1464347D01*
X1994334Y1463800*
X2024378Y1478320D02*
Y1474633D01*
X2026993Y1472018*
X2030942*
X2183244Y1482716D02*
X2183250Y1482721D01*
Y1491402*
X2209032Y1462687D02*
Y1482224D01*
Y1480909*
X2215873Y1487750*
Y1523800*
X2195843Y1482716D02*
Y1490496D01*
X2198095Y1492748*
X2205046*
X2209032Y1488763*
Y1482224*
X2187997Y1504176D02*
X2188007Y1504166D01*
X2205288*
X2208337Y1501117*
X2169375Y1503852D02*
X2169698Y1504176D01*
X2187997*
X2169375Y1503852D02*
X2169476Y1503369D01*
X2059866Y1519816D02*
X2060251Y1520201D01*
Y1535364*
X2059866Y1519816D02*
X2069537Y1511939D01*
X2116677*
X2136693Y1491923*
X2156294*
X2159379Y1488837*
X2159393Y1463901*
X2073366Y1519816D02*
X2073751Y1520201D01*
Y1533698*
Y1535364*
X2073975Y1519207D02*
X2103058D01*
X2125302Y1518327D02*
Y1523231D01*
X2128664Y1526592*
X2136843*
X2140628Y1507207D02*
X2158058D01*
X2159539Y1513226D02*
X2169476Y1503369D01*
X2157636Y1515118D02*
X2158071Y1514683D01*
X2158877Y1513884*
X2159539Y1513226*
X2150341Y1518327D02*
X2154427D01*
X2157636Y1515118*
X2150341Y1515727D02*
X2150462Y1515848D01*
X2156906*
X2157636Y1515118*
X2150341Y1513207D02*
X2159520D01*
X2159539Y1513226*
X2188069Y1517748D02*
X2204967D01*
X2208337Y1521117*
X2169698Y1517676D02*
X2187997D01*
X1983672Y1526044D02*
X1991314D01*
X1997523Y1532253*
X1983672Y1526044D02*
X1991314D01*
X1997523Y1532253*
Y1584482*
X2023884Y1526423D02*
Y1512786D01*
X2025071Y1512358*
X2023884Y1526423D02*
X2024507Y1527047D01*
Y1545710*
X2038058Y1528207D02*
Y1534904D01*
X2038345Y1535191*
X2060251Y1535364D02*
X2060391Y1535224D01*
X2063601*
X2066969Y1538592*
Y1548903*
X2051058Y1528207D02*
Y1512079D01*
X2056856Y1506281*
X2102985*
X2073751Y1535364D02*
X2094606D01*
X2099153Y1539912*
Y1561729*
X2112776Y1535509D02*
Y1522903D01*
X2134587Y1501092*
X2157128*
X2163672Y1494548*
X2180104*
X2183250Y1491402*
X2136134Y1541339D02*
X2136843Y1540630D01*
Y1526592*
X2149634Y1541339D02*
X2163779Y1527195D01*
X2169123*
X2176684*
X2180392Y1530903*
X2208770*
X2215873Y1523800*
X2169123Y1527195D02*
X2184033Y1542104D01*
Y1563152*
X2169675Y1527747D02*
X2169375Y1527446D01*
Y1517352*
X2038106Y1548516D02*
Y1557934D01*
X2040144Y1559972*
X2038106Y1548516D02*
X2039740Y1546883D01*
Y1545836*
X2042376Y1553178D02*
X2051058Y1544496D01*
Y1528207*
X2040144Y1559972D02*
X2054389D01*
X2059390Y1564972*
Y1588442*
X2063190Y1592242*
X2067465*
Y1590743*
X2067504Y1590704*
X2053674Y1552605D02*
Y1549583D01*
X2055353Y1547904*
X2066969*
Y1548903*
X2067051Y1548985*
X2074855Y1554509D02*
X2088780D01*
X2095174Y1560904*
X2107097Y1549830D02*
Y1543024D01*
X2109582Y1540539*
X2135334*
X2107097Y1549830D02*
X2112776Y1555509D01*
Y1545509D02*
X2122219D01*
X2126582Y1549871*
Y1562770*
X2135818Y1559110D02*
Y1541655D01*
X2136134Y1541339*
X2149318Y1559110D02*
Y1541655D01*
X2149634Y1541339*
X2165189Y1548123D02*
X2179145D01*
X2161317*
X2165189*
X2168147Y1557399D02*
X2168231Y1557315D01*
Y1550520*
X2170628Y1548123*
X2168147Y1557399D02*
X2168231Y1557315D01*
Y1550520*
X2170628Y1548123*
X2175882*
X2163147Y1557399D02*
X2163253Y1557293D01*
Y1550059*
X2165189Y1548123*
X2163147Y1557399D02*
X2163253Y1557293D01*
Y1550059*
X2165189Y1548123*
X2179145*
X2184033Y1553011*
X2163147Y1557399D02*
X2163253Y1557293D01*
Y1550059*
X2165189Y1548123*
X2170628*
X2158147Y1557399D02*
X2158183Y1557363D01*
Y1551257*
X2161317Y1548123*
X2179145*
X2184033Y1553011*
X2158147Y1557399D02*
X2158183Y1557363D01*
Y1551257*
X2161317Y1548123*
X2179145D02*
X2184033Y1553011D01*
X2173147Y1557399D02*
X2173209Y1557338D01*
Y1550797*
X2175882Y1548123*
X1796292Y1569189D02*
X1806292D01*
X1825493Y1583287D02*
X1836621D01*
X2002166Y1589083D02*
Y1568852D01*
X2002206Y1551770*
X2022615Y1577979D02*
X2022670Y1557037D01*
Y1547547*
X2024507Y1545710*
X2053674Y1577009D02*
Y1601447D01*
X2056603Y1604375*
X2108614*
X2093875Y1581443D02*
X2094599Y1580611D01*
X2107375Y1581443D02*
X2107909D01*
X2126582Y1562770*
X2094599Y1580611D02*
X2095058Y1580083D01*
Y1565207*
X2095674*
X2099153Y1561729*
X2095058Y1565207D02*
X2095174Y1565091D01*
Y1560904*
X2158145Y1573487D02*
X2161946Y1569686D01*
X2183466*
X2183582Y1569803*
Y1577973*
X2158145Y1573487D02*
Y1581807D01*
X2158147Y1581809*
X2183582Y1577973D02*
Y1569803D01*
X2183582*
X1822343Y1600442D02*
X1831186D01*
Y1600495*
X1833751Y1603060*
X1836621Y1584971D02*
X1895295D01*
X1902058Y1578207*
X1833751Y1603060D02*
X1840874D01*
X1844709Y1601782*
X1988799Y1593206D02*
X1997523Y1584482D01*
Y1532253*
X1988799Y1593206D02*
X1997523Y1584482D01*
X1994999Y1593206D02*
X1998786Y1589419D01*
X2002502*
X2014988Y1590751D02*
X2019469D01*
X2022615Y1587605*
Y1577979*
X2067465Y1590743D02*
Y1593634D01*
X2074059Y1600228*
X2100372*
X2107367Y1593233*
Y1581452*
X2107375Y1581443*
X2081004Y1590704D02*
X2081159Y1590548D01*
X2089822*
X2094599Y1585771*
Y1580611*
X2108614Y1604375D02*
X2114304D01*
X2115890Y1605961*
Y1613409*
X2132885Y1586505D02*
Y1577654D01*
X2140555Y1569984*
X2154643*
X2158145Y1573487*
X1820166Y1610196D02*
Y1602619D01*
X1822343Y1600442*
X1820166Y1610196D02*
X1822641Y1612671D01*
X1836361Y1623179D02*
X1838373Y1621167D01*
X1843607*
X1854790Y1605053D02*
X1858577Y1601267D01*
X1864741*
X1854623Y1606763D02*
X1889860D01*
X1938499Y1612584D02*
Y1627333D01*
X1942024Y1629740*
X1944406*
X1946608Y1631942*
X2012772Y1607916D02*
Y1618326D01*
X2012847Y1618401*
X2012772Y1607916D02*
X2019787D01*
X2022541Y1610670*
X2094445Y1612300D02*
Y1613227D01*
X2106298*
X2106536Y1619666D02*
X2115833D01*
X2128770Y1621970D02*
X2137344D01*
X2137428Y1621885*
X2115833Y1613466D02*
X2115890Y1613409D01*
X2132885Y1606505D02*
X2137428Y1611048D01*
Y1621885*
X2137783Y1621530*
X2147811*
X2159505Y1610497D02*
Y1620994D01*
X2159521Y1621010*
X2169791*
X1852026Y1637108D02*
Y1636108D01*
X1855927Y1632207*
X1875602*
Y1632979*
X1858226Y1637108D02*
X1860080Y1638962D01*
X1867359*
X1875602Y1632979D02*
Y1628099D01*
X1876118Y1627583*
X1875602Y1632979D02*
Y1654548D01*
X1881802Y1632979D02*
X1881807Y1632985D01*
Y1654613*
X2040144Y1629972D02*
X2053098D01*
X2063431Y1625738D02*
X2067118Y1629425D01*
Y1633023*
X2059854Y1640287D02*
X2067118Y1633023D01*
X2085722Y1638575D02*
Y1621097D01*
X2094445Y1612374*
Y1612300*
Y1625800D02*
X2094496Y1625749D01*
Y1622340*
X2097408Y1619427*
X2106298*
X1827276Y1650556D02*
Y1654207D01*
X1829134Y1656064*
X1846440*
X1851153Y1651351*
X1827276Y1650556D02*
X1827325Y1650508D01*
Y1644363*
X1833737Y1637950*
X1860562Y1661286D02*
X1866098D01*
X1873680Y1668868*
X1860943Y1645080D02*
X1861242D01*
X1867359Y1638962*
X1857353Y1651351D02*
X1868642D01*
X1871840Y1654548*
X1875602*
X1857353Y1651351D02*
X1868642D01*
X1871840Y1654548*
X1875602*
Y1654608*
X1857711Y1651709D02*
X1857353Y1651351D01*
X1868642*
X1871840Y1654548*
X1875602*
Y1632979*
X1851158Y1651356D02*
X1851153Y1651351D01*
X1851170Y1651334*
Y1646870*
X1852961Y1645080*
X1860943*
X1875602Y1654548D02*
Y1654608D01*
Y1654548*
Y1632979*
X1881807Y1654613D02*
X1882130Y1654291D01*
Y1644707*
X1886755Y1640081*
X1896155*
X1900631Y1635605*
X1881807Y1654613D02*
Y1632985D01*
X1891397Y1632993*
X1892692*
X1897144Y1628542*
X1881807Y1654613D02*
X1886961Y1659767D01*
X1887180*
Y1668868*
X1988884Y1653047D02*
X1995522Y1646409D01*
X2001981*
X1809273Y1673089D02*
Y1687572D01*
X1822044Y1700343*
X1832313*
X1873680Y1668868D02*
X1873692Y1668856D01*
Y1667631*
X1875607Y1665715*
Y1654613*
X1887180Y1668868D02*
X1889562Y1671251D01*
X1903844*
X1951641Y1675919D02*
X1951761Y1676039D01*
Y1680255*
X1951641Y1675919D02*
X1951761Y1676039D01*
X2025346Y1666070D02*
X2043907D01*
X2053784Y1660022*
X2060188*
X2015954Y1679475D02*
X2020389Y1683910D01*
X2026392*
X2028514Y1681787*
Y1676446*
X2029952Y1675008*
X2037827*
X2039916Y1677098*
Y1683033*
X2043774*
X2046994Y1686253*
Y1694833*
X2049484Y1697322*
X2052223*
X2039916Y1683033D02*
Y1690392D01*
X2052223Y1667322D02*
X2062223D01*
X2085924Y1665096D02*
X2093089Y1657931D01*
X2098352*
X2098927Y1671753D02*
Y1671580D01*
X2106475*
X2108007Y1673113*
X2119561*
X2125084*
X2128609Y1676638*
X2136492*
X2139561Y1673569*
X2119561Y1673113D02*
Y1683089D01*
X2124951Y1688479*
X2139561Y1673569D02*
X2142451Y1670679D01*
X2149561*
X2162031Y1683661D02*
X2162305D01*
X2164561Y1672676D02*
Y1672961D01*
X2162575Y1683126D02*
X2162305Y1683661D01*
X2166927*
X2169753Y1680835*
Y1671590*
X2172832Y1668512*
X2187414*
X2190493Y1665433*
Y1616825*
X2194057Y1610992*
X1946748Y1685268D02*
X1936355D01*
Y1672431*
X1945804Y1662981*
X1951761Y1680255D02*
X1946748Y1685268D01*
X1951761Y1680255*
Y1676039*
X1956138Y1694310D02*
Y1686999D01*
X1958054Y1685083*
X1984869Y1685242D02*
X1988411Y1688785D01*
X1989272Y1689645*
Y1690890*
X1983370Y1685127D02*
X1989381Y1679116D01*
X1989243Y1701532D02*
X1989272Y1701503D01*
Y1690890*
X2099726Y1698655D02*
X2099917Y1698464D01*
X2100367*
X2105575Y1693256*
X2105575D02*
Y1690057D01*
X2124951Y1688479D02*
X2144562D01*
X2145524Y1689311*
X2151174Y1683126*
X2162575*
X1939220Y1710020D02*
X1949832D01*
X1956267Y1721440D02*
X1956460Y1721633D01*
Y1731672*
X1959552Y1735520*
X1966745*
X1966847Y1737780*
X1977203Y1718962D02*
Y1723838D01*
X1978522Y1725157*
G54D32*
X1908383Y1564252D02*
X1909482Y1563152D01*
Y1555728*
X1910659Y1554551*
X1970125Y1557958D02*
Y1559280D01*
X1979270Y1568426*
X2073169Y1548903D02*
X2073473Y1549207D01*
X2081058*
X2002166Y1589083D02*
X2002502Y1589419D01*
X1919229Y1629914D02*
X1919375Y1629888D01*
X1925506*
X1927094Y1628301*
Y1616702*
X2113614Y1629207D02*
X2115833Y1626988D01*
Y1619666*
X2110373Y1639539D02*
Y1642525D01*
X2113683Y1645835*
X2129482*
X2132061Y1648414*
Y1661498*
X2130058Y1639539D02*
Y1641013D01*
X2134561Y1645516*
Y1661498*
X2137428Y1628085D02*
X2137487Y1628144D01*
X1900947Y1656876D02*
X1908926Y1653007D01*
Y1631661*
X1910674Y1629914*
X1919229*
X2117058Y1651207D02*
Y1661495D01*
X2117061Y1661498*
X1944058Y1718207D02*
X1944436Y1717829D01*
X1958987*
X1961149Y1719991*
Y1727015*
X1964120Y1729987*
X1975446*
X1977203Y1728231*
Y1718962*
G54D33*
X2189541Y1459801D03*
X1799987Y1477213D03*
X1898552Y1472549D03*
X1993170Y1471780D03*
X2024378Y1478320D03*
X2030942Y1472018D03*
X2186395Y1465358D03*
X1864820Y1521591D03*
X1898986Y1518663D03*
X1936850Y1520832D03*
X1968139Y1515016D03*
X1970988Y1520832D03*
X2025071Y1512358D03*
X2103058Y1506207D03*
Y1519207D03*
X2158058Y1507207D03*
X1827907Y1534643D03*
X1845290Y1525921D03*
X1885096Y1526497D03*
X1875683Y1530808D03*
X1905892Y1530164D03*
X1904268Y1539373D03*
X1904099Y1544126D03*
X1907320Y1536521D03*
X1910933Y1533012D03*
X1910837Y1540770D03*
X1921033Y1527200D03*
X1983058Y1530207D03*
X1982058Y1538207D03*
X1983672Y1526044D03*
X2023884Y1526423D03*
X2038058Y1528207D03*
X2051058D03*
X2169123Y1527195D03*
X1817246Y1550258D03*
X1904278Y1548879D03*
X1906221Y1558580D03*
X1908383Y1564252D03*
X1904282Y1552754D03*
X1917131Y1563626D03*
X1970125Y1557958D03*
X2002206Y1551770D03*
X2024507Y1545710D03*
X2042376Y1553178D03*
X2053674Y1552605D03*
X2081058Y1549207D03*
X1825493Y1583287D03*
X1898986Y1572983D03*
X1902058Y1578207D03*
X1911229Y1572255D03*
X1915061Y1574294D03*
X1918321Y1579118D03*
X1927500Y1575975D03*
X1937571Y1566353D03*
X1941306Y1582558D03*
X1988665Y1580251D03*
X1985398Y1577378D03*
X1982220Y1583674D03*
X1979270Y1568426D03*
X2002166Y1568852D03*
X2022615Y1577979D03*
X2053674Y1577009D03*
X2095058Y1565207D03*
X2183582Y1577973D03*
X1844717Y1594537D03*
X1864741Y1601267D03*
X1903391Y1598305D03*
X1921317Y1585616D03*
X1914805Y1598305D03*
X1941560Y1588462D03*
X1948686Y1588298D03*
X1931058Y1591629D03*
X1937928Y1591306D03*
X1966333Y1588553D03*
X1974890Y1585277D03*
X1992072Y1584859D03*
X2002502Y1589419D03*
X2014988Y1590751D03*
X2108614Y1604375D03*
X1826152Y1605136D03*
X1843607Y1621167D03*
X1927094Y1616702D03*
X1929787Y1609340D03*
X1932509Y1612895D03*
X1948259Y1613276D03*
X1945354Y1609123D03*
X1938499Y1612584D03*
X1967589Y1624644D03*
X1961126Y1622086D03*
X1958272Y1618103D03*
X1964431Y1614066D03*
X1953678Y1605877D03*
X1950697Y1622119D03*
X1984198Y1619159D03*
X1990902Y1623594D03*
X1991417Y1619706D03*
X2023196Y1604943D03*
X2019252Y1614914D03*
X2022541Y1610670D03*
X2159505Y1610497D03*
X2194057Y1610992D03*
X1867359Y1638962D03*
X1876118Y1627583D03*
X1897144Y1628542D03*
X1900631Y1635605D03*
X1904815Y1624978D03*
X1935841Y1642543D03*
X1937586Y1638962D03*
X1941867Y1635605D03*
X1946608Y1631942D03*
X1955040Y1632463D03*
X1950481Y1632934D03*
Y1640902D03*
X1963421Y1625555D03*
X1959790Y1628542D03*
X1982484Y1633851D03*
X1997017Y1642461D03*
X2020113Y1629481D03*
X2020961Y1624754D03*
X2011645Y1634080D03*
X2039328Y1643060D03*
X2085722Y1638575D03*
X2113614Y1629207D03*
X2145532Y1637004D03*
X2152456Y1639454D03*
X1860562Y1661286D03*
X1860943Y1645080D03*
X1900947Y1656876D03*
X1945804Y1662981D03*
X1998813Y1655537D03*
X2001981Y1646409D03*
X2008076Y1652726D03*
X2044205Y1646174D03*
X2048112Y1648237D03*
X2035874Y1659258D03*
X2040433Y1649110D03*
X2060188Y1660022D03*
X2098352Y1657931D03*
X2117058Y1651207D03*
X2124528Y1648855D03*
X2128874Y1651716D03*
X2147505Y1654595D03*
X2152583Y1654552D03*
X1809273Y1673089D03*
X1903844Y1671251D03*
X1989381Y1679116D03*
X2025346Y1666070D03*
X2016479Y1666035D03*
X2034916Y1678560D03*
X2039916Y1683033D03*
X2123342Y1668473D03*
X2114561Y1667743D03*
X2119561Y1673113D03*
X2129561Y1671716D03*
X2135201Y1672146D03*
X2139561Y1673569D03*
X2152675Y1667857D03*
X2162305Y1683661D03*
X2164561Y1672961D03*
X2149561Y1670679D03*
X1936355Y1685268D03*
X1956138Y1694310D03*
X2014916Y1702624D03*
X2082282Y1702682D03*
X2082066Y1691571D03*
X2105575Y1690057D03*
X2124951Y1688479D03*
X2145524Y1689311D03*
X2156007Y1686693D03*
X2152365Y1690170D03*
X2159561Y1690230D03*
X2165333Y1689647D03*
X1939220Y1710020D03*
X1944058Y1718207D03*
X1956267Y1721440D03*
X1988444Y1721902D03*
X2036740D03*
X2045458Y1711870D03*
X2121364Y1706209D03*
X2125956Y1717060D03*
X2004916Y1726783D03*
X2008064Y1730938D03*
X2045175Y1726720D03*
X1821093Y1746350D03*
X2205643Y1746916D03*
G54D38*
X0Y0D02*
M02*
