%
T1C.015F095S3
X-040807Y-049799
X-036277Y-044929
X-038015Y-044056
X-039081Y-042495
X-038257Y-039192
X-036334Y-038067
X-038191Y-037007
X-036445Y-035404
X-039878Y-030212
X-038696Y-022886
X-03475Y-031392
X-034711Y-033013
X-03407Y-033624
X-033194Y-034762
X-034332Y-037394
X-033238Y-04444
X-032296Y-044871
X-034324Y-045362
X-030951Y-050266
X-030907Y-045654
X-028703Y-044801
X-030217Y-044504
X-029712Y-04422
X-030074Y-043869
X-030379Y-043583
X-029722Y-043444
X-030396Y-043108
X-030378Y-042633
X-030378Y-042245
X-030184Y-041663
X-029093Y-041158
X-029968Y-041096
X-029683Y-040295
X-030907Y-040222
X-0293Y-040091
X-0306Y-0397
X-028974Y-039609
X-029325Y-03769
X-030467Y-03769
X-030324Y-035023
X-031091Y-034667
X-030743Y-03396
X-030711Y-031833
X-030421Y-030396
X-0264Y-0257
X-026884Y-026519
X-02717Y-028994
X-026225Y-031223
X-027222Y-033266
X-027047Y-033624
X-026619Y-03396
X-028096Y-03585
X-027555Y-036231
X-026956Y-036262
X-027827Y-036587
X-02627Y-036608
X-0277Y-038358
X-027013Y-03839
X-02665Y-038675
X-028674Y-038959
X-026675Y-039265
X-028056Y-039923
X-027049Y-040885
X-027121Y-045438
X-023992Y-046019
X-023707Y-045438
X-023793Y-041725
X-025937Y-038691
X-024173Y-038665
X-025438Y-036933
X-02598Y-036193
X-024363Y-036114
X-024979Y-03571
X-024693Y-035312
X-025736Y-035309
X-024047Y-035056
X-024464Y-034965
X-024827Y-034667
X-026145Y-034327
X-025302Y-034274
X-025758Y-034227
X-025758Y-03343
X-025192Y-02809
X-025179Y-025377
X-021961Y-025331
X-021868Y-029609
X-022557Y-034136
X-021716Y-035161
X-021664Y-03555
X-022386Y-035605
X-023317Y-038993
X-021599Y-039035
X-022584Y-039153
X-021939Y-039496
X-022266Y-039783
X-022879Y-040678
X-0226Y-0437
X-0225Y-0445
X-022439Y-044916
X-021489Y-050343
X-020585Y-042344
X-020589Y-040635
X-020556Y-038579
X-019307Y-038446
X-018881Y-036029
X-01871Y-035045
X-018795Y-034573
X-019641Y-034113
X-021104Y-033275
X-020608Y-03288
X-019998Y-032248
X-020924Y-031967
X-019158Y-030917
X-019314Y-027258
X-020314Y-024842
X-019999Y-024427
X-016288Y-024849
X-017132Y-025331
X-01626Y-026334
X-016814Y-029217
X-017314Y-029665
X-018271Y-030914
X-017218Y-031595
X-016763Y-03261
X-016385Y-032903
X-016873Y-033215
X-018552Y-036454
X-018486Y-037026
X-018544Y-039723
X-016568Y-042203
X-018355Y-04295
X-017Y-0447
X-018417Y-044878
X-018299Y-046285
X-018368Y-049689
X-017712Y-050319
X-0157Y-0447
X-0127Y-0426
X-015438Y-04226
X-0113Y-041
X-015438Y-03982
X-012234Y-033663
X-015995Y-032697
X-014787Y-031519
X-012599Y-028364
X-012578Y-027253
X-00821Y-025815
X-008669Y-0269
X-010248Y-028515
X-006253Y-02859
X-008311Y-028673
X-00685Y-030164
X-00885Y-030209
X-007286Y-030306
X-00785Y-030349
X-008472Y-030673
X-00935Y-030746
X-010971Y-031728
X-007918Y-032349
X-0091Y-0324
X-008353Y-032635
X-006253Y-03382
X-009444Y-0346
X-009944Y-037083
X-0105Y-0456
X-0105Y-0469
X-005Y-0468
X-003893Y-044801
X-004855Y-036471
X-00556Y-033575
X-005548Y-032066
X-006055Y-032061
X-005538Y-030735
X-00585Y-030453
X-00435Y-030225
X-004575Y-029155
X-005205Y-028851
X-004273Y-028556
X-005569Y-028504
X-00485Y-028498
X-000241Y-022829
X-0014Y-036421
X-002448Y-039723
X-002166Y-050985
X-001852Y-051541
T2C.035F197S55
X-020802Y-036708
X-020802Y-035708
X-014115Y-025047
X-015115Y-025047
X-012115Y-025047
X-013115Y-025047
X-01482Y-033492
X-01482Y-034492
X-012947Y-034521
X-01482Y-035492
X-012947Y-035521
X-012947Y-036521
X-009528Y-04397
X-009528Y-04297
X-009528Y-04197
X-007517Y-03887
X-007517Y-03787
X-007517Y-03687
X-009769Y-033567
X-0078Y-033567
X-006753Y-025049
X-008115Y-025047
X-010115Y-025047
X-011115Y-025047
X-009115Y-025047
X-003753Y-025049
X-004753Y-025049
X-005753Y-025049
X-001753Y-025049
X-002753Y-025049
X-005779Y-036501
X-003535Y-036729
X-005779Y-037501
X-003535Y-037729
X000028Y-047409
X000028Y-045409
X000181Y-043675
X000181Y-042675
X000181Y-041675
X000181Y-040675
X000181Y-039675
X000181Y-038675
X000181Y-037675
X000181Y-036675
X00027Y-034401
X00027Y-033401
X00027Y-032401
X00027Y-031401
X00027Y-030401
X00027Y-029401
X00027Y-028401
X00027Y-027401
X000247Y-025049
X-000753Y-025049
T3C.037F197S55
X-040177Y-040602
X-041177Y-040602
X-040177Y-039602
X-041177Y-039602
X-040177Y-038602
X-041177Y-038602
X-040177Y-037602
X-041177Y-037602
X-040177Y-036602
X-041177Y-036602
X-040177Y-035602
X-041177Y-035602
X-040177Y-034602
X-041177Y-034602
X-040177Y-033602
X-041177Y-033602
X-040177Y-032602
X-041177Y-032602
X-040177Y-031602
X-041177Y-031602
X-037034Y-026346
X-033794Y-026346
X-034874Y-026346
X-035954Y-026346
X-035414Y-027486
X-037574Y-027486
X-036494Y-027486
X-034334Y-027486
X-017791Y-041524
X-016791Y-041524
X-016791Y-040524
X-017791Y-040524
X-017791Y-039524
X-016791Y-039524
X-017791Y-038524
X-016791Y-038524
X-017791Y-037524
X-016791Y-037524
X-017791Y-036524
X-016791Y-036524
X-016791Y-035524
X-017791Y-035524
X-016791Y-034524
X-017791Y-034524
X-033254Y-027486
X-015584Y-027789
X-014584Y-027789
X-015584Y-028789
X-014584Y-028789
X-015584Y-029789
X-014584Y-029789
X-015584Y-030789
X-014584Y-030789
T4C.03937F197S55
X-002718Y-050312
X-000985Y-050312
T5C.04724F139S55
X-029863Y-026916G85X-030966Y-026916
X-039863Y-026916G85X-040966Y-026916
M30
