*
*
G04 PADS9.0 Build Number: 341147 generated Gerber (RS-274-X) file*
G04 PC Version=2.1*
*
%IN "ADXL340(final)05-16V2.p"*%
*
%MOIN*%
*
%FSLAX35Y35*%
*
*
*
*
G04 PC Standard Apertures*
*
*
G04 Thermal Relief Aperture macro.*
%AMTER*
1,1,$1,0,0*
1,0,$1-$2,0,0*
21,0,$3,$4,0,0,45*
21,0,$3,$4,0,0,135*
%
*
*
G04 Annular Aperture macro.*
%AMANN*
1,1,$1,0,0*
1,0,$2,0,0*
%
*
*
G04 Odd Aperture macro.*
%AMODD*
1,1,$1,0,0*
1,0,$1-0.005,0,0*
%
*
*
G04 PC Custom Aperture Macros*
*
*
*
*
*
*
G04 PC Aperture Table*
*
%ADD030C,0.01*%
%ADD032C,0.012*%
%ADD038C,0.001*%
%ADD045C,0.002*%
*
*
*
*
G04 PC Circuitry*
G04 Layer Name ADXL340(final)05-16V2.p - circuitry*
%LPD*%
*
*
G04 PC Custom Flashes*
G04 Layer Name ADXL340(final)05-16V2.p - flashes*
%LPD*%
*
*
G04 PC Circuitry*
G04 Layer Name ADXL340(final)05-16V2.p - circuitry*
%LPD*%
*
G54D30*
G01X1997797Y1633614D02*
X2003597D01*
Y1626614*
X1997797*
X1995397Y1633614D02*
X1989597D01*
Y1626614*
X1995397*
X1979980Y1647634D02*
X1985780D01*
Y1640634*
X1979980*
X1977580Y1647634D02*
X1971780D01*
Y1640634*
X1977580*
X2085566Y1551277D02*
Y1559577D01*
X2096166*
Y1551277*
X2085566Y1545277D02*
Y1536977D01*
X2096166*
Y1545277*
X1936564Y1624744D02*
X1942364D01*
Y1617744*
X1936564*
X1934164Y1624744D02*
X1928364D01*
Y1617744*
X1934164*
X1852423Y1578988D02*
X1859116D01*
Y1584894*
X1852423*
Y1578988*
X1855237Y1548887D02*
X1848545D01*
Y1542981*
X1855237*
Y1548887*
X1850876Y1502085D02*
X1857568D01*
Y1507991*
X1850876*
Y1502085*
X1854761Y1474321D02*
X1848068D01*
Y1468416*
X1854761*
Y1474321*
X1885010Y1563666D02*
Y1569466D01*
X1892010*
Y1563666*
X1885010Y1561266D02*
Y1555466D01*
X1892010*
Y1561266*
X1884195Y1543621D02*
Y1549421D01*
X1891195*
Y1543621*
X1884195Y1541221D02*
Y1535421D01*
X1891195*
Y1541221*
X1891813Y1503461D02*
Y1497661D01*
X1884813*
Y1503461*
X1891813Y1505861D02*
Y1511661D01*
X1884813*
Y1505861*
X1885777Y1479064D02*
Y1484864D01*
X1892777*
Y1479064*
X1885777Y1476664D02*
Y1470864D01*
X1892777*
Y1476664*
X2138162Y1707330D02*
X2132362D01*
Y1714330*
X2138162*
X2140562Y1707330D02*
X2146362D01*
Y1714330*
X2140562*
X2153719Y1680019D02*
X2159519D01*
Y1673019*
X2153719*
X2151319Y1680019D02*
X2145519D01*
Y1673019*
X2151319*
X2114548Y1677804D02*
X2108748D01*
Y1684804*
X2114548*
X2116948Y1677804D02*
X2122748D01*
Y1684804*
X2116948*
X2133387Y1677742D02*
X2127587D01*
Y1684742*
X2133387*
X2135787Y1677742D02*
X2141587D01*
Y1684742*
X2135787*
X2185905Y1676856D02*
X2191705D01*
Y1669856*
X2185905*
X2183505Y1676856D02*
X2177705D01*
Y1669856*
X2183505*
X2160011Y1709904D02*
X2154211D01*
Y1716904*
X2160011*
X2162411Y1709904D02*
X2168211D01*
Y1716904*
X2162411*
X2120726Y1708193D02*
X2114926D01*
Y1715193*
X2120726*
X2123126Y1708193D02*
X2128926D01*
Y1715193*
X2123126*
X1939006Y1511198D02*
X1933206D01*
Y1518198*
X1939006*
X1941406Y1511198D02*
X1947206D01*
Y1518198*
X1941406*
X2013088Y1600007D02*
X2018888D01*
Y1593007*
X2013088*
X2010688Y1600007D02*
X2004888D01*
Y1593007*
X2010688*
X2013327Y1587567D02*
X2019127D01*
Y1580567*
X2013327*
X2010927Y1587567D02*
X2005127D01*
Y1580567*
X2010927*
X2013315Y1579015D02*
X2019115D01*
X2019115D02*
Y1572015D01*
X2019115D02*
X2013315D01*
X2010915Y1579015D02*
X2005115D01*
X2005115D02*
Y1572015D01*
X2005115D02*
X2010915D01*
X2015217Y1563960D02*
X2021017D01*
Y1556960*
X2015217*
X2012817Y1563960D02*
X2007017D01*
Y1556960*
X2012817*
X2016694Y1552228D02*
X2022494D01*
Y1545228*
X2016694*
X2014294Y1552228D02*
X2008494D01*
Y1545228*
X2014294*
X2016249Y1539367D02*
X2022049D01*
Y1532367*
X2016249*
X2013849Y1539367D02*
X2008049D01*
Y1532367*
X2013849*
X2013626Y1530432D02*
X2019426D01*
Y1523432*
X2013626*
X2011226Y1530432D02*
X2005426D01*
Y1523432*
X2011226*
X2013579Y1518031D02*
X2019379D01*
Y1511031*
X2013579*
X2011179Y1518031D02*
X2005379D01*
Y1511031*
X2011179*
X2013567Y1507974D02*
X2019367D01*
Y1500974*
X2013567*
X2011167Y1507974D02*
X2005367D01*
Y1500974*
X2011167*
X1987215Y1512413D02*
X1981415D01*
Y1519413*
X1987215*
X1989615Y1512413D02*
X1995415D01*
Y1519413*
X1989615*
X1805575Y1521302D02*
Y1527102D01*
X1812575*
Y1521302*
X1805575Y1518902D02*
Y1513102D01*
X1812575*
Y1518902*
X1812974Y1536518D02*
Y1530718D01*
X1805974*
Y1536518*
X1812974Y1538918D02*
Y1544718D01*
X1805974*
Y1538918*
X1986921Y1501554D02*
X1981121D01*
Y1508554*
X1986921*
X1989321Y1501554D02*
X1995121D01*
Y1508554*
X1989321*
X1957501Y1518514D02*
X1963301D01*
Y1511514*
X1957501*
X1955101Y1518514D02*
X1949301D01*
Y1511514*
X1955101*
X2016252Y1487787D02*
X2022052D01*
Y1480787*
X2016252*
X2013852Y1487787D02*
X2008052D01*
Y1480787*
X2013852*
X2015604Y1478176D02*
X2021404D01*
Y1471176*
X2015604*
X2013204Y1478176D02*
X2007404D01*
Y1471176*
X2013204*
X2107109Y1591995D02*
X2100416D01*
Y1586090*
X2107109*
Y1591995*
X2069754Y1738877D02*
X2060699D01*
X2065030Y1743995D02*
Y1733759D01*
X2051063Y1745877D02*
X2059113D01*
Y1731877*
X2051063*
X2043563Y1745877D02*
X2035513D01*
Y1731877*
X2043563*
X2053139Y1702616D02*
X2044084D01*
X2048415Y1707734D02*
Y1697498D01*
X2034448Y1709616D02*
X2042498D01*
Y1695616*
X2034448*
X2026948Y1709616D02*
X2018898D01*
Y1695616*
X2026948*
X1993604Y1682426D02*
Y1691481D01*
X1998722Y1687151D02*
X1988486D01*
X2000604Y1701117D02*
Y1693067D01*
X1986604*
Y1701117*
X2000604Y1708617D02*
Y1716667D01*
X1986604*
Y1708617*
X1984755Y1631187D02*
X1984937Y1631624D01*
X1985300Y1632062*
X1985664Y1632280*
X1986391*
X1986755Y1632062*
X1987119Y1631624*
X1987300Y1631187*
X1987482Y1630530*
Y1629437*
X1987300Y1628780*
X1987119Y1628343*
X1986755Y1627905*
X1986391Y1627687*
X1985664*
X1985300Y1627905*
X1984937Y1628343*
X1984755Y1628780*
X1983119Y1631405D02*
X1982755Y1631624D01*
X1982209Y1632280*
Y1627687*
X1990805Y1646552D02*
X1990987Y1646990D01*
X1991350Y1647427*
X1991714Y1647646*
X1992441*
X1992805Y1647427*
X1993168Y1646990*
X1993350Y1646552*
X1993532Y1645896*
Y1644802*
X1993350Y1644146*
X1993168Y1643709*
X1992805Y1643271*
X1992441Y1643052*
X1991714*
X1991350Y1643271*
X1990987Y1643709*
X1990805Y1644146*
X1988987Y1646552D02*
Y1646771D01*
X1988805Y1647209*
X1988623Y1647427*
X1988259Y1647646*
X1987532*
X1987168Y1647427*
X1986987Y1647209*
X1986805Y1646771*
Y1646334*
X1986987Y1645896*
X1987350Y1645240*
X1989168Y1643052*
X1986623*
X2093541Y1535138D02*
Y1529232D01*
Y1535138D02*
X2091950D01*
X2091268Y1534857*
X2090813Y1534294*
X2090586Y1533732*
X2090359Y1532888*
Y1531482*
X2090586Y1530638*
X2090813Y1530076*
X2091268Y1529513*
X2091950Y1529232*
X2093541*
X2088313Y1534013D02*
X2087859Y1534294D01*
X2087177Y1535138*
Y1529232*
X1936577Y1630069D02*
X1936759Y1630507D01*
X1937123Y1630944*
X1937486Y1631163*
X1938214*
X1938577Y1630944*
X1938941Y1630507*
X1939123Y1630069*
X1939305Y1629413*
Y1628319*
X1939123Y1627663*
X1938941Y1627226*
X1938577Y1626788*
X1938214Y1626569*
X1937486*
X1937123Y1626788*
X1936759Y1627226*
X1936577Y1627663*
X1934941Y1630288D02*
X1934577Y1630507D01*
X1934032Y1631163*
Y1626569*
X1930032Y1629632D02*
X1930214Y1628976D01*
X1930577Y1628538*
X1931123Y1628319*
X1931305*
X1931850Y1628538*
X1932214Y1628976*
X1932395Y1629632*
Y1629851*
X1932214Y1630507*
X1931850Y1630944*
X1931305Y1631163*
X1931123*
X1930577Y1630944*
X1930214Y1630507*
X1930032Y1629632*
Y1628538*
X1930214Y1627444*
X1930577Y1626788*
X1931123Y1626569*
X1931486*
X1932032Y1626788*
X1932214Y1627226*
X1969117Y1575503D02*
Y1572221D01*
X1968936Y1571565*
X1968572Y1571128*
X1968027Y1570909*
X1967663*
X1967117Y1571128*
X1966754Y1571565*
X1966572Y1572221*
Y1575503*
X1964754Y1574409D02*
Y1574628D01*
X1964572Y1575065*
X1964390Y1575284*
X1964027Y1575503*
X1963299*
X1962936Y1575284*
X1962754Y1575065*
X1962572Y1574628*
Y1574190*
X1962754Y1573753*
X1963117Y1573096*
X1964936Y1570909*
X1962390*
X1958572Y1574846D02*
X1958754Y1575284D01*
X1959299Y1575503*
X1959663*
X1960208Y1575284*
X1960572Y1574628*
X1960754Y1573534*
Y1572440*
X1960572Y1571565*
X1960208Y1571128*
X1959663Y1570909*
X1959481*
X1958936Y1571128*
X1958572Y1571565*
X1958390Y1572221*
Y1572440*
X1958572Y1573096*
X1958936Y1573534*
X1959481Y1573753*
X1959663*
X1960208Y1573534*
X1960572Y1573096*
X1960754Y1572440*
X1875634Y1582055D02*
Y1578773D01*
X1875453Y1578117*
X1875089Y1577680*
X1874544Y1577461*
X1874180*
X1873634Y1577680*
X1873271Y1578117*
X1873089Y1578773*
Y1582055*
X1871271Y1580961D02*
Y1581180D01*
X1871089Y1581617*
X1870907Y1581836*
X1870544Y1582055*
X1869816*
X1869453Y1581836*
X1869271Y1581617*
X1869089Y1581180*
Y1580742*
X1869271Y1580305*
X1869634Y1579648*
X1871453Y1577461*
X1868907*
X1866180Y1582055D02*
X1866725Y1581836D01*
X1867089Y1581180*
X1867271Y1580086*
Y1579430*
X1867089Y1578336*
X1866725Y1577680*
X1866180Y1577461*
X1865816*
X1865271Y1577680*
X1864907Y1578336*
X1864725Y1579430*
Y1580086*
X1864907Y1581180*
X1865271Y1581836*
X1865816Y1582055*
X1866180*
X1872283Y1548531D02*
Y1545250D01*
X1872102Y1544594*
X1871738Y1544156*
X1871192Y1543937*
X1870829*
X1870283Y1544156*
X1869920Y1544594*
X1869738Y1545250*
Y1548531*
X1867920Y1547437D02*
Y1547656D01*
X1867738Y1548094*
X1867556Y1548312*
X1867192Y1548531*
X1866465*
X1866102Y1548312*
X1865920Y1548094*
X1865738Y1547656*
Y1547219*
X1865920Y1546781*
X1866283Y1546125*
X1868102Y1543937*
X1865556*
X1863920Y1547656D02*
X1863556Y1547875D01*
X1863011Y1548531*
Y1543937*
X1877841Y1522585D02*
Y1519304D01*
X1877660Y1518648*
X1877296Y1518210*
X1876750Y1517991*
X1876387*
X1875841Y1518210*
X1875478Y1518648*
X1875296Y1519304*
Y1522585*
X1873478Y1521491D02*
Y1521710D01*
X1873296Y1522148*
X1873114Y1522366*
X1872750Y1522585*
X1872023*
X1871660Y1522366*
X1871478Y1522148*
X1871296Y1521710*
Y1521273*
X1871478Y1520835*
X1871841Y1520179*
X1873660Y1517991*
X1871114*
X1869296Y1521491D02*
Y1521710D01*
X1869114Y1522148*
X1868932Y1522366*
X1868569Y1522585*
X1867841*
X1867478Y1522366*
X1867296Y1522148*
X1867114Y1521710*
Y1521273*
X1867296Y1520835*
X1867660Y1520179*
X1869478Y1517991*
X1866932*
X1876120Y1475379D02*
Y1472097D01*
X1875939Y1471441*
X1875575Y1471004*
X1875030Y1470785*
X1874666*
X1874120Y1471004*
X1873757Y1471441*
X1873575Y1472097*
Y1475379*
X1871757Y1474285D02*
Y1474504D01*
X1871575Y1474941*
X1871393Y1475160*
X1871030Y1475379*
X1870302*
X1869939Y1475160*
X1869757Y1474941*
X1869575Y1474504*
Y1474066*
X1869757Y1473629*
X1870120Y1472972*
X1871939Y1470785*
X1869393*
X1867393Y1475379D02*
X1865393D01*
X1866484Y1473629*
X1865939*
X1865575Y1473410*
X1865393Y1473191*
X1865211Y1472535*
Y1472097*
X1865393Y1471441*
X1865757Y1471004*
X1866302Y1470785*
X1866848*
X1867393Y1471004*
X1867575Y1471222*
X1867757Y1471660*
X1887771Y1575556D02*
Y1570963D01*
Y1575556D02*
X1886135D01*
X1885589Y1575338*
X1885407Y1575119*
X1885226Y1574681*
Y1574244*
X1885407Y1573806*
X1885589Y1573588*
X1886135Y1573369*
X1887771*
X1886498D02*
X1885226Y1570963D01*
X1883226Y1575556D02*
X1881226D01*
X1882317Y1573806*
X1881771*
X1881407Y1573588*
X1881226Y1573369*
X1881044Y1572713*
Y1572275*
X1881226Y1571619*
X1881589Y1571181*
X1882135Y1570963*
X1882680*
X1883226Y1571181*
X1883407Y1571400*
X1883589Y1571838*
X1891294Y1533733D02*
Y1529139D01*
Y1533733D02*
X1889658D01*
X1889112Y1533514*
X1888931Y1533295*
X1888749Y1532858*
Y1532420*
X1888931Y1531983*
X1889112Y1531764*
X1889658Y1531545*
X1891294*
X1890022D02*
X1888749Y1529139D01*
X1887112Y1532858D02*
X1886749Y1533076D01*
X1886203Y1533733*
Y1529139*
X1884567Y1532858D02*
X1884203Y1533076D01*
X1883658Y1533733*
Y1529139*
X1891420Y1518174D02*
Y1513580D01*
Y1518174D02*
X1889784D01*
X1889784D02*
X1889238Y1517955D01*
X1889056Y1517736*
X1888874Y1517299*
Y1516861*
X1889056Y1516424*
X1889238Y1516205*
X1889784Y1515986*
X1889784D02*
X1891420D01*
X1890147D02*
X1888874Y1513580D01*
X1887238Y1517299D02*
X1886874Y1517517D01*
X1886329Y1518174*
Y1513580*
X1884511Y1517080D02*
Y1517299D01*
X1884329Y1517736*
X1884147Y1517955*
X1883784Y1518174*
X1883784D02*
X1883056D01*
X1882693Y1517955*
X1882511Y1517736*
X1882329Y1517299*
Y1516861*
X1882511Y1516424*
X1882874Y1515767*
X1884693Y1513580*
X1882147*
X1893854Y1491229D02*
Y1486635D01*
Y1491229D02*
X1892217D01*
X1891672Y1491010*
X1891490Y1490792*
X1891308Y1490354*
Y1489917*
X1891490Y1489479*
X1891672Y1489260*
X1892217Y1489042*
X1893854*
X1892581D02*
X1891308Y1486635D01*
X1889672Y1490354D02*
X1889308Y1490573D01*
X1888763Y1491229*
Y1486635*
X1886763Y1491229D02*
X1884763D01*
X1885854Y1489479*
X1885308*
X1884945Y1489260*
X1884763Y1489042*
X1884581Y1488385*
Y1487948*
X1884763Y1487292*
X1885126Y1486854*
X1885672Y1486635*
X1886217*
X1886763Y1486854*
X1886945Y1487073*
X1887126Y1487510*
X2139673Y1705874D02*
X2139855Y1706311D01*
X2140219Y1706749*
X2140582Y1706968*
X2141309*
X2141673Y1706749*
X2142037Y1706311*
X2142219Y1705874*
X2142400Y1705218*
Y1704124*
X2142219Y1703468*
X2142037Y1703030*
X2141673Y1702593*
X2141309Y1702374*
X2140582*
X2140219Y1702593*
X2139855Y1703030*
X2139673Y1703468*
X2137673Y1706968D02*
X2135673D01*
X2136764Y1705218*
X2136219*
X2135855Y1704999*
X2135673Y1704780*
X2135491Y1704124*
Y1703686*
X2135673Y1703030*
X2136037Y1702593*
X2136582Y1702374*
X2137128*
X2137673Y1702593*
X2137855Y1702811*
X2138037Y1703249*
X2132037Y1706968D02*
X2133855Y1703905D01*
X2131128*
X2132037Y1706968D02*
Y1702374D01*
X2154038Y1684465D02*
X2154220Y1684903D01*
X2154584Y1685340*
X2154948Y1685559*
X2155675*
X2156038Y1685340*
X2156402Y1684903*
X2156584Y1684465*
X2156766Y1683809*
Y1682715*
X2156584Y1682059*
X2156402Y1681621*
X2156038Y1681184*
X2155675Y1680965*
X2154948*
X2154584Y1681184*
X2154220Y1681621*
X2154038Y1682059*
X2152038Y1685559D02*
X2150038D01*
X2151129Y1683809*
X2150584*
X2150220Y1683590*
X2150038Y1683371*
X2149857Y1682715*
Y1682278*
X2150038Y1681621*
X2150402Y1681184*
X2150948Y1680965*
X2151493*
X2152038Y1681184*
X2152220Y1681403*
X2152402Y1681840*
X2145857Y1685559D02*
X2147675D01*
X2147857Y1683590*
X2147675Y1683809*
X2147129Y1684028*
X2146584*
X2146038Y1683809*
X2145675Y1683371*
X2145493Y1682715*
X2145675Y1682278*
X2145857Y1681621*
X2146220Y1681184*
X2146766Y1680965*
X2147311*
X2147857Y1681184*
X2148038Y1681403*
X2148220Y1681840*
X2118275Y1689655D02*
X2118456Y1690092D01*
X2118456D02*
X2118820Y1690530D01*
X2119184Y1690749*
X2119911*
X2120275Y1690530*
X2120638Y1690092*
X2120638D02*
X2120820Y1689655D01*
X2121002Y1688999*
Y1687905*
X2120820Y1687249*
X2120638Y1686811*
X2120275Y1686374*
X2119911Y1686155*
X2119184*
X2118820Y1686374*
X2118456Y1686811*
X2118275Y1687249*
X2114820Y1690749D02*
X2116638Y1687686D01*
X2113911*
X2114820Y1690749D02*
Y1686155D01*
X2111184Y1690749D02*
X2111729Y1690530D01*
X2112093Y1689874*
X2112275Y1688780*
Y1688124*
X2112093Y1687030*
X2111729Y1686374*
X2111184Y1686155*
X2110820*
X2110275Y1686374*
X2109911Y1687030*
X2109729Y1688124*
Y1688780*
X2109911Y1689874*
X2110275Y1690530*
X2110820Y1690749*
X2111184*
X2137769Y1689424D02*
X2137950Y1689861D01*
X2138314Y1690299*
X2138678Y1690518*
X2139405*
X2139769Y1690299*
X2140132Y1689861*
X2140314Y1689424*
X2140496Y1688768*
Y1687674*
X2140314Y1687018*
X2140132Y1686580*
X2139769Y1686143*
X2139405Y1685924*
X2138678*
X2138314Y1686143*
X2137950Y1686580*
X2137769Y1687018*
X2134314Y1690518D02*
X2136132Y1687455D01*
X2133405*
X2134314Y1690518D02*
Y1685924D01*
X2131769Y1689643D02*
X2131405Y1689861D01*
X2130860Y1690518*
Y1685924*
X2187736Y1681936D02*
X2187917Y1682374D01*
X2188281Y1682811*
X2188645Y1683030*
X2189372*
X2189736Y1682811*
X2190099Y1682374*
X2190281Y1681936*
X2190463Y1681280*
Y1680186*
X2190281Y1679530*
X2190099Y1679093*
X2189736Y1678655*
X2189372Y1678436*
X2188645*
X2188281Y1678655*
X2187917Y1679093*
X2187736Y1679530*
X2184281Y1683030D02*
X2186099Y1679968D01*
X2183372*
X2184281Y1683030D02*
Y1678436D01*
X2181554Y1681936D02*
Y1682155D01*
X2181372Y1682593*
X2181190Y1682811*
X2180827Y1683030*
X2180099*
X2179736Y1682811*
X2179554Y1682593*
X2179372Y1682155*
Y1681718*
X2179554Y1681280*
X2179917Y1680624*
X2181736Y1678436*
X2179190*
X2161921Y1706116D02*
X2162103Y1706553D01*
X2162467Y1706991*
X2162830Y1707209*
X2163558*
X2163921Y1706991*
X2164285Y1706553*
X2164467Y1706116*
X2164649Y1705459*
Y1704366*
X2164467Y1703709*
X2164285Y1703272*
X2163921Y1702834*
X2163558Y1702616*
X2162830*
X2162467Y1702834*
X2162103Y1703272*
X2161921Y1703709*
X2158467Y1707209D02*
X2160285Y1704147D01*
X2157558*
X2158467Y1707209D02*
Y1702616D01*
X2155558Y1707209D02*
X2153558D01*
X2154649Y1705459*
X2154103*
X2153740Y1705241*
X2153558Y1705022*
X2153376Y1704366*
Y1703928*
X2153558Y1703272*
X2153921Y1702834*
X2154467Y1702616*
X2155012*
X2155558Y1702834*
X2155740Y1703053*
X2155921Y1703491*
X2125221Y1703781D02*
X2125403Y1704219D01*
X2125767Y1704656*
X2126131Y1704875*
X2126858*
X2127221Y1704656*
X2127585Y1704219*
X2127767Y1703781*
X2127949Y1703125*
Y1702031*
X2127767Y1701375*
X2127585Y1700938*
X2127221Y1700500*
X2126858Y1700281*
X2126131*
X2125767Y1700500*
X2125403Y1700938*
X2125221Y1701375*
X2121767Y1704875D02*
X2123585Y1701813D01*
X2120858*
X2121767Y1704875D02*
Y1700281D01*
X2117403Y1704875D02*
X2119221Y1701813D01*
X2116494*
X2117403Y1704875D02*
Y1700281D01*
X1929173Y1516632D02*
X1929355Y1517069D01*
X1929718Y1517507*
X1930082Y1517726*
X1930809*
X1931173Y1517507*
X1931537Y1517069*
X1931718Y1516632*
X1931900Y1515976*
Y1514882*
X1931718Y1514226*
X1931537Y1513788*
X1931173Y1513351*
X1930809Y1513132*
X1930082*
X1929718Y1513351*
X1929355Y1513788*
X1929173Y1514226*
X1925718Y1517726D02*
X1927537Y1514663D01*
X1924809*
X1925718Y1517726D02*
Y1513132D01*
X1920627Y1517726D02*
X1922446Y1513132D01*
X1923173Y1517726D02*
X1920627D01*
X1992216Y1607597D02*
Y1604316D01*
X1992034Y1603659*
X1991670Y1603222*
X1991125Y1603003*
X1990761*
X1990216Y1603222*
X1989852Y1603659*
X1989670Y1604316*
Y1607597*
X1987852Y1606503D02*
Y1606722D01*
X1987670Y1607159*
X1987489Y1607378*
X1987125Y1607597*
X1986398*
X1986034Y1607378*
X1985852Y1607159*
X1985670Y1606722*
Y1606284*
X1985852Y1605847*
X1986216Y1605191*
X1988034Y1603003*
X1985489*
X1981489Y1606066D02*
X1981670Y1605409D01*
X1982034Y1604972*
X1982579Y1604753*
X1982761*
X1983307Y1604972*
X1983670Y1605409*
X1983852Y1606066*
Y1606284*
X1983670Y1606941*
X1983307Y1607378*
X1982761Y1607597*
X1982579*
X1982034Y1607378*
X1981670Y1606941*
X1981489Y1606066*
Y1604972*
X1981670Y1603878*
X1982034Y1603222*
X1982579Y1603003*
X1982943*
X1983489Y1603222*
X1983670Y1603659*
X2003227Y1601230D02*
Y1596636D01*
Y1601230D02*
X2001591D01*
X2001045Y1601011*
X2000863Y1600793*
X2000682Y1600355*
Y1599918*
X2000863Y1599480*
X2001045Y1599261*
X2001591Y1599043*
X2003227*
X2001954D02*
X2000682Y1596636D01*
X1998863Y1600136D02*
Y1600355D01*
X1998682Y1600793*
X1998500Y1601011*
X1998136Y1601230*
X1997409*
X1997045Y1601011*
X1996863Y1600793*
X1996682Y1600355*
Y1599918*
X1996863Y1599480*
X1997227Y1598824*
X1999045Y1596636*
X1996500*
X1994682Y1600136D02*
Y1600355D01*
X1994500Y1600793*
X1994318Y1601011*
X1993954Y1601230*
X1993227*
X1992863Y1601011*
X1992682Y1600793*
X1992500Y1600355*
Y1599918*
X1992682Y1599480*
X1993045Y1598824*
X1994863Y1596636*
X1992318*
X2003228Y1586796D02*
Y1582203D01*
Y1586796D02*
X2001592D01*
X2001046Y1586578*
X2000865Y1586359*
X2000683Y1585921*
Y1585484*
X2000865Y1585046*
X2001046Y1584828*
X2001592Y1584609*
X2003228*
X2001955D02*
X2000683Y1582203D01*
X1998865Y1585703D02*
Y1585921D01*
X1998683Y1586359*
X1998501Y1586578*
X1998137Y1586796*
X1997410*
X1997046Y1586578*
X1996865Y1586359*
X1996683Y1585921*
Y1585484*
X1996865Y1585046*
X1997228Y1584390*
X1999046Y1582203*
X1996501*
X1992683Y1586140D02*
X1992865Y1586578D01*
X1993410Y1586796*
X1993774*
X1994319Y1586578*
X1994683Y1585921*
X1994865Y1584828*
Y1583734*
X1994683Y1582859*
X1994319Y1582421*
X1993774Y1582203*
X1993592*
X1993046Y1582421*
X1992683Y1582859*
X1992501Y1583515*
Y1583734*
X1992683Y1584390*
X1993046Y1584828*
X1993592Y1585046*
X1993774*
X1994319Y1584828*
X1994683Y1584390*
X1994865Y1583734*
X2003228Y1578886D02*
Y1574293D01*
Y1578886D02*
X2001592D01*
X2001046Y1578668*
X2000865Y1578449*
X2000683Y1578011*
Y1577574*
X2000865Y1577136*
X2001046Y1576918*
X2001592Y1576699*
X2003228*
X2001955D02*
X2000683Y1574293D01*
X1998865Y1577793D02*
Y1578011D01*
X1998683Y1578449*
X1998501Y1578668*
X1998137Y1578886*
X1997410*
X1997046Y1578668*
X1996865Y1578449*
X1996683Y1578011*
Y1577574*
X1996865Y1577136*
X1997228Y1576480*
X1999046Y1574293*
X1996501*
X1992501Y1577355D02*
X1992683Y1576699D01*
X1993046Y1576261*
X1993592Y1576043*
X1993774*
X1994319Y1576261*
X1994683Y1576699*
X1994865Y1577355*
Y1577574*
X1994683Y1578230*
X1994319Y1578668*
X1993774Y1578886*
X1993592*
X1993046Y1578668*
X1992683Y1578230*
X1992501Y1577355*
Y1576261*
X1992683Y1575168*
X1993046Y1574511*
X1993592Y1574293*
X1993955*
X1994501Y1574511*
X1994683Y1574949*
X2005263Y1564812D02*
Y1560218D01*
Y1564812D02*
X2003627D01*
X2003081Y1564593*
X2002899Y1564374*
X2002899D02*
X2002718Y1563937D01*
Y1563499*
X2002899Y1563062*
X2002899D02*
X2003081Y1562843D01*
X2003627Y1562624*
X2005263*
X2003990D02*
X2002718Y1560218D01*
X2000718Y1564812D02*
X1998718D01*
X1999809Y1563062*
X1999263*
X1998899Y1562843*
X1998899D02*
X1998718Y1562624D01*
X1998536Y1561968*
Y1561530*
X1998718Y1560874*
X1999081Y1560437*
X1999627Y1560218*
X2000172*
X2000718Y1560437*
X2000899Y1560655*
X2000899D02*
X2001081Y1561093D01*
X1996899Y1563937D02*
X1996536Y1564155D01*
X1995990Y1564812*
Y1560218*
X2005263Y1552007D02*
Y1547413D01*
Y1552007D02*
X2003627D01*
X2003081Y1551788*
X2002899Y1551569*
X2002899D02*
X2002718Y1551132D01*
Y1550694*
X2002899Y1550257*
X2002899D02*
X2003081Y1550038D01*
X2003627Y1549819*
X2005263*
X2003990D02*
X2002718Y1547413D01*
X1998718Y1552007D02*
X2000536D01*
X2000718Y1550038*
X2000536Y1550257*
X1999990Y1550476*
X1999445*
X1998899Y1550257*
X1998899D02*
X1998536Y1549819D01*
X1998354Y1549163*
X1998536Y1548726*
X1998718Y1548069*
X1999081Y1547632*
X1999627Y1547413*
X2000172*
X2000718Y1547632*
X2000899Y1547851*
X2000899D02*
X2001081Y1548288D01*
X1996354Y1552007D02*
X1994354D01*
X1995445Y1550257*
X1994899*
X1994899D02*
X1994536Y1550038D01*
X1994354Y1549819*
X1994172Y1549163*
Y1548726*
X1994354Y1548069*
X1994718Y1547632*
X1995263Y1547413*
X1995809*
X1996354Y1547632*
X1996536Y1547851*
X1996718Y1548288*
X2006524Y1538503D02*
Y1533909D01*
Y1538503D02*
X2004887D01*
X2004342Y1538284*
X2004160Y1538065*
X2003978Y1537628*
Y1537190*
X2004160Y1536753*
X2004342Y1536534*
X2004887Y1536315*
X2006524*
X2005251D02*
X2003978Y1533909D01*
X1999978Y1538503D02*
X2001796D01*
X2001978Y1536534*
X2001796Y1536753*
X2001251Y1536972*
X2000705*
X2000160Y1536753*
X1999796Y1536315*
X1999615Y1535659*
X1999796Y1535222*
X1999978Y1534565*
X2000342Y1534128*
X2000887Y1533909*
X2001433*
X2001978Y1534128*
X2002160Y1534347*
X2002342Y1534784*
X1996160Y1538503D02*
X1997978Y1535440D01*
X1995251*
X1996160Y1538503D02*
Y1533909D01*
X2004043Y1529655D02*
Y1525061D01*
Y1529655D02*
X2002407D01*
X2001861Y1529436*
X2001679Y1529217*
X2001498Y1528780*
Y1528342*
X2001679Y1527905*
X2001861Y1527686*
X2002407Y1527467*
X2004043*
X2002770D02*
X2001498Y1525061D01*
X1997498Y1529655D02*
X1999316D01*
X1999498Y1527686*
X1999316Y1527905*
X1998770Y1528123*
X1998225*
X1997679Y1527905*
X1997316Y1527467*
X1997134Y1526811*
X1997316Y1526373*
X1997498Y1525717*
X1997861Y1525280*
X1998407Y1525061*
X1998952*
X1999498Y1525280*
X1999679Y1525498*
X1999861Y1525936*
X1993134Y1529655D02*
X1994952D01*
X1995134Y1527686*
X1994952Y1527905*
X1994407Y1528123*
X1993861*
X1993316Y1527905*
X1992952Y1527467*
X1992770Y1526811*
X1992952Y1526373*
X1993134Y1525717*
X1993498Y1525280*
X1994043Y1525061*
X1994589*
X1995134Y1525280*
X1995316Y1525498*
X1995498Y1525936*
X2028422Y1518847D02*
Y1515566D01*
Y1518847D02*
X2027195D01*
X2026786Y1518691*
X2026649Y1518535*
X2026513Y1518222*
Y1517910*
X2026649Y1517597*
X2026786Y1517441*
X2027195Y1517285*
X2028422*
X2027468D02*
X2026513Y1515566D01*
X2023513Y1518847D02*
X2024877D01*
X2025013Y1517441*
X2024877Y1517597*
X2024468Y1517754*
X2024059*
X2023649Y1517597*
X2023377Y1517285*
X2023240Y1516816*
X2023377Y1516504*
X2023513Y1516035*
X2023786Y1515722*
X2024195Y1515566*
X2024604*
X2025013Y1515722*
X2025149Y1515879*
X2025286Y1516191*
X2020377Y1518379D02*
X2020513Y1518691D01*
X2020922Y1518847*
X2021195*
X2021604Y1518691*
X2021877Y1518222*
X2022013Y1517441*
Y1516660*
X2021877Y1516035*
X2021604Y1515722*
X2021195Y1515566*
X2021059*
X2020649Y1515722*
X2020377Y1516035*
X2020240Y1516504*
Y1516660*
X2020377Y1517129*
X2020649Y1517441*
X2021059Y1517597*
X2021195*
X2021604Y1517441*
X2021877Y1517129*
X2022013Y1516660*
X2009514Y1499879D02*
Y1495285D01*
Y1499879D02*
X2007877D01*
X2007332Y1499660*
X2007150Y1499441*
X2006968Y1499004*
Y1498566*
X2007150Y1498129*
X2007332Y1497910*
X2007877Y1497691*
X2009514*
X2008241D02*
X2006968Y1495285D01*
X2002968Y1499879D02*
X2004786D01*
X2004968Y1497910*
X2004786Y1498129*
X2004241Y1498347*
X2003695*
X2003150Y1498129*
X2002786Y1497691*
X2002604Y1497035*
X2002786Y1496597*
X2002968Y1495941*
X2003332Y1495504*
X2003877Y1495285*
X2004423*
X2004968Y1495504*
X2005150Y1495722*
X2005332Y1496160*
X1998423Y1499879D02*
X2000241Y1495285D01*
X2000968Y1499879D02*
X1998423D01*
X1977853Y1516260D02*
X1978034Y1516697D01*
X1978398Y1517135*
X1978762Y1517354*
X1979489*
X1979853Y1517135*
X1980216Y1516697*
X1980398Y1516260*
X1980580Y1515604*
Y1514510*
X1980398Y1513854*
X1980216Y1513416*
X1979853Y1512979*
X1979489Y1512760*
X1978762*
X1978398Y1512979*
X1978034Y1513416*
X1977853Y1513854*
X1974398Y1517354D02*
X1976216Y1514291D01*
X1973489*
X1974398Y1517354D02*
Y1512760D01*
X1970944Y1517354D02*
X1971489Y1517135D01*
X1971671Y1516697*
Y1516260*
X1971489Y1515822*
X1971125Y1515604*
X1970398Y1515385*
X1969853Y1515166*
X1969489Y1514729*
X1969307Y1514291*
Y1513635*
X1969489Y1513197*
X1969671Y1512979*
X1970216Y1512760*
X1970944*
X1971489Y1512979*
X1971671Y1513197*
X1971853Y1513635*
Y1514291*
X1971671Y1514729*
X1971307Y1515166*
X1970762Y1515385*
X1970034Y1515604*
X1969671Y1515822*
X1969489Y1516260*
Y1516697*
X1969671Y1517135*
X1970216Y1517354*
X1970944*
X1801367Y1519583D02*
X1801549Y1520020D01*
X1801913Y1520458*
X1802276Y1520676*
X1803004*
X1803367Y1520458*
X1803731Y1520020*
X1803913Y1519583*
X1804094Y1518926*
Y1517833*
X1803913Y1517176*
X1803731Y1516739*
X1803367Y1516301*
X1803004Y1516083*
X1802276*
X1801913Y1516301*
X1801549Y1516739*
X1801367Y1517176*
X1797913Y1520676D02*
X1799731Y1517614D01*
X1797004*
X1797913Y1520676D02*
Y1516083D01*
X1793004Y1519145D02*
X1793185Y1518489D01*
X1793549Y1518051*
X1794094Y1517833*
X1794276*
X1794822Y1518051*
X1795185Y1518489*
X1795367Y1519145*
Y1519364*
X1795185Y1520020*
X1794822Y1520458*
X1794276Y1520676*
X1794094*
X1793549Y1520458*
X1793185Y1520020*
X1793004Y1519145*
Y1518051*
X1793185Y1516958*
X1793549Y1516301*
X1794094Y1516083*
X1794458*
X1795004Y1516301*
X1795185Y1516739*
X1801926Y1534836D02*
X1802108Y1535273D01*
X1802472Y1535711*
X1802835Y1535929*
X1803563*
X1803926Y1535711*
X1804290Y1535273*
X1804472Y1534836*
X1804653Y1534179*
Y1533086*
X1804472Y1532429*
X1804290Y1531992*
X1803926Y1531554*
X1803563Y1531336*
X1802835*
X1802472Y1531554*
X1802108Y1531992*
X1801926Y1532429*
X1797926Y1535929D02*
X1799744D01*
X1799926Y1533961*
X1799744Y1534179*
X1799199Y1534398*
X1798653*
X1798108Y1534179*
X1797744Y1533742*
X1797563Y1533086*
X1797744Y1532648*
X1797926Y1531992*
X1798290Y1531554*
X1798835Y1531336*
X1799381*
X1799926Y1531554*
X1800108Y1531773*
X1800290Y1532211*
X1794835Y1535929D02*
X1795381Y1535711D01*
X1795744Y1535054*
X1795926Y1533961*
Y1533304*
X1795744Y1532211*
X1795381Y1531554*
X1794835Y1531336*
X1794472*
X1793926Y1531554*
X1793563Y1532211*
X1793381Y1533304*
Y1533961*
X1793563Y1535054*
X1793926Y1535711*
X1794472Y1535929*
X1794835*
X1976262Y1503047D02*
X1976444Y1503484D01*
X1976807Y1503922*
X1977171Y1504141*
X1977898*
X1978262Y1503922*
X1978626Y1503484*
X1978807Y1503047*
X1978989Y1502391*
Y1501297*
X1978807Y1500641*
X1978626Y1500203*
X1978262Y1499766*
X1977898Y1499547*
X1977171*
X1976807Y1499766*
X1976444Y1500203*
X1976262Y1500641*
X1972262Y1504141D02*
X1974080D01*
X1974262Y1502172*
X1974080Y1502391*
X1973535Y1502609*
X1972989*
X1972444Y1502391*
X1972080Y1501953*
X1971898Y1501297*
X1972080Y1500859*
X1972262Y1500203*
X1972626Y1499766*
X1973171Y1499547*
X1973716*
X1974262Y1499766*
X1974444Y1499984*
X1974626Y1500422*
X1970262Y1503266D02*
X1969898Y1503484D01*
X1969353Y1504141*
Y1499547*
X1959164Y1507689D02*
X1959346Y1508126D01*
X1959710Y1508564*
X1960073Y1508782*
X1960800*
X1961164Y1508564*
X1961528Y1508126*
X1961710Y1507689*
X1961891Y1507032*
Y1505939*
X1961710Y1505282*
X1961528Y1504845*
X1961164Y1504407*
X1960800Y1504189*
X1960073*
X1959710Y1504407*
X1959346Y1504845*
X1959164Y1505282*
X1955164Y1508782D02*
X1956982D01*
X1957164Y1506814*
X1956982Y1507032*
X1956437Y1507251*
X1955891*
X1955346Y1507032*
X1954982Y1506595*
X1954800Y1505939*
X1954982Y1505501*
X1955164Y1504845*
X1955528Y1504407*
X1956073Y1504189*
X1956619*
X1957164Y1504407*
X1957346Y1504626*
X1957528Y1505064*
X1952982Y1507689D02*
Y1507907D01*
X1952800Y1508345*
X1952619Y1508564*
X1952255Y1508782*
X1951528*
X1951164Y1508564*
X1950982Y1508345*
X1950800Y1507907*
Y1507470*
X1950982Y1507032*
X1951346Y1506376*
X1953164Y1504189*
X1950619*
X2021667Y1494482D02*
Y1489888D01*
Y1494482D02*
X2020030D01*
X2019485Y1494263*
X2019303Y1494045*
X2019121Y1493607*
Y1493170*
X2019303Y1492732*
X2019485Y1492513*
X2020030Y1492295*
X2021667*
X2020394D02*
X2019121Y1489888D01*
X2015121Y1494482D02*
X2016939D01*
X2017121Y1492513*
X2016939Y1492732*
X2016394Y1492951*
X2015848*
X2015303Y1492732*
X2014939Y1492295*
X2014757Y1491638*
X2014939Y1491201*
X2015121Y1490545*
X2015485Y1490107*
X2016030Y1489888*
X2016576*
X2017121Y1490107*
X2017303Y1490326*
X2017485Y1490763*
X2012212Y1494482D02*
X2012757Y1494263D01*
X2012939Y1493826*
Y1493388*
X2012757Y1492951*
X2012394Y1492732*
X2011667Y1492513*
X2011121Y1492295*
X2010757Y1491857*
X2010576Y1491420*
Y1490763*
X2010757Y1490326*
X2010939Y1490107*
X2011485Y1489888*
X2012212*
X2012757Y1490107*
X2012939Y1490326*
X2013121Y1490763*
Y1491420*
X2012939Y1491857*
X2012576Y1492295*
X2012030Y1492513*
X2011303Y1492732*
X2010939Y1492951*
X2010757Y1493388*
Y1493826*
X2010939Y1494263*
X2011485Y1494482*
X2012212*
X2004832Y1476221D02*
Y1471627D01*
Y1476221D02*
X2003195D01*
X2002650Y1476002*
X2002468Y1475783*
X2002286Y1475346*
Y1474908*
X2002468Y1474471*
X2002650Y1474252*
X2003195Y1474033*
X2004832*
X2003559D02*
X2002286Y1471627D01*
X1998286Y1476221D02*
X2000104D01*
X2000286Y1474252*
X2000104Y1474471*
X1999559Y1474690*
X1999013*
X1998468Y1474471*
X1998104Y1474033*
X1997922Y1473377*
X1998104Y1472940*
X1998286Y1472283*
X1998650Y1471846*
X1999195Y1471627*
X1999741*
X2000286Y1471846*
X2000468Y1472065*
X2000650Y1472502*
X1993922Y1474690D02*
X1994104Y1474033D01*
X1994468Y1473596*
X1995013Y1473377*
X1995195*
X1995741Y1473596*
X1996104Y1474033*
X1996286Y1474690*
Y1474908*
X1996104Y1475565*
X1995741Y1476002*
X1995195Y1476221*
X1995013*
X1994468Y1476002*
X1994104Y1475565*
X1993922Y1474690*
Y1473596*
X1994104Y1472502*
X1994468Y1471846*
X1995013Y1471627*
X1995377*
X1995922Y1471846*
X1996104Y1472283*
X2091648Y1591923D02*
Y1588642D01*
X2091466Y1587986*
X2091103Y1587548*
X2090557Y1587329*
X2090194*
X2089648Y1587548*
X2089285Y1587986*
X2089103Y1588642*
Y1591923*
X2087103D02*
X2085103D01*
X2086194Y1590173*
X2085648*
X2085285Y1589954*
X2085103Y1589736*
X2084921Y1589079*
Y1588642*
X2085103Y1587986*
X2085466Y1587548*
X2086012Y1587329*
X2086557*
X2087103Y1587548*
X2087285Y1587767*
X2087466Y1588204*
X2083285Y1591048D02*
X2082921Y1591267D01*
X2082375Y1591923*
Y1587329*
X2031388Y1741058D02*
X2031570Y1741495D01*
X2031933Y1741933*
X2032297Y1742151*
X2033024*
X2033388Y1741933*
X2033752Y1741495*
X2033933Y1741058*
X2034115Y1740401*
Y1739308*
X2033933Y1738651*
X2033752Y1738214*
X2033388Y1737776*
X2033024Y1737558*
X2032297*
X2031933Y1737776*
X2031570Y1738214*
X2031388Y1738651*
X2029388Y1742151D02*
X2027388D01*
X2028479Y1740401*
X2027933*
X2027570Y1740183*
X2027388Y1739964*
X2027206Y1739308*
Y1738870*
X2027388Y1738214*
X2027752Y1737776*
X2028297Y1737558*
X2028843*
X2029388Y1737776*
X2029570Y1737995*
X2029752Y1738433*
X2025388Y1741058D02*
Y1741276D01*
X2025206Y1741714*
X2025024Y1741933*
X2024661Y1742151*
X2023933*
X2023570Y1741933*
X2023388Y1741714*
X2023206Y1741276*
Y1740839*
X2023388Y1740401*
X2023752Y1739745*
X2025570Y1737558*
X2023024*
X2014713Y1704061D02*
X2014895Y1704499D01*
X2015259Y1704936*
X2015622Y1705155*
X2016350*
X2016713Y1704936*
X2017077Y1704499*
X2017259Y1704061*
X2017440Y1703405*
Y1702311*
X2017259Y1701655*
X2017077Y1701218*
X2016713Y1700780*
X2016350Y1700561*
X2015622*
X2015259Y1700780*
X2014895Y1701218*
X2014713Y1701655*
X2012713Y1705155D02*
X2010713D01*
X2011804Y1703405*
X2011259*
X2010895Y1703186*
X2010713Y1702968*
X2010531Y1702311*
Y1701874*
X2010713Y1701218*
X2011077Y1700780*
X2011622Y1700561*
X2012168*
X2012713Y1700780*
X2012895Y1700999*
X2013077Y1701436*
X2008895Y1704280D02*
X2008531Y1704499D01*
X2007986Y1705155*
Y1700561*
X2000344Y1722147D02*
X2000526Y1722584D01*
X2000890Y1723022*
X2001253Y1723241*
X2001981*
X2002344Y1723022*
X2002708Y1722584*
X2002890Y1722147*
X2003072Y1721491*
Y1720397*
X2002890Y1719741*
X2002708Y1719303*
X2002344Y1718866*
X2001981Y1718647*
X2001253*
X2000890Y1718866*
X2000526Y1719303*
X2000344Y1719741*
X1998526Y1722147D02*
Y1722366D01*
X1998344Y1722803*
X1998163Y1723022*
X1997799Y1723241*
X1997072*
X1996708Y1723022*
X1996526Y1722803*
X1996344Y1722366*
Y1721928*
X1996526Y1721491*
X1996890Y1720834*
X1998708Y1718647*
X1996163*
X1991981Y1723241D02*
X1993799Y1718647D01*
X1994526Y1723241D02*
X1991981D01*
X1754582Y1754830D02*
X2245418D01*
Y1445170*
X1754582*
Y1754830*
G54D32*
X2100866Y1538277D02*
Y1543277D01*
X2098866Y1540777D02*
X2102866D01*
X1962837Y1569426D02*
X1972655D01*
Y1566471*
X1975460*
Y1569426*
X1985278*
Y1522150*
X1962837*
Y1569426*
X2045144Y1510172D02*
Y1669872D01*
X1910244*
Y1513172*
X1913244Y1510172*
X2045144*
G54D38*
G54D45*
X1960721Y1459256D02*
X1945621D01*
X1921121D02*
X1919621D01*
X1910321D02*
X1908621D01*
X1960721Y1459456D02*
X1945621D01*
X1943121D02*
X1939621D01*
X1936921D02*
X1932021D01*
X1929321D02*
X1928021D01*
X1925321D02*
X1924021D01*
X1921721D02*
X1919021D01*
X1917121D02*
X1912221D01*
X1910921D02*
X1908021D01*
X1960721Y1459656D02*
X1945621D01*
X1943121D02*
X1939021D01*
X1936921D02*
X1932021D01*
X1929321D02*
X1928021D01*
X1925321D02*
X1924021D01*
X1921921D02*
X1918621D01*
X1917121D02*
X1912221D01*
X1911321D02*
X1907621D01*
X1960721Y1459856D02*
X1945621D01*
X1943121D02*
X1938621D01*
X1936921D02*
X1932021D01*
X1929521D02*
X1927821D01*
X1925321D02*
X1924021D01*
X1922121D02*
X1918421D01*
X1917121D02*
X1912221D01*
X1911521D02*
X1907421D01*
X1960721Y1460056D02*
X1945621D01*
X1943121D02*
X1938421D01*
X1936921D02*
X1932021D01*
X1929521D02*
X1927821D01*
X1925321D02*
X1924021D01*
X1922321D02*
X1918221D01*
X1917121D02*
X1912221D01*
X1911721D02*
X1907221D01*
X1960721Y1460256D02*
X1945621D01*
X1943121D02*
X1938221D01*
X1936921D02*
X1932021D01*
X1929521D02*
X1927821D01*
X1925321D02*
X1924021D01*
X1922521D02*
X1920621D01*
X1919921D02*
X1918021D01*
X1917121D02*
X1912221D01*
X1911921D02*
X1910021D01*
X1908921D02*
X1907021D01*
X1960721Y1460456D02*
X1945621D01*
X1943121D02*
X1941821D01*
X1939921D02*
X1938021D01*
X1936921D02*
X1932021D01*
X1929721D02*
X1927621D01*
X1925321D02*
X1924021D01*
X1922721D02*
X1921021D01*
X1919521D02*
X1917821D01*
X1917121D02*
X1912221D01*
X1911921D02*
X1910421D01*
X1908321D02*
X1907021D01*
X1960721Y1460656D02*
X1945621D01*
X1943121D02*
X1941821D01*
X1939521D02*
X1938021D01*
X1936921D02*
X1935621D01*
X1929721D02*
X1927621D01*
X1925321D02*
X1924021D01*
X1922921D02*
X1921421D01*
X1919121D02*
X1917821D01*
X1917121D02*
X1916021D01*
X1911921D02*
X1910821D01*
X1908121D02*
X1906821D01*
X1960721Y1460856D02*
X1945621D01*
X1943121D02*
X1941821D01*
X1939321D02*
X1937821D01*
X1936921D02*
X1935621D01*
X1929721D02*
X1927621D01*
X1925321D02*
X1924021D01*
X1922921D02*
X1921621D01*
X1919121D02*
X1917621D01*
X1917121D02*
X1916021D01*
X1912121D02*
X1910821D01*
X1908121D02*
X1906821D01*
X1960721Y1461056D02*
X1945621D01*
X1943121D02*
X1941821D01*
X1939121D02*
X1937821D01*
X1936921D02*
X1935621D01*
X1929921D02*
X1927421D01*
X1925321D02*
X1924021D01*
X1923121D02*
X1921621D01*
X1918921D02*
X1917621D01*
X1917121D02*
X1916021D01*
X1912121D02*
X1911021D01*
X1907921D02*
X1906821D01*
X1960721Y1461256D02*
X1957621D01*
X1957321D02*
X1945621D01*
X1943121D02*
X1941821D01*
X1939121D02*
X1937621D01*
X1936921D02*
X1935621D01*
X1929921D02*
X1928821D01*
X1928521D02*
X1927421D01*
X1925321D02*
X1924021D01*
X1923121D02*
X1921821D01*
X1918921D02*
X1917621D01*
X1917121D02*
X1916021D01*
X1912121D02*
X1911021D01*
X1907921D02*
X1906821D01*
X1960721Y1461456D02*
X1957621D01*
X1956921D02*
X1945621D01*
X1943121D02*
X1941821D01*
X1938921D02*
X1937621D01*
X1936921D02*
X1935621D01*
X1929921D02*
X1928821D01*
X1928521D02*
X1927421D01*
X1925321D02*
X1924021D01*
X1923121D02*
X1921821D01*
X1918721D02*
X1917621D01*
X1917121D02*
X1916021D01*
X1908121D02*
X1906821D01*
X1960721Y1461656D02*
X1957621D01*
X1956721D02*
X1945621D01*
X1943121D02*
X1941821D01*
X1938921D02*
X1937621D01*
X1936921D02*
X1935621D01*
X1930121D02*
X1928821D01*
X1928521D02*
X1927221D01*
X1925321D02*
X1924021D01*
X1923321D02*
X1922021D01*
X1917121D02*
X1916021D01*
X1908121D02*
X1906821D01*
X1960721Y1461856D02*
X1957621D01*
X1956321D02*
X1945621D01*
X1943121D02*
X1941821D01*
X1938921D02*
X1937621D01*
X1936921D02*
X1935621D01*
X1930121D02*
X1929021D01*
X1928321D02*
X1927221D01*
X1925321D02*
X1924021D01*
X1923321D02*
X1922021D01*
X1917121D02*
X1916021D01*
X1908521D02*
X1906821D01*
X1960721Y1462056D02*
X1957621D01*
X1955921D02*
X1945621D01*
X1943121D02*
X1941821D01*
X1938921D02*
X1937621D01*
X1936921D02*
X1935621D01*
X1930121D02*
X1929021D01*
X1928321D02*
X1927221D01*
X1925321D02*
X1924021D01*
X1923321D02*
X1922021D01*
X1917121D02*
X1916021D01*
X1909121D02*
X1906821D01*
X1960721Y1462256D02*
X1957621D01*
X1955721D02*
X1945621D01*
X1943121D02*
X1941821D01*
X1938921D02*
X1937621D01*
X1936921D02*
X1935621D01*
X1930321D02*
X1929021D01*
X1928321D02*
X1927021D01*
X1925321D02*
X1924021D01*
X1923321D02*
X1922021D01*
X1917121D02*
X1916021D01*
X1910121D02*
X1907021D01*
X1960721Y1462456D02*
X1957621D01*
X1955321D02*
X1945621D01*
X1943121D02*
X1941821D01*
X1938921D02*
X1937421D01*
X1936921D02*
X1932421D01*
X1930321D02*
X1929221D01*
X1928321D02*
X1927021D01*
X1925321D02*
X1924021D01*
X1923321D02*
X1922021D01*
X1917121D02*
X1912821D01*
X1910721D02*
X1907021D01*
X1960721Y1462656D02*
X1957621D01*
X1954921D02*
X1945621D01*
X1943121D02*
X1941821D01*
X1938921D02*
X1937421D01*
X1936921D02*
X1932421D01*
X1930521D02*
X1929221D01*
X1928121D02*
X1927021D01*
X1925321D02*
X1924021D01*
X1923321D02*
X1922021D01*
X1917121D02*
X1912821D01*
X1911121D02*
X1907221D01*
X1960721Y1462856D02*
X1957621D01*
X1954521D02*
X1945621D01*
X1943121D02*
X1941821D01*
X1938921D02*
X1937421D01*
X1936921D02*
X1932421D01*
X1930521D02*
X1929221D01*
X1928121D02*
X1926821D01*
X1925321D02*
X1924021D01*
X1923321D02*
X1922021D01*
X1917121D02*
X1912821D01*
X1911521D02*
X1907621D01*
X1960721Y1463056D02*
X1957621D01*
X1954321D02*
X1945621D01*
X1943121D02*
X1941821D01*
X1938921D02*
X1937621D01*
X1936921D02*
X1932421D01*
X1930521D02*
X1929221D01*
X1928121D02*
X1926821D01*
X1925321D02*
X1924021D01*
X1923321D02*
X1922021D01*
X1917121D02*
X1912821D01*
X1911721D02*
X1908021D01*
X1960721Y1463256D02*
X1957621D01*
X1953921D02*
X1945621D01*
X1943121D02*
X1941821D01*
X1938921D02*
X1937621D01*
X1936921D02*
X1932421D01*
X1930721D02*
X1929421D01*
X1927921D02*
X1926821D01*
X1925321D02*
X1924021D01*
X1923321D02*
X1922021D01*
X1917121D02*
X1912821D01*
X1911921D02*
X1908821D01*
X1960721Y1463456D02*
X1957621D01*
X1953521D02*
X1945621D01*
X1943121D02*
X1941821D01*
X1938921D02*
X1937621D01*
X1936921D02*
X1932421D01*
X1930721D02*
X1929421D01*
X1927921D02*
X1926621D01*
X1925321D02*
X1924021D01*
X1923321D02*
X1922021D01*
X1917121D02*
X1912821D01*
X1911921D02*
X1909821D01*
X1960721Y1463656D02*
X1957621D01*
X1953321D02*
X1945621D01*
X1943121D02*
X1941821D01*
X1938921D02*
X1937621D01*
X1936921D02*
X1935621D01*
X1930721D02*
X1929421D01*
X1927921D02*
X1926621D01*
X1925321D02*
X1924021D01*
X1923321D02*
X1922021D01*
X1917121D02*
X1916021D01*
X1911921D02*
X1910421D01*
X1960721Y1463856D02*
X1957621D01*
X1952921D02*
X1945621D01*
X1943121D02*
X1941821D01*
X1939121D02*
X1937621D01*
X1936921D02*
X1935621D01*
X1930921D02*
X1929621D01*
X1927721D02*
X1926621D01*
X1925321D02*
X1924021D01*
X1923321D02*
X1922021D01*
X1917121D02*
X1916021D01*
X1912121D02*
X1910621D01*
X1960721Y1464056D02*
X1957621D01*
X1952521D02*
X1945621D01*
X1943121D02*
X1941821D01*
X1939121D02*
X1937821D01*
X1936921D02*
X1935621D01*
X1930921D02*
X1929621D01*
X1927721D02*
X1926421D01*
X1925321D02*
X1924021D01*
X1923321D02*
X1921821D01*
X1918921D02*
X1917621D01*
X1917121D02*
X1916021D01*
X1912121D02*
X1910821D01*
X1960721Y1464256D02*
X1957621D01*
X1952321D02*
X1945621D01*
X1943121D02*
X1941821D01*
X1939321D02*
X1937821D01*
X1936921D02*
X1935621D01*
X1930921D02*
X1929621D01*
X1927721D02*
X1926421D01*
X1925321D02*
X1924021D01*
X1923121D02*
X1921821D01*
X1918921D02*
X1917621D01*
X1917121D02*
X1916021D01*
X1912121D02*
X1910821D01*
X1908121D02*
X1907021D01*
X1960721Y1464456D02*
X1957621D01*
X1951921D02*
X1945621D01*
X1943121D02*
X1941821D01*
X1939521D02*
X1937821D01*
X1936921D02*
X1935621D01*
X1931121D02*
X1929821D01*
X1927721D02*
X1926421D01*
X1925321D02*
X1924021D01*
X1923121D02*
X1921621D01*
X1919121D02*
X1917821D01*
X1917121D02*
X1916021D01*
X1912121D02*
X1910821D01*
X1908321D02*
X1907021D01*
X1960721Y1464656D02*
X1957621D01*
X1951521D02*
X1945621D01*
X1943121D02*
X1941821D01*
X1939721D02*
X1938021D01*
X1936921D02*
X1935621D01*
X1931121D02*
X1929821D01*
X1927521D02*
X1926221D01*
X1925321D02*
X1924021D01*
X1922921D02*
X1921421D01*
X1919321D02*
X1917821D01*
X1917121D02*
X1916021D01*
X1911921D02*
X1910821D01*
X1908321D02*
X1907021D01*
X1960721Y1464856D02*
X1957621D01*
X1951121D02*
X1945621D01*
X1943121D02*
X1941821D01*
X1940121D02*
X1938221D01*
X1936921D02*
X1935621D01*
X1931121D02*
X1929821D01*
X1927521D02*
X1926221D01*
X1925321D02*
X1924021D01*
X1922921D02*
X1921221D01*
X1919521D02*
X1918021D01*
X1917121D02*
X1916021D01*
X1911921D02*
X1910621D01*
X1908521D02*
X1907221D01*
X1960721Y1465056D02*
X1957621D01*
X1950921D02*
X1945621D01*
X1943121D02*
X1938221D01*
X1936921D02*
X1932021D01*
X1931321D02*
X1930021D01*
X1927521D02*
X1926221D01*
X1925321D02*
X1924021D01*
X1922721D02*
X1920821D01*
X1919921D02*
X1918021D01*
X1917121D02*
X1912421D01*
X1911721D02*
X1910221D01*
X1908721D02*
X1907221D01*
X1960721Y1465256D02*
X1957621D01*
X1950521D02*
X1945621D01*
X1943121D02*
X1938421D01*
X1936921D02*
X1932021D01*
X1931321D02*
X1930021D01*
X1927321D02*
X1926021D01*
X1925321D02*
X1924021D01*
X1922521D02*
X1918221D01*
X1917121D02*
X1912421D01*
X1911721D02*
X1907221D01*
X1960721Y1465456D02*
X1957621D01*
X1950121D02*
X1945621D01*
X1943121D02*
X1938621D01*
X1936921D02*
X1932021D01*
X1931321D02*
X1930021D01*
X1927321D02*
X1926021D01*
X1925321D02*
X1924021D01*
X1922321D02*
X1918421D01*
X1917121D02*
X1912421D01*
X1911521D02*
X1907421D01*
X1960721Y1465656D02*
X1957621D01*
X1949921D02*
X1945621D01*
X1943121D02*
X1939021D01*
X1936921D02*
X1932021D01*
X1931521D02*
X1930021D01*
X1927321D02*
X1926021D01*
X1925321D02*
X1924021D01*
X1922121D02*
X1918621D01*
X1917121D02*
X1912421D01*
X1911321D02*
X1907621D01*
X1960721Y1465856D02*
X1957621D01*
X1949521D02*
X1945621D01*
X1943121D02*
X1939421D01*
X1936921D02*
X1932021D01*
X1931521D02*
X1930221D01*
X1927121D02*
X1925821D01*
X1925321D02*
X1924021D01*
X1921921D02*
X1919021D01*
X1917121D02*
X1912421D01*
X1910921D02*
X1908021D01*
X1960721Y1466056D02*
X1957621D01*
X1949121D02*
X1945621D01*
X1943121D02*
X1940021D01*
X1936921D02*
X1932021D01*
X1931521D02*
X1930221D01*
X1927121D02*
X1925821D01*
X1925321D02*
X1924021D01*
X1921321D02*
X1919621D01*
X1917121D02*
X1912421D01*
X1910321D02*
X1908421D01*
X1960721Y1466256D02*
X1957621D01*
X1948921D02*
X1945621D01*
X1960721Y1466456D02*
X1957621D01*
X1948521D02*
X1945621D01*
X1960721Y1466656D02*
X1957621D01*
X1948121D02*
X1945621D01*
X1960721Y1466856D02*
X1957621D01*
X1948521D02*
X1945621D01*
X1960721Y1467056D02*
X1957621D01*
X1948921D02*
X1945621D01*
X1960721Y1467256D02*
X1957621D01*
X1949121D02*
X1945621D01*
X1960721Y1467456D02*
X1957621D01*
X1949521D02*
X1945621D01*
X1960721Y1467656D02*
X1957621D01*
X1949921D02*
X1945621D01*
X1943121D02*
X1941821D01*
X1938321D02*
X1937021D01*
X1936521D02*
X1935221D01*
X1932321D02*
X1931021D01*
X1930721D02*
X1929421D01*
X1925721D02*
X1924621D01*
X1924121D02*
X1919821D01*
X1917721D02*
X1915621D01*
X1910921D02*
X1909221D01*
X1960721Y1467856D02*
X1957621D01*
X1950321D02*
X1945621D01*
X1942921D02*
X1941821D01*
X1938321D02*
X1937021D01*
X1936521D02*
X1935221D01*
X1932321D02*
X1931021D01*
X1930521D02*
X1929421D01*
X1925921D02*
X1924621D01*
X1924121D02*
X1919821D01*
X1918121D02*
X1915221D01*
X1911321D02*
X1908821D01*
X1907921D02*
X1907021D01*
X1960721Y1468056D02*
X1957621D01*
X1950521D02*
X1945621D01*
X1942921D02*
X1941621D01*
X1938321D02*
X1937021D01*
X1936521D02*
X1935221D01*
X1932521D02*
X1931021D01*
X1930521D02*
X1929221D01*
X1925921D02*
X1924621D01*
X1924121D02*
X1919821D01*
X1918521D02*
X1914821D01*
X1911721D02*
X1908621D01*
X1907921D02*
X1907021D01*
X1960721Y1468256D02*
X1957621D01*
X1950921D02*
X1945621D01*
X1942921D02*
X1941621D01*
X1938521D02*
X1937221D01*
X1936521D02*
X1935221D01*
X1932721D02*
X1931021D01*
X1930521D02*
X1929221D01*
X1926121D02*
X1924821D01*
X1924121D02*
X1919821D01*
X1918721D02*
X1914621D01*
X1911921D02*
X1908421D01*
X1907921D02*
X1907021D01*
X1960721Y1468456D02*
X1957621D01*
X1951321D02*
X1945621D01*
X1942721D02*
X1941621D01*
X1938521D02*
X1937221D01*
X1936521D02*
X1935221D01*
X1932721D02*
X1931021D01*
X1930321D02*
X1929221D01*
X1926121D02*
X1924821D01*
X1924121D02*
X1919821D01*
X1918921D02*
X1914421D01*
X1912121D02*
X1907021D01*
X1960721Y1468656D02*
X1957621D01*
X1951721D02*
X1945621D01*
X1942721D02*
X1941421D01*
X1938521D02*
X1937421D01*
X1936521D02*
X1935221D01*
X1932921D02*
X1931021D01*
X1930321D02*
X1929021D01*
X1926121D02*
X1924821D01*
X1924121D02*
X1919821D01*
X1919121D02*
X1917021D01*
X1916521D02*
X1914221D01*
X1912321D02*
X1910421D01*
X1909521D02*
X1907021D01*
X1960721Y1468856D02*
X1957621D01*
X1952121D02*
X1945621D01*
X1942721D02*
X1941421D01*
X1938721D02*
X1937421D01*
X1936521D02*
X1935221D01*
X1932921D02*
X1931021D01*
X1930321D02*
X1929021D01*
X1926321D02*
X1925021D01*
X1924121D02*
X1922821D01*
X1919321D02*
X1917621D01*
X1915721D02*
X1914221D01*
X1912521D02*
X1911021D01*
X1908921D02*
X1907021D01*
X1960721Y1469056D02*
X1957621D01*
X1952321D02*
X1945621D01*
X1942521D02*
X1941421D01*
X1938721D02*
X1937421D01*
X1936521D02*
X1935221D01*
X1933121D02*
X1931021D01*
X1930121D02*
X1929021D01*
X1926321D02*
X1925021D01*
X1924121D02*
X1922821D01*
X1919321D02*
X1917821D01*
X1915521D02*
X1914021D01*
X1912721D02*
X1911221D01*
X1908721D02*
X1907021D01*
X1960721Y1469256D02*
X1957621D01*
X1952721D02*
X1945621D01*
X1942521D02*
X1937621D01*
X1936521D02*
X1935221D01*
X1933321D02*
X1931021D01*
X1930121D02*
X1925221D01*
X1924121D02*
X1922821D01*
X1919521D02*
X1918021D01*
X1915321D02*
X1914021D01*
X1912721D02*
X1911421D01*
X1908521D02*
X1907021D01*
X1960721Y1469456D02*
X1957621D01*
X1953121D02*
X1945621D01*
X1942521D02*
X1937621D01*
X1936521D02*
X1935221D01*
X1933321D02*
X1931021D01*
X1930121D02*
X1925221D01*
X1924121D02*
X1922821D01*
X1919521D02*
X1918221D01*
X1915121D02*
X1913821D01*
X1912721D02*
X1911621D01*
X1908321D02*
X1907021D01*
X1960721Y1469656D02*
X1957621D01*
X1953521D02*
X1945621D01*
X1942321D02*
X1937621D01*
X1936521D02*
X1935221D01*
X1933521D02*
X1931021D01*
X1929921D02*
X1925221D01*
X1924121D02*
X1922821D01*
X1919721D02*
X1918221D01*
X1915121D02*
X1913821D01*
X1912921D02*
X1911621D01*
X1908121D02*
X1907021D01*
X1960721Y1469856D02*
X1957621D01*
X1953721D02*
X1945621D01*
X1942321D02*
X1937821D01*
X1936521D02*
X1935221D01*
X1933721D02*
X1931021D01*
X1929921D02*
X1925421D01*
X1924121D02*
X1922821D01*
X1919721D02*
X1918421D01*
X1914921D02*
X1913621D01*
X1912921D02*
X1911821D01*
X1908121D02*
X1907021D01*
X1960721Y1470056D02*
X1957621D01*
X1954121D02*
X1945621D01*
X1942321D02*
X1937821D01*
X1936521D02*
X1935221D01*
X1933721D02*
X1931021D01*
X1929921D02*
X1925421D01*
X1924121D02*
X1922821D01*
X1919721D02*
X1918421D01*
X1914921D02*
X1913621D01*
X1912921D02*
X1911821D01*
X1908121D02*
X1907021D01*
X1960721Y1470256D02*
X1957621D01*
X1954521D02*
X1945621D01*
X1942121D02*
X1941021D01*
X1939121D02*
X1938021D01*
X1936521D02*
X1935221D01*
X1933921D02*
X1932621D01*
X1932321D02*
X1931021D01*
X1929721D02*
X1928621D01*
X1926721D02*
X1925421D01*
X1924121D02*
X1922821D01*
X1919721D02*
X1918621D01*
X1914921D02*
X1913621D01*
X1913121D02*
X1911821D01*
X1909721D02*
X1907021D01*
X1960721Y1470456D02*
X1957621D01*
X1954921D02*
X1945621D01*
X1942121D02*
X1941021D01*
X1939121D02*
X1938021D01*
X1936521D02*
X1935221D01*
X1934121D02*
X1932821D01*
X1932321D02*
X1931021D01*
X1929721D02*
X1928621D01*
X1926721D02*
X1925621D01*
X1924121D02*
X1922821D01*
X1919721D02*
X1918621D01*
X1914721D02*
X1913621D01*
X1913121D02*
X1911821D01*
X1909721D02*
X1907021D01*
X1960721Y1470656D02*
X1957621D01*
X1955321D02*
X1945621D01*
X1942121D02*
X1940821D01*
X1939321D02*
X1938021D01*
X1936521D02*
X1935221D01*
X1934121D02*
X1932821D01*
X1932321D02*
X1931021D01*
X1929721D02*
X1928621D01*
X1926921D02*
X1925621D01*
X1924121D02*
X1922821D01*
X1919721D02*
X1918621D01*
X1914721D02*
X1913621D01*
X1913121D02*
X1912021D01*
X1909721D02*
X1907021D01*
X1960721Y1470856D02*
X1957621D01*
X1955521D02*
X1945621D01*
X1941921D02*
X1940821D01*
X1939321D02*
X1938221D01*
X1936521D02*
X1935221D01*
X1934321D02*
X1933021D01*
X1932321D02*
X1931021D01*
X1929521D02*
X1928421D01*
X1926921D02*
X1925821D01*
X1924121D02*
X1922821D01*
X1919921D02*
X1918621D01*
X1914721D02*
X1913621D01*
X1913121D02*
X1912021D01*
X1909721D02*
X1907021D01*
X1960721Y1471056D02*
X1957621D01*
X1955921D02*
X1945621D01*
X1941921D02*
X1940821D01*
X1939321D02*
X1938221D01*
X1936521D02*
X1935221D01*
X1934521D02*
X1933221D01*
X1932321D02*
X1931021D01*
X1929521D02*
X1928421D01*
X1926921D02*
X1925821D01*
X1924121D02*
X1922821D01*
X1919921D02*
X1918621D01*
X1914721D02*
X1913621D01*
X1913121D02*
X1912021D01*
X1909721D02*
X1907021D01*
X1960721Y1471256D02*
X1957621D01*
X1956321D02*
X1945621D01*
X1941921D02*
X1940621D01*
X1939521D02*
X1938221D01*
X1936521D02*
X1935221D01*
X1934521D02*
X1933221D01*
X1932321D02*
X1931021D01*
X1929521D02*
X1928421D01*
X1927121D02*
X1925821D01*
X1924121D02*
X1922821D01*
X1919721D02*
X1918621D01*
X1914721D02*
X1913621D01*
X1913121D02*
X1912021D01*
X1960721Y1471456D02*
X1957621D01*
X1956721D02*
X1945621D01*
X1941721D02*
X1940621D01*
X1939521D02*
X1938421D01*
X1936521D02*
X1935221D01*
X1934721D02*
X1933421D01*
X1932321D02*
X1931021D01*
X1929321D02*
X1928221D01*
X1927121D02*
X1926021D01*
X1924121D02*
X1922821D01*
X1919721D02*
X1918621D01*
X1914721D02*
X1913621D01*
X1913121D02*
X1911821D01*
X1960721Y1471656D02*
X1957621D01*
X1956921D02*
X1945621D01*
X1941721D02*
X1940621D01*
X1939521D02*
X1938421D01*
X1936521D02*
X1935221D01*
X1934921D02*
X1933621D01*
X1932321D02*
X1931021D01*
X1929321D02*
X1928221D01*
X1927121D02*
X1926021D01*
X1924121D02*
X1922821D01*
X1919721D02*
X1918621D01*
X1914921D02*
X1913621D01*
X1913121D02*
X1911821D01*
X1960721Y1471856D02*
X1957621D01*
X1957321D02*
X1945621D01*
X1941721D02*
X1940421D01*
X1939721D02*
X1938621D01*
X1936521D02*
X1935221D01*
X1934921D02*
X1933621D01*
X1932321D02*
X1931021D01*
X1929321D02*
X1928221D01*
X1927321D02*
X1926021D01*
X1924121D02*
X1922821D01*
X1919721D02*
X1918421D01*
X1914921D02*
X1913621D01*
X1912921D02*
X1911821D01*
X1960721Y1472056D02*
X1945621D01*
X1941521D02*
X1940421D01*
X1939721D02*
X1938621D01*
X1936521D02*
X1933821D01*
X1932321D02*
X1931021D01*
X1929121D02*
X1928021D01*
X1927321D02*
X1926221D01*
X1924121D02*
X1922821D01*
X1919721D02*
X1918421D01*
X1914921D02*
X1913621D01*
X1912921D02*
X1911821D01*
X1960721Y1472256D02*
X1945621D01*
X1941521D02*
X1940421D01*
X1939721D02*
X1938621D01*
X1936521D02*
X1933821D01*
X1932321D02*
X1931021D01*
X1929121D02*
X1928021D01*
X1927321D02*
X1926221D01*
X1924121D02*
X1922821D01*
X1919721D02*
X1918421D01*
X1915121D02*
X1913821D01*
X1912921D02*
X1911621D01*
X1908321D02*
X1908021D01*
X1960721Y1472456D02*
X1945621D01*
X1941521D02*
X1940421D01*
X1939921D02*
X1938821D01*
X1936521D02*
X1934021D01*
X1932321D02*
X1931021D01*
X1929121D02*
X1928021D01*
X1927521D02*
X1926421D01*
X1924121D02*
X1922821D01*
X1919521D02*
X1918221D01*
X1915121D02*
X1913821D01*
X1912921D02*
X1911621D01*
X1908321D02*
X1907221D01*
X1960721Y1472656D02*
X1945621D01*
X1941321D02*
X1940221D01*
X1939921D02*
X1938821D01*
X1936521D02*
X1934221D01*
X1932321D02*
X1931021D01*
X1928921D02*
X1927821D01*
X1927521D02*
X1926421D01*
X1924121D02*
X1922821D01*
X1919521D02*
X1918021D01*
X1915321D02*
X1913821D01*
X1912721D02*
X1911421D01*
X1908521D02*
X1907221D01*
X1960721Y1472856D02*
X1945621D01*
X1941321D02*
X1940221D01*
X1939921D02*
X1938821D01*
X1936521D02*
X1934221D01*
X1932321D02*
X1931021D01*
X1928921D02*
X1927821D01*
X1927521D02*
X1926421D01*
X1924121D02*
X1922821D01*
X1919321D02*
X1918021D01*
X1915521D02*
X1914021D01*
X1912721D02*
X1911221D01*
X1908721D02*
X1907421D01*
X1960721Y1473056D02*
X1945621D01*
X1941121D02*
X1939021D01*
X1936521D02*
X1934421D01*
X1932321D02*
X1931021D01*
X1928921D02*
X1926621D01*
X1924121D02*
X1922821D01*
X1919321D02*
X1917821D01*
X1915721D02*
X1914221D01*
X1912521D02*
X1911021D01*
X1908921D02*
X1907421D01*
X1960721Y1473256D02*
X1945621D01*
X1941121D02*
X1939021D01*
X1936521D02*
X1934621D01*
X1932321D02*
X1931021D01*
X1928721D02*
X1926621D01*
X1924121D02*
X1922821D01*
X1919121D02*
X1917421D01*
X1916121D02*
X1914221D01*
X1912321D02*
X1910821D01*
X1909121D02*
X1907621D01*
X1960721Y1473456D02*
X1945621D01*
X1941121D02*
X1939221D01*
X1936521D02*
X1934621D01*
X1932321D02*
X1931021D01*
X1928721D02*
X1926821D01*
X1924121D02*
X1922821D01*
X1918921D02*
X1914421D01*
X1912321D02*
X1907821D01*
X1960721Y1473656D02*
X1945621D01*
X1940921D02*
X1939221D01*
X1936521D02*
X1934821D01*
X1932321D02*
X1931021D01*
X1928721D02*
X1926821D01*
X1924121D02*
X1922821D01*
X1918721D02*
X1914621D01*
X1912121D02*
X1907821D01*
X1960721Y1473856D02*
X1945621D01*
X1940921D02*
X1939221D01*
X1936521D02*
X1935021D01*
X1932321D02*
X1931021D01*
X1928521D02*
X1926821D01*
X1924121D02*
X1922821D01*
X1918521D02*
X1914821D01*
X1911721D02*
X1908221D01*
X1960721Y1474056D02*
X1945621D01*
X1940921D02*
X1939421D01*
X1936521D02*
X1935021D01*
X1932321D02*
X1931021D01*
X1928521D02*
X1927021D01*
X1924121D02*
X1922821D01*
X1918321D02*
X1915021D01*
X1911521D02*
X1908421D01*
X1960721Y1474256D02*
X1945621D01*
X1940721D02*
X1939421D01*
X1936521D02*
X1935221D01*
X1932321D02*
X1931021D01*
X1928521D02*
X1927021D01*
X1924121D02*
X1922821D01*
X1917921D02*
X1915421D01*
X1911121D02*
X1908821D01*
X1917121Y1474456D02*
X1916221D01*
X1910321D02*
X1909421D01*
X0Y0D02*
M02*
